<?xml version="1.0" encoding="UTF-8"?>
<svg id="Ebene_1" data-name="Ebene 1" xmlns="http://www.w3.org/2000/svg" viewBox="0 0 1150.91 376.32">
  <defs>
    <style>
      .cls-1 {
        fill: #f4f3f2;
      }

      .cls-2 {
        fill: #0a462b;
      }

      .cls-3 {
        fill: #462922;
      }
    </style>
  </defs>
  <path class="cls-1" d="M1145.2,78.7h-373.52c.33-1.72.59-3.5.74-5.33,1-12.17-5.04-21.74-15.79-25.08l-.06-.03s-.11-.05-.16-.07c-3.4-10.48-11.43-17.36-22.59-18.91-1.94-.27-3.93-.41-5.9-.41-3.78,0-7.61.5-11.42,1.49l-6.97-.1c-.19,0-.37,0-.56,0-7.33,0-13.08,2.29-17.07,6.8-.5.56-.95,1.14-1.36,1.73-3.11,1-6.31,2-9.41,2.96-2.99.93-6.08,1.89-9.14,2.87-1.34.43-2.59.97-3.75,1.61-5.11-4.21-11.14-7.65-18.06-10.29-10.43-3.99-21.57-5.98-34.01-6.09.28-1.34.43-2.83.38-4.48-.22-7.43-3.59-12.27-8.06-14.82-3.22-5.03-7.87-6.9-9.83-7.69-.14-.06-.28-.11-.43-.17C593.99.91,589.48,0,584.83,0c-6.73,0-12.73,1.91-16.65,3.35-11.46,4.2-18.24,11.64-19.91,21.52-1.84.89-3.59,2.02-5.2,3.39-2.63.75-4.98,2.21-6.85,4.27-1.34,1.48-2.36,3.2-3.02,5.08-1.87.29-3.78.59-5.7.91-6.88,1.17-13.81,2.44-20.52,3.66-12.58,2.3-25.58,4.68-38.32,6.39-12.97,1.74-17.63,9.15-19.26,15.06-1.09,3.96-1.67,9.17-.27,15.07H5.7c-3.15,0-5.7,2.55-5.7,5.7v286.21c0,3.15,2.55,5.7,5.7,5.7h1139.5c3.15,0,5.7-2.55,5.7-5.7V84.41c0-3.15-2.55-5.7-5.7-5.7ZM598.14,18.81c-1.12.14-2.24.27-3.36.38-1.12.12-2.24.23-3.35.34,1.12-.11,2.24-.22,3.35-.34,1.12-.12,2.24-.24,3.36-.38h0ZM700.05,62.54c.31-.12.62-.23.93-.34-.3.11-.61.22-.93.34-1.42.54-2.85,1.06-4.28,1.56,1.43-.5,2.86-1.02,4.28-1.56ZM721.59,66.04s.06.06.1.08c-.03-.03-.07-.05-.1-.08ZM722.51,74.23c-.06.01-.11.01-.16.02.05,0,.11,0,.16-.02ZM722.15,74.27s0,0-.01,0c-.06,0-.11-.01-.17-.02.06,0,.12.02.18.02ZM721.81,74.24c-.06-.01-.12-.04-.18-.06.06.02.12.04.18.06ZM721.82,66.23s.07.04.11.06c-.04-.02-.07-.04-.11-.06ZM722.06,66.37s.07.03.11.04c-.04-.01-.07-.03-.11-.04ZM722.31,66.45s.08.02.12.02c-.04,0-.08-.01-.12-.02ZM722.57,66.5s.08,0,.12,0c-.04,0-.08,0-.12,0ZM722.86,74.13c-.06.02-.11.03-.17.05.06-.02.11-.03.17-.05ZM725.16,72.33c.07-.08.15-.16.23-.24-.08.08-.16.16-.23.24-.06.06-.12.12-.17.18.06-.06.11-.12.17-.18ZM724.76,72.75c-.06.06-.12.12-.18.18.06-.06.12-.12.18-.18ZM724.37,73.13c-.06.06-.12.11-.19.16.06-.05.12-.1.19-.16ZM723.98,73.46c-.06.05-.11.08-.17.12.06-.04.11-.08.17-.12ZM723.6,73.74c-.05.04-.11.07-.16.1.05-.03.11-.06.16-.1ZM723.23,73.97c-.06.03-.11.05-.17.08.06-.03.11-.05.17-.08ZM722.79,66.5c.18,0,.36-.02.54-.06-.19.04-.37.06-.54.06ZM723.4,66.43c.19-.04.38-.09.58-.15-.2.06-.39.11-.58.15ZM724.06,66.26c.07-.02.15-.04.22-.07-.07.02-.15.05-.22.07ZM724.52,66.12c.05-.02.1-.03.16-.05-.05.02-.1.03-.16.05ZM730.35,68.32c-.17.25-.37.49-.6.72.23-.23.43-.47.6-.72ZM729.72,69.06c-.22.22-.46.42-.73.62.26-.19.51-.4.73-.62ZM729.15,63.96s.04-.01.06-.01c.02,0,.04,0,.05,0-.04,0-.08,0-.12,0ZM729.46,63.99s.09.02.13.03c-.04-.01-.09-.02-.13-.03ZM729.77,64.11s.08.04.12.07c-.04-.03-.08-.05-.12-.07ZM730.09,64.36s.07.06.1.1c-.03-.04-.07-.06-.1-.1ZM730.85,65.8c.08.31.1.61.09.9.02-.29,0-.59-.09-.9ZM728.32,64.21s-.07.04-.11.06c.04-.02.07-.04.11-.06ZM728.8,64.02s-.04,0-.07.02c.02,0,.04,0,.07-.02ZM726.94,65.08c.13-.09.25-.17.38-.26-.13.09-.25.17-.38.26ZM727.76,64.52s.06-.04.09-.06c-.03.02-.06.04-.09.06ZM725.33,65.9c.14-.03.29-.08.44-.14-.15.06-.29.11-.44.14ZM725.89,65.7c.13-.06.25-.12.38-.2-.13.07-.25.14-.38.2ZM726.33,65.47c.15-.09.3-.19.45-.29-.15.1-.3.2-.45.29ZM726.91,70.88c-.24.13-.47.28-.69.45.22-.17.45-.32.69-.45ZM720.67,55.41c.11-.07.23-.13.35-.19-.12.06-.23.12-.35.19ZM721.68,54.91c.12-.05.23-.1.35-.14-.12.04-.24.09-.35.14ZM722.87,54.51c.09-.02.17-.05.25-.07-.09.02-.17.05-.25.07ZM724.26,54.21c.09-.01.19-.02.28-.03-.09.01-.19.02-.28.03ZM721.46,65.9s-.06-.07-.09-.1c.03.04.06.07.09.1ZM721.24,65.59s-.05-.07-.07-.11c.02.04.05.07.07.11ZM721.48,74.13c-.06-.03-.12-.07-.18-.1.06.03.12.07.18.1ZM721.15,73.95c-.06-.04-.12-.1-.18-.15.06.05.12.11.18.15ZM720.82,73.69c-.06-.06-.12-.13-.18-.2.06.07.12.14.18.2ZM720.51,73.34c-.06-.08-.12-.17-.19-.26.06.09.12.18.19.26ZM720.2,72.91c-.06-.1-.13-.22-.19-.33.06.11.13.23.19.33ZM719.89,72.39c-.09-.17-.17-.35-.26-.54.09.19.17.37.26.54ZM719.6,71.77c-.07-.15-.16-.29-.27-.41.11.13.2.26.27.41ZM719.29,71.3c-.11-.12-.24-.22-.38-.31.14.09.27.19.38.31ZM718.34,70.74c.18.05.34.12.49.2-.15-.08-.31-.15-.49-.2ZM719.67,76.63c-.01-.47-.12-.97-.3-1.48.17.51.28,1.01.3,1.48ZM729.42,41.94c.22.01.43.01.65.03-.22-.02-.43-.02-.65-.03ZM726.66,54.08c.11,0,.22,0,.32.01-.11,0-.22,0-.32-.01ZM725.43,54.1c.14,0,.27-.01.41-.01-.14,0-.27,0-.41.01ZM719.4,43.08c.42-.11.84-.22,1.26-.32-.42.1-.84.2-1.26.32ZM721.07,42.66c.54-.12,1.08-.23,1.62-.32-.54.09-1.08.2-1.62.32ZM723,42.3c.45-.07.9-.13,1.35-.19-.45.05-.9.11-1.35.19ZM724.83,42.06c.47-.05.94-.08,1.4-.11-.47.03-.94.06-1.4.11ZM720.05,55.81c-.09.07-.19.13-.28.2.09-.07.18-.13.28-.2ZM718.25,70.72c-.19-.04-.39-.07-.62-.07.22,0,.43.03.62.07ZM717.65,72.51c-.2-.25-.36-.51-.44-.81.09.3.25.57.44.81ZM719.61,77.46c-.08.44-.26.85-.49,1.25h0c.23-.4.41-.81.49-1.25ZM707.41,63.55c-.14-.18-.29-.34-.43-.49.14.15.29.31.43.49.62.76,1.1,1.54,1.46,2.33-.36-.79-.84-1.57-1.46-2.33ZM706.84,62.93c-.1-.09-.2-.19-.29-.27.1.08.2.18.29.27ZM705.66,62.07c.09.04.17.1.26.15-.09-.05-.17-.1-.26-.15ZM706.11,62.33c.09.06.18.13.27.2-.09-.07-.18-.14-.27-.2ZM709.15,71.39c.3-.91.45-1.79.43-2.64.02.85-.13,1.74-.43,2.64ZM707.57,47.25c-.2.38-.39.77-.55,1.17-.16.4-.28.82-.35,1.25.07-.44.2-.85.35-1.25.16-.4.35-.79.55-1.17.2-.38.42-.76.63-1.13-.21.37-.42.75-.63,1.13ZM707.05,43.38c.22-.02.45-.05.68-.06-.24.01-.46.04-.68.06ZM703.68,44.22c.16-.07.32-.15.49-.22-.17.07-.33.14-.49.22ZM704.68,43.84c.18-.06.36-.12.55-.16-.19.05-.37.11-.55.16ZM705.8,43.56c.2-.04.4-.08.62-.11-.21.03-.41.07-.62.11ZM705.46,61.98c-.08-.04-.17-.08-.25-.11.08.03.17.07.25.11ZM705.01,61.81c-.08-.03-.17-.05-.25-.07.08.02.17.05.25.07ZM704.55,61.7c-.08-.01-.17-.03-.25-.04.08.01.17.03.25.04ZM704.08,61.64c-.08,0-.17-.01-.25-.01.08,0,.17,0,.25.01ZM702.9,61.69c.27-.04.53-.06.79-.07-.26,0-.53.02-.79.07ZM701.02,62.19c.29-.1.58-.19.87-.27-.29.08-.58.17-.87.27ZM701.97,61.89c.28-.07.55-.13.83-.18-.27.05-.55.1-.83.18ZM695.01,78.6c-1.8-1-3.7-1.91-5.69-2.71,1.99.8,3.89,1.71,5.69,2.71ZM681.97,78.7c-1.36-.36-2.74-.68-4.18-.94-.28-.05-.54-.09-.78-.11.24.03.5.06.78.11,1.44.26,2.83.58,4.18.94h0ZM674.4,78.7h-.01c.01-.08.03-.16.05-.23-.02.07-.03.15-.04.23ZM674.47,78.39c.05-.12.11-.24.19-.33-.08.09-.14.21-.19.33ZM674.69,78.04c.08-.09.18-.16.3-.22-.11.06-.22.13-.3.22ZM675.06,77.78c.13-.06.27-.1.43-.13-.16.03-.3.08-.43.13ZM675.59,77.63c.16-.02.33-.04.53-.04-.19,0-.37.02-.53.04ZM676.18,77.59c.2,0,.42.02.66.04-.23-.02-.46-.04-.66-.04ZM549.65,48.21s0,0,0,0c0,0,0,0,0,0h0ZM551.35,48.72s-.06-.05-.09-.07c.03.02.06.05.09.07ZM550.86,48.41s0,0,0,0c0,0,0,0,0,0ZM550.37,48.28s-.09-.02-.14-.02c.05,0,.09.01.14.02ZM551.65,49.08s0,0,0,0c0,0,0,0,0,0ZM551.96,50.34s0,0,0,0c0,0,0,0,0,0ZM551.87,49.71s-.02-.1-.04-.14c.01.05.02.09.04.14ZM551.76,52.33h0s0,0,0,0c-.16.81-.25,1.64-.27,2.46.02-.82.11-1.65.27-2.46ZM551.93,51.14c0,.07-.01.15-.02.22,0-.08.02-.15.02-.22ZM596,44.45c-1.49.49-1.96,1.3-1.98,3.1.01-1.8.49-2.62,1.98-3.1ZM595.49,62.63c-.48.31-.92.7-1.3,1.21.38-.51.82-.89,1.3-1.21ZM593.56,64.61c-.07.08-.14.15-.21.22.07-.07.14-.14.21-.22ZM592.66,65.5c.08-.07.16-.14.25-.22-.08.08-.16.15-.25.22ZM599.99,61.46c-.76.11-1.52.23-2.28.34.76-.12,1.52-.23,2.28-.34ZM597.87,35.22c.54-.43.9-.97.93-1.64,0-.13,0-.27-.02-.42,0-.02,0-.03-.01-.05,0,.02,0,.03.01.05.02.14.03.28.02.42-.03.67-.39,1.21-.93,1.64ZM598.67,32.71c-.02-.05-.04-.1-.07-.14.02.05.05.09.07.14ZM598.49,32.34s-.07-.09-.1-.13c.03.04.07.08.1.13ZM598.27,32.04s-.09-.07-.13-.11c.04.04.09.07.13.11ZM597.84,31.74c.05.03.11.05.15.08-.05-.03-.1-.05-.15-.08ZM597.52,35.46c-.48.31-1.06.54-1.65.72-.74.22-1.51.34-2.16.37-1.15.06-2.08.22-2.81.46.73-.24,1.65-.4,2.81-.46.65-.04,1.42-.16,2.16-.37.59-.17,1.17-.41,1.65-.72ZM596.43,31.47s.03,0,.04,0c0,0,.01,0,.02,0-.02,0-.05,0-.07,0ZM596.72,31.48c.07,0,.14,0,.2.01-.07,0-.13,0-.2-.01ZM597.12,31.52c.06,0,.13.02.19.03-.06-.01-.13-.02-.19-.03ZM597.49,31.6c.06.02.12.03.17.05-.05-.02-.12-.04-.17-.05ZM589.87,44.22c1.48,3.33,2.38,6.91,3.57,10.47h0c-1.19-3.55-2.09-7.14-3.57-10.47-.85-1.91-1.4-3.55-1.23-4.82-.17,1.27.38,2.91,1.23,4.82ZM592.23,65.86c-.08.06-.17.13-.25.19.08-.06.17-.12.25-.19ZM591.51,66.35c-.08.05-.15.1-.23.14.08-.04.16-.09.23-.14ZM590.68,66.78s-.07.04-.11.05c.04-.01.07-.03.11-.05ZM589.09,67.22c-.09.01-.19.02-.28.03.09,0,.19-.02.28-.03ZM589.84,67.07c-.07.02-.14.03-.21.05.07-.02.14-.03.21-.05ZM588.17,67.29s-.07,0-.11,0c.09,0,.17,0,.26,0-.05,0-.1,0-.15,0ZM582.32,40.39c-.6.08-1.13.19-1.58.33-.45.14-.83.32-1.15.52.32-.2.7-.38,1.15-.52.45-.14.97-.25,1.58-.33h0ZM578.63,56.6c.32.81.72,1.6,1.28,2.36.07-.57.11-1.13.13-1.67-.01.54-.06,1.1-.13,1.67-.55-.76-.96-1.55-1.28-2.36-.32-.81-.55-1.63-.75-2.44.2.82.43,1.64.75,2.44ZM579.63,64.93c-.58.46-.78.99-.77,1.55,0-.55.19-1.09.77-1.55,0,0,0,0,0,0,0,0,0,0,0,0ZM580.61,64.56s-.04,0-.05,0c.02,0,.04,0,.05,0ZM580.12,64.66s-.02.01-.03.02c.01,0,.02-.01.03-.02ZM582.02,65.01s-.04-.02-.06-.03c.02.01.04.02.06.03ZM581.6,64.8s-.09-.04-.13-.05c.04.02.09.04.13.05ZM581.14,64.63s-.07-.02-.1-.03c.03,0,.07.02.1.03ZM580.52,39.51c.16.03.33.08.5.13-.17-.06-.34-.11-.5-.13ZM581.12,39.68c.17.06.34.15.52.25-.18-.1-.35-.18-.52-.25ZM581.74,39.99c.19.11.38.24.58.4-.2-.16-.39-.29-.58-.4ZM579.29,39.53c.22-.04.44-.06.67-.06-.23,0-.45.02-.67.06ZM580.02,39.47c.15,0,.31.01.47.04-.16-.03-.31-.04-.47-.04ZM578.64,39.67c.21-.05.41-.1.63-.14-.22.04-.42.09-.63.14ZM577.98,39.84s.05-.01.07-.02c-.02,0-.05.01-.07.02ZM576.52,49.39c.22.5.4,1.01.55,1.54.23.79.42,1.6.61,2.41-.19-.82-.37-1.62-.61-2.41-.16-.52-.33-1.04-.55-1.54-.22-.5-.48-.98-.8-1.45.32.47.58.95.8,1.45ZM575.63,40.28c.09-.02.18-.05.28-.07-.09.02-.18.05-.28.07ZM576.42,40.09c.08-.02.16-.03.24-.05-.08.01-.16.03-.24.05ZM575.77,60.47c.03-.96-.06-1.87-.23-2.76.17.89.26,1.8.23,2.76h0ZM575.27,59.86c-.58-.7-.98-1.09-1.16-1.48.19.39.58.78,1.16,1.48ZM574.02,58.17c-.88-2.94-1.68-5.91-2.44-8.88-.14-.54-.27-1.09-.42-1.62.15.53.28,1.07.42,1.62.76,2.98,1.57,5.94,2.44,8.88ZM569.64,44.91c.4.36.7.79.95,1.26-.24-.47-.54-.89-.95-1.26s-.9-.67-1.53-.88c-.39-.13-.77-.24-1.15-.33.38.09.76.2,1.15.33.63.22,1.13.52,1.53.88ZM568.39,39.95c.16.02.32.04.48.07-.16-.03-.32-.04-.48-.07ZM569.69,40.21c.14.03.27.06.41.1-.14-.04-.27-.06-.41-.1ZM558.19,45.3c.27-.2.54-.39.82-.56-.28.17-.56.36-.82.56ZM559.07,44.7c.27-.16.54-.3.83-.43-.28.13-.56.28-.83.43ZM557.41,45.96c.17-.16.35-.32.53-.46-.18.15-.36.3-.53.46ZM557.89,74.08c-.05-.08-.1-.16-.15-.24.05.08.1.15.15.24ZM557.38,73.33c-.06-.08-.12-.15-.19-.22.06.07.13.15.19.22ZM557.16,46.21c-.16.17-.32.34-.47.52.15-.18.31-.36.47-.52ZM554.22,52.46c-.12.83-.2,1.68-.25,2.52.06-.84.14-1.68.25-2.52.06-.41.14-.8.23-1.18-.09.38-.17.77-.23,1.18ZM554.54,50.93c.07-.26.15-.52.23-.77-.08.25-.16.51-.23.77ZM554.9,49.79c.09-.24.19-.48.3-.71-.11.23-.21.47-.3.71ZM555.35,48.77c.16-.32.33-.64.52-.93-.19.3-.36.61-.52.93ZM555.89,47.8c.18-.28.38-.55.58-.81-.2.26-.4.53-.58.81ZM556.8,72.71c-.06-.05-.11-.11-.18-.16.06.05.12.1.18.16ZM555.99,72.15s-.05-.02-.08-.03c.02.01.05.02.08.03ZM555.29,71.89c-.08-.02-.17-.04-.25-.05.08.02.17.03.25.05ZM554.49,71.75c-.09,0-.19-.02-.29-.02.1,0,.19.01.29.02ZM553.7,62.14c-.81-1.19-1.37-2.41-1.73-3.64.36,1.23.92,2.45,1.73,3.64.04-.81.06-1.62.09-2.42-.02.81-.05,1.62-.09,2.42ZM553.28,71.76c.1-.01.2-.01.29-.02-.1,0-.19,0-.29.02ZM560.2,44.14c.21-.09.43-.18.65-.25-.22.08-.44.16-.65.25ZM561.19,43.78c.23-.07.46-.13.7-.18-.24.05-.47.11-.7.18ZM562.2,43.53c.34-.06.68-.12,1.03-.15-.35.03-.7.08-1.03.15ZM563.32,43.38c.28-.02.55-.04.83-.04.05,0,.1,0,.15,0-.33,0-.66,0-.99.03ZM564.65,43.36c.25.01.51.03.76.06-.26-.03-.51-.05-.76-.06ZM565.81,43.47c.26.04.53.09.79.14-.27-.06-.53-.11-.79-.14ZM582.66,75.47c.51,1.07,1.02,2.15,1.51,3.23h0c-.49-1.08-1-2.16-1.51-3.23ZM582.44,65.27c.09.06.19.12.28.18-.09-.06-.19-.12-.28-.18ZM582.94,65.59c.14.09.28.17.41.25,0,0,0,0,0,0,0,0,0,0,0,0-.14-.08-.27-.16-.41-.25ZM584.47,66.4c.08.03.15.07.23.1-.08-.03-.15-.07-.23-.1ZM585.76,66.9c.06.02.12.03.19.05-.06-.02-.12-.03-.19-.05ZM586.91,67.18s.09.02.14.03c-.05,0-.09-.02-.14-.03ZM609.77,78.7c.7-.18,1.41-.36,2.11-.53-.71.17-1.41.35-2.11.53h0ZM635.68,73.55c5.91-.85,11.84-1.58,17.76-2.32-5.92.74-11.85,1.47-17.76,2.32-7.12,1.02-14.17,2.35-21.15,3.98,6.98-1.63,14.03-2.96,21.15-3.98ZM659.45,76.2c-.09-.01-.17-.02-.26-.03.09,0,.17.02.26.03ZM659.07,76.17c-.08,0-.16,0-.24,0,.08,0,.16,0,.24,0ZM658.73,76.16c-.33,0-.66.03-.99.05.33-.03.66-.05.99-.05ZM652.54,76.47c1.4-.08,2.8-.15,4.21-.19h0,0c-1.41.04-2.81.1-4.21.19-5.6.34-11.13,1-16.61,1.91,5.48-.9,11.01-1.57,16.61-1.91ZM659.56,76.22c.12.02.24.04.36.07-.12-.03-.24-.05-.36-.07ZM659.95,76.3c.11.03.22.06.33.1-.11-.04-.22-.08-.33-.1ZM660.39,76.45c.08.03.16.07.24.11-.08-.04-.16-.08-.24-.11ZM660.77,76.63c.08.04.15.09.23.14-.08-.05-.15-.1-.23-.14ZM661.13,76.86c.08.06.16.12.24.19-.08-.07-.16-.13-.24-.19ZM661.49,77.15c.12.11.23.22.35.35-.12-.13-.23-.24-.35-.35ZM658.27,69.33c.48-.13.96-.28,1.45-.46-.49.18-.97.33-1.45.46ZM654.48,69.84c-.11,0-.21,0-.32-.01.26,0,.53,0,.8,0-.16,0-.32.02-.48.02ZM655.51,69.8c.27-.02.54-.06.82-.09-.27.04-.55.07-.82.09ZM656.87,69.63c.31-.05.62-.12.93-.2-.31.07-.63.15-.93.2ZM652.87,69.74c.29.03.59.06.89.07-.3-.02-.59-.04-.89-.07ZM639.61,63.73c-.87-.5-1.83-.88-2.81-1.19.99.31,1.94.69,2.81,1.19h.01s0,0-.01,0ZM640.68,64.35c.13.08.25.15.38.23-.13-.08-.25-.15-.38-.23ZM641.84,65.05c.31.19.63.38.94.56-.31-.19-.63-.38-.94-.56ZM643.07,65.78c.35.21.7.41,1.05.61-.35-.2-.7-.41-1.05-.61ZM644.35,66.53c.27.15.54.31.81.46-.27-.15-.54-.3-.81-.46ZM645.5,67.17c.26.14.52.27.77.41-.26-.13-.52-.27-.77-.41ZM646.59,67.74c.36.18.71.35,1.08.51-.36-.16-.72-.33-1.08-.51ZM647.77,68.29c.32.14.64.27.97.4-.33-.13-.65-.26-.97-.4ZM649.09,68.82c.26.1.53.19.8.27-.27-.08-.53-.18-.8-.27ZM650.24,69.2c.32.09.64.18.96.25-.32-.07-.64-.16-.96-.25ZM651.38,69.5c.38.08.77.15,1.16.2-.39-.05-.78-.12-1.16-.2ZM637.77,45.62c.29.08.57.16.86.24-.29-.08-.57-.16-.86-.24ZM633.78,44.68c.21.04.42.08.64.13-.21-.05-.42-.08-.64-.13ZM618.56,42.93c.33.01.66.03.99.04-.33-.01-.66-.03-.99-.04ZM622.21,43.12c.3.02.59.04.89.06-.3-.02-.59-.04-.89-.06ZM626.51,43.51c.21.02.42.06.64.08-.21-.03-.42-.06-.64-.08ZM629.95,43.99c.34.05.68.11,1.02.17-.34-.06-.68-.11-1.02-.17ZM631.65,61.31c-.24-.05-.47-.08-.71-.13.24.04.47.08.71.13ZM629.5,60.93c-.28-.04-.56-.08-.84-.12.28.04.56.08.84.12ZM627.34,60.62c-.3-.04-.59-.07-.89-.1.3.03.59.07.89.1ZM625.18,60.38c-.3-.03-.61-.06-.91-.08.3.03.61.05.91.08ZM623,60.21c-.3-.02-.61-.04-.91-.06.3.02.61.04.91.06ZM620.82,60.09c-.3-.01-.59-.02-.89-.03.3,0,.59.02.89.03ZM618.6,60.04c-.27,0-.55,0-.82,0,.27,0,.55,0,.82,0ZM600.81,61.35c.52-.07,1.04-.15,1.57-.22-.52.07-1.04.14-1.57.22ZM603.32,61.01c.48-.06.96-.12,1.44-.18-.48.06-.96.12-1.44.18ZM605.76,60.72c.46-.05.93-.1,1.39-.15-.46.05-.93.1-1.39.15ZM608.18,60.48c.46-.04.91-.08,1.37-.12-.46.04-.91.08-1.37.12ZM610.58,60.29c.46-.03.92-.06,1.37-.09-.46.03-.92.05-1.37.09ZM612.98,60.14c.47-.02.93-.04,1.4-.06-.47.02-.93.03-1.4.06ZM615.37,60.06c.49-.01.99-.02,1.48-.02-.49,0-.99,0-1.48.02ZM602.56,28.78c.1-.08.17-.18.25-.27-.08.09-.16.2-.25.27ZM601.27,29.36c.14-.03.26-.08.38-.12-.13.04-.25.09-.38.12ZM601.98,29.13c.12-.05.21-.12.32-.19-.1.07-.2.14-.32.19ZM599.58,29.52s-.09,0-.14,0h0,0c.2,0,.38-.01.56-.02-.14,0-.27.02-.42.02ZM600.44,29.49c.16-.01.3-.04.44-.06-.15.02-.29.05-.44.06ZM596,29.57c.47-.02.95-.02,1.42-.03-.48,0-.95.01-1.42.03ZM574.99,33.52c6.04-.58,12.08-1.32,18.13-1.67.24-.01.5-.04.77-.08-.27.04-.53.07-.77.08-6.06.35-12.09,1.08-18.13,1.67,0,0,0,0,0,0ZM577.94,32.56c.32-.09.63-.17.95-.26-.32.09-.63.17-.95.26ZM580.91,31.74c.39-.1.79-.18,1.18-.28-.39.09-.79.18-1.18.28ZM583.9,31.05c.43-.09.86-.16,1.29-.24-.43.08-.86.15-1.29.24ZM586.9,30.49c.45-.07.89-.13,1.34-.2-.45.07-.9.12-1.34.2ZM589.92,30.06c.46-.06.92-.1,1.38-.14-.46.05-.92.09-1.38.14ZM592.95,29.75c.47-.04.94-.06,1.4-.09-.47.03-.94.05-1.4.09ZM595.63,31.52s-.03,0-.05,0c.02,0,.03,0,.05,0ZM594.74,31.64c-.29.04-.58.09-.85.13.27-.04.56-.08.85-.13ZM575.05,40.43c-.28.07-.55.15-.83.22.27-.07.55-.14.83-.22ZM573.53,40.8c.23-.04.45-.09.69-.15-.23.06-.46.11-.69.15ZM572.84,40.89c.16-.01.32-.03.48-.06-.16.03-.32.05-.48.06ZM572.42,40.92c-.09,0-.18-.01-.27-.02.15.01.3.02.45,0-.06,0-.12.01-.18.01ZM571.35,40.73c.19.07.39.12.6.15-.21-.03-.41-.07-.6-.15ZM567.68,39.85c-.17-.02-.33-.02-.5-.02.17,0,.33,0,.5.02ZM566.51,39.8c-.08,0-.16,0-.24,0,.08,0,.16,0,.24,0ZM565.13,39.89c.11-.01.21-.02.32-.03-.11,0-.21.02-.32.03ZM564.11,40.05c.08-.02.17-.03.25-.04-.08.01-.17.03-.25.04ZM557.67,42.47c.08-.04.17-.08.25-.12-.08.04-.17.08-.25.12ZM558.63,42c.09-.05.19-.09.28-.14-.09.04-.19.09-.28.14ZM559.75,41.48s.09-.04.13-.06c-.04.02-.09.04-.13.06ZM560.84,41.02c.08-.03.17-.06.25-.1-.08.03-.17.06-.25.1ZM561.82,40.66c.1-.03.2-.07.3-.1-.1.03-.2.07-.3.1ZM562.92,40.32c.06-.02.13-.04.19-.05-.06.02-.13.04-.19.05ZM553.61,44.54c-.34.17-.7.31-1.06.43.36-.13.72-.27,1.06-.43.32-.16.64-.32.97-.48-.32.16-.64.32-.97.48ZM554.88,43.91c.24-.12.48-.25.72-.37-.24.12-.48.25-.72.37ZM556.52,43.06c.07-.04.15-.08.22-.11-.07.04-.15.08-.22.11ZM552.96,37.09c.07-.04.14-.08.21-.13-.07.04-.14.08-.21.13ZM551.16,38.47c.06-.06.13-.12.2-.18-.07.06-.13.12-.2.18ZM552.08,37.7s.04-.04.07-.05c-.02.02-.04.04-.07.05ZM549.77,40.77c.05-.05.1-.12.13-.19-.04.07-.08.13-.13.19ZM549.93,40.54c.03-.07.06-.15.08-.23-.02.08-.05.15-.08.23ZM550.02,40.26c.02-.08.04-.16.06-.24-.02.08-.04.16-.06.24ZM550.14,39.76s0-.04.01-.05c0,.02-.01.04-.01.05ZM550.24,39.46s.01-.03.02-.04c0,.01-.01.03-.02.04ZM549.22,40.96c.12,0,.22-.02.3-.05-.08.03-.19.04-.3.05ZM549.55,40.9c.08-.03.14-.07.2-.12-.05.05-.12.09-.2.12ZM548.39,40.83c.15.04.28.07.4.09-.12-.02-.25-.05-.4-.09ZM548.9,40.94c.08.01.16.02.22.02-.07,0-.14,0-.22-.02ZM548.13,46.16c.08-.01.16-.02.24-.03-.08.02-.16.02-.24.03ZM548.62,48.28s0,0,0,0c0,0,0,0,0,0ZM547.54,46.22c-.16,0-.31-.01-.45-.04.17.03.35.03.54.03-.03,0-.06,0-.09,0ZM545.32,43.58c.03.3.08.56.14.8-.06-.24-.11-.5-.14-.8ZM545.51,44.58c.05.18.11.35.18.49-.07-.15-.13-.31-.18-.49ZM545.75,45.21c.09.17.2.32.32.45-.12-.13-.23-.27-.32-.45ZM546.16,45.73c.1.09.21.17.33.24-.12-.06-.23-.14-.33-.24ZM546.61,46.03c.14.07.3.12.46.15-.17-.03-.32-.08-.46-.15ZM759.46,69.05c.07.67.09,1.38.07,2.12.02-.74,0-1.45-.07-2.12-.07-.67-.18-1.31-.33-1.9.15.6.27,1.23.33,1.9ZM758.53,65.45h0s0,0,0,.01c0,0,0,0,0-.01ZM735.97,43.18c.81.31,1.56.69,2.27,1.13,1.42.88,2.64,2.03,3.65,3.44-1.01-1.41-2.23-2.55-3.65-3.44-.71-.44-1.47-.82-2.27-1.13-1.21-.47-2.52-.8-3.93-1,1.41.2,2.72.53,3.93,1ZM728.11,41.9c-.54,0-1.07,0-1.6.03.48-.02.95-.04,1.43-.04.06,0,.12,0,.17,0ZM717.33,43.7c.53-.18,1.07-.34,1.61-.5-.54.15-1.07.32-1.61.5-1.15.39-2.28.79-3.35,1.28,1.07-.49,2.21-.9,3.35-1.28ZM709.35,43.28h0c-.32,0-.62,0-.93.02.19,0,.36-.02.56-.02.12,0,.25,0,.37,0ZM703.23,44.44c-.15.08-.29.18-.43.28.14-.09.28-.19.43-.28ZM702.41,44.98c-.13.1-.25.22-.37.34.12-.11.24-.23.37-.34ZM701.7,45.64c-.11.12-.21.26-.31.4.1-.13.2-.27.31-.4ZM700.08,48.95c.05-.21.09-.42.15-.61-.06.19-.1.41-.15.61ZM700.41,47.85c.07-.18.13-.37.2-.54-.08.17-.14.36-.2.54ZM700.84,46.88c.08-.16.16-.32.26-.47-.09.15-.17.31-.26.47ZM699.95,49.49c-.04.22-.07.46-.1.7.03-.23.06-.48.1-.7ZM699.77,50.78c-.02.25-.03.53-.05.8.01-.27.02-.54.05-.8ZM699.69,52.21c0,.3,0,.62,0,.93,0-.31-.01-.63,0-.93ZM700,57.35c-.08-.65-.14-1.27-.19-1.86.05.6.11,1.22.19,1.86ZM699.77,54.9c-.03-.38-.06-.77-.07-1.13.01.36.04.75.07,1.13ZM698.31,55.44c-.21-.58-.31-1.2-.42-1.82.12.61.22,1.24.42,1.82ZM697.76,53.01c-.04-.16-.07-.31-.11-.46.04.15.08.3.11.46ZM697.61,52.41c-.03-.11-.06-.21-.09-.31.03.1.06.21.09.31ZM697.46,51.95c-.03-.09-.07-.18-.11-.27.04.08.08.17.11.27ZM697.28,51.55c-.05-.1-.12-.18-.18-.26.07.08.13.17.18.26ZM697.05,51.23c-.09-.09-.19-.17-.3-.23.11.06.21.14.3.23ZM696.65,50.96c-.09-.04-.18-.07-.29-.09.1.02.2.05.29.09ZM696.21,50.85c-.11,0-.22,0-.35,0,.07,0,.14-.02.2-.02.06,0,.1.01.15.02ZM675.97,57.02c6.36-2.04,12.76-3.95,19.11-6.01.23-.07.43-.12.62-.15-.19.03-.39.07-.62.15-6.35,2.06-12.75,3.97-19.11,6.01-2.69.86-3.98,2.58-3.8,5.18-.19-2.6,1.11-4.32,3.8-5.18ZM678.68,67.8c-.22.01-.43.02-.63.02-.11,0-.2-.01-.3-.02.3,0,.61.02.94,0ZM677.23,67.77c-.2-.02-.4-.04-.59-.07.19.03.39.05.59.07ZM676.17,67.62c-.18-.04-.36-.09-.53-.15.17.06.35.11.53.15ZM675.24,67.33c-.16-.07-.32-.15-.47-.24.15.08.3.17.47.24ZM674.42,66.89c-.15-.1-.28-.22-.41-.34.13.12.26.24.41.34ZM673.72,66.28c-.13-.14-.24-.3-.35-.46.11.16.23.32.35.46ZM673.14,65.5c-.11-.19-.21-.42-.31-.64.1.22.19.45.31.64ZM672.68,64.53c-.13-.35-.24-.74-.34-1.16.09.42.2.81.34,1.16ZM672.47,71.57c.38.19.81.32,1.33.38,3.26.42,6.34,1.04,9.25,1.84,1.46.4,2.87.84,4.24,1.33-1.37-.49-2.78-.94-4.24-1.33-2.91-.8-5.99-1.41-9.25-1.84-.52-.07-.95-.2-1.33-.38-.57-.28-1-.67-1.36-1.15.37.47.8.87,1.36,1.15ZM659.81,56.12c1.04.85,2.04,1.74,2.99,2.69.73.73,1.43,1.5,2.11,2.29-.68-.79-1.38-1.56-2.11-2.29-.95-.95-1.95-1.84-2.99-2.69-1.56-1.27-3.21-2.43-4.94-3.49,1.73,1.06,3.38,2.22,4.94,3.49ZM651.29,50.64c-1.23-.62-2.49-1.2-3.78-1.75,1.29.54,2.55,1.12,3.78,1.75ZM641.23,46.62c.32.1.64.2.97.31-.32-.11-.64-.21-.97-.31ZM615.12,42.87s0,0,0,0h0s0,0,0,0ZM611.88,42.92c-.34,0-.67.02-1.01.04.34-.01.67-.03,1.01-.04ZM608.59,43.05c-.37.02-.75.04-1.12.07.37-.02.75-.05,1.12-.07ZM604.2,43.36c.33-.03.66-.05.99-.08-.33.03-.66.05-.99.08ZM603.52,26.79c.04-.31.05-.65.04-1.02h0s0,0,0,0c.01.38,0,.71-.04,1.02ZM603.01,28.28c.08-.11.13-.25.19-.38-.06.13-.11.27-.19.38ZM603.33,27.63c.05-.16.09-.36.12-.54-.04.19-.07.38-.12.54ZM603.5,24.87s0-.05,0-.07c0,.02,0,.05,0,.07ZM603.36,24.02s-.01-.07-.02-.1c0,.03.01.07.02.1ZM603.14,23.27s-.03-.07-.04-.1c.01.03.03.07.04.1ZM602.8,22.62s-.04-.06-.06-.08c.02.03.04.06.06.08ZM602.34,22.09s-.05-.04-.08-.06c.03.02.05.04.08.06ZM599.38,21.4c.2-.02.4-.02.59-.02h0c-.19,0-.38,0-.59.02-3.93.3-7.88.32-11.79.71-3.93.4-7.86.94-11.78,1.46-1.31.18-2.61.35-3.92.52h0c1.31-.17,2.62-.34,3.92-.52,3.92-.53,7.84-1.06,11.78-1.46,3.91-.4,7.86-.42,11.79-.71ZM601.72,21.7s-.06-.02-.08-.03c.03.01.06.02.08.03ZM600.94,21.46s-.04,0-.07,0c.02,0,.05,0,.07,0ZM594.58,15.26c.47.21.94.43,1.38.73-.44-.29-.91-.52-1.38-.73-.47-.21-.95-.39-1.42-.58-.4-.17-.8-.32-1.2-.46.4.14.8.29,1.2.46.47.2.95.38,1.42.58ZM590.75,13.83c.28.08.55.17.83.26-.28-.09-.56-.18-.83-.26ZM590.33,13.71c-.28-.07-.55-.14-.83-.2.28.06.55.13.83.2ZM589.13,13.43c-.37-.08-.74-.14-1.11-.2.37.05.74.12,1.11.2ZM587.95,13.22c-.4-.06-.79-.1-1.18-.13.39.03.79.08,1.18.13ZM586.4,13.06c-.28-.02-.55-.03-.83-.04.27,0,.55.02.83.04ZM585.15,13.01c-.21,0-.42,0-.63,0,.1,0,.2,0,.3,0,.11,0,.22,0,.32,0ZM578.36,13.81c.15-.04.31-.07.46-.11-.15.03-.31.07-.46.11ZM580.15,13.44s.06-.01.09-.02c-.03,0-.06.01-.09.02ZM581.65,13.21c.14-.02.29-.03.43-.05-.14.02-.29.03-.43.05ZM583.08,13.07c.17-.01.35-.02.52-.03-.17,0-.35.02-.52.03ZM577.4,14.05c-.17.05-.35.09-.52.14.17-.05.35-.1.52-.14ZM575.96,14.45c-.17.05-.34.1-.51.15.17-.05.34-.1.51-.15ZM574.48,14.92c-.15.05-.29.1-.44.14.15-.05.29-.1.44-.14ZM561.67,36.1h0c-.48-1.99-.75-3.82-.81-5.51.06,1.69.33,3.52.81,5.51ZM560.81,35.88c-.09-.02-.18-.03-.27-.05.09.02.18.03.27.05ZM559.98,35.72c-.11-.02-.21-.03-.32-.04.11.01.21.02.32.04ZM559.15,35.62c-.11,0-.23-.01-.34-.02.11,0,.22,0,.34.02ZM558.35,35.59c-.08,0-.15,0-.23,0,.05,0,.1,0,.14,0,.03,0,.06,0,.09,0ZM553.92,36.57s.08-.04.12-.06c-.04.02-.08.04-.12.06ZM554.93,36.15c.07-.03.15-.05.22-.07-.07.02-.15.05-.22.07ZM555.94,35.86c.06-.01.11-.03.17-.04-.06.01-.12.03-.17.04ZM557.06,35.66c.08,0,.15-.01.23-.02-.08,0-.15.01-.23.02ZM548.38,40.83c-.21-.06-.41-.1-.61-.12.2.03.4.06.61.12ZM547.59,40.69c-.14-.01-.27-.01-.4,0,.05,0,.1-.01.15-.01.08,0,.17.01.25.02ZM546.5,40.83c-.16.06-.3.14-.43.24.13-.1.28-.18.43-.24ZM547,40.7c-.12.02-.24.04-.36.08.11-.03.23-.06.36-.08ZM545.33,42.57c.02-.16.04-.31.08-.45-.04.14-.06.29-.08.45ZM545.48,41.92c.05-.13.1-.24.16-.35-.06.11-.12.22-.16.35ZM545.73,41.43c.09-.13.2-.25.32-.35-.12.1-.23.21-.32.35ZM545.3,42.79c-.01.24-.01.5.01.79-.03-.29-.03-.54-.01-.79ZM529.68,51.34c-14.82,2.51-29.58,5.45-44.41,7.89,14.84-2.44,29.59-5.37,44.41-7.89ZM468.45,61.8c-.26.06-.52.12-.78.18.26-.07.52-.13.78-.18ZM466.39,62.39c-.41.16-.81.34-1.19.55.38-.21.78-.39,1.19-.55ZM461.44,69.47c.11-.78.27-1.58.49-2.38.07-.25.15-.5.24-.73.18-.46.39-.88.64-1.26.49-.76,1.12-1.35,1.83-1.83-.71.48-1.34,1.07-1.83,1.83-.25.38-.46.8-.64,1.26-.09.23-.17.47-.24.73-.22.81-.38,1.6-.49,2.38-.11.78-.16,1.55-.16,2.32,0-.76.05-1.53.16-2.32Z"/>
  <g>
    <path class="cls-2" d="M698.09,137.17c-.12-.14-.22-.35-.33-.35-17.78-.43-26.32-11.66-31.63-26.85-3.33-9.54-5.82-19.38-9.99-28.62-.86-1.91-.52-2.9,1.58-3.2,1.28-.18,2.55-.4,4.11-.65-1.68-1.84-3.48-1.26-5.1-1.21-22.52.66-43.91,7.01-65.4,12.91-2.29.63-3.26,2.3-4.35,4.05-.83,1.33-1.85,2.87-3.48,2.68-1.53-.18-1.4-2.1-1.9-3.31-2.16-5.3-5.42-9.34-11.7-10.12,3.46,3.16,6.87,6.23,8.75,10.7,1.62,3.86.88,6.2-3.19,7.37-3.62,1.04-7.16,2.47-10.85,3.07-16.96,2.78-31.38,10.59-44.09,21.84-4.49,3.98-8.81,8.14-13.22,12.21-2.27,2.1-3.96,4.09-3.95,7.75,0,4.22-3.76,5.49-7.45,5.14-3.73-.35-5.2-2.99-4.8-6.6.46-4.18,3.05-7.21,5.82-10.03,9.05-9.2,18.96-17.35,29.87-24.27,6.95-4.41,13.94-8.75,20.88-13.16,3.48-2.22,6.79-4.67,9.29-8.02,3.15-4.22,3.62-8.68,1.37-13.53-1.3-2.8-3.01-3.67-6.08-3.03-24.5,5.08-49.03,9.97-73.52,15.1-4.76,1-9.17,1.85-12.62-2.63-3.96-5.14-5.99-10.86-4.21-17.3,1.12-4.07,4.76-5.13,8.46-5.62,19.88-2.67,39.52-6.77,59.29-10.12,5.91-1,11.87-1.77,17.76-2.87,3.37-.63,5.16-.39,4.32,3.85-.64,3.25-.22,6.64,1.94,9.81.16-3.23.08-6.49.53-9.67.99-7.08,7.17-10.73,13.88-8.44,2.53.86,2.92,3.09,3.48,5.26.76,2.98,1.57,5.94,2.44,8.88.17.57.75,1.02,1.74,2.31.17-5.1-3.35-9.01-1.19-13.87,3.61,3.38,2.38,8.29,5.32,12.35.58-4.57-.87-8.17-1.47-11.79-.55-3.3-.95-6.16,3.88-6.77-2.08-1.7-3.53-.57-4.93-.45-2.04.18-4.38,1.44-6.03.79-6.92-2.72-12.14,1.09-17.75,3.8-1.37.66-2.93.93-4.41,1.38-2.17.67-3.62.36-3.88-2.34-.25-2.51,1.21-3.27,3.07-2.75,2.1.6,1.38-.94,2.03-1.63,2.95-3.16,6.79-4.41,11.26-3.1-2.57-10.6.79-16.8,10.98-20.54,6.71-2.46,13.53-3.84,20.51-.88,1.87.79,3.94,1.32,4.99,4.14-8.94,1.13-17.97,1.13-26.25,5.28,5.23-.67,10.45-1.45,15.7-1.98,3.91-.4,7.86-.42,11.79-.71,3.27-.25,4.09,1.52,4.17,4.37.09,3.03-1.42,3.78-4.12,3.75-8.33-.09-16.48,1.24-24.45,3.99,6.04-.58,12.08-1.32,18.13-1.67,1.94-.11,5.26-1.35,5.66,1.31.34,2.3-2.99,3.27-5.07,3.39-6.15.34-5.79,3.3-3.84,7.67,1.48,3.33,2.38,6.91,3.57,10.47,1.51-.93,1-2.02.9-2.96-.75-7.18-.77-7.26,6.61-8.05,15.16-1.63,30.14-1.09,44.59,4.43,10.59,4.05,19.24,10.43,24.59,20.71.81,1.55,1.59,2.86,3.66,3.13,26.07,3.39,40.83,18.93,46.84,43.8.15.6.53,1.15.81,1.73.49-.22.98-.42.97-.45-2.17-7.09,1.89-12.76,4.14-18.9,3.87-10.51,6.36-21.35,6.46-32.62.02-2.03-.23-4.11-.66-6.1-.52-2.39-1.47-4.89-4.25-5.23-3.3-.41-7.09.25-9.11,2.56-2.39,2.74.84,5.64,1.99,8.35.98,2.33,2.67,1.15,4.34.8,1.77-.37,3.77-3.43,5.13-1.05,1.48,2.59-.68,4.7-3.3,5.88-.76.34-1.44.96-2,1.59-2.14,2.36-3.99,3.02-5.56-.56-.33-.74-1.17-1.24-2.37-1.1-.46,1.56,1.05,2.25,1.62,3.28,1.42,2.52,1.01,4.71-1.19,6.38-4.26,3.23-9.06,3.98-14.1,2.21-2.46-.86-3.61-2.2-.45-4,2.58-1.47,4.59-3.61,5.76-6.39,1.32-3.14.71-5.93-1.47-8.6-2.25-2.75-4.65-2.04-7.37-1.01-6.9,2.63-13.88,4.91-21.37,5.26-3.44.16-5.58-.93-6.34-4.44-.7-3.26.55-5.36,3.63-6.35,6.36-2.04,12.76-3.95,19.11-6.01,2.04-.66,2.35.59,2.68,2,.37,1.6.34,3.42,2.24,4.33-1.27-10.42,1.17-14.18,9.35-14.06-.46,3.19-4.4,5.58-1.95,10.11.97-6.27,5.33-8.15,9.93-9.69,4.78-1.6,9.7-2.22,14.71-1.52,7.51,1.04,12.28,5.95,13.08,15.51,1.7,20.34-1.47,39.96-10.92,58.3-1.58,3.06-3.55,6.13-6.48,7.87-4.23,2.51-4.22,5.81-3.63,10.01,5.95,42.28,14.25,84.12,23,125.89.37,1.74,3.34,4.74-.73,5.83-3.75,1-3.86-2.18-4.42-4.7-8.64-39.18-15.59-78.66-21.38-118.35-.02-.17-.02-.35-.07-.51-.55-1.88.39-4.97-1.72-5.43-2.69-.59-3,2.65-4.03,4.5-2.31,4.13-8.93,4.98-13.6,1.79-.76-.52-1.05-2.08-2.35-1.43-1.25.63-1.07,2.05-1.15,3.21-.19,2.63.63,5.08,1.54,7.49,13.55,35.74,25.51,72.03,37.65,108.26,1.45,4.34.66,5.58-3.99,5.41-13.07-.49-9.77,1.8-13.96-10.12-11.89-33.77-22.03-68.14-34.78-101.62-1.83-4.81-2.98-9.82-3.91-14.9-.52-2.83.24-3.35,2.83-2.61,4.12,1.19,8.28,2.28,12.64,1.94,1-.08,2.11-.11,2.44-1.36ZM659.37,70.48c.12-.54.24-1.07.35-1.61-8.24,3.02-13.96-1.63-20.1-5.14-1.75-1-3.82-1.52-5.81-1.97-12.06-2.76-24.13-1.83-36.19.06-1.41.22-2.55.84-3.43,2.02-2.98,3.97-6.65,4.35-10.83,2-1.16-.65-2.45-1.91-3.73-.91-1.56,1.23-.36,2.98.16,4.24,1.77,4.26,3.97,8.33,5.71,12.59,1.24,3.03,2.76,3.49,5.87,2.42,14.42-4.97,29.21-8.48,44.31-10.64,7.88-1.13,15.79-2.05,23.68-3.07ZM704.55,112.44c1.59-1.58,3.68-1.65,5.67-1.77,2.52-.15,3.29-.95,2.28-3.53-6.31-16.05-17.44-26.29-34.71-29.38-3.28-.59-4.08.27-2.91,3.41,2.5,6.74,4.88,13.52,7.23,20.31,1.79,5.18,3.37,10.43,6.38,15.08,2.05,3.16,4.38,4.23,8.17,2.21,7.79-4.15,14.78-.51,16.43,8.15.25,1.31-.24,2.78.85,3.91,3.76-6.25,2.51-8.69-9.38-18.4Z"/>
    <path class="cls-3" d="M237.53,231.24c5.2-4.63,10.34-9.34,15.62-13.88,5.21-4.49,10.93-8.28,17.08-11.37,2.44-1.22,4.98-2.39,7.61-3.04,9.97-2.45,16.14,3.81,13.32,13.48-4.51,15.47-10.61,30.4-15.78,45.64-.84,2.47-3.26,5.79-.83,7.6,2.86,2.13,5.23-1.42,7.27-3.19,10.53-9.13,18.6-20.61,28.42-30.39,6.73-6.71,11.08-14.05,11.76-23.6.23-3.22,1.38-6.36,1.92-9.56.72-4.23,2.95-6.61,7.37-5.93,4.58.71,4.03,4.44,3.92,7.66-.16,4.9-1.98,9.53-2.18,14.74,1.85-2.4,3.74-4.77,5.54-7.2,3.68-4.97,7.58-9.73,12.09-13.99,3.76-3.55,7.83-6.7,12.59-8.79,6.21-2.73,11.34-2.18,14.81,1.42,4.17,4.33,5.73,12.55,3.24,17.74-1.77,3.7-3.98,7.22-5.48,11.02-1.74,4.43-2.36,9.02,1.27,13.05,1.35,1.5,1.32,2.66-.7,3.52-4.1,1.74-10.28-.3-12.59-4.28-3.95-6.8-3.41-13.86-.7-20.82,1.59-4.08,3.82-7.9,6.18-12.71-6.09,2.72-10.43,6.39-14.42,10.52-9.11,9.43-16.05,20.47-23.12,31.41-3.44,5.32-6.96,10.6-10.48,15.87-1.29,1.93-2.77,3.7-5.45,2.39-2.36-1.16-2.83-3.28-2.54-5.66.36-2.97,2.14-5.69,1.81-9.8-2.43,3-4.33,5.36-6.25,7.7-8.15,9.96-16.48,19.76-26.83,27.56-7.84,5.91-13.27,6.47-19.81,2.31-6.4-4.07-9.19-11.22-6.64-19.89,4.15-14.13,8.68-28.16,15.63-41.26.75-1.41,2.22-2.6,1.7-5.14-15.57,10.69-30.2,21.71-38.85,38.81-3.15,6.22-5.28,6.38-9.58.73-3.32-4.36-3.84-9.68-4.9-15.53-1.72,1.81-2.87,3.03-4.03,4.24-5.76,6.03-12.31,10.92-20.21,13.78-8.37,3.03-15.78.17-19.05-7.9-1.59-3.93-2.88-3.53-5.53-1.27-3.02,2.58-6.6,4.27-10.47,5.29-7.87,2.08-19.84-2.82-17.53-15.69,2.64-14.75,8.24-28.27,18.74-39.36,5.12-5.41,11.37-8.79,18.72-9.94,5.37-.84,10.25.35,14.1,4.45,2.41,2.57,3.3,5.6,2.14,9.01-.59,1.73-.96,4.16-3.1,4.29-1.85.11-1.64-2.31-2.28-3.6-1.87-3.77-4.75-4.79-8.5-3.18-1.55.67-3.07,1.61-4.3,2.75-10.32,9.64-17.78,21.22-22.83,34.37-.48,1.26-.71,2.66-.79,4.01-.15,2.55,1.33,3.2,3.19,1.87,2.49-1.78,4.96-3.74,6.95-6.05,5.7-6.62,11.17-13.44,16.69-20.21,3.7-4.55,7.18-5.6,10.97-3.21,3.96,2.5,4.82,6.53,2.49,11.75-1.96,4.37-4.8,8.37-5.86,13.11-.63,2.83-1.36,6.03,1.36,8.13,2.53,1.95,5.6.85,7.7-.75,10.84-8.31,21.81-16.5,25.75-30.73,9.08-32.8,21.6-64.27,37.02-94.6,2.98-5.85,6.58-11.23,11.68-15.49,2.41-2.01,5.03-3.02,8.07-1.72,2.97,1.27,4.33,3.76,4.64,6.88.68,6.94-.46,13.69-2.44,20.29-6.47,21.6-17.58,40.55-31.01,58.69-9.21,12.44-10.87,28.61-14.29,43.66ZM251.36,180.71c1.65-1.1,2.16-1.28,2.42-1.64,12.46-17.16,21.9-35.79,27.29-56.36.57-2.18.85-4.51-.6-8.24-9.88,22.5-19.18,43.66-29.11,66.25Z"/>
    <path class="cls-3" d="M978.75,235.67c-3.65,3.22-6.66,6.92-10.21,10.11-5.01,4.51-10.5,8.28-16.88,10.59-8.62,3.12-15.81.23-19.37-8.17-1.31-3.08-2.22-3.66-4.84-1.35-3.11,2.74-6.8,4.63-10.86,5.63-10.63,2.62-19.63-5.29-17.62-16.01,2.66-14.18,8.01-27.26,17.89-38.14,5.26-5.79,11.66-9.51,19.39-10.76,5.36-.87,10.25.26,14.14,4.32,2.58,2.69,3.51,5.86,2.15,9.45-.59,1.57-.97,3.76-2.86,3.93-2.02.18-1.73-2.19-2.35-3.46-1.97-4.03-4.98-4.92-8.92-3.19-2.39,1.05-4.32,2.76-6.13,4.61-8.49,8.68-14.91,18.74-19.75,29.83-.48,1.1-.91,2.23-1.17,3.4-.4,1.79-1.52,4.08.21,5.28,1.84,1.28,3.49-.71,4.85-1.89,7.04-6.1,12.5-13.61,18.31-20.81,1.29-1.6,2.53-3.24,3.8-4.86,2.71-3.44,6.12-4.54,9.93-2.18,3.81,2.36,5.17,5.93,3.33,10.2-1.77,4.08-4.03,7.96-5.66,12.1-1.38,3.49-2.98,7.78.44,10.54,3.5,2.83,7.23.07,10.28-2.05,7.11-4.94,12.14-12.03,18.25-18.01,7.05-6.9,11.17-15.01,14.15-24.39,6.87-21.62,16.24-42.19,28.78-61.21,1.9-2.88,3.9-5.66,6.82-7.59,2.49-1.64,5.24-1.75,7.83-.45,2.51,1.26,2.26,3.65,2.37,6.2,1.39,31.56-13.87,56.55-31.55,80.6-4.06,5.53-4.08,5.56,2.79,6.74,6.79,1.17,13.63,1.13,20.51.82,2.88-.13,4.14-1.13,4.84-4.01,1.79-7.4,4.94-14.24,9.91-20.11,4.94-5.84,10.95-9.84,18.8-10.42,7.07-.52,11.71,4.66,10.61,11.64-1,6.38-3.96,11.58-8.97,15.68-3.98,3.25-7.88,6.61-11.7,10.04-2.3,2.06-4.38,4.39-5.7,7.22-1.28,2.76-1.64,5.74.14,8.35,1.75,2.58,4.65,2.71,7.45,2.26,6.05-.97,11.43-3.54,16.22-7.3,7.96-6.25,15.16-13.37,22.55-20.27,1-.93,1.97-1.9,3.02-2.78,1.09-.91,2.54-1.72,3.76-.94,1.83,1.18.03,2.53-.55,3.41-9.87,14.86-21.47,27.98-37.56,36.42-2.89,1.52-6.06,2.32-9.38,2.46-13.19.57-20.53-5.95-20.57-19.13-.02-5.03-.95-6.53-6.2-5.18-5.13,1.32-10.6.99-15.84,0-3.44-.65-4.09.08-3.55,3.55,2.46,15.69,2.54,31.41-.59,47.04-1.18,5.92-3.4,11.41-6.81,16.5-4.88,7.28-17.33,8.18-21.08-2.52-4.35-12.41-2.73-24.74-1.31-37.11.95-8.29,2.97-16.46,4.51-24.68ZM1030.53,146.48c-12.17,19.27-20,40.5-27.1,62.05,14.15-18.39,22.83-39.22,27.1-62.05ZM994.16,237.47c-3.42,13.57-6.91,27.15-6.88,41.27,0,1.3-.5,3.23,1.14,3.55,1.76.34,2.58-1.53,3.09-2.94,4.91-13.65,4.89-27.66,2.66-41.89ZM1062.75,199.95c-7.35,3.08-11.77,6.98-13.21,15.14,5.55-4.54,10.68-7.75,13.21-15.14Z"/>
    <path class="cls-3" d="M579.69,223.24c-3.45,4.15-5.92,7.13-8.41,10.09-4.21,5.02-8.75,9.67-14.61,12.78-9.21,4.88-16.74,2.01-20.49-7.76-1.7-.08-2.07,1.53-2.91,2.45-6.09,6.66-12.97,12.23-21.5,15.45-8.84,3.34-15.97.47-19.74-8.25-1.21-2.79-2.05-3.47-4.52-1.32-3.27,2.84-7.08,4.84-11.32,5.85-10.45,2.5-19.38-5.3-17.46-15.74,2.65-14.36,8.02-27.6,18.05-38.6,5.28-5.79,11.74-9.4,19.45-10.65,4.97-.81,9.58.21,13.38,3.73,2.86,2.65,4.13,5.91,2.85,9.75-.58,1.73-.97,4.16-3.13,4.27-1.87.1-1.62-2.32-2.26-3.61-1.88-3.78-4.74-4.79-8.49-3.15-1.54.68-3.07,1.61-4.3,2.75-10.34,9.63-17.86,21.16-22.81,34.36-.74,1.98-2.14,4.76.05,6.09,2.16,1.31,4.02-1.24,5.58-2.67,8-7.34,14.32-16.13,21.01-24.59,2.07-2.63,4.57-4.23,7.99-3.41,3.28.79,5.27,3.05,6.13,6.29.62,2.33-.33,4.36-1.28,6.39-1.82,3.87-3.84,7.67-5.36,11.66-1.22,3.2-2.36,7.07.85,9.54,3.22,2.48,6.6.17,9.47-1.62,2.3-1.44,4.46-3.23,6.35-5.18,8.2-8.5,16.43-16.95,23.2-26.73,5.76-8.32,13.55-13.97,23.83-15.63,4.19-.68,8.55-.55,11.94,1.81,3.88,2.69,4.64.55,6.01-2.32,7.61-15.92,15.44-31.73,24.1-47.12,8.09-14.36,17-28.17,27.17-41.14,2.35-3,4.68-7.41,9.23-5.98,4.58,1.45,4.48,6.41,4.97,10.46,1.33,11.03-2.92,20.93-6.72,30.8-10.46,27.18-25.59,51.89-41.44,76.15-4.78,7.31-6.29,15.09-6.26,23.39.03,9.39,3.27,11.52,11.82,7.86,10.23-4.38,18.62-11.46,26.74-18.89,1.09-.99,2.1-3.4,4.09-1.39,1.75,1.77,1.4,3.8-.44,5.4-10.96,9.57-21.29,19.97-34.26,26.96-17.27,9.31-26.72,4.09-28.17-15.5-.53-7.18.54-14.28,1.63-23.02ZM606.28,208.44c14.62-25.07,30.96-49.28,38.6-77.81-16.57,24.1-29.22,50.14-38.6,77.81ZM581.18,210.07c-11.43-4.15-29.62,9.77-28.36,21.3,9.39-7.05,18.6-13.97,28.36-21.3Z"/>
    <path class="cls-3" d="M886.54,121.94c-4.89,2.61-8.67,4.44-12.27,6.57-26.84,15.86-50.17,35.38-64.7,63.67-7.16,13.95-11.1,28.69-8.79,44.65,2.11,14.65,10.1,19.77,24.31,15.2,8.61-2.77,16.07-7.64,23.17-13.07,17.13-13.08,31.91-28.53,45.24-45.4,1.03-1.3,1.9-3.28,3.98-2.51,2.11.78,2.17,2.88,2.05,4.81-.38,5.89-1.71,11.57-4.67,16.7-13.81,23.95-33.69,41.16-59.69,50.18-28.17,9.78-50.57-8.22-50.13-39.34.25-17.83,5.01-34.65,14.02-49.95,18.74-31.81,45.83-53.66,80.7-65.82,3.26-1.14,6.53-2.1,10.02-.83,1.77.65,3.27-.35,4.89-.94,4.7-1.71,8.6.63,9.45,5.59.62,3.63-.08,7.15-1.13,10.63-4.08,13.6-10.32,26.54-12.42,40.76-.38,2.59-1.87,5.23-4.83,5.28-2.7.04-4.01-2.52-4.76-4.81-4.14-12.64-3.37-24.96,2.8-36.84.6-1.16,1.35-2.24,2.75-4.55Z"/>
    <path class="cls-3" d="M54.22,117.45c4.12-1.06,7.01.28,9.95,1.01,25.66,6.39,51.2,6.63,76.6-1.34,7.42-2.33,14.29-5.77,20.57-10.37,2.65-1.94,5.11-4.01,6.37-7.21,1.48-3.76,3.8-3.34,6.34-1.07,3.85,3.44,5.38,10.77,3.35,16.21-3.39,9.05-10.57,14.06-19.03,17.62-9.62,4.05-19.88,5.69-30.12,5.88-9.5.18-15.5,3.02-18.32,12.74-2.09,7.17-5.77,13.9-9.06,20.68-1.58,3.25-1,4.1,2.54,4.07,11.15-.08,22.27-.66,33.39-1.4,4.96-.33,9.92-.74,14.89-.8,6.58-.07,7.9,2.01,5.38,8.27-2.46,6.11-6.1,10.27-13.68,10.15-15.25-.25-30.51.21-45.76.17-3.24,0-4.77,1.04-5.97,4.11-7.85,20.15-11.32,41.25-14.07,62.53-.26,2.04-.56,4.07-.83,6.11-.22,1.7-.2,3.67-2.36,4.06-1.87.34-3.27-.94-4.34-2.28-3.94-4.89-4.8-10.86-5.69-16.81-2.64-17.47,1.38-34.05,6.65-50.49,1.94-6.03,1.8-5.99-4.37-7.11-3.13-.57-7.29-.65-7.98-4.36-.59-3.19,3.24-4.44,5.52-6.07,3.38-2.41,7.17-4.23,11.3-4.66,3.25-.34,4.7-2.05,5.94-4.76,4.93-10.73,8.56-22.08,14.94-32.13,2.01-3.16-.83-2.99-2.35-3.41-8.43-2.33-16.81-4.81-24.74-8.55-5.42-2.55-10.37-5.79-15.07-10.83Z"/>
    <path class="cls-3" d="M406.16,219.35c2.45-3.22,4.87-6.47,7.35-9.67,5.58-7.22,11.64-13.93,19.63-18.61,7.24-4.24,13.58-4.44,17.62-.57,5.13,4.9,6.1,13.52,2.39,20.38-1.54,2.85-3.13,5.72-4.28,8.73-1.7,4.46-2.36,8.99,1.25,13.03,1.65,1.84,1.07,3-1.14,3.69-4.94,1.54-10.22-.63-12.6-5.27-3.67-7.15-2.68-14.31.3-21.33,1.52-3.57,3.48-6.95,5.78-11.48-5.82,2.76-9.98,6.03-13.77,9.85-9.1,9.2-16.05,20-23,30.8-3.8,5.9-7.69,11.74-11.58,17.58-1.2,1.79-2.66,3.28-5.1,2.17-2.15-.97-3.09-2.84-2.71-5.04.48-2.85,1.46-5.62,2.05-8.46,2.81-13.57,5.56-27.15,8.35-40.73.31-1.51.56-3.07,1.19-4.45,1.25-2.77,3.73-3.32,6.47-2.99,2.67.33,3.67,2.14,3.88,4.64.48,5.93-1.74,11.41-2.05,17.72Z"/>
    <path class="cls-2" d="M408.77,316.06c-2.79,8.08-5.42,15.73-8.08,23.37-1.35,3.88-2.7,7.76-4.11,11.61-.93,2.55-1.53,5.49-5.1,5.6-3.65.11-4.3-2.82-5.2-5.4-3.7-10.67-7.98-21.14-10.99-32.06-.26-.94-.26-2.04-1.53-2.7-1.27,1.31-.61,2.87-.6,4.26.06,9.93.24,19.86.24,29.79,0,2.85.23,6.23-4.21,6.16-4.04-.07-3.99-3.16-4-5.88-.07-14.38-.08-28.77,0-43.15.02-3.54.55-6.94,5.13-7.61,4.46-.65,7.17,1.17,8.58,5.39,3.69,11.03,7.46,22.04,11.23,33.05.36,1.07.05,2.48,1.89,3.29,2.53-7.56,5.03-15.07,7.57-22.57,1.59-4.7,3.21-9.39,4.85-14.07,1.5-4.27,4.67-5.72,8.92-4.97,4.24.74,4.59,4.04,4.59,7.45.01,14.21.01,28.43,0,42.64,0,.68-.03,1.37-.07,2.05-.16,2.5-1.13,4.29-3.95,4.43-3.18.16-4.27-1.78-4.29-4.51-.07-10.27-.04-20.54-.11-30.82-.01-1.59.77-3.3-.78-5.38Z"/>
    <path class="cls-2" d="M707.11,327.33c7.07,4.72,9.09,9.91,7.1,17.7-1.64,6.42-6.34,10.32-13.92,10.8-6.99.44-14.02.31-21.03.45-3.26.07-4.53-1.49-4.51-4.72.08-15.4.08-30.81,0-46.21-.02-3.28,1.37-4.7,4.57-4.67,6.16.06,12.32-.04,18.48.11,6.28.16,12.01,1.57,14.53,8.32,2.48,6.65.86,12.37-5.22,18.22ZM684.18,339.77c.18,9.88-1.41,8.66,8.7,8.75,1.88.02,3.79.05,5.63-.27,4.62-.79,6.95-3.92,6.81-8.77-.14-4.74-2.65-7.28-7.28-7.64-2.9-.23-5.83.02-8.72-.28-4.01-.42-5.79,1.02-5.17,5.14.15,1,.02,2.05.02,3.08ZM693.3,324.17c.32-.02,1.86,0,3.38-.18,5.1-.57,7.5-3.17,7.36-7.97-.13-4.74-2.76-7.07-7.32-7.58-12.25-1.35-12.92-.74-12.54,11.4,0,.17.02.34,0,.51-.33,2.87.94,4.09,3.81,3.84,1.35-.12,2.73-.02,5.3-.02Z"/>
    <path class="cls-2" d="M627.83,300.93c3.25,0,6.53-.22,9.76.04,10.35.84,15.98,5.84,17.89,15.96,1.58,8.34,1.78,16.72-.51,24.98-2.4,8.65-7.58,12.93-16.43,13.87-6.84.73-13.69.53-20.55.47-3.2-.03-4.51-1.28-4.48-4.65.13-15.43.12-30.86.02-46.29-.02-3.32,1.31-4.72,4.53-4.65,3.26.06,6.51.01,9.77.01,0,.08,0,.17,0,.25ZM622.82,328.22c0,3.25,0,6.5,0,9.75,0,11.79.1,11.87,11.97,10.37,6.7-.85,9.68-3.54,11.17-10.09.96-4.21.93-8.5.75-12.77-.58-13.96-7.32-19.3-21.25-17.15-2.35.36-2.67,1.54-2.65,3.46.05,5.48.02,10.95.01,16.43Z"/>
    <path class="cls-2" d="M735.61,163.17c.75-27.42,5.25-52.38,15.04-76.28,1.62-3.97,3.22-7.95,3.86-12.21.6-3.97.22-7.54-4.21-9.38-1.8-.75-3.57-2.28-2.67-4.34,1.1-2.5,3.37-.76,4.93-.3,5.14,1.5,7.42,5.42,6.91,11.67-.55,6.74-3.17,12.93-5.39,19.22-7.86,22.26-12.89,45.04-13.2,68.77-.34,25.85,7.34,49.2,21.47,70.62,6.14,9.31,13.28,17.85,20.51,26.32,1.11,1.3,2.24,2.61,3.14,4.05.7,1.11,1.58,2.5.28,3.73-1.3,1.22-2.57.29-3.67-.53-1.1-.82-2.19-1.66-3.13-2.65-22.2-23.55-38.75-50.05-42.82-82.93-.71-5.76-.79-11.61-1.06-15.74Z"/>
    <path class="cls-2" d="M511.4,328.12c0-7.53.09-15.07-.05-22.59-.07-3.52,1.36-4.93,4.84-4.89,8.9.1,17.8.03,26.7.03,2.67,0,4.86.66,4.77,3.94-.09,3.26-2.37,3.78-4.98,3.79-5.82.01-11.64.14-17.46-.02-3.16-.09-4.53.69-4.58,4.25-.14,11.28-.3,11.27,10.83,11.28,3.42,0,6.85,0,10.27.07,2.44.05,3.82,1.32,3.88,3.82.05,2.57-1.45,3.8-3.83,3.85-5.65.12-11.3.23-16.94.08-3.05-.08-4.13.87-4.2,4.07-.31,12.7-.42,12.69,12.02,12.7,3.94,0,7.87,0,11.81.03,2.59.02,4.33,1.08,4.32,3.91,0,2.62-1.74,3.64-4.03,3.66-9.92.1-19.85.12-29.77.12-3.41,0-3.6-2.43-3.6-4.98.01-7.7,0-15.41,0-23.11Z"/>
    <path class="cls-2" d="M345.35,323.76c0,5.13.05,10.27,0,15.4-.13,11.42-5,16.87-16.44,18.29-4.82.6-9.56.04-14.16-1.55-5.51-1.9-9.12-5.61-9.68-11.46-1.29-13.31-.53-26.67-.44-40.01.02-2.83,1.62-4.38,4.6-4.33,3.3.05,4.54,1.98,4.54,4.96,0,8.56-.06,17.11-.07,25.67,0,2.39.03,4.79.17,7.18.49,8.12,4.21,11.68,11.88,11.47,7.25-.2,10.74-3.86,10.86-11.95.16-10.44.04-20.88.1-31.32.01-2.2-.19-4.58,2.42-5.71,3.23-1.4,6.05.42,6.16,4.35.18,6.33.05,12.66.05,18.99h.03Z"/>
    <path class="cls-2" d="M877.39,323.78c5.55-6.18,11.08-12.39,16.67-18.53,1.49-1.64,3.03-3.34,4.86-4.53,1.77-1.15,3.98-1.35,5.62.5,1.61,1.82.64,3.62-.64,5.06-4.08,4.61-7.96,9.48-12.53,13.57-3.94,3.53-3.3,6.02-.31,9.67,4.99,6.08,9.51,12.55,14.11,18.94,1.64,2.28,4.24,5.06.93,7.56-3.3,2.49-6.17.41-8.26-2.46-4.33-5.96-8.48-12.03-12.86-17.95-1.12-1.52-1.88-4.73-4-3.86-2.49,1.02-4.82,3.28-4.81,6.67,0,4.45-.05,8.9-.02,13.35.02,2.92-.77,5.1-4.19,5.2-3.36.09-4.48-1.88-4.48-4.89-.02-15.75-.05-31.5-.08-47.25,0-3.07,1.25-4.87,4.57-4.82,3.14.04,4.14,1.87,4.13,4.66,0,6.24,0,12.48,0,18.72.43.13.86.26,1.29.39Z"/>
    <path class="cls-2" d="M266.81,356.31c-4.63,0-9.25.08-13.88-.02-6.65-.14-8.62-3.73-4.84-9.34,7.36-10.94,14.99-21.7,22.45-32.58,1.13-1.65,3.66-3.45,2.9-5.07-1.01-2.15-3.96-.82-6.05-.89-4.96-.16-9.93-.08-14.9-.06-2.74,0-4.83-.88-4.83-4,0-2.98,2.24-3.58,4.62-3.6,9.59-.06,19.19-.18,28.78-.02,4.26.07,5.9,2.53,4.49,6.54-.78,2.21-2.14,4.27-3.48,6.23-7.16,10.45-14.42,20.85-21.6,31.29-.63.92-2.02,1.74-1.37,3.05.66,1.34,2.15.67,3.25.68,6.51.06,13.02.01,19.53.02,2.74,0,5.4.35,5.43,3.9.04,3.36-2.67,3.68-5.08,3.75-5.13.14-10.28.04-15.41.04,0,.02,0,.05,0,.07Z"/>
    <path class="cls-2" d="M808.87,328.26c-.1-5.34.44-10.6,2.36-15.63,5.33-14.01,25.81-17.7,35.72-6.4,1.22,1.39,2.2,3.06,2.95,4.76.95,2.15.33,4.11-1.8,5.25-1.94,1.04-3.95,1.12-5.68-.57-.36-.36-.7-.76-.96-1.2-3.11-5.3-7.48-8-13.71-6.3-6.31,1.73-7.96,6.92-8.84,12.57-.96,6.16-.74,12.3.51,18.38,1.26,6.11,4.61,9.33,10.12,10.08,5.78.79,9.88-1.53,12.66-7.35,1.32-2.76,2.6-5.63,6.39-4,4.14,1.78,2.59,5.09,1.49,7.9-2.86,7.35-10.23,11.84-19.45,11.61-8.4-.21-15.44-3.09-18.97-11.49-2.37-5.63-2.9-11.58-2.79-17.61Z"/>
    <path class="cls-2" d="M1010.17,322.98c26.73,0,53.45,0,80.18,0,1.37,0,2.75-.03,4.11.1,1.35.13,2.31,1,2.3,2.32,0,1.35-1.05,2.13-2.38,2.24-1.36.12-2.74.09-4.11.09-53.28,0-106.56,0-159.85,0-.51,0-1.03.02-1.54,0-1.97-.11-4.82.49-4.78-2.4.04-2.82,2.85-2.35,4.85-2.36,27.07-.01,54.14-.01,81.21,0Z"/>
    <path class="cls-2" d="M142.46,327.75c-26.38,0-52.77,0-79.15,0-1.54,0-3.1.05-4.62-.14-1.05-.14-1.96-.88-2.06-2.01-.13-1.42.88-2.26,2.11-2.48,1.33-.23,2.73-.13,4.1-.13,53.45,0,106.91,0,160.36,0,1.03,0,2.06.01,3.08.02,1.53,0,2.9.61,3.03,2.16.17,1.97-1.39,2.51-3.08,2.57-1.2.04-2.4.02-3.6.02-26.73,0-53.45,0-80.18,0Z"/>
    <path class="cls-2" d="M461.63,328.18c0-7.36.1-14.72-.04-22.08-.07-3.57,1.07-5.49,4.93-5.46,8.04.06,16.09-.07,24.13-.05,2.62,0,4.81.73,4.78,4.01-.03,3.29-2.19,3.88-4.85,3.88-4.79,0-9.58.02-14.38.04-1.03,0-2.39-.37-3.02.14-4.68,3.81-1.27,9.07-2.18,13.6-.5,2.47,1.14,3.21,3.41,3.17,4.45-.07,8.9-.01,13.35.02,2.65.02,4.92.75,4.9,3.92-.02,3.18-2.22,3.82-4.94,3.77-3.76-.08-7.55.23-11.29-.08-4.15-.34-5.93.93-5.59,5.37.35,4.42.03,8.89.03,13.34,0,3.25-1.31,5.29-4.83,5.2-3.34-.09-4.34-2.3-4.35-5.18-.03-7.87-.01-15.74-.01-23.62-.02,0-.04,0-.06,0Z"/>
    <path class="cls-2" d="M732.37,328.42c0-7.35-.02-14.7,0-22.05.01-3.25.3-6.33,4.74-6.37,4.63-.04,4.57,3.34,4.59,6.42.08,12.31.21,24.62-.04,36.92-.09,4.17,1.34,5.38,5.29,5.15,4.6-.27,9.23-.04,13.84-.05,2.56,0,4.45.9,4.5,3.73.05,2.79-1.81,3.96-4.33,3.99-8.2.08-16.41.1-24.61.07-3.07-.01-4.03-1.89-4-4.74.07-7.69.02-15.38.02-23.08Z"/>
    <path class="cls-2" d="M564.64,328.62c0-7.54,0-15.08,0-22.62,0-3.16.52-5.89,4.59-6,4.21-.12,4.65,2.76,4.66,5.85.06,12.51.22,25.02-.03,37.53-.08,4.2,1.37,5.37,5.3,5.12,4.44-.28,8.91-.04,13.36-.06,2.67-.01,4.9.57,4.89,3.83,0,3.21-2.3,3.95-4.9,3.97-7.71.06-15.42.01-23.14.06-3.46.02-4.87-1.56-4.8-5.05.14-7.54.04-15.08.05-22.62Z"/>
    <path class="cls-2" d="M790.48,328.42c0,7.52-.02,15.03.01,22.55.01,3.21-.61,5.98-4.56,6.01-3.95.03-4.63-2.72-4.63-5.94.01-15.03,0-30.06-.01-45.1,0-3.22.65-5.87,4.63-5.94,4.12-.07,4.57,2.7,4.56,5.88-.02,7.52,0,15.03,0,22.55Z"/>
    <path class="cls-3" d="M1055.4,183.67c5.7-9.86,13.65-17.5,22.49-24.3,1.04-.8,2.22-.91,3.31-.04,1.01.81,1.5,1.9,1.22,3.18-.18.83-.4,1.72-.87,2.4-6.44,9.31-15.89,14.51-26.14,18.76Z"/>
    <path class="cls-2" d="M690.1,94.41c-2.32-.59-3.73-1.71-3.43-3.97.42-3.12,1.97-5.47,5.39-5.68,1.6-.1,3.41.9,2.89,2.68-.82,2.8-1.93,5.72-4.85,6.97Z"/>
  </g>
</svg>