<?xml version="1.0" encoding="UTF-8"?>
<svg id="Ebene_1" data-name="Ebene 1" xmlns="http://www.w3.org/2000/svg" viewBox="0 0 475.4 480.26">
  <defs>
    <style>
      .cls-1 {
        fill: #e8dfd7;
      }
    </style>
  </defs>
  <path class="cls-1" d="M226.82,149.49l-3.21-5.19.9-.2c-.32-.43-.63-.9-.79-1.41-1-3.1-1.96-9.22-1.92-12.32.03-2.15.96-5.18.91-7.29-.12-5.42-3.19-1.29-4.58.9l.85.37c-1.63.73-1.4,2.9-1.84,3.83-.87,1.85-3.31,6.24-4.71,7.55-.44.41-1.83,1.36-2.33,1.29-.08-.01-1-1.09-1-1.17-.02-.33,1.28-2.04,1.27-2.27-.02-.3-.39.58-.25-1.34.37-5.11.78-11.46-2.38-16.19-.95-1.42-2.23-3.48-3.21-1.34l1.16.11c-1.44,1.73-.6,3.54-3.58,3.5l.37-.85-.91.21-.26-.32c.25-.16.61-.4.46-.75-.73-1.63-3.79-5.2-5.22-6.3-.17-.13-1.58-.89-2.56-1.62-1.13-.85-3.82-3.67-4.52-1.89-.65,1.64-2.07,4.29-2.4,6.1-.17.92.12,3.65-.04,4.29-.03.12-.65.1-.69.23-.2.68,1.24,3.54-.76,3.69-.24.02-4.54-2.19-4.63-.95.54.92,1.42,2,1.84,2.94.34.76.54,2.76.65,3.64s1.79,2.31,2.62,2.8c5.94,3.55,9.7,4.57,13.86,11.46,1.2,1.99.98,2.7,1.43,4.02s2.34,3.25.57,4.74c-.24.2-2.36,1.12-2.67,1.17-1.36.25-4.32-.78-5.55-1.52-5.1-3.05-8.38-6.58-10.33-12.19-1.3-3.73-1.98-6.67-2.79-10.98-.82-4.39-4.44-8.82-8.39-11.39-.31-.2-.72.15-1,0-.99-.58-2.01-1.29-2.85-2.08l-.36.85c-1.56-1.78-3.1-.86-3.7,1.25-.39,1.37.31,2.17.43,3.07.13.95-.83,2.44.73,3.72l-.9.2c.55.96,1.22,2.48,1.45,3.53.12.57-.21.81-.2,1.24.01.75.86,1.54.01,2.34-1.3,1.21-2.8.97-3.85-.37-.58-.74-2.41-3.38-2.77-4.08-.14-.28.33-.7.22-.97-2.28-5.59-3.23-13.56-9.37-15.74-.44-.15-1.01-.96-1.22-.97-.47-.01-1.86,1.69-2.21,2.23-.88,1.38.44,4.76.36,6.11-.05.86-1.18,1.78-.37,2.63-2.5.33-3.01-1.33-3.84-3.41-.13-.31.29-.7.16-.99-1.65-3.77-5.59-9.34-9.33-11.15-.45-.22-3.3-.57-3.91-.75-.93-.27-2.36-1.48-3.15-1.29-1.77.44-.56,1.14-.54,2.04.06,2.55-.06,5.48.72,7.91.72,2.23,3.64,8.31,5.33,9.59.23.17.55-.3,1.24.17.41.28,1.95,1.96,1.87,2.41-.06.32-1.4,1.65-1.89,1.71s-1.05-.45-1.53-.43c-1.31.05-5.17-.01-6,.14-.56.1-3.41,1.26-2.78,2.02l6.9,8.34c1.84,2.22,5.14,2.11,7.2,2.82.94.33,2.43,1.68,2.59,1.7.26.03.64-.65,1.12-.53,4.24,1.06,4.73,5.32,6.74,7.97,2.2,2.89,8.11,5.56,11.62,6.96,4.34,1.73,9.77,2.65,13.81,4.46,2.16.97,4.33,1.37,5.67,3.7.18.31.67,1.95.48,2.19-.31.41-3.16,2.43-3.74,2.6-.39.11-4.53-.19-5.15-.33-4.4-.95-9.34-3.69-12.51-6.99-1.34-1.39-2.84-4.04-4.2-5.08-.17-.13-3.5-1.42-3.97-1.56-1.56-.46-7.55.5-9.34.99-3.3.9-5.99,2.47-8.89,3.44-1.34.45-3.84-.21-2.85,2.08,1.94,4.47,5.47,7.99,9.13,11.07l.36-.84c.99.61,2.4,1.73,3.42,2.13.82.33,1.94-.53,2.82.94.98,1.64-.62,2.46-2.01,3-.22.09-.59-.31-.85-.2-.71.31-5.57,3.06-4.27,3.48,1.01-.68,2.53.93,3.81,1.32,8.61,2.68,14.66,1.06,23,1.39.81.03,1.66-1.1,2.63.25.8,1.12-.23,2.25-1.13,2.87-.61.41-.9-.23-1.25-.07-2.32,1.06-4.99,3.27-7.09,4.21-.45.2-.71-.49-.75-.46l-4.49,3.71c.62.63,1.99,1.6,2.78,1.86s4.02.08,4.04,1.04l5.63-.15.21.82c1.66-1.32,4.41-.4,6.27-.49.78-.04,2.64-.79,3.32-.77s1.82.81,1.99.78c.15-.03.31-.82.8-.88.29-.04,5.24.13,5.65.21.46.09.55.73.65.74.11,0,2.09-.48,2.11-.58.02-.08-.61-1.22-.73-1.55l1.27.57c-1.04-.75.02-2.37.96-2.35.12,0,1.42,1.08,2.08,1.32,1.86.69,4.08,1.25,6.01,2.19,1.14.56,2.38,1.18,3.2,2.21l.37-.85c1.24,1.23,2.98,2.14,4.28,3.26.48.42,1.23,1.62,1.47,1.71.05.02.22-.79.77-.69.76.13,1.43,1.06,1.85,1.09,1.14.07,3.15-.1,4.57.15.56.1,1.11.5,1.55.85l.36-.83c.79.82,2.15,1.86,3.12,2.39,3.72,2,10.25,3.55,14.39,4.91,4.15,1.36,8.88,2.34,12.16,5.72.97,1,4.6,5.23,4.17,6.44-.54,1.53-1.81.85-2.27.96-4.08.98-6.1.41-9.83.49-1.73.04-2.96,1.39-3.27-.53-.93,1.64-2.03.34-2.67.26-5.92-.8-8.04-1.37-12.97-4.74-.28-.19-.71.21-1,0-2.59-1.83-7.51-8.3-9.28-11.14-.53-.85-.3-1.71-.64-2.14-.15-.2-.69.37-.96.17-1.95-1.45-3.24-3.56-5.91-5.15-2.4-1.42-6.13-2.42-8.92-3.44-.81-.3-1.48-1.89-2.06-.06-.4,1.26.79,6.44,1.86,7.51-.37,1.09,1.48,3.58,2.32,4.71.44.6,3.15,1.95,1.48,3.13s-1.73-.18-2.61-.61-1.85-.44-2.3-.7c-1.6-.9-3.64-3.76-5.17-3.09-.67-.49.72-.57.11-1.16-1.05,1.48-1.55-.45-2.94-.92-2.84-.96-7.15-1.58-10.08-1.1-.29.05-.72-.38-.94-.35-4.14.68,1.62,4.41,1.89,5.19.23.68-.88,1.08.43,1.39-1.79,1.68-1.06.69-1.44.39-.25-.19-.53.2-.64.14-.23-.11-.19-.71-.25-.72-.17,0-.68.54-1.12.61-.12.02-.9-.23-2.03-.27-6.13-.19-7.99.36-13.54,3.11-.31.15-.61-.45-1.24-.05-2.35,1.49-7.6,5.2-9.24,7.15-1.22,1.46.9,1.85,1.64,2.96l.37-.85c.82,1.1,1.99,1.91,3.15,2.59,1.76,1.03,6.56,3.26,8.53,3.63,1.01.19,3.08-.08,3.85.1.62.14,1.16.87,1.26.87.35.03.3-1.86,1.95-.26s.09,2.43-1.7,2.74c-.33.06-.71-.37-.75-.35-.28.1-.41.88-.8,1.15-.23.16-.64-.47-.96-.32-.57.27-4.84,3.18-4.86,3.48-.07.97,2.88,1.21,3.84,1.74.49.27.58.97.63.99.1.03,1.21-.53,1.98-.51,1.16.03,4.06,1.01,4.28,1.01.82,0,3.13-2.23,3.43.17.81-1.79,2.37-.93,3.28-1.13.72-.16,2.71-1.25,2.87-1.24,1.21.08-.39,1.2.15,1.49.74-1.03,3.73-2.84,4.81-2.95.73-.07,1.89,2.14,1.56,2.58-.24.31-2.17,1.77-2.6,1.99-.17.09-.53-.38-.84-.21-2.37,1.3-5.35,3.5-6.93,5.71-.25.35.62,1.02-.5,1.49-.2.08-.8-.86-1.17-.12.17,1.4.05,2.47-.36,3.81,1.36.04,3.05-.64,3.59,1.08.91-1.85.82-.51,2.25-.23,4.41.86,12.82.1,16.75-1.48,2.16-.87,4.38-2.55,6.44-3.68,1.73,1.4.95-.04,1.82-.18,1.03-.16,2.62,2.31,2.56,2.49-.69,2.07-8.02,7.49-9.75,9.73l.85.37c-1.24,1.36-4.29,3.79-3.49,5.59-.49.67-.58-.71-1.16-.11,1.07,1.21-.93,2.46.62,2.72-1.54,1.24-1.78,6.57-.87,8.06,1.82,2.94,2.18,1.41,3.49,1.76.12.03.11.68.22.71.43.12,8.04-.78,8.77-1.05,1.39-.52,4.78-2.07,5.95-2.91,2.89-2.07,5.39-4.65,7.92-7.11l-.85-.37c1.04-1.51,2.82-.82,3.33.74.32.99-.19,1.34-.08,1.86.18.78.73,1.79,1.01,2.62.16.48-.47,1.75,1.2,2.68,1.29-1.42,3.3-3.13,4.33-4.71.2-.31-.14-.75.01-1,4.3-7.24,7.04-13.89,13.03-20,.63-.64,1.42-1.12,2.08-1.73l-.85-.37c2.55-1.71,5.02-4.7,7.54-6.28.15-.1,2.28-.98,3.09-1.39,5.07-2.58,12.71-4.05,18.41-3.93,3.77.07,6.29,1.65,9.35,3.75.28.19.71-.21,1,0,2.4,1.69,4.48,5.57,6.59,7.95,5.05,5.71,13.52,14.76,19.45,18.89,9.08,6.3,19.24,13.98,27.9,21.35,4.59,3.91,8.92,8.8,13.54,13.15.58.55.87-.2,1.45.35,1.78,1.68,5.28,5.76,6.95,7.77,2.45,2.95,4.41,6.48,7.03,9.34-.54.75.29,1.3.3,1.58,0,.1-1.41,1.27-1.51,1.28-.14.01-1.51-.94-2.13-1.1-4.16-1.03-8.58-.4-12.17-1.28-.42-.1-.71-.76-.8-.77-.24-.03-.43.94-.69,1.04-.04.01-.41-.38-.76-.36-.73.06-2.51.59-2.82.53s-.53-.72-1.02-.68c-.4.03-.94.83-1.2.8-.64-.07-1.06-.82-1.25-.85-.06-.01.04.17-.84.41-3,.81-6.19,1.03-9.16,1.16-.25.01-.48.62-.55.6-.3-.08-.6-.85-.8-.91-.07-.02-.28.69-1.11,1.07-1.25.58-3.96-.35-5.3.98,0-1.4-1.05-.37-2.17-.43-2.11-.1-7.44-1.19-9.43-1.94-.57-.21-.47-1.2-.76-1.36-.05-.03-.56.36-.83.23-3.64-1.76-5.94-4.6-8.98-6.95-.27-.21-.65.4-1.22-.13-7.73-7.19-12.99-16.85-21.54-22.86-.8-.56-4.37-4.12-5.04-4.09l-.37.85c-1.38-1.52-2.56-2.59-2.53.2.03,3.2,1.59,9.62,2.78,12.45.78,1.85,3.58,5.08,2.78,6.85-.16.35-1,1.09-1.13,1.09-.32-.02-3.38-4.19-4.12-4.97-2.86-3.06-4.04-4.1-7.49-5.86-.94-.48-2.94-2.29-3.13-2.32s-.61.56-.9.54c-2.3-.13-4.87-1.19-7.18-.98-.53.05-1,.29-1.39.64l-.2-.89c-1.07,1.33-3.43-.09-3.85,1.11-.27.77,1.9,4.28,2.52,5.12.95,1.3,3.48,2.26,1.28,3.82-1.44,1.02-2.87-.71-3.83-1.02-.56-.18-3.47-1.12-3.67-1.12-.09,0,.07.8-1.47.47-.2-.04-.35-.57-.73-.63-.71-.12-4.26.75-5.13,1.11-2.61,1.06-6.25,2.97-8.48,5.04-1.68,1.55-1.93,1.95-1.11,4.04.51,1.28,1.43,2.79,2.07,4.03,2.82,5.44,4.48,9.61,11.29,9.52,1.19-.02,1.88-.15,3.27-.13,1.03.02,1.48-1.21,2.77.6,1.21,1.7-1.71,2.66-2.92,3.8-.77.72-1.09,1.36-1.65,2.16-.2.28-.79.37-.78.42.45,2.2,2.81.4,3.52.5.31.05.56.71,1.01.67.49-.04,1.19-.7,1.82-.74.52-.03.58.81.63.8.27-.04,2.56-1.22,3.76-1.42,3.76-.64,7.9-.83,11.51-1.48,1.06-.19,4.57-.6,4.81-.71.79-.37,2-1.57,3.09-1.66,3.1-.26,5.78.7,8.27,2.12.42.24.83-.6,1.22.19.04.08-.26,1.56-.44,1.75-1.56,1.66-1.77-.11-3.51-.78-5.24-2.03-14.67,1.25-20.03,2.55-1.23.3-2.98-.52-4.11,1.07l-.2-.9-4.33,1.95.11-1.16c-2.89,1.69-6.37,1.12-9.58,1.33l-1.08-1.16.9-.2c-1.41-2.04,1.05-4.27,1.85-6.42.45-1.23-.66-.47-1.1-.54-3.35-.55-5.9-1.06-8.46-3.67-1.8-1.83-3.19-5.24-5.66-5.83-.52-.13-5.32-.33-5.89-.26-4.58.53-6.43,2.68-10.11,4.24-.36.15-.58-.48-1.23-.08-2.68,1.66-1.13,1.61-1.07,2.01.09.54-.75.45-.68.85.2,1.12,1.8,2.92,2.61,3.79.98,1.07,6.28,4.64,7.7,5.33.4.19,4.59.43,3.31,2.49-1.05,1.68-1.77.66-2.73.67-.78,0-1.29,1.15-2.1-.39l-.11,1.16c-.31-.33-.84-.56-1.28-.6-3.73-.33-5.66-.55-9.44-.35-2.62.14-2.41-1.16-5.2,1.66-1.74,1.76-.1,2.74.44,4.14.25.64-.68,1.2,1.31,2.81,1.23,1,.95.18,2.23,1.98.12.17.57-.29.89-.08.96.64,1.95,1.37,2.86,2.08l.11-1.16c1.44,1.03.92,2.17-.41,3.04-1.23.8-6.79.99-8.36.72-.76-.13-1.75-.88-1.85-.87-.07,0-.24.67-1.1.93-1.1.33-1.94-.36-2.95-.36-.38,0-.67.45-.97.48-1.14.11-1.99-1.03-3.46,1.04,1.22,1.22,3.13,3.56,2.51,5.41-.55,1.63-5.48,4.56-7.18,5.44-.3.16-.66-.35-.97-.21-1.44.63-3.59,2.11-4.6,3.33-.69.84-1.47,2.65-1.64,3.71-.07.4.43.56.47.83.02.13-.32.41-.23.57,1.7,2.91,3.9,2.82,6.68,3.68l-.25,1c1.32-1.68,2.53-.42,3.82-.46,1.37-.04,7.17-.17,8.05-.39.5-.13,1.06-1.21,1.82-.91,4.08,1.63-2.18,5.34-3.09,7.57.32.47,0,2.59.14,2.59,1.26.02,5.57-.83,6.53-1.59s1.55-2.2,2.76-2.85l-.85-.37c1.24-.69,3.31-5,4.86-4.49s.55,1.69.54,2.19c0,.83.04,3.23-.11,3.84-.21.87-1.61,2.76-1.42,3.17.24.52,2.25,1.35,2.79,1.42,1.5.2,2.6-1.6,3.99.2l-.05-1.03c.94-.55,2.75-.28,3.3-.43,7-1.89,11.44-5.25,16.94-10.38,3.2-2.98,5.37-7.05,8.31-9.59.59-.51,3.29-2.51,4.03-1.95.16.12.15,2.7.08,2.83-.19.35-.94.26-1.05.48-.05.11.25,1.99.08,2.37-.39.88-1.27,1.18-1.51,1.56-.11.17-.93,3.26-1.14,3.67-.53,1.07-1.42,2.18-2.08,3.2,1.53.43.21.72-.25,1.65-.92,1.85-1.63,5.65-2.02,7.74-.25,1.35,0,2.91-.08,4.1-.19,2.61-1.44,5.92-.02,8.3.48.81,1.44,2.25,2.27,2.6.14.06,2.82-.19,3.01-.25,2.72-.93,11.22-8.48,13.07-10.91.2-.26-.3-.75-.09-1,.75-.9,1.94-1.32,3.04-1.1.92.69.12,1.03.24,1.53.48,1.94,1.03,5.47,1.93,6.92.4.64.94,1.18,1.41,1.76.57-.48,1.21-.91,1.72-1.47,1.41-1.54,4.45-7.81,5.15-9.89.15-.45-.62-.68-.61-.78.15-.79,1.8-2.06,1.81-2.2.03-.36-.58-.99-.54-1.53.05-.67,1.08-1,1.09-1.07.03-.34-.59-.94-.51-1.53.08-.53,1.24-2.39,1.42-3.11.58-2.33.49-4.6,1.4-6.88,1.14-2.86,3.14-5.29,4.31-7.88.22-.49,1.38-.71.47-1.51,2.3-.02,1.01-.26,1.15-.76.58-2.14,9.66-9.48,11.95-11.15,2.9-2.13,9.51-5.67,12.85-5.94.43-.03.83-.59.93-.58.37.04.93,1.46.8,2.06-.16.74-1.02,1.48-1.24,2.1-2.05,5.76-4.49,13.01-9.65,16.66-.18.12.34.66.06,1.14-1.28,2.23-4.74,5.65-6.76,7.09-.27.2-2.82,4.71-3.28,5.31-1.14,1.49-2.68,3.1-4.02,4.45l.85.37c-.57.43-1.07.91-1.5,1.49-1.38,1.84-3.23,5.97-3.76,8.07-.05.21-1.43,2.28.14,1.57,1.03-.47,2.85-2.46,3.92-3.15.65-.42.92.26,1.23.1.7-.36,1.41-1.49,2.17-1.55.55-.05,1.67,1.09,1.7,1.53.03.38-1.09,1.26-1.3,1.74-.72,1.58-2.87,5.6-3.18,7-.09.4.22,1.18-.27,3.11-.06.22.26,3.5.22,4.13-.08,1.31-.27,3.57-1.44,4.15.35.6.68-.06,1.06-.34.92-.68,3.65-3.23,4.54-1.38.1.22-.57,4.08-1.67,3.86,1.75.89.62.72.29,2.26-.41,1.88,1.04,4.84-.47,6.01l1.03-.05c-.27,1.69.98,3.1,1.53,4.52.12.32-.28.68-.16.99.47,1.15,1.27,2.31,2.09,3.25,2.1-1.66,4.28-3.66,5.03-6.3.54.86,1.22-.04,1.89.02.86.08.32.57,2.79.48.11,0,.07,1.26,1.77.41s1.99-3.19,1.99-4.85-1.36-3.79.54-5.17c.96-.69,1.48.68,2.31,1.01.57.22.97-.07,1.32.01,1.09.27.95,1.37,2.48-.1,1.5-1.44,1.75-5.01,1.85-7.09.32-6.27-1.48-12.9-.4-20,.21-1.37-.64-2.59,1.77-3.41.83-.08,2.62,3.52,3.04,4.41.15.32-.36.69-.23.97.3.61,3.07,3.95,3.61,4.36.24.18.67-.21,1-.02,2.16,1.26,1.5,1.38,4.24,1.55.38.02,1.04.86,1.28-.11.03-.14-.89-.97.8-1.69l-1.03.05c0-2.06-.53-3.82-.84-5.85-.15-1.02-.1-3.76-.34-4.67-.33-1.28-1.45-2.89-1.75-4.18-.12-.51.39-1.83.35-1.92-1.05-2.93-2.62-6-3.67-9.16-.36-1.07-.9-2.24-1.51-3.19,3.28-.23.01-.42-.62-1.35-.13-.19.42-.62.28-1.2-.37-1.45-2.28-3.69-2.26-3.91s.8-.54.89-.79c.02-.05-.57-.28-.66-.56-.55-1.7-.79-8.26-.22-9.87.17-.48.9-.74,1.01-1.08s-.66-1.03-.45-1.75,1.46-2.37,1.93-3.23c.15-.28-.14-.7.04-1,3.4-5.66,9.59-10.09,16.21-10.8.61-.07,1.18.48,1.62.86l-.05-1.03c.65-.12,1.35.43,1.88.42,1.88-.06,5.3-1.16,7.22-1.29,5.04-.33,10.6.91,15.75.77,1.04-.03,1.86-.22,2.61-1l.47,1.23c1.58-1.73,2.54-.18,2.7-.16.43.07,3.49-.59,4.61-.49,6.16.58,11.23,6.21,14.37,11.12.42.65-.26.92-.1,1.22,1.57,3.06,5.03,6.75,6.61,9.99,5.47,11.2,8.9,23.82,10.97,36.06.12.68.85,2.05.82,2.51-.03.59-.74,1.05-.78,1.4-.01.11.92.76,1,1.94.1,1.48,0,3.56-.04,5.09-.05,2.08.05,3.57-.02,5.63-.14,3.83-.47,8.49-.9,12.63-.1.99-1.16,4.05-1.03,4.76.03.19.69.31.68.37-.01.13-1.01,1.36-1.21,2.41-.23,1.27.28,2.37.16,3.56s-1.44,2.28-.05,2.5c-1.17,1.28-.54,3.6-.71,5.49-.47,5.26-.58,11.72-1.24,16.68-.02.17-.94,1.37-.78,1.81.11.3.97.43,1,.69,0,.09-.73.84-.85,1.55-.1.56-.34,7.7-.29,8.11.02.2.95.33.98.66.01.16-.5.61-.4,1.3.43,2.9,2.72,4.33,4.81,5.93.66-.3-.37-.73-.04-1.09.7-.76,4.09-1.46,4.22-3.53,0-.09-.54-.3-.56-.53-.04-.62.52-1.22.44-2.01-.2-1.88-.46-1.52-.44-3.89.03-4.42.28-8.98.65-13.84.7-9.19,1.61-16.64,2.56-26.37.15-1.49.52-1.99.49-3.5-.06-2.63-.18-7.38.17-10.34.08-.63.7-.96.77-1.25.03-.12-1.9-1.42-.08-1.48-.79-1.47-.48-3.91-.54-5.53-.68-16.06-6.27-34.22-13.4-49.18-8.09-16.95-22.37-35.12-23.94-54.03-.11-1.28-1.1-2.86.21-2.76-.68-1.27-.9-2.58.36-3.52l-1.03.05c.48-.94-.34-1.95-.32-2.56,0-.1.9-1.5.74-1.95-.09-.26-.75-.38-.81-.82s.49-1.28.49-2.05c0-1.45-1.33-1.6.65-2.16-1.36-.28-.77-2.77-.58-4.05.67-4.61,3.56-11.09,7.22-14.4,1.55-1.4,4.84-4.22,6.83-3.49.31-.38-.77-.73-.06-1.04.92,1.17,1.55,0,2.18-.12,5-.91,4.76-.09,9.41.44s8.26.3,12.69,1.61c9.32,2.75,12.66,4.32,22.57,4.7.61.02,3.61.74,3.79.67,1.49-.55.03-.9.07-1.45.04-.59.37-2.14.18-2.68-.86-2.34-2.42-4.15-4.63-5.36-.31-.17-.78.17-1.25-.04-.58-.25-1.17-1.21-1.52-1.25-.23-.02-.58.59-1.12.51-.16-.02-2.26-1.06-2.5-1.24-2.28-1.71,1.31-2.94,2.96-3.3,2.39-.52,5.02-.32,7.32-.55.21-.02.36-.94.67-.98.37-.05,2.51,1.18,2.86,1.23.63.08,9.07-.25,9.73-.36,1.2-.21,2.74-.73,3.76-1.45l.2.9,2.89-2.39c-1.2-.28-.16-.67-.65-1.67-.89-1.86-2.98-2.69-1.25-4.29,1.23-1.14,4.27-.48,5.71.11.69-.45-.64-.81.11-1.16.82,1.2,3.22-.69,3.75-1.57.43-.71-.84-4.95-1.56-5.63,1.91-1.96,8.28-5.07,4.07-7.32-.43-.23-4.11-1.57-4.5-1.67-2.32-.59-7.79-.57-10.12,0-.77.19-3.27,1.63-3.58,1.62-.27,0-.78-1.18-1.43-.32-.55-.39.23-.51.19-.86-.04-.39-.55-.75-.53-.92.05-.45,1.73-1.04,1.44-2.09-1.66-.85-2.65.18-4.09.38-3.68.51-7.77,1.07-11.03,2.69-1.46.73-3.34,4.11-4.58,1.61-.42-.85.63-4.42,2.09-4.43-1.7-.37.43-1.6,1.13-2.56l-.85-.37c.06-.23,2.02-.46.75-1.7-2.79,1.93-5.78,2.88-8.6,4.93-9.14,6.63-16.64,17.21-25.51,22.79-.66.42-.92-.26-1.23-.1-2.77,1.41-4.2,2.55-7.17,3.8-2.1.89-6.75,4.34-4.99-1.47,2.26-7.51,8.43-17.69,14.13-22.9,3.53-3.22,7.54-5.38,11.31-8.24l.2.91c.88-.76,1.9-1.34,2.94-1.84.3-.15.65.35.85.22.52-.34,1.57-1.77,2.46-1.88.07,0,.23,1.1.9.7s3.07-1.93,4.04-2.12c2.52-.5,7.38-1.26,9.53-3.03l5.13-4.25c.7-.58-1.08-2.25-1.84-2.41-1.12-.81-7.45-.89-7.81-1.76-.56-1.36,4.94-5.55,5.9-6.79.19-.25-.27-.7-.06-.99,1.91-2.74,3.5-3.07,4.76-6.65.49-1.38,1.49-1.2.56-3.14-1.39-2.91-4.7-3.84-7.64-3.89-.75-.01-1.54.57-2.28.55-.94-.02-3.2-.67-4.21-.66-2.93.05-5.03,2.13-7.7,3.19-3.93,1.57-7.46,4.87-11.53,6.71-.33.15-.68-.36-.98-.22-.97.47-1.65,1.96-2.63-.01-.76-1.51,1.27-2.39,2.08-3.37,1.4-1.71,2.15-2.46,3.68-4.09,2.64-2.79,5.22-5.65,8.03-8.26l-.85-.37c1.54-1.59,3.56-3.7,4.7-5.56,2-3.27,3.19-9.7,2.92-13.53-.09-1.33,1.32-2.16-.87-3.68-1.62-1.13-1.72-.12-2.43-.08-2.62.14-2.55.68-4.38,1.07-.65.14-1.89-1.03-2.05.29-2.67-2.79,1.9-4.17,3.66-5.7.62-.54,2.6-2.86,2.89-3.51.16-.36-.1-.83,0-1.26.08-.38.55-.72.58-.98.05-.44-.33-1.05-.38-1.68-.03-.44.93-1.7-.57-2.18-.1-.03-1.8.6-2.01.73-1.38.85-4.18,4.89-5.14,4.61-2.32-.67-.74-2.3-.66-2.9.2-1.38-.48-4.77.62-4.66-1.37-1.12-.02-2.67-.14-3.5-.1-.66-.73-1.34-.89-2.08-.52-2.41-.32-3.8-2.22-5.96-3.3-3.76-8.72-.23-10.55,3.51-.8,1.65-1.28,4.56-2.11,6.6-.11.28.3.73.08,1-.13.17-2.76,2.37-3.09,2.59-.31.2-4.86-3.6-6.71-.9-.42.62.4.96.38,1.25-.24,3.63.46,4.55.96,7.71.19,1.24-.65,3.5.74,4.39-1.65.42.11,1.91-.84,3.62-1.95,3.5-3.05-.95-4.15-2.47-.88-1.2-4.72-5.54-6.15-5.36-.35.05-.72.67-1.03.74-.6.13-.9-.76-1.84.48-.17.23.19.59.07.85-1.28,2.73-2.68,5.41-.86,8.44l-.85.2c1.25,1.29.22,3.45.31,4.17.17,1.41,1.1,1.64,1.12,4.38,0,.5.48,1.05.4,1.55-.06.35-1.69,1.32-1.95,1.86-1.91-.42-1.25-2.39-1.32-2.54-.34-.7-1.7-2.66-2.25-3.42-1.85-2.54-4.08-4.79-6.32-6.96l-.36.83c-4.02-3.08-4.32,3.93-6.47,5.92l.8.36c-.49.87-1.25,2.21-1.49,3.13-.14.53-.17,6.32-.12,6.93.31,3.25,3.6,5.3,6.04,6.97.28.19.76-.21,1-.03.51.39,1.74,1.9,2.12,2.49.4.63-.22.87.04,1.49.63,1.53,1.28,3.08,2.17,4.49l-.9.2.79.97c.82-.51,1.53-1.52,2.35-1.93.12-.06,1.73-.47,2.48-.73,4.43-1.52,3.07,2.92,3.08,5.7.02,8.54-2.64,15.58-2.67,23.77,0,1.05.24,2.55.24,2.69,0,.05-.74.06-.79.21-.51,1.49,1.57,6.82,2.24,8.29.13.29.68.49.66.55-.03.11-1.65,1.33-1.76,1.37-.99.43-2.84-2.49-3.12-3.4-.62-2,.06-5.43-.04-7.41-.02-.34-.74-2.02-.74-2.63l1.16.11c-1.17-1.05-.28-1.81-.24-2.68.19-3.69.67-11.88,1.53-15.16.32-1.21,1.79-1.27.13-3.32l.87-.2c-1.28-.72.74-5.06-.9-4.63s-3.92,2.93-4.75,4.47c-.13.24.64,1.47-.34,1.35-.14-.02-1.69-1.39-1.91-1.78-.77-1.41-.52-6.48-1.24-8.41-1.31-2.07-3.04-3.75-4.85-5.35-.06-.01-.32.85-.37.85-.19,0-2.65-1.9-3.07-2.22-2.08,1.3-3.96-2.03-4.22-2.01-.16,0-.61.8-1.16.64-.48-.14-1.22-1.11-1.47-1.12-.51-.01-3.25,2.82-3.63,3.52-.2.38.17.8-.06,1.25-1.49,2.85-3.86,6.26-3.68,9.78.03.53.47,3.77.57,4.12.47,1.64,1.43,3.48,2.51,4.81l-.9.2c.95,1.39,1.39,2.01-.28,2.93l.11-1.16c-1.25,1.7-2.8-1.23-3.94-2.15l-.11,1.16c-.92-1.04-2.25-2.17-3.71-2.21-1.58.95-1.29,7.13-.16,8.66l-.88.2c1.2.99.54,3.51.74,4.13,1.01,3.19,5.18,7.89,7.82,9.97,1.11.87,7.02,3.39,5.65,5.45s-5.86-2.48-7-2.95c-.14-.06-2.53-.55-2.97-.63-1.94-.37-8.72-.88-10.63-.18-.43.16-.78.31-1.1.66,1,.92,1.4,2.24,2.17,3.31,7.57,10.55,17.3,15.73,26.43,24.09,2.28,2.09,7.13,6.14,8.55,9.04.23.47.52,1.51,1.21,2.82.77,1.47,3.24,4.71,1.46,5.61l1.03-.05c-.28,1.16.37,2.19.52,3.23.65,4.52.18,10.49.2,14.56,0,1.25-1.14,2.91.29,4.34l-1.16-.11c.32.4.64.87.66,1.4.18,4.59-.59,9.48,1.66,14.94.44,1.08,1.35,3.59,1.58,4.04.57,1.15,2.76,2.46,1.1,3.62-1.81,1.26-3.3-1.56-4.49-3.1-3.29-4.25-8.39-11.24-12.17-14.8-.58-.55-.87.2-1.45-.35-1.03-.96-1.85-2.52-2.91-3.56-2.83-2.78-6.06-5.23-8.53-8.35l-.37.85c-.36-.12-4.46-4.63-5.51-5.32-2.77-1.83-6.02-4.89-8.97-6.31l-9.63-9.69-.82.33c-.64-.45.53-.63.25-1.01l-.96.17c-3.09-3.4-6.06-6.8-9.03-10.31-5.35-6.34-9.08-10.6-11.16-18.71-.25-.96-.89-3.66-.85-4.86.03-.92.89-1.4.91-1.56.02-.13-1.24-.51-1.4-2.05-.07-.67.42-1.21.37-1.59-.53-4.56-.42-5.6-.27-9.92.23-6.71,2.1-10.33,6.6-16.24,5.28-6.93,11.5-10.06,15.92-17.67.14-.24.69-.34.68-.43-.01-.24-.52-.66-.53-1.08-.01-.55.97-1.34-.02-1.63-.04-.01-.27.63-.53.67-.2.03-3.43-.08-3.89-.12-.95-.08-5.05-1.36-4.83-2.61.1-.58,5.86-3.83,6.77-4.51,2.5-1.87,7.43-5.87,8.68-8.65.29-.65-.33-1.01-.06-1.21l1.28.57c-1.53-1.18.21-1.7.41-2.77.13-.73-.48-1.39-.62-2.07-.1-.49.75-1.36-.88-2.36l-.37.85c-.53-.34-1.23-1.54-1.64-1.76-.21-.11-4.34-1.04-4.58-1.04-1.86,0-2.75.43-4.45-.15-1.84-.63-2.22.66-2.43.73-.49.17-4.72-.32-5.29-.24-.5.08-.9.74-1.25.79-.71.08-2.05-2.11-2.73-2.52-.79-.03-2.06,3.76-3.15,2.07-.74.48.76,1.14.72,1.54-.02.24-2.34,3.1-2.77,3.96-.62,1.27-1.18,4.08-1.59,5.51-.35,1.23-1.76,2.25-.31,2.49-1.85,4.27-2.77,8.21-4.83,12.46-.1.2.28.74.05,1.22-.52,1.07-4.2,4.49-5.38,4.09-1.06-.36-3.14-2.95-1.29-2.87-.53-.84-.59-5.01-.41-5.96s1.6-2.32,1.65-2.57c.11-.57-.48-1.02-.44-1.61.02-.31,1.73-4.39,1.97-5.72.5-2.74.15-6.19,1.54-8.87l-.75-.36c2.79-6.43.86-14.02-2.71-20.23-1.93-3.36-6.41-6.1-9.41-2.71.49,2.13-2.11,1.7-2.83,0-.2-.48-.39-1.25-.48-1.77-.76-4.76-.18-8.87-2.15-13.49-.59-1.38-1.41-3.51-2.98-2.09-.2.18-1.89,2.75-2.08,3.13-.12.26.29.9.01,1.46-1.23,2.4-1.83,1.15-3.37.99.24-.16.5-.46.47-.75-.38-3.02-3.45-9.19-5.33-11.68-3.08-4.07-7.05-7.26-11.91-8.81-.8.28-.03.85-.1.99-.09.19-.56.15-.6.28-.61,1.79-.63,4.13-.54,5.74.02.4-.67.63-.78,1.34-.17,1.1.83,1.85-.73,2.56-.3.14-.71-.35-1.22-.22-1.8.48-.56,1.1-.54,2.03.03,1.5-.24,2.78.99,4.24l-.9.2c-.04.16,1.09,2.05,1.24,2.63.12.5-.25.87-.15,1.25.69,2.51,2.45,4.93,4.09,6.97l-1.43-.43c.63,1.01,3.88,3.25,2.27,4.39-1.3.92-2.5-.48-3.59-.74-.9-.22-2.55-.28-3.42-.46-.6-.13-1.69-1.31-2.41-.48-.43.96.03,1.99-.08,2.92-.38,3.21-.31,5.04-.21,8.6,0,.32-.24.77-.5.99l1.16.11c-1.11,1.12.21,2.68.54,3.98,1.03,4.06,1.6,3.37,3.03,6.21.14.28-.42.67-.27.96,1.03,2.11,4.76,5.43,6.35,7.65.64.89.51,1.82,1.36,2.35-1.08,1.46-1.98.74-2.57.87-1.84.4-4.05.48-5.25,1.79-.09.1-.79,2.45-.8,2.59-.25,2.44,2.62,6.92,4.15,8.97,4.83,6.49,9.42,9.69,15.53,14.27,4.85,3.64,9.04,6.92,11.71,12.79.15.32-.33.66-.2.98,1.02,2.41,3.11,6.96,1.53,9.55-.99,1.61-1.15.4-1.94.16-6.47-1.9-11.6-6.63-14.69-12.93-.5-1.01-1.26-4.68-1.7-5.89-1.19-3.32-2.36-7.38-5.15-9.54-.25-.2-.74.28-.99.08-2.05-1.56-7.23-7.84-8.4-10.15-.14-.29.42-.67.27-.96-.37-.74-1.25-1.31-1.67-2.18-1.1-2.31-3.02-6.42-1.26-8.55-1.9-.4,1.14-2.67,2.26-3.32,1.85-1.09,2.39.4,4.05-.8l-4.91-5.93Z"/>
</svg>