<?xml version="1.0" encoding="UTF-8"?>
<svg id="Ebene_1" data-name="Ebene 1" xmlns="http://www.w3.org/2000/svg" viewBox="0 0 475.4 480.26">
  <defs>
    <style>
      .cls-1 {
        fill: #e8dfd7;
      }
    </style>
  </defs>
  <g>
    <path class="cls-1" d="M378.66,384.85c-.48-1.11-3.98-5.72-5.42-5.07,7.05,13.29-7.04,13.27-16.49,13.59-20.74.71-43.16-2.21-62.92-1.31-1.35.06-6.74.4-7.32.27-1.01-.22-.3-7.92-2.81-6.38-.59.36,2.38,9.08-8.87,5.45,1.61-3.69,8.24-15.1,12.16-15.52,1.14-.12,3.1,1.37,4.82,1.61,9.63,1.34,19.35,2.33,28.92,4.01l-36.66-1.15c-1.15,2.41.81,2.17,2.74,2.57,17.26,3.59,41.95,5.38,59.86,6.51,6.41.4,15,1.69,20.16-2.65-5.93,1.29-10.6-1.2-16.1-1.94-6.98-.93-14.34-.9-21.25-2.18-.74-.14-3.34-.51-1.59-1.37,4.35.34,14.46,2.13,18.23,1.03.49-.14,1.43-.88,1.21-1.13-1.49-1.18-4.34-.09-5.14-.29l-17.48-4.16,20.36,2-.91-2.11c-16.56-5.26-50.9-15.28-65.41-1.83-5.73,5.31-8.01,15.86-16.19,18.43-11.39,3.58-22.73-1.48-30.29-10.07,1.3,15.38,25.05,21.21,36.46,13.87,1.34-.86,3.73-4.19,4.51-4.18,2.81.02,6.11,3.81,9.66,2.61,1.84,9.79,3.72,19.31,8.36,28.25,43.84,84.43,175.14,44.76,162.18-51.66l-5.69-22.88c3.97,3.84,5.24,17.22,11.17,17.66,8.13.59,5.76-6.09,4.42-11.58-3.51-14.42-13.98-28.14-23.9-38.82,5.71-4.47,11.32-11.4,3.54-16.73-1.96-1.34-4.47-1.77-6.22-3.03-1.41-1.02-2.86-4.02-6.4-6.03-15.88-9.02-41.75-8.23-60.03-9.38-4.4-.28-9.05-1.41-13.27-1.68-14.67-.94-26.68,7.27-36.97,17,5.08,2.96,10.02-.69,15.29-.62-1.56.76-12.46,6.97-11.51,8.62,22.6-8.04,51.37-14.35,74.83-5.91,1.31.47,2.72.84,2.67,2.56l-4.69-.17,5.84,3.28c-20.27-7.47-47.2-10.35-66.83.19-1.99,1.07-9.06,6.57-9.9,6.16-3.12-4.96-6.41-9.88-9.88-14.6-1.18-1.6-7.48-8.12-7.64-8.67-.23-.78.98-5.98,1.24-6.14.43-.25,5.37,2.21,6.59.14,1.62-2.74-2.21-2.94-1.7-5.1.62-2.69,5-8.72,6.49-11.98.9-1.96.97-5.07,2.2-6.43.67-.73,3.44,1.2,5.86-.35,1.73-1.11,2-3.23,2.16-3.34.54-.36,8.1,8.09,11.42,3.68-4.32-.23-8.81-10.01-12.87-7.91-2.58,1.33-1.78,6.58-7.63,6.58l-13.67,19.7c-1.82-2.05-.33-1.74.4-3.02,4.96-8.73,12.7-17.25,12.19-28.06.99-.58,6.23,5.7,8.42,4.37-6.27-12.5-19.31-9.29-29.66-14.63,1.48-.83,1.84-2.78,3.39-3.51,7.02-3.3,28.92,1.9,36.76,4.01,3.06.82,5.22,2.93,8.91,2.15l-8.45,3.67-2.97,2.63c-.33.56.7.86,1.22.75,2.96-.59,10.88-5.41,13.25-5.82,6.27-1.08,8.3,3.39,7.35,8.83-8.53-5.41-17.39-3.69-25.1,2.08,4.47,1.49,10.03-1.78,15.23-1.36,3.47.27,6.77,1.51,10.15,2.19,2.11-8.42,4.63-13.12-5.06-16.4-9.21-3.12-38.7-9.94-47.4-7.31-4.12,1.24-10.61,7.54-6.53,11.45.5.48,4.51,3.08,4.81,3.16l13.89,3.3c.29.07-.07,4.82-.48,5.95-2.3,6.3-12.25,14.44-12.15,23.25-11.47-4.27-3.55,6.29,3.21,6.45-1.27,1.76-3.73,3.99-4.2,6.12-.97,4.35,14.38,22.48,17.58,27.33,8.04,12.2,15.27,25.08,22.75,37.63l-2.72-2.53c-9.87-15.53-19.43-31.51-30.12-46.48-1.53-2.14-7.93-11.55-9.6-11.79-4.75-.7-10.29,20.16-12.28,24.12,5.07-3.98,8.67-10.49,11.43-16.22,1.49-.8,12.16,13.65,11.42,15.37l-6.51,3.79,3.73-5.74c-12.57,6.45-22.66,17.5-27.69,30.83-3.23,8.57-.21,9.19-12.1,7.04l19.63-30.86-.11-1.42c-11.21,7.54-20.34,20.91-22.85,34.34,6.12,1.02,13.77,1.45,19.57,3.62,2.04.76.39,2.08,1.28,2.29s.01-1.71,2.18-1.47c16.89,1.84,36.88,10.47,53.19,15.56,5.86,1.83,11.79.07,13.93,7.11l-5.8.51,6.05,2.41-6.23,2.29c3.93.55,8.89,3.65,12.23.59,3.42-3.13-1.98-4.15-3.4-5.64-.43-.45-5.88-10.24-5.99-10.85-.08-.43.12-1.52.75-1.22l10,13.73c1.49-.38.32-2.2.06-3.1-1.01-3.56-3.66-8.56-5.46-11.94-9.74-18.18-22.98-35.76-33.7-53.45,32.45-14.2,69.38-12.37,96.54,12.08l-51.66,53.99c12.23-7.45,23.34-18.96,33.79-28.98,7.18-6.88,14.31-13.97,20.83-21.48,43.17,44.89,21.27,121.41-40.45,135-46.81,10.31-88.82-20.04-98.22-65.69,1.72.53,6.17-.35,7.26.88.36.41,1.17,8.56,1.8,10.75,16.51,58.14,96.22,71.4,132.36,23.58,18.38-24.31,21.49-63.44,2.31-88.14-2.27-2.92-6.58-7.94-9.79-8.51,24.52,33.88,26.24,78.45-8.78,106.27-43.09,34.23-104.37,8.08-114.87-44.28l64.93,1.31c.46,2.91.94,4.99.17,8.01-2.53,9.83-8.12,20.6-11.11,30.51-1.19,3.95-1.78,8.12-2.87,12.09l5.67-12.51,9.3-26.53,2.92,11.58-6.71,28.23,1.79.43,5.33-22.41,4.8,18.85,1.59,2.08c-.23-11.14-6.97-23.6-2.76-34.26,4.56,10.87,9.32,21.76,15.13,32l.75-1.22-15.21-33.48,2.51-12.64c-1.63-3.69-3.87,7.96-3.93,8.53-2.64-3.7-6.66-11.23.69-10.78,3.07.19,6.67,2.35,8.31,4.87,3.67,5.65,8.18,22.14,11.49,29.65,1.75,3.97,3.81,7.89,5.63,11.83l.07-3.1-12.56-33.95c1.89.25,2.89,1.95,3.97,3.29,7.4,9.2,13.35,23.39,21.03,32.95,1.67-.55.17-2.05-.25-2.9-3.98-7.95-10.16-15.71-13.7-24.07,6.45,3.35,11.66,8.99,17.74,13.17,1.05.72,2.96,2.84,4.21,2l-28.11-25.15,36.16,15.21c-.81-2.58-4.96-3.85-7.31-5.05-8.19-4.19-25.36-9.65-31.63-14.19-1.05-.76-6.84-8.94-7.18-10.15-.5-1.78,1.37-3.76-.11-7.16l7.63,3.72-6,1.39,11.15,1.94,39.17,21.39c.12-1.61-1.41-1.98-2.41-2.72-8.99-6.65-20.02-11.1-29.48-17.04-1.08-.68-2.67-.91-2.56-2.62,13.46,3.32,26.24,8.84,39.91,11.37-.23-1.36-4.22-2.57-5.54-3.08-2.4-.93-19.82-5.85-19.51-7.12,7.16.06,14.39.27,21.57.23,1.54,0,5.2.57,6.03-.76-11.74-2.67-25.4-.8-36.96-2.27-7.54-.96-14.31-5.16-21.24-5.9-1.35-.14-2.95.03-1.75,1.48ZM403.09,294.07c7.53,1.52,33.71,5.7,38.02,11.39,1.82,2.4-3.28,8.99-4.45,8.8-.86-.14-11.32-9.78-13.89-10.51l-19.67-9.68ZM433.78,320.31c2.53.59,4.58,3.09,6.32,4.9,10.24,10.65,17.5,25.4,23.01,39-1.15-.87-4.52.03-4.66-.16-.25-.31-.93-6.05-1.55-7.87-2.31-6.72-5.52-13.52-9.55-19.37-4.04-5.87-9.69-10.55-13.57-16.5ZM309.34,321.96l6.15-8,7.61,13.51c-10.36,5.84-17.65,15.31-20.55,26.97l-9.86-2.35c-1.08-1.64,19.2-29.08,22.75-32-1.83-1.93-4.21,1.98-6.11,1.87ZM303.45,354.65c4.51-6.13,9.37-12.43,14.53-18.01,1.35-1.46,6.47-7.61,7.9-6.92l26.68,41.34c-15.61-7.61-32.05-13.07-49.12-16.41ZM293.14,337.94c.45-.2,3.91-6.54,6.15-5.58-2.11,2.77-3.83,5.52-5.39,8.64-1.14,2.28-3.42,10.15-3.9,10.44-.32.19-6.06-1.05-7.37-.81-.44-.71,8.3-13.56,9.06-13.88.21-.09,1.25,1.26,1.45,1.18Z"/>
    <path class="cls-1" d="M229.38,371.04c-5.91.93-23.08.04-27.33,3.44-2.54,2.03-2.53,11.33-.43,12.68,1.79,1.15,14.84-.57,16.61-1.91,4.08-3.08.5-7.29,1-11.23.8-1.93,18.72,2.78,22.12,2.8l-13.67.77-6.85,1.91c2.81,3.06,19.65,1.22,20.31,2.01.16.2-.17,2.8,1.38,4.92,5.98,8.2,19.82,5.62,23.66-3.47,7.99-18.88-14.46-28.79-25.69-14.4l10.62-2.62c19.42.87,11.08,26.99-5.6,19.41-1.86-.84-2.33-2.51-3.3-4.08,3.1-1.34,7.57.76,9.91-1.89-2.2-.64-4.53-.95-6.74-1.61-1-.3-2.6,0-2.01-1.41,3.84,1.31,8.4-2.45,11.6-2.92,2.99-.45-1.02,4.51,1.15,4.99,7.22-12.29-6.95-7.53-14.13-7.42-1.63.03-10.98-.02-11.43-.56,6.36-13.58,22.65-13,32.6-21.59-15.62,1.37-30.46,4.13-33.77,22.18ZM202.31,381.73c-.16-.28.66-3.09,1.1-3.79,2.26-3.66,10.83-3.28,14.68-2.86.18.32-2.37,6.61-2.69,6.81-.56.35-12.77.42-13.09-.15Z"/>
    <path class="cls-1" d="M268.63,337.85c4.69-3.52,9.18-10.16,12.41-15.24,8.61-13.58,14.61-28.69,22.22-42.8-1.72-.81-2.3.34-3.36,1.36-6.4,6.14-25.56,42.61-29.79,52.25-.64,1.44-1.29,2.84-1.47,4.43Z"/>
    <path class="cls-1" d="M336.14,320.75c7.27-.56,14.18-3.45,21.38-4.4,14.04-1.85,26.25-.27,39.49,4.79l18.44,8.54c-17.83-21.34-57.3-26.09-79.31-8.93Z"/>
    <path class="cls-1" d="M366.88,370.67c2.51-.08,6.24-3.19,8.16-4.76,6.28-5.13,15.69-14.04,21.41-19.9,4.92-5.04,8.89-10.83,13.31-16.26-1.66-.83-2.34.4-3.5,1.14-4.02,2.59-9.64,8.48-13.28,11.98-9.14,8.8-17.5,18.49-26.1,27.79Z"/>
  </g>
  <g>
    <path class="cls-1" d="M198.32,151.61c-.02-.55.56-1.57.42-1.8-.17-.28-5.06-.14-6.26-1.49l6.7-.3c-2.52-3.07.91-5.22.41-7.45-.99-4.48-17.86-7.26-9.16,4.43-4.77-1.67-12.14,4.11-7.62,8.14-5.16,2.79-1.09,3.75-.47,5.85,1.13,3.81.26,9.23,2.52,13.34,1.13,2.05,5.18,4.46,5.33,5.52.3,2.17-1.84,10.45-3.64,11.24-1.98.88-3.36-1.82-3.83,4.28,4.4-2.16,9.09.09,6.3,5.29l-9.21-5.03,4.48-18.82c-4.67,1.29-3.66,10.38-9.3,7.27l3.27,2.2c-4.23,4.95-5.82,24.55-10.23,26.87-3.05,1.61-9.21-1.79-13.12-2.65-1.82-.4-8.16-.42-8.68-1.08-1.61-2.01,3.25-1.26,2.42-2.25l-4.94-3.07c4.42-.51,5.25,3.1,7.23,4.35,1.41.89,7.22,1.38,9.15,2.37-.74-2.73-5.78-2.55-7.53-4.14l9.27.79c-3.39-3.83-22.43-3.57-24.19-5.77s2.83-1.03,2.43-2.26l-13.44-3.2,4.22-1.83c-1.15-.39-3.91.6-4.6-.21-.59-.68-.94-13.71-1.42-16.36l-3.45-11.26c3.4,4.08,18.41,4.38,22.2,1.9,2.31-1.52,2.8-3.13,3.41-5.75.48-2.08.78-9.75-1.85-8.48-.51.25,1.81,7.43-4.25,9.85-1.19.48-14.3.97-15.76.63-5.97-1.4-5.74-11.75-6.87-16.88,3.15.58,6.23,1.71,9.4,2.22,11.06,1.77,24.63,3.69,35.73,4.6,5.23.43,12.39,1.07,17.05-1.5-8.27-1.27-16.64-3.61-24.85-4.96-4.29-.71-9.59-.58-13.86-1.37-.99-.18-2.62-.11-2.04-1.46l3.11-1.16c-3.84-1.53-27.28-5.24-28.95-1.67-.82,1.73,2.19,2.61,2.5,4.56,1.07,6.8-1.22,15.89-.81,21.92.16,2.43,3.85,8.92,4.54,14.04,1.58,11.67-3.69,28.8,13.01,29.86-.92,1.81-3.45.12-5.01,2.23-1.12,1.51-2.92,17.12,1.87,16.89,6.08-1.92-1.13-15.73-.4-16.18,15.68.98,26.09,6.62,5.38,13.12-.56.18-3.65.01-2.29,1.81.71.95,9.45-1.58,12.15.51,2.26,1.75,8.67,18.04,3.06,17.21-.52-.08-6.43-5.04-8.5-6.17-6.79-3.73-13.57-6.3-21.34-7.33-1.87-.25-10.92-.59-12.24-.23s-.68,2.6-1.73,2.54c-1.5-.07-3.39-1.1-5.25-1.22-71.73-4.71-113.89,86.37-68.12,142.78,36.48,44.95,115.08,44.07,142.35-8.54.92-1.78,5.24-10.48,3.52-11.66-.56-.38-6.67,9.81-7.68,11.12-63.46,82.2-181.54,13.48-147.51-76.8,14.64-38.83,53.92-53.18,91.88-54.57l33.9,10.98-1.97,4.27c-2.55-1.45-7.84-5.66-10.34-6.25l-15.69-3.73c-.74,2.29-.49,1.46.93,2.09,7.68,3.39,15.64,6.39,22.35,11.58-11.98,21.51-24.69,43.07-42.33,60.4-.8.15-3.02-3.82-3.17-4.36-3.74-13.47-4.87-31.97-7.82-46.24-.58-2.8-1.12-5.9-2.42-8.45l7.97,52.08-6.27-7.22-11.47-39.61c-1.34.45-.39,2.92-.17,3.93,2.34,10.74,5.6,21.38,8.19,32.06-12.09-7.76-14.66-23.56-21.42-35.38-1.63.49-.14,2.09.15,2.97,2.14,6.37,4.95,12.52,7.48,18.72l-16.05-14.98c-1.06-.24-1.45-.87-.79-1.79,1.26-1.74,13.27-7.78,16-8.82,19.86-7.56,41.72-5.26,61.35,2.09l-7.09-5.19c-71.35-31.44-136.39,58.83-85.29,117.55,45.84,52.68,131.54,21.43,132.7-48.04.25-14.73-5-33.32-14.83-44.43-1.54-1.74-8.71-7.74-8.89-8.32-.38-1.17,4.48-6.34,4.45-8.45,24.8,19.35,30.53,54.8,23.54,84.2,5.35-3.64,6.92-14.23,7.56-20.35,2.42-23.22-8.75-47.89-23.94-64.82-2.75-3.07-5.68-2.09-3.24-7.56.82-.61,3.13,2.65,3.81,3.39,22.62,24.65,32.16,54.82,24.75,88.05l-.16,8.12c15.59-29.48,5.67-73.23-18.72-95.19-1.59-1.43-8.07-4.94-8.15-6.49-.04-.77,3.28-8.12,4.13-8.59.25-.14,5.23-1.57,5.52-1.58,3.44-.17,7.88,3.38,10.58.44-3.27-.72-6.46-4.29-9.61-4.84-3.59-.62-7.6,3.68-12.11.61,4.53-5.74,9.32-10.27,12.98-16.8,4.45-7.94,6.6-16.26,10.19-24.49,2.03-1.98,7.87,3.83,11.46,3.12.78-1.47-1.73-.82-1.51-1.79.34-1.49,2.48-2.42,2.95-4.1.56-2-1.11-3.54-.66-4.62.12-.29,3.02-5.11,3.24-5.35.43-.49,2.41-.17,3.65-2.13,5.4-8.55-7.8-16.01-4.14-24.73-6.16-.8-2.74,9.32-3.24,9.64-1.81,1.18-1.65-1.51-1.77-2.31-.38-2.6.88-6.19-2.58-7.26,2.42-3.73,7.56.22,10.23-3.22l-13.65-2.31c.16-2.61.9-1.37,2.44-1.55,4.02-.46,8.82,1.01,12.06.27.11,2.83.12,4.49,2.51,6.48,5.48,4.57,27.48,10.21,33.65,6.9,2.51-1.35,3.31-7.41,1.75-8.19-5.34-2.65-6.23.56-6.54.38-8.87-5.13-16.5-10.73-27.14-7.41,7.72,4.09,16.38,5.4,24.56,8.2-1.9,1.18-2.78,3.29-3.18,5.41-5.56-6.91-28.97-2.23-21.38-13.61-1.92.6-3.26,1.61-4.22,1.84ZM146.06,212.11l22.57.62-15.53,29.45c-2.9.01-.97-2.68-1.46-4.82-.84-3.59-2.65-8.43-6.51-9.4-.4-.62,10.51-4.59,6.25-11.5-1.18-1.92-4.85-2.34-5.32-4.36ZM121.8,298.19l23.48-38.28c.81-1.3,2.05-1.44,3.32-.8,1.68.85.42,1.85.11,2.6-2,4.83-7.12,12.51-10.21,17.01-4.65,6.78-10.47,14.27-16.69,19.47ZM84.63,331.02c4.29-7.68,10.47,5.54,15.89-4.73,3.5-6.62,2.29-3.63,7.96-8.08,11.29-8.87,20.32-18.44,29.07-29.83,2.82-3.67,5.58-9.64,8.31-12.59.71-.77,1.55-2.08,2.85-1.45,2.97,1.44,13.76,25.27,15.05,29.77,18.58,64.6-52.66,116.03-108.46,77.49-16.75-11.56-26.71-29.98-29.53-49.89l48.78-2.12c-12.42,9.36-30.6,7.49-44.87,13.47l28.44-4.12c-5.46,5.12-13.54,7.18-19.31,11.49-.76.57-2.78,1.24-1.53,2.48,4.59-1.56,35.42-20.75,37.79-17.52-10.33,9.75-21.81,18.29-31.92,28.29-.66.65-2.71,1.41-1.47,2.58l38.41-32.06,9.02-2.13-4.47-1.06ZM32.68,294.91c.64-5.12,16.29-26.41,20.61-25.34,1.42.35,19.04,19.02,20.36,20.94,2.47,3.59,3.62,9.83,5.98,13.74l-33.63-27.87-.86,1.67,35.69,30.44,3.84,6.43-44-28.38-2.35.31,39.86,27.47-15.59-2.94-29.9-16.47ZM31.27,296.55l24.27,13.36-19.6-2.66c-1.82.8-6.5-2.14-6.55,1.17l32.45,5.03,10.35,6.09-46.04-1.47c-.02-7.78,2.97-14.27,5.11-21.52ZM25.93,318.96c8.4.75,16.85,1.57,25.29,1.92,7.04.3,17.65-.64,24.01.39,3.4.55,5.12,2.31,7.97,3.74l-3.73,2c-18.05,0-36.17,2.53-54.1,2.23l.55-10.29Z"/>
    <path class="cls-1" d="M226.89,362c-1.07-3.43-3.9-6.12-5.36-9.32-3.03-6.63-8.6-19.38-9.65-26.19-2.77-18.01-2.69-62.21-16.48-74.77-4.69-4.27-10.78-5.48-15.91-8.94-.84,1.77.4,2.3,1.37,3.35,7.15,7.76,11.46,6.73,15.98,18.47,11.43,29.71,2.73,63.84,21.34,90.14,2.01,2.84,5.27,6.33,8.7,7.26Z"/>
    <path class="cls-1" d="M221.88,315.36c-2.01-10.26-.83-20.86-2.02-31.27-2.16-18.99-11.79-46.04-21.02-62.8-3.18-5.78-9.75-10.48-8.42-18.53-7.17,8.89,4.75,21.97,8.75,30.56,5.06,10.88,11.64,28.77,13.82,40.45,1.77,9.49,1.56,32.21,6.15,39.05.77,1.14,1.04,2.48,2.73,2.52Z"/>
    <path class="cls-1" d="M220.32,326.5c-3.77,3.7,4.95,15.94,8.44,17.92,1.5.85,2.06-.72,1.69-1.43-.08-.14-1.4-.49-1.91-1.47-.55-1.06-4.13-7.82-3.32-8.31,11.86,8.61,25.59,12.94,40.16,14.28.08-1.89-1.55-1.91-2.72-2.53-5.8-3.03-13.31-5.01-19.45-7.91-5.59-2.65-13.36-8.54-18.13-10.33-1.07-.4-4.13-.84-4.76-.21Z"/>
    <path class="cls-1" d="M223.67,315.8c7.22,15.05,27.5,20.74,42.94,22.51l-42.94-22.51Z"/>
    <path class="cls-1" d="M148.29,167.87c1.42,2.77,6.51.94,8.95,2.51,1.25.81,1.72,5.18,5.44,6.7,6.38,2.59,14.81-9.13,18.57-13.42-1.32-1.98-14.09,9-16.67,8.37-1.68-.4-2.56-4-5.5-5.11-3.49-1.32-5.6.5-8.85-.23l2.75-13.54c-3.92,2.79-6.88,10.47-4.7,14.72Z"/>
    <path class="cls-1" d="M177.42,219.57c1.78,7.33,12.18,14.59,14.65,20.5.86,2.05-.56,2.82.26,4.29.58,1.04,5.97,7.54,6.91,6.9,2.59-6,.15-9.71-3.17-14.49-4.36-6.29-11.9-13.55-18.65-17.2Z"/>
    <path class="cls-1" d="M170.01,231.78c1.76,2.65,12.88,4.84,15.91,7.79,1.24-4.72-11.19-9.39-11.61-10.44-.5-1.25,1.17-3.96,2.05-5.08-1.09-1.43-8.56,4.4-6.35,7.73Z"/>
  </g>
</svg>