<?xml version="1.0" encoding="UTF-8"?>
<svg id="Ebene_1" data-name="Ebene 1" xmlns="http://www.w3.org/2000/svg" viewBox="0 0 475.4 480.26">
  <defs>
    <style>
      .cls-1 {
        fill: #e8dfd7;
      }
    </style>
  </defs>
  <path class="cls-1" d="M465.06,394.88l-7.36,11.04c.33-4.07,1.88-8.31,1.87-12.39,0-1.97.76-3.82-1.88-3.26-.15,8.23-4.09,15.46-2.76,23.94,2.74.59,3.15-3.19,4.57-4.08.61-.38,4.31.26,5.55-1.44v-13.81Z"/>
  <g>
    <path class="cls-1" d="M353.64,409.61c-.03-.11-1.33-.44-1.66-1.53-.54-1.82-.07-3.95-.19-5.84-.31-.38-2.56,1.07-2.75.93-1.2-.88-5.75-19.91-6.19-22.84-1.05-6.96-2.65-28.56-.99-34.53.21-.76,1.28-1.94,1.63-1.58.05,2.81,2.46,5.66,4.6,7.37l1.84-6.44.94,13.8c4.7.54,4.34-5.35,3.7-8.78-.42-2.27-2.54-1.89-2.8-2.91-1.31-5.02,1.92-9.93,6.45-5.8.47-.68,1.26-11.99,2.03-14.13.48-1.33,2.11-1.31,2.63-2.17,1.14-1.89,2.66-7.26-.99-5.37-3.23,1.67-1.85,17.23-11.02,16.13.23-3.14-.68-6.97.67-9.93.66-1.44,2.44-1.83,3.32-3.2,3.41-5.3,7.55-14.56,11.26-19.03.81-.98,10.24-10,10.94-10.29,1.67-.68,2.57.03,4.19.09-2.01-4.4.36-1.76,2.32-3.65,1.29-1.25.98-4.35,2.76-5.55l-1.38,8.28c.85.83,7.99-3.6,12.49,2.7,1.32,1.85,1.18,3.65,2.21,5.16,6.8,10.04,16.33,20.54,23.46,30.87,2.53,3.67,3.3,8.76,7.87,10.99-3.1-8.59-8.83-15.38-12.43-23.94-3.01-7.18-7.37-13.05-12.87-19.36-2.19-2.51-11.68-10.68-12.26-12.61-2.61-8.8,4.28-21.47.26-30.64-.27-.62-1.51-1.72-2.28-1.86l-2.3,22.12-1.39.91c-1.02-2.47.91-6.38.91-7.83v-21.64c1.77-.44,5.11,3.76,6.44,2.76.61-.46.03-3.42.15-3.55,1.19-1.2,5.55.06,3.08-4.74-1.8-3.49-8.19-2.8-11.51-2.76,2.2,4.53-1.18,2.84-1.77,6.95-1.07,7.49.8,36.09-2.94,40.83-.07.09-1.35-.71-2.24.01-1.56,1.27-4.34,5.46-6.03,6.91-1.82,1.55-4.28,2.37-5.91,4.22-2.16-1.21.08-6.84-.46-7.36-1.95-1.88-6.8,4.41-9.52,5.71-1.99.95-4.9.98-5.18,1.17-2.58,1.76-9.87,17.31-13.87,20.26l-11.93,19.82c-.74-3.95-5.23-21.93-7.39-23.93-2.39-2.22-.97,4.32-3.66,2.75.2-5.31-2.06-10.9-3.9-15.89-6.64-18.03-12.1-23.64-22.67-38.1-2.16-2.96-5.72-15.1-6.59-15.98-2.51-2.53-1.12,4.27-2.74,3.68-1.21-6.04-5.52-11.03-2.78-17.48-3.66-.76-.75,4.22-2.29,5.51-3.58-2.94-6.19-11.14-9.25-13.84-1.51-1.34-2.65.02-4.14-.37-3.51-.93-5.17-5.89-7.36-8.32-1.73-1.92-11.33-12.79-12.08-13.3-.57-.39-2.16.79-3.12.73-2.39-.15-10.05-6.08-11-8.19-1.02-2.25-.64-12.06-.51-15.22.48-12.06,1.74-26.51,2.81-38.63.71-7.99,2.18-16.03,3.64-23.91-1.64-7.47-5.71-5.01-10.39-6.04-.26-.06-2.37-3.73-4.3-1.83-1.66,1.62-.68,38.05-.89,43.79-.27,7.67-1.36,16.22-1.87,23.91-.46,6.94.5,13.85-1.86,20.71l-3.67-1.84c.51,4.91-1.17,1.6-3.95,2s-5.24,5.31-8.94,4.44c1.37-2.24,6.38-4.63,7.36-6.91.49-1.14-.19-1.7-1.36-1.36-2.06.61-10.61,9.21-13.47,11.4-8.34,6.4-25.91,16.58-31.25,24.92-.93,1.45-.85,4.05-1.77,4.73-.86.64-2.36-.89-4.2.27-8.39,5.3-20.95,26.33-26.61,35.17-2.51,3.91-9.06,17.18-11.15,19.23-27.03,26.47-49.66,58.18-76.39,85.68-8.43,8.67-17.83,16.28-27.18,23.93v15.65c23.88-23.8,45.96-49.55,68.62-74.58,2.22-2.45,4.19-5.94,6.41-8.32,3.79-4.06,8.98-7.44,12.45-11.95l-.9,6.45c1.16-.42,1.97-1.87,1.85.46-.14,2.81-4.19,14.38-5.58,17.21-.56,1.14-2.23,1.22-3.21,3.48-1.99,4.55-1.62,10.29-2.69,14.81-1.8,7.63-9.35,29.94-7.86,36.15.18.74,1.66.24,1.89,1.95.62,4.52-1.26,8.94-.99,13.42l-31.31,3.69c.48,1.9,1.36,1.47,2.74,1.44,6.33-.1,14.18-2.09,20.7-2.41l7.86.95-37.2,4.71c-4.74,2.34-15.06,1.8-18.98,4.04-.44.25-1.19,1.18-.91,1.38l14.3-.96,7.8,1.88-34.99,1.85v13.81h9.21s-.93,1.83-.93,1.83c16.32,1.68,32.25,3.74,48.81,2.78.22,1.6-2.09.87-3.21.91-3.61.14-20.19.4-22.03,1.76-1.06.78-.43,1.8-.53,2.84,5.52-.43,12.53-1.81,17.91-1.87,2.76-.03,19.63.83,20.78,1.4.42.21,1.16,1.2.91,1.39l-42.35,1.86,6.91,1.82c39.95,2.34,80.12,3.89,119.7,5.55,4.27.18,10.15,2.7,12.9,2.86s4-1.79,5.35-1.76c3.08.08,10.42,2.34,13.97,2.4,7.64.12,11.93-3.95,21.19-3.52,1.34.06,2.81,1,3.63.98.72-.02.44-1.82.52-1.89.49-.4,1.56,1.57,2.44,1.72,1.04.18,2.18-1.51,3.57-1.7,3.6-.48,9.83.8,12.7-.18,1.48-.51,3.59-5.41,5.69-6.29,2.22-.93,1.5,6.29,4.58,5.52,1.41-.36,13-19.22,14.03-21.88.88-2.27,2.25-4.71-.21-6.66-1.67,2.1-6.67,14.87-7.84,15.65-.53.35-1.57-1.83-3.05-1.71-2.2.18-4.18,3.63-6.13,4.48-.35-.46,2.1-7.42-.92-8.28-.5,4.63-2.08,9.25-5.09,12.88l-9.65-15.64c-1.09,4.44,3.94,9.34,4.45,12.66.25,1.63-.49,2.57-.54,3.73-.04.9.83,6.76-1.38,1.79-3.31-7.43-4.09-19.27-4.39-27.39h-2.75c-1.47,4.16,1.39,7.88,1.79,10.64.35,2.37-.32,4.94.12,7.25.34,1.83,3.38,10,2.69,10.66h-7.36c2.04-4.14.17-1.97-1.77-3.25-3.91-2.57-3.44-13.24-4.73-15.13-.06-.09-1.56.96-2.24.04-1.2-1.62-.28-5.36-3.23-4.68-.02,7.36,4.88,13.31,6.44,20.25-3,.7-2.5-3.43-2.77-3.68-2.38-2.2-1.12,3.07-2.74,2.76-1.12-4.06-.96-10.29-4.61-12.89-1.23,6.15,5.13,12.51.44,17.51-7.58-2.42-.24-10.46-2.3-16.59-2.39.6-2.05,7.6-2.76,8.29l-2.75-.92c-.65.74,2.34,4.88-.92,5.52-1.69-6.89,1.9-13.26,1.87-19.77,0-.7.16-5.31-1.87-3.25-.63.64-1.86,8.44-2.79,10.12-1.13.55-1.07-3.92-2.75-1.83-.73.91,1.33,5.1.89,6.83-.48,1.88-2.64.4-2.71.54-.41.77-1.25,11.02-5.07,10.12-4.32-1.02-.2-9.08-.46-11.5-.42-3.87-2.25,2.03-2.39,2.22-.55.76-1.84.7-2.21,1.7-.73,1.99.31,6.42-2.77,7.58-.68-5.36,2.73-9.03,3.58-14.37,1.05-6.62.83-14.78,1.01-21.54-1.14-1.5-1.67.02-1.84,1.36-.96,7.53-.04,15.84-2.77,23.5l-1.83-3.23-1.84-15.18c-3.3,4.09,1.94,27.54.91,28.54-.14.13-3.43.43-3.71-.59l-4.58-33.47-2.71,10.63c-.43,1.3-3.1,7.03-3.74,7.77-.83.96-1.15-3.9-2.75-1.83-.41.54.29,11.04-3.23,12.88-1.34-5.19.34-13.66-3.21-17.49-.08,2.29.09,4.62,0,6.92-.05,1.12.7,3.42-.91,3.21l-2.78-23.01c-.93-.4-1.83,2.15-1.83,2.3v28.09c-1.62.21-.87-2.08-.92-3.21-.52-12.53.44-25.18-.06-37.72.21-1.05,2.32-.17,2.71-.56.99-.99-2.26-17.73-2.92-20.39-1.08-4.39-4.37-8.59-3.42-13.62-2.07-.38-1.47.08-2.06,1.17-1.77,3.29-2.92,8.98-4.4,12.63-2.41-1.46,1.1-4.72-3.67-3.68-.08,2.56.21,5.15-.12,7.71-.36,2.81-2.76,9.73-2.65,11.16.38,5.05,5.96-6.34,6-6.89-.5.77,5.11,10.96,5.04,5.99,0-.31-1.5-1.73-1.67-2.95-.3-2.23,1.65-4.87-.16-7.64l-1.86.45c.91-3.1,1.82-7.8,4.62-9.66.92,5.07,1.07,10.08.98,15.23-.03,1.65-1.06,3.8-1,4.48.05.49,2.85.72,3.19,5.01l-.41,36.04-3.69-13.8-.92,2.76c-1.04,1.39-4.67-8.86-4.61-10.12-2.36,1.53-.15,6.31-.07,8.64.04,1.28-.94,2.89-.88,4.67.08,2.39,3.69,11.61,2.8,12.47-.1.1-2.65.1-2.75,0-.6-.56-.98-12.89-1.86-13.82-3.56-3.76-.56,8.84-.92,9.2-1.04.12-2.77-.44-3.44-1.16-1.62-1.75-1.63-16.62-2.08-20.49-.2-1.7.28-1.48-1.84-1.36v20.26c-2.11.51-2.15-.81-2.51-2.52-1.38-6.6-.62-13.89-2.1-20.51-6.21,2.55-2.58-2.7-5.98-6.44-2.7,6.68-.01,15,.46,22.1l-3.22-5.52c-.1,4.94-2.53,5.4-3.12.38s.07-10.52-.09-15.57c-.21-6.28.16-3.15.91-5.69,1.18-4.06-1.69-3.67-1.9-5.3-.52-4.16.27-9.27,1-13.41l2.74,3.67,1.84-5.52c-1.08,3.61,1.79,4.63,2.47,5.8.93,1.61-.05,5.93,4,3.85-3.66-14.06-3.93-31.44-1.64-45.81.38-2.39,2.95-7.33,2.55-9.41-.15-.81-1.24-1.75-2.3-.48-2.37,2.84-3.7,18.08-4.14,22.57-.32,3.33,1.39,8.7-1.84,10.58,1.18-5.37-3.48-10.39-3.61-15.28-.07-2.38,1.46-5.1.83-7.74l-1.83.93c-1.96-10.88,3.43-18.71,5.51-28.55l-2.75,1.84v-13.35c0-.52,3.1-4.85,3.48-6.65,1.58-7.42,1.15-12.17,7.15-18.64,1.95-2.06,1.34-.49,1.01,1.01-.18.79-3.91,12.97.32,9.08.46-.42,2.94-11.08,2.34-11.98-.87-1.3-3.64.09-1.81-4.53s5.73-3.37,8.68-6.5c1.27,1.57-4.86,10.26-5.31,11.71-1.63,5.24-2.4,17.36-3.19,23.51-1.28,9.92-2.78,21.33-1.65,31.57.15,1.38.19,2.84,1.86,3.19l2.31-4.58,4.6,5.49,2.69-2.82,2.36-8.21c.64,5.18-1.63,9.74.02,14.73,2.2,2.27,2.05-13.81,1.91-15.26-.21-2.17-2.39-.47-1.93-2.68l2.76.45c-.16-2.88.27-5.88.01-8.76-.16-1.83-1.45-6.84-2.87-2.86-1.1,3.1-1.56,7.38-1.74,10.7h-2.76c-.27-.26.86-9.3-1.84-6.45-.62.65-.75,6.43-.95,7.83-.23,1.61.48,1.55-1.82,1.38-.22-10.91-3.58-21.67.04-32.64,5.1-15.44,18.03-42.91,27.57-55.98.91-1.25,3.38-1.45,2.78-4.38,1.97-.37-.22,4.97,2.28,3.67,2.19-1.14,2.52-9.8,5.99-11.04-.73,5.55-4.75,10.44-5.78,15.86-.17.89-1.02,3.63.72,3.46,2.06-.21,4.8-11.15,5.53-12.87.65-1.55,1.9-2.62,2.48-3.96,1.93-4.41.96-8.07,6.74-9.86,1.85,4.66,2.01.82,3.34-1.2,1.58-2.39,3.14-4.83,4.93-7.08l-7.75,22.63-.07,5.92h2.75c-.92-5.07,8.03-31.33,11.05-32.71,1.41-.64,2.8-.15,3.97-.46s.03-2.21,1.55-1.83c-1.8,9.01-3.66,18.77-2.67,28,.1.89.4,3.46,1.75,3.3.18-4.85,0-27.41,2.72-29.92.2-.19,2.21.02,3.66-.92s7.86-7.09,6.51-8.75l-3.67-.45c6.72-8.02,8.1-3.31,7.36,5.06l2.77-2.76c1.39-.26.9,1.52,1.87,2.25,3.38,2.51,5.43-1,6.35-.37.1.07.25,1.5,1.03,2.16,3.14,2.65,13.32,9.63,14.27,12.48.56,1.69,1.43,9.26,2.27,10.18,1.87,2.06,2.8-5.33,2.81-6.05.02-3.08-2.4-4.3-1.44-6.83,1.85,1.65,3.7,8.84,5.52,3.68,3.83,3.22,7.21,8.01,11.04,11.06,3.46,2.75,7.35,3.05,10.6,7.81,2.06,3.02,2.05,8.96,2.77,9.67,2.29,2.23,1.26-3.36,2.74-2.75-1.25,4.36,1.76,6.52,2.81,9.62.61,1.8,2.36,10.23,2.73,10.63,2.43,2.64,1.19-4.35,2.74-3.68-.02,3.56,3.56,7.32,4.23,10.13,2.32,9.68,2.99,7.13,6.76,14.52,14.44,28.29,20.43,76.82,21.23,108.37.29,11.56,2.08,15.55-.21,28.36-.22,1.24-1.6,2.81-1.6,2.99,0,.65,1.18,1.75,2.27.45,4.82-5.74,2.62-27.28,3.24-34.98l1.88,10.56c-.9,8.14-1.21,16.23-.97,24.43h4.61s0-7.37,0-7.37l2.74.93,2.32-5.53-.47,4.59,26.45,3.44c9.03-3.33,18.32.86,28.33.24,3.59-.22,31.52-5.28,32.7-6.45.89-.88.21-1.93-1.36-1.83-4.65.28-10.16,2.04-15,2.52-1.73.17-3.27-.74-5.13-.61-5.45.36-9.1,4.75-7.98-4.66-1.03,1.02-3.57,2.09-4.6.92-.09-.1.91-1.23.43-2.66-.33-1-3.06-6.47-3.65-6.52-2.4-.22,1.13,5.48-1.96,6.35-1.5.42-15.5-2.11-16.91-.84l1.83,4.59c-7.96,1.72-7.37-5.33-9.2-11.05,2.14,1.53,2.54-1.63,3.67-1.84-1.42,5.54,6.17,2.47,6.35,1.34.42-2.72-4.11-12.77-5.03-16-.64-2.26.29-8.41-3.61-8.34-1.83.03-.86,2.66-.76,3.49.36,3.32,3,8.98,3.01,10.76.03,3.19-3.98,4.84-4.41,6.64-.17.69.63,3.84.79,3.95Z"/>
    <path class="cls-1" d="M153.81,406.85l2.75-1.84c-.15,2.21,1.29,8.25,3.24,9.2,2.59,1.26,1.34-5.51,3.2-5.51.37,2.87,1.5,8.11,2.87,10.49,1.05,1.83,2.58,1.29,2.64.11.16-3.16-3.98-10.24-2.72-14.28l3.2,10.14,1.38.91c1.33-1.82-3.8-27.92-4.61-32.23l-1.82.93v-16.58c-2.2-.68-2.49,1.64-2.68,3.29-1.09,9.51-.81,19.81-1.93,29.41-.2,1.7.28,1.48-1.84,1.36v-17.96c0-.54-1.36-3.02-1.83-2.3.38,2.2-1.85,6.3-1.85,7.82v17.04Z"/>
    <path class="cls-1" d="M294.7,429.87c-1.09-1.45-1.68-.02-1.85,1.36-.38,3.23,1.09,7.78-2.75,9.69l-.93-15.65c-2.49-.33-3.17,2.72-4.15,4.58l-3.2,13.82c-.85-4.39-1.6-9.67-3.28-13.81-.28-.68-.86-3.53-2.25-1.84-.34.42,1.89,7.82,1.9,10.59,0,1.79-1.29,11.98-1.91,12.42-.82.59-2.26-.47-2.59-1.54-.79-2.51,1.48-8.32-2-7.66v11.97c-5.45-3.65-1.56,6.46-.47,6.43,2.33-4.2,4-6.03,8.29-8.26l.46,2.77c4.17-1.22,7.32-3.65,7.37-8.29l3.22,6.44,1.39-8.28,2.75,2.76v-17.5Z"/>
    <path class="cls-1" d="M162.1,271.02c.09-.74,2.32-3.83-1.38-2.3-3.61,1.5-1.38,8.95-1.34,11.47.08,6.42.21,13.01,0,19.42-.09,2.98-2.7,6.76,1.81,4.4l1.82-11.35c-.32,2.88,1.31,5.27,1.82,7.94.5,2.65-1.91,4.3,2.34,6.78.94-2.47-.39-6.04,2.87-7.25s1.7,1.67,2.67,3.52c2.71,5.16,8.2,1.43,2.5-1.26.7-9.19,2.01-18.51,2.55-27.7.13-2.31-1.22-1.24-2.77-1.38-.17,2.89.25,5.85-.02,8.74-.12,1.29-.43,5.55-1.82,5.99l-.13-6.78-2.63-11.62c.74,3.64-.93,7.24-1.01,10.59-.05,2.35,1.08,4.59,1.03,7.32-.02,1.28-1.5,10.26-1.89,10.64-2.63,2.53-1.6-5.18-1.84-5.53l-1.83.93.9-10.14c-3.24.62-1.78,4.5-3.67,5.52.48-5.73-.65-12.36,0-17.96Z"/>
    <path class="cls-1" d="M141.84,346.07l2.75-.92-1.83,6.44c5.29-1.97,3.11,4.25,6,5.53,2.41,1.07.41-3.15,2.28-2.75.1,2.06,1.98,3.07,3.69,3.68-1.16-7.45-3.77-14.49-5.26-21.89-.49-2.42.18-4.99-.27-6.95-.16-.69-1.64-.56-1.81-1.26-2.47-10.33,4.44-17.67,5.34-25.86.34-3.08-1.57-6.93-.75-10.34,1.08.45,2.68,1.81,3.2,2.78.75,1.4-.27,3.77,1.39,3.66l.94-9.65c-7.36.89.02-5.33-4.61-7.84-.08,3.01-2.81,6.71-3.3,9.22-.71,3.6,1.6,11.64,1.07,15.22-.15,1.01-2.03,2.09-2.58,3.45-2.76,6.71-6.25,17.18-6.25,24.13v13.35Z"/>
    <path class="cls-1" d="M214.59,408.69l-2.75-3.69-3.68,13.81,2.6-2.46,2.91-6.75c-.08,3.4-.21,7.02,1.39,10.12l2.32-7.36c1.31-.48.76,3.66,2.74,1.83.36-.33,1.85-8.93,1.85-9.67v-15.19l-1.83,2.76c-.56-1.95,1.59-7.2-1.85-6.44l-.92,9.2c-.02-2.71.02-7.87-1.37-10.14-.89-1.45-2.26-.08-2.33.5-.08.64.93,1.48.93,1.82v21.64Z"/>
    <path class="cls-1" d="M258.79,245.7c-.61.66,6.1,14.15,6.86,16.61,3.36,10.83,3.24,30.77,4.14,42.82.4,5.35,2.45,5.35,2.84,0,.84-11.26-.3-21.96-2.12-32.95-.6-3.64-.36-6.81-.83-9.23-.16-.84-7.05-13.76-7.96-15.13-.47-.69-1.87-3.26-2.94-2.12Z"/>
    <path class="cls-1" d="M182.37,298.19l-.92-4.6c1.14,2.14-1.35,10.69-.93,11.04.14.11,2.26.12,2.64-.12l4.72-10c.73,1.54-.12,9.53.13,9.96.18.32,5.36,3.23,6.32,3.84-2.78-12.75-4.42-25.62-2.76-38.68-1.85.36-1.5,1.95-1.83,3.23-2.11,8.33-1.42,18.67-7.36,25.32Z"/>
    <path class="cls-1" d="M299.31,435.4v-15.65h-1.84v20.72c0,1.72-4.63,8.21,1.24,5.85,3.18-1.28,9.47-19.77,7.04-23.8l-1.82,1.83-.02-4.6c-4.17,3.3-.54,12.43-4.6,15.65Z"/>
    <path class="cls-1" d="M310.36,369.1v5.52s-1.38-2.75-1.38-2.75c-2.86,1.2.17,16.58.45,19.8.41,4.83-.55,9.04.81,13.97.43,1.57-.67,2.56,1.96,2.13.16-9.54,3-18.01.92-27.62l-2.75,3.68c-1.67-3.7,1.75-5.67,1.9-6.84.13-.96.36-10.89-1.91-7.88Z"/>
    <path class="cls-1" d="M345.34,441.84c-2.07-.14-.33-4.97-.91-5.52-2.16-2.07-4.13,2.89-3.69,4.6-1.93.21-.42-3.21-.91-3.69-.13-.13-3.54-.12-3.67,0-1.63,1.56.86,17.27,7.35,10.13-1.56,2.82,2.49,2.88,2.66,2.67.94-1.14,2.9-11.06,4.72-13.24l-2.3-1.4c-1.65,1.78-3.19,3.91-3.24,6.44Z"/>
    <path class="cls-1" d="M297.46,360.81c5-.5,5.28-7.48,5.56-11.47.28-3.88.1-27.2-1.88-28.59l-1.75,1.04,1.82,22.91-1.92,11.51v-14.73h-1.84v19.34Z"/>
    <path class="cls-1" d="M204.45,393.96c-2.55-.44-1.55.53-2.07,2.02-.64,1.81-1.11,6.12-2.07,7.21-.9,1.01-2.74.67-3.08,1.02-.87.91,1,4.51-1.05,4.48l-.94-17.49c-2.8,1.31-1.97,6.76-1.82,9.66.13,2.61,1.77,17.04,4.13,17.03,3.51-.02,6.97-20.26,6.9-23.92Z"/>
    <path class="cls-1" d="M193.41,319.37c.9,4.77-1.06,9.84-1,14.26.04,3.31,1.65,6.83,1.91,10.15.6,7.77.16,16.03,2.31,23.47,4.42-3.89,1.01-8.86.57-13.46-.64-6.67-1.47-13.5-1.94-20.16-.3-4.14.5-8.94,0-12.9-.17-1.34-.7-2.85-1.84-1.36Z"/>
    <path class="cls-1" d="M228.4,309.24c-.01,8.03,2.72,15.67,3.66,23.49.62,5.16-.48,10.14.94,15.63.33,1.27-.03,2.87,1.83,3.23-.23-5.9.41-11.96-.1-17.84-.43-4.95-2.3-17.65-3.62-22.16-.46-1.57-.71-2.66-2.71-2.35Z"/>
    <path class="cls-1" d="M119.75,314.76c-.37.4-2.78,9.75-2.78,10.58,0,1.95,1.03,4.05,1,6.44s-2.5,12.28,1.31,12.43c1.6.06,2.69-13.33,2.28-15.01-.19-.79-1.91-.29-1.91-1.95,0-2.15,1.51-4.35,1.85-6.57.17-1.09.58-8.43-1.76-5.91Z"/>
    <path class="cls-1" d="M205.39,367.25c1.6.22.87-2.09.91-3.21.41-11.11.63-24.46-4.14-34.52l3.23,37.73Z"/>
    <path class="cls-1" d="M196.17,265.96v15.19c0,2.45.72,9.88,1.14,12.68.17,1.11,2.25,9.68,4.4,7.57-2.15-5.8-1.26-11.72-1.9-17.44-.15-1.34-1.56-2.56-1.84-4.6-.51-3.63.53-8.3.05-12.04-.21-1.68.31-1.49-1.84-1.36Z"/>
    <path class="cls-1" d="M256.95,401.32c-1.74,6.08,1.06,11.17.99,17.05-.04,2.81-1.61,6.76-1,9.03.19.72,1.82.54,1.84,1.17.05,2-2.58,4.27,2.77,4.05-3.18-9.05-.85-18.76-1.93-28.01-.19-1.66-.48-3.96-2.66-3.3Z"/>
    <g>
      <path class="cls-1" d="M427.31,343.31c-1.11,6.78,6.81,19.68,6.47,25.25-.03.54-1.68.43-1.86,1.15-.53,2.13.32,5.33,0,7.66l3.67-2.76c-.73,2.47,2.06,7.03,1.89,8.67-.08.81-3.41.19-2.87,5.63.23,2.27,4.22,7.94,3.59,9.51-.05.11-1.32.14-1.7.75-.69,1.13-.35,3.19-1.82,3.06-.26-2.78,1.53-6.01.97-8.72-.19-.91-4.33.7-2.83-4.17l-2.77,3.67c-1.93.35.22-3.7-2.28-2.75-1.44.55-3.15,3.88-3.25,5.51-1.43-.2-2.03-7.4-4.58-5.52-.96.71-3.85,12.52-4.61,14.73,4.57-.84,4.59-6.69,5.53-10.12,2.24.87,2.08,5.83,1.78,7.76s-3.2,5.95-4.48,7.3c-.73.77-.62.85-1.9.59.08-2.47-3.35-5.93-3.36-7.82,0-2.13,4.04-5.81,3.33-8.75-5.4,4.42-3.86,10.22-6.94.02-.33-1.1.08-3.47-1.78-2.78l-2.32,13.81-1.83-.93-.02,8.29-3.67-2.75c-.8.87,2.41,5.51,2.41,6.9,0,1.86-2.77,3.81-2.4,5.98,3.36-1.71,4.09-5.55,5.53-8.56.27-.57,1.66-.53,1.82-1.28.66-3.11-.89-7.68,2.31-10.4,2.65,3.41,6.63,8.41,4.59,12.86-.49,1.08-6.37,5.3-5.04,6.46,4.42.56,22.22-12.11,23.98-10.63.71.6.86,5.07,2.71,3.27.8-.78,1.22-7.1,3.24-8.28,1.07-.14-1.87,10.6,1.36,7.36.74-.74,2.14-7.59,1.86-9.21l2.75.92c.4-.44-2.59-9.52-2.7-11.65-1.01-19.53-6.7-29.6-12.85-47.89-.48-1.43.81-2.63-1.93-2.16Z"/>
      <path class="cls-1" d="M379.43,365.41c-2.8,2.7,1.62,10.3.9,13.8l-2.74-2.76c-1,5.19,1.99,9.03,2.76,13.81l4.62-4.09,2.28-4.2.46,3.69c4.18-.65,6.84.23,6.45-5.53,1.61.35,1.05,3.49,1.76,5.14,3.27,7.61,2.03-.85,2.09-1.91.17-2.8,1.26-5.02.69-8.24-.1-.58-3.3-8.47-3.64-8.8-1.27-1.22-1.73.09-1.86,1.39-.32,3.31,1.76,7.4,1.02,10.99-.17.8-3.97-.46-3.28,4.18-2.74-3.1-.87-8.18-1.39-11.96-3.46-.43-.88,4.69-2.85,7.73-.53.82-3.41,2.64-3.58,2.39-.3-4.7-.78-9.71-1.87-14.28-.26-1.08-.24-2.89-1.81-1.37Z"/>
      <path class="cls-1" d="M388.63,418.81l1.85-3.67c1.93-.21.43,3.19.92,3.68.28.28,4.47-.75,4.6-.94.17-.23-.95-3.64-.74-5.7.22-2.2,1.79-4.74,1.67-7.17l1.82,1.83-1.37-8.28-3.22,6.44.91-11.96c-2.16-.35-2.11.89-2.68,2.38-2.82,7.45-1.87,15.61-3.76,23.39Z"/>
    </g>
  </g>
</svg>