<?xml version="1.0" encoding="UTF-8"?>
<svg id="Ebene_1" data-name="Ebene 1" xmlns="http://www.w3.org/2000/svg" viewBox="0 0 475.4 480.26">
  <defs>
    <style>
      .cls-1 {
        fill: #e8dfd7;
      }
    </style>
  </defs>
  <g>
    <path class="cls-1" d="M450.86,387.13c1.92,4.33,3.92,6.92,3.27,12.06-1.35,10.7-21.02,20.89-29.9,25.38-44.22,22.33-94.78,27.56-143.78,30.37-77.18,4.43-159.31.19-230.38-32.5-12.05-5.54-30.92-13.26-26.49-30.14.96-3.64,3.54-4.5,4.44-7.69-7.37,4.34-7.35,14.88-3.8,21.81,6.29,12.3,36.33,22.89,49.43,27.6,74.02,26.63,155.81,27.91,233.61,20.91,40.57-3.65,107.72-14.11,139.01-41.84,7.78-6.89,13.42-17.5,4.59-25.98Z"/>
    <path class="cls-1" d="M394.76,420.63c-28.69,13.34-60.51,18.06-91.78,21.66-65.84,7.56-148.13,9.77-209.36-18.17-14.3-6.52-35.79-17.01-26.23-36.15-9.6,12.01,1.15,24.76,11.8,31.33,63.74,39.33,186.43,33.98,257.96,20.32,14.91-2.85,30.13-6.16,44.21-11.89,4.32-1.76,10.05-4.04,13.41-7.1Z"/>
    <path class="cls-1" d="M30.56,381.29c-.2.9-.24,2.21,1.23,1.65,3.22-1.23,11.95-8.31,16.09-10.71,12.08-7,24.79-12.64,37.96-17.3l14.2-4.63c-18.19,3.31-37.32,10.7-53.31,19.94-5.7,3.3-10.66,7.51-16.18,11.04Z"/>
    <path class="cls-1" d="M55.68,388.8c4.49-3.76,8.32-8.24,13.45-11.24l34.26-18.9c-2.98.21-5.94,1.47-8.67,2.62-7.38,3.11-32.21,16.49-36.54,22.07-1.11,1.43-2.41,3.58-2.51,5.44Z"/>
    <path class="cls-1" d="M51.49,382.94l29.88-19.93,10.3-4.34c-4.68-.36-8.85,2.24-12.81,4.34-6.25,3.32-15.88,9.39-21.44,13.72-1.81,1.41-5.29,3.98-5.92,6.21Z"/>
    <path class="cls-1" d="M435.78,377.09c5.95,6.86,16.77,13.53,12.12,24.26l-5.01,9.22c12.75-11.06,6.39-27.3-7.11-33.48Z"/>
    <path class="cls-1" d="M50.65,377.07c7.59-2.21,13.11-9.32,20.36-12.71l8.94-4.02c-10.72,1.97-21.19,9.64-29.3,16.73Z"/>
    <path class="cls-1" d="M66.56,396.34l6.26-8.38,7.96-8.35c-6.37,2.74-13.07,9.78-14.22,16.73Z"/>
    <path class="cls-1" d="M438.3,385.46c2.97,5.21,6.06,6.62,4.45,13.23-.7,2.89-3.26,4.95-3.19,7.68,5.74-5.28,7.08-17.74-1.25-20.92Z"/>
    <path class="cls-1" d="M436.63,403.88c3.87-2.27,2.46-6.87,1.47-10.27-.28-.94-1.15-3.84-2.3-3.96-.28,2.97,2.37,6.21,2.48,8.87.09,2.35-1.65,3.24-1.64,5.36Z"/>
  </g>
  <g>
    <path class="cls-1" d="M218.42,273.61c-4.1,2.07-4.63.81-9.04,1.4-9.32,1.25-6.99,7.16-9.43,9.2-.93.77-12.68,6.41-14.47,7.1-1.59.61-3.98,0-5.1.76-.75.51-.75,2.4-1.66,3.36-.31.33-7.12,4.85-7.54,5.02-2.61,1.04-5.5,0-8.57,1.47-2.89,1.39-3.89,4.69-5.7,6.02-4.76,3.52-14.36,6.74-19.97,11-7.06,5.37-6.24,9.58-8.37,17.59-34.36,6.26-75.72,14.33-104.16,35.67-25.13,18.85-16.96,41.89,7.25,56.1,79.2,46.46,217.03,45.23,305.62,32.39,32.61-4.72,101.3-18.09,122.37-44.24,24.92-30.93-18-52.19-41.86-61.15-17.98-6.75-36.71-11.66-55.61-15.14l-1.86-49.63c-.76-5.84-6.35-28.26-10.54-31.55s-12.43-1.95-17.4-2.47c-27.85-2.9-55.57-6.17-83.69-5.81-4.6.84-8.77,9.65-12.24,12.87-4.08,3.78-12.79,7.39-18.04,10.04ZM239.1,265.66c-.38-.44,5.99-9.18,6.55-9.63,4.91-3.88,8.18-2.05,13.01-1.99,25.88.34,47.54,3.03,72.88,4.98,3.73.29,7.56-.19,11.29.01l-3.47,6.56c-16.73-.68-33.1-5.4-49.79-7.3-10.96-1.25-21.92-2.15-32.96-1.77-.61,1.99,1.49,2.25,2.99,2.42,15.77,1.84,31.33,2.22,47.41,4.52,8.59,1.23,18.71,4.26,27.17,4.74,1.49.08,2.33-.15,3.62-.79l-1.26,5.04c-22.26-6.07-45.96-10.33-69.05-10.89l52.74,8.37c.14,1.49-2.82.89-3.75.82-3.78-.28-7.78-1.51-11.7-1.7-.99-.05-4.64-.59-4.64.87,11.85,1.81,23.9,2.23,35.16,6.72-2.36,10.28-17.82,16.32-27.23,16.73-1.75.08-2.39.51-2.08-1.66l4.23-.38,6.66-2.96c-3.83.49-7.43,2.15-11.32,2.49-.91.08-3.9.67-3.74-.81l10.87-4.19c-4.5-.52-10.57,3.58-14.6,3.31-1.75-.12-6.12-2.34-8.83-2.91-15.78-3.29-31.37-5.05-47.21-7.21-4.39-.6-8.57-2.49-13.08-2.41-.48-1.94.38-1.38,1.06-1.91,3.52-2.77,7.85-4.59,10.66-8.55.11-.82-1.34-.19-1.6-.48ZM308.52,295.04c9.88.19,22.69-3.64,27.53-13.08,2.61-5.1,2.81-11.35,5.25-16.52l5.72-5.56c2.12,3.21,4.07,5.23,5.68,8.98,3.15,7.34,4.49,16.28,6.05,24.09-.99,15.85,3.09,35.72,1.72,51.09-.16,1.83-.87,5.89-2.12,7.09-1.9,1.83-16.39,4.41-19.48,7.31-7.01.38-14,2.22-20.28,5.24-1.44-1.14-7.96-31.76-8.28-35.69-.45-5.51.81-9.84.77-14.99-.04-5.61-1.59-12.41-2.55-17.97ZM223.13,274.95l13.39-6.7c-2.23,2.97-6.86,5.5-10.28,6.88-.77.31-3.2,1.57-3.11-.18ZM324.43,271.6c2.68.38,8.98.67,11.14,1.68,1.2.56.43,1.5.58,2.5l-11.71-4.17ZM220.61,283.32l31.97,4.44,29.14,8.1-11.71-1.66,8.36,3.33-19.25,5.03,1.84-1.88,11.55-3.97c-5.67-.62-10.52,3.04-15.98,3.75-11.61-6.37-25.3-9.18-35.92-17.15ZM191.31,294.21l12.56-5.86c.2,1.16-4.09,1.82-2.5,3.34.25.24,2.06-1.77,4.19-1.32,1.43.3,4.24,2.32,6.25,3.02,7.56,2.64,33.19,8.94,37.56,12.68.87.75,1.75.83,1.39,2.37-13.22-.01-25.5,5.05-38.5,6.7.1-3.87,5.62-2.25,8.55-2.74,7.42-1.24,15.12-4.38,22.25-5.48,1.17-.18,2.17-.12,3.12.67l.41-1.65c-1.51.44-3.44-.9-4.54-.85-.48.02-.38,1.42-1.1,1.64-7.83,2.29-18.06,3.86-26.17,4.22l10.04-3.33c-2.12-1.4-9.69,2.05-10.03,1.67-.1-.11-.01-1.86-.81-2.95-4.56-6.2-17.21-6.99-22.64-12.11ZM304.44,304.17c-1.17-.81-3.6-7.79-2.61-9.14,4.26,1.1,3.53,5.07,5.02,8.36-.96-.34-2.11.99-2.41.78ZM260.8,303.41c6.23,0,14.19-5.4,19.78-5.85,1.52-.12,2.69-.11,3.66,1.24-5.48,1.21-11,2.86-16.36,4.57-3.07.98-5.32,4.17-7.08.04ZM177.91,302.56c6.72-8.41,13.89,1.28,21.66,2.62l.1,3.25c-6.96-2.84-14.21-5.14-21.76-5.87ZM263.3,306.77c10.25-1.35,25.97-12.34,33.39-1.17,4.67,7.04,3.43,23.13,5.14,31.29l1.66-1.66c.74,4.11.86,8.41.02,12.56l1.66-.85c-2,3.73.86,3.35.87,3.77.04,1.64-5.46,5.27-2.55,7.11l1.7-4.17c1.29-.24.95,1.23.85,2.1-.42,3.56-2.91,4.71-3.37,7.94l4.17-4.18c.51,11.35-2.98,6.21-9.7,7.38-5.9,1.03-15.33,5.6-22.12,7.26-3.62.89-7.23,1.39-10.87,2.1-1.61-7.66.3-15.07-.01-23.02-.38-9.83-3.57-20.27-2.41-30.06.69-5.82,4.64-10.15,1.58-16.4ZM301.83,328.52c.37-8.57-2.34-16.85-4.19-25.11,5.48,3.83,3.42,12.03,5.05,17.96l-.86,7.15ZM256.61,305.92c1.68-1.87,5.54,9.25,2.93,9.19-1.2-.03-2.44-7.67-2.93-9.19ZM208.05,307.59c6.15,1,4.86,4.84-.84,5.02l.84-5.02ZM171.22,308.44c5.08-.47,9.81,1.66,14.78,2.37l9.5,3.47c-3.06-.29-7.8,2.25-9.2-.82l3.34-.84c-4.6-.16-8.53,1.59-12.87-.95l-5.54-3.23ZM192.25,320.26c7.63-2.6,16.02-1.77,23.64-2.73,5.1-.65,34.68-8.71,36.48-7.4.55.4,1.42,5.66,1.8,6.86.22.72,1.48.38,1.67,1.85.75,5.85.39,25.21-.88,30.86-.23,1.04-2.47.91-2.53,2.25.81.32,2.27-1.46,2.51-.41.97,4.23-1.38,3.55-1.59,3.84-1.34,1.88,2.33,1.93,2.4,2.85.08,1.03-4.24,4.4-3.33,5.45,1.42,1.64,2.57-3.19,3.34-2.51,2.32,4.33-3.28,5-3.33,9.21l3.76-4.18c1.55,4.06-5.22,7.44-5.44,11.72,1.12-.41,2.19-1.62,2.87-2.57,1.15-1.6,1.41-4.18,2.98-4.97,1.12,4.24-3.01,6.09-4.19,9.62l4.19-3.76v6.7c-.15.21-2.83-2.22-4.6-2.16-2.95.1-13.8,4.79-17.79,5.3-11.57,2.4-22.61,4.97-34.03,6.99-4.37.77-8.74,2.27-13.06,3.26-1.15-12.93,3.2-25.34,4.17-38.1.32-4.15-.87-12.57,0-15.72.21-.76,1.75-.97,2.39-1.95.82-1.24,3.99-5.86,4.31-6.62.16-.38.22-1.37-.4-1.24l-1.69,1.66-4.59,6.7c-.36-4.27-.37-7.04,3.34-9.63l-3.34,1.26.94-12.45ZM156.32,311.15c1.09-.55,2.11-.25,3.13.24l8.41,5.4-30.14,7.54c3.35-5.85,11.48-8.44,17.37-11.47.99-.51,1.06-1.62,1.23-1.7ZM190.46,315.97c4.03.15,6.91-2.88,10.88-.83l-9.8,2.34-1.09-1.51ZM135.21,326.02c1.45-.02,2.96.15,4.4-.21,9.58-2.39,19.67-6.49,29.49-8.66l2.11,1.32-2.5.84,7.53.02c.2,1.2-1.47,1.17-2.34,1.41-8.35,2.35-19.91,5.47-28.31,6.88-.68.11-2.94.4-1.57-.75l20.5-6.69c-7.82.33-15.83,5.08-23.22,6.49-1.19.23-5.61,1.01-6.08-.63ZM184.76,320.85c-1.68-3.62,6.14-2.74,4.86,2.18-1.06,4.05-2.99-.77-3.42-1.37-.54-.74-1.4-.74-1.44-.81ZM137.06,331.21c.63-.36,7.12-.96,9.04-1.43,9.27-2.26,23.47-7.18,32.35-7.88,6.93-.55,5.5,7.63,5.36,12.93-.36,13.07-1.15,30.99-3.05,43.66-.13.89.59,2.06.34,3.02-.44,1.67-3.49,3.09-4.02,4.38-.59,1.41,1.14,1.69,1.65,1.24.28-.25.27-2.54,1.68-2.51,1.86,3.43-6.62,9.67-6.67,10.47-.24,3.63,5.41-3.06,5.43-3.76.74,8.78-9.41,10.22-16.12,11.51-5.28,1.02-16.02,3.11-20.94,3.34-2.04.1-8.14-.54-8.99-2.29-2.03-4.16,1.1-16.19-1.09-21.36,2.24-8.6,1.51-17.61,1.58-26.77.03-4.49-1.36-8.52-.89-13.4.21-2.22,2.72-10.2,4.35-11.13ZM261.64,353.64l-.84-14.22,1.66,9.63-.82,4.59ZM362.11,344.43c27.97,7.76,60.81,14.14,84.82,31.13,15.28,10.81,24.91,20.49,10.21,37.53-19.09,22.13-80.49,35.28-109.1,39.93-74.2,12.07-161.05,14.28-234.62-1.84-23.67-5.19-86.8-23.05-98.95-44.22-9.48-16.54,7.73-27.73,20.32-35.26,28.48-17.03,62.1-22,93.7-30.63l-.92,15.82c-17.46,2.85-36.37,9.49-50.75,20-1.2.88-7.83,4.96-6.09,6.88.73.81,9.4-6.1,10.87-6.69l2.52,6.69c-5.75,2.27-12.44,6.4-15.08,12.14,3.48-1.13,5.69-4.59,8.45-6.62,1.57-1.16,7.13-5.15,8.56-5.31.14-.02,3.09.56,1.85,1.48-4.27,2.78-9.37,4.64-12.15,9.2,3.71-.54,6.31-4.24,9.47-6.01,2.27-1.28,6.3-3.88,8.11-.69-2.01.54-4.87,1.33-5.85,3.35,4.11.14,6.84-3.78,10.88-1.66-1.12,2.04-5.13,1.28-5.85,4.17,5.36-.91,7.72-4.49,13.39-1.66l-9.48,4.32-2.23,2.36c6.17-1.95,11.59-6.67,18.42-4.17-3.21,3.2-8.99,3.55-11.72,7.52,6.2-1.46,11.62-7.87,18.41-5l-6.43,3.18-10.31,6.84c4.1.04,6.97-3.43,10.32-5.16,2.78-1.43,9.07-5.78,11.44-2.38-.86-.12-7.37,2.88-5.85,4.19.84.73,7.57-5.41,10.04-4.18.47,2.24-.59,1.44-1.65,2.07-2.26,1.36-4.8,2.28-6.71,4.2,1.5,1.54,9.08-5.52,8.38-1.67-.43,2.36-6.14,4.13-8.48,5.78-.51.36-2.94.85-1.57,2.17.39.38,7.99-4.96,10.04-4.18l-1.73,2.87-5.8,2.97c1.98,0,10.86-3.5,5.86,1.26-1.53,1.46-4.69.22-4.18,2.93,1.33.32,4.12-1.31,5.02-.82.34.19-.92,5.47,2.71,6.97,7.57,3.13,23.16-1.56,31.32-2.67,8.07-1.1,16.28-1.25,24.2-3.37l5.4,3.24c-3.39.24-6.8,1.16-10.04,2.1-1.92.56-5.54,1.27-6.7,2.92,4.93-.57,9.98-3.38,14.87-3.97,5.63-.68,9.18,2.23,14.42,3.57,16.3,4.14,32.63,9.01,48.89,12.23,6.89,1.37,21.72,7.95,23.1-3.11,1.3-10.37-18.79-11.7-25.05-16.71-.99-.79-2.02-1.38-1.72-2.88,2.16-1.88,23.99,4.92,28.27,5.63,6.92,1.14,13.65.67,20.46,2.15,12.8,2.78,36.25,14.91,48.7,8.01,3.37-1.87,7.58-7.15,4.32-10.8-2.29-2.57-12.89-8.94-16.36-10.42-10.97-4.69-24.55-6.05-35.99-9.65-.23-.22.44-1.04.83-1.26,1.16-.64,22.48-6.35,24.44-6.54,5.4-.54,11.99,1.41,17.43,1.96-.57,2.16-6.58,0-5.85,3.34,9.54-4.59,16.73,1.83,25.59,4.12,7.55,1.96,15.46,2.01,22.96,4.26l-6.68,2.97-1.68,2.04c5.08.34,7.92-5.71,12.55-3.33.33,2.92-15.91,6.83-13.39,9.2.67.63,7.9-3.05,9.22-3.75,3.68-1.95,6.84-6.87,10.03-2.12-2.2,1.98-19.21,6.92-19.24,7.96-.08,2.58,6.71-.24,7.74-.62,3.6-1.34,7.08-3.52,10.26-5.65,2.49-.15.63.95-.14,1.54-7.99,6.05-17.43,6.93-26.05,10.79-1.01.45-2.48.42-2.71,1.89,6.89-.38,14.43-2.78,20.66-5.71,3.52-1.65,13.16-8.9,15.1-9.2s6.77.85,9.87.67c4.39-.25,18.99-2.33,21.79-5,3.32-3.15,1.18-4.81,1.64-7.15,1.04-5.22,3.15-5.72.59-11.86-1.48-3.57-4.72-4.97-3.09-1.93,2.22,4.12,4.21,6.61,2.08,11.72-.93-.97-4.22-2.65-4.65-3.35-.33-.54.71-10.01-2.46-11.71l1.26,10.88c-4.51.15-3.29-4.15-4.41-7.72-.5-1.6-2.45-7.15-3.95-5.26,2.25,3.36,3.89,7.22,4.18,11.31-7.36.78-4.13-.78-5.39-5.91-.6-2.45-2.25-4.29-2.99-6.64-1.54-.19-.73,1.75-.44,2.53,1.12,3.08,3.49,4.86,2.97,8.76-4.76,1.82-2.88-5.77-4.41-9.82-4.6-12.13-29.38-22.08-41.44-23.87-.95-.14-8.52-.87-6.07,1.45.25.23,5.43.89,6.7,1.26,11.04,3.18,31.59,9.79,37.83,19.94.79,1.29,3.77,8.44,3.18,8.95-2.61,2.27-2.91-3.86-3.52-5.26-5.3-12.1-29.72-21.41-42.12-22.35-.93-.07-3.11-.62-2.91.82,11.09,1.74,24.3,6.67,33.76,12.72,4.3,2.75,9.6,7.17,10.61,12.41-1.24,1.26-13.77-10.77-16.18-11.86-14.9-6.75-39.01,1.86-53.23,8.09-1.16.51-4.94-1.42-4.27-2.07,13.44-1.8,25.26-9.23,38.51-11.74.2-1.51-1.82-.76-2.71-.62-2.6.4-5.63,1.5-8.16,2.3-2.48-2.37,9.46-3.83,9.2-5.85-2.07,0-8.39,3.42-9.11.34-.11-.49.86-7.81.78-10.02-.15-3.99-1.49-7.94-.87-12.1ZM342.01,369.55c-1.64.14-3.68,1.24-5.02.42.5-2.82,3.72-2.61,4.15-3.01.24-.23-.76-4.54,2.13-5.78l-.42,3.34,3.77-4.17.83,3.34c1.77-.27,3.06-5.13,3.35-5.02,2.87,1.11-1.1,4.08-.41,5.85l5-1.66c.05,1.65,1.62,3.55,1.29,5.11-.7,3.26-6.89,5.46-5.45,2.85,2.29-1.16,3.29-2.8,3.34-5.45-1.81.29-5.96,6.55-7.52,5.03-.44-1.04,1.16-6.49-1.24-5.85s-2.93,2.99-3.79,5.01c1.1-.1,2.25.05,3.35,0l-5.02,4.6,2.5,1.24-6.69.84c.44-2.25,5.02-3.4,5.68-4.39.53-.8.01-1.89.18-2.3ZM88.33,372.91c12.56-6.38,25.79-10.51,39.34-14.24-.14.92.59,2.33-.56,2.5-7.18,1.07-13.97,2.54-20.81,5.02-5.15,1.86-11.13,6.09-15.23,7.38-.74.23-2.99.78-2.75-.66ZM95.03,372.91c10.89-4.23,21.66-9.9,33.48-10.9l-.84,15.91-9.2-1.68c-.51-1.38,7.19-2.37,5.01-4.17-.54-.45-10.23,4.62-12.55,3.34l10.88-6.68c-5.69.46-10.34,3.93-15.53,5.82l-11.25-1.63ZM328.61,371.21c-.03-1.65,4.92-5.87,5.86-5.01-3.79,3.61.59,3.07,0,4.58-3.22,4.22-1.49-.64-5.85.42ZM131.02,366.2v12.98c0,.17-.78,3.26-1.67,2.93l-.05-3.8,1.71-12.1ZM305.19,370.39c2.22-1.74,1.34,1.76.33,3.27-1.59,2.37-6.86,3.71-2.02,6.35l-1.67,2.09c6.91-2.34,1.75,3.83-.4.8-.51-.71-.17-2.64-.85-2.46-3.58,1.06-5.45,5.99-7.52,7.62-1.05.83-3.31-.01-4.62,1.58-.35-2.61,2.5-2.08,3.71-3.4.69-.75,1.16-3.09,2.14-4.13l-5.02.82c-.53-3.22,4.76-.42,4.18-4.18l-5.01-.84c1.04,5.61-1.02,6.25-5.02,9.21-.09-7.6-.73-3.87-3.31-1.23-.69.7-3.36,3.73-4.23,2.9-.5-2.24,2.22-2.19,2.91-3.37.76-1.32.41-3.42,1.38-5.32.65-1.27,5.3-6.29,6.59-5.13l-2.51,2.93c5.57,1.19,3.95-3.87,4.24-4.1.52-.41,3.89-.55,4.96-1.75l-2.49,5.86,4.17-.84,1.25,3.35c1.92-.87,2.2-3.84,3.16-4.8.69-.69,2.71-1.14,4.03-2.26,1.18-1,1.49-2.87,1.62-2.97ZM327.82,374.63c.28-.26,1.77.03,2.47-.05l-1.67,3.33,4.18-.82-2.53,3.34c-.2.15-4-2.58-4.16-2.93-.31-.68,1.1-.17,1.4-.69.45-.79.21-2.08.32-2.18ZM340.34,384.63c9.8-3.76,19.71-7.48,30.13-9.21-2.16,3.8-3.48,5.76-1.19,9.97,2.65,4.84,4.35,3.52,8.72,5.52l-3.34,2.08c6.3-2.82,10.52-.58,16.75.01l-2.51,2.5c5.05-1.05,8.32-.98,13.22.63.85.28,2.48-.16,1.84,1.46-1.79,4.54-17.75.99-21.92.17-5.82-1.15-11.49-3.07-17.23-4.54l-24.47-8.59ZM272.23,381.82c1.65-1.84,1.9-5.42,5.31-4.73.61,2.9-1.3.75-1.54.96-1.84,1.66-3.66,8.71-7.66,6.99.83-1.5,2.99-2.21,3.9-3.22ZM84.14,377.93c1.42-1.67,41.99,1.48,43.53,3.36.08.1.34,2.46-.41,2.49-3.04-2.25-8.17-3.39-11.96-3.95-7.42-1.09-28.83-2.77-12.2,7.18l23.74,9.32c-2.84.23-5.5-.67-8.17-1.45-7.93-2.31-27.61-9.94-33.46-15.04-.43-.38-2.24-.53-1.06-1.91ZM370.71,378.99c.51-.54,2.64-1.44,3.12-1.06-2.42,3.49-1.88,4.6.84,7.52-3.27.1-6.38-3.92-3.96-6.46ZM306.01,386.29c.21-2.71,1.68-5.48,4.17-6.69,1.6,1.65-1.86,6.66-4.17,6.69ZM379.69,382.95c5.45-.92,9.74-4.83,14.21.41l-7.09,2.1,3.76-3.35c-2.89-.28-5.57.85-8.34,1.29-.88.14-2.73,1.12-2.54-.45ZM100.04,381.27h11.72c.85,1.6-3.99,3.88-4.6,3.89-.9.02-6.72-2.4-7.13-3.89ZM112.6,387.96c2.11-2.54,5.87-4.86,9.21-5.01-2.53,2.56-5.4,6.56-9.21,5.01ZM117.63,389.63c1.36-2.77,7.29-7.45,10.05-5.01,1.51,1.34-1.18,1.79-1.66,2.07-2.92,1.75-5.2,4.12-8.39,2.93ZM249.09,396.34c-1.67-3.54,3.99-9.9,7.52-9.2.36,1.38-1.43.4-1.69,1.35-1.14,4.12,5.37,3.15.04,6.17.42-3.25-2.2-.51-2.52-.83-.21-.76,1.11-2.25.83-2.5-2.1-1.87-2.27,4.65-4.18,5.01ZM122.65,391.31c3.45-4.94,6.69-5.82,5.85,1.68l-5.85-1.68ZM239.03,394.66c-1.48-1.32,4.97-5.68,6.69-5.02.93,3.45.86,4.49-2.09,6.7-.83-3.88-3.97-1.12-4.6-1.68ZM229.03,389.68c.13-.12,2.41-.15,2.89-.07.71.13-.46,3.68,2.92,2.55l-2.5,3.34c4.56-2.04,11.06,3.61,2.92,4.2l-.43-2.52c-1.46-.34-.53,1.28-.89,1.58-.24.19-3.63-1.88-5.82.5-1.04,1.13-.17,3.05-1.64,2.94,1.34-6.14-5.45-6.75-4.2,0l-2.15-1.72c-5.6,2.03-.61-1.68-.11-2.66,1.6-3.13,1.73-7.14,6.45-7.33.35.3-4.26,5.84-1.69,6.68-.19-2.25,2.31-1.53,3.31-2.96.92-1.32.77-4.37.94-4.53ZM293.45,398.84c.22-1.46,1.7-1.42,2.7-1.9,7.18-3.47,17.01-5.47,24.93-5.62l-8.19,3.1-19.44,4.42ZM291.78,395.51c4.6-1.56,9.2-3.78,14.22-3.35l-11.67,3.81-2.55-.46ZM211.39,398.86c.76-1.05-1.54-3.82,3.85-4.97,2.38-.51-.48,5.37-.71,5.59-.47.44-1.85.18-2.66,1.07-1.38,1.51-1.43,5.78-5.49,5l-.42-4.16c-3.27,2.18-3.44,1.86-2.09,5.83l-3.36.84,1.67-3.34c-.19-.22-5.14,4.77-5,1.26.02-.6,6.98-9.01,7.51-9.28.32-.16,6.47,2.48,6.7,2.17ZM244.24,397.32c.17-.12,4.72-.55,3.99,1.1-.9,1.15-5.73,3.67-6.69,2.93.85-.74,2.3-3.76,2.7-4.04ZM417.37,407.22c-.39-1.88.94-1.87,2.06-2.54,13.97-8.25,7.2,2.46-2.06,2.54ZM247.41,406.4c7.51-1.29,17-4.03,24.61-3.27,8.61.86,34.62,7.51,42.82,10.75,1.92.76,4.69,1.67,4.56,4.22-2.49.43-4.37.94-6.99.77-15.6-1.01-33.88-8.85-49.78-10.54l-15.22-1.93ZM171.32,403.99c.65-.45,2.3.01,3.24-.1.36,1.33-3.11.46-1.66,2.5.1.14,1.64-.71,2.19-.16l5.34,1.83c-1.55.86-7.27-1.11-7.53-.83-.17.19-.25,4.04-.85,5.03-7.7-1.5-3.57-1.97-1.82-4.74.56-.89.65-3.21,1.1-3.52ZM200.52,414.77c5.53,1.18,10.13-2.02,14.87-3.13,3.01-.71,6.82-.56,9.62-1.27,6.06-1.54,12.23-5.79,19.04-4.81l-27.43,8.14-3.54,1.89,21.76-5.85c-2.61,6.86.74,8.27,6.13,11.04s12.19,3.59,16.48,7.37c-1.51,2-17.75-1.4-20.94-2.08-10.27-2.17-24.74-6.03-34.32-10.07-.8-.34-1.92-.08-1.67-1.23ZM161.16,410.57c.53-1.11,4.86-5.94,5.86-5.01-.59,2.32-2.91,4.01,0,4.59l-2.94,3.77-.4-3.34h-2.52ZM153.69,407.29l4.95-.9c-1.71,4.56,2.78,6.03-2.09,10.04l-2.07-3.34c-1.31,2.32-3.99,6.25-6.71,6.68-.55-2.46,1.88-1.54,2.9-3.36s2.51-6.79,3.02-9.12ZM142.86,409.03c.92-.82,10.29-.14,7.07,4.12-.73.97-2.63.46-3.57,1.05-1.05.66-4.8,5.76-6.12,4.74l1.25-3.35-5.42,3.36c-2.36-4.63,1.49-2.66,2.51-6.27l-3.36.4c.63-2.03,1.93-3.2,3.77-4.16,3.17,7.35,2.81,1.07,3.88.11ZM336.27,426.6c1.49-1,8.49,2.68,9.1-3.47,6.65,4.19-8.42,7.04-10.06,5.85.37-.54.85-2.31.96-2.38ZM268.37,430.69c2.92-1.95,6.22,5.23-1.71,4.15.77-.75,1.52-4.03,1.71-4.15Z"/>
    <path class="cls-1" d="M204.7,385.45c4.09-.58,8.76-3.78,11.72-6.68-4.07,1.31-8.85,3.45-11.72,6.68Z"/>
    <path class="cls-1" d="M193.82,389.63l3.28-1.32,7.6-7.05c-3.89,2.24-8.18,4.73-10.88,8.36Z"/>
    <path class="cls-1" d="M187.96,391.32l9.2-8.37c-3.62,1.03-8.79,4.35-9.2,8.37Z"/>
    <path class="cls-1" d="M141.92,353.64l4.17-12.55c-3.36,2.65-3.95,8.54-4.17,12.55Z"/>
    <path class="cls-1" d="M332.8,354.47c2.87,1.77,11.13-6.31,10.04-7.53l-10.04,7.53Z"/>
    <path class="cls-1" d="M271.69,319.31l6.69-10.04c-1.71-1.56-7.71,7.74-6.69,10.04Z"/>
    <path class="cls-1" d="M310.2,274.93c3.72-1.96,20.09,5.71,20.93,5.03,1.57-1.29-1.19-1.81-1.65-2.08-5.08-3-11.13-4.04-16.98-4.07-1.09,0-1.84-.75-2.3,1.12Z"/>
    <path class="cls-1" d="M313.55,279.13c-.42,2.45.59,1.35,1.95,1.77,4.54,1.4,9.4,1.86,13.95,3.25.43-2.37-.57-1.37-1.83-1.88-4.39-1.77-9.3-2.98-14.06-3.13Z"/>
    <path class="cls-1" d="M241.55,264.89c5.21-.98,10.26,2.71,15.9.83l-12.77-2.55c-.78-3.58-3.79.93-3.12,1.72Z"/>
    <polygon class="cls-1" points="247.41 261.55 254.53 263.21 262.47 263.21 251.96 260.68 247.41 261.55"/>
  </g>
</svg>