<?xml version="1.0" encoding="UTF-8"?>
<svg id="Ebene_1" data-name="Ebene 1" xmlns="http://www.w3.org/2000/svg" viewBox="0 0 475.4 480.26">
  <defs>
    <style>
      .cls-1 {
        fill: #e8dfd7;
      }
    </style>
  </defs>
  <path class="cls-1" d="M322.01,250.21c7.48-2.26,20.62,1.82,28.28,1.36,8.25-.45,29.14-9.67,33.15-16.37.89-1.47.23-3.95-2.18-2.49l-23.13,1.05c6.09-3.63,14.23-3.17,20.1-7.23,2.86-2.02,18.46-20.02,18.68-22.45.42-6.18-8.71,1.7-10.22,2.43-1.77.83-7.22,4.18-8.99,2.15,11.47-4.58,11.96-11.98,16.55-21.53.69-1.41,3.17-1.82,4.16-3.87,1.14-2.32,2.42-30.46,1.85-32.58-.67-2.38-1.97-2.56-3.34-.92-3.37,4.15-10.58,17.14-10.04,22.9,1.35,13.33,8.71,21-5.35,30.85-4.96-10.11-.32-17.93-1.62-26.67-1.25-8.19-6.52-20.52-9.57-28.88-.81,10.15-5.08,25.87-.35,35.89,2.41,5.19,9.38,12.79,8.68,18.83-.42,3.57-12.79,14.25-14.35,19.89l-12.95,6.89c13.78-11.42,16.13-25.94,16.87-44.87-2.51-4.03-1.64-1.36-2.98.42-6.15,8.55-10.76,18.79-16.26,27.89l6.06-25.8c-4.6-1.87-6.19,9.67-8.39,9.29l-.7-6.23c-8.99,5.01-17.1,14.69-19.08,25.93-.69,4.02.68,10.36.11,12.53-.43,1.65-8.94,18.51-10.15,20.12-7.18,9.7-18.31,12.86-27.51,19.95-.7-3.96,4.4-11.26,6.88-13.1,2.89-2.21,7.33-1.99,10.39-3.73,10.43-5.94,8.85-16.85,16.53-25.13.3-3.49-2.05-2.67-3.99-1.72-7.25,3.53-10.97,11.71-18.27,15.18l11.73-23c-1.91-3.78-2.74-1.26-4.67-.06-7.23,4.27-11.66,11.1-16.13,18.21l1.79-23.87c-4.82,5.67-10.75,12.73-13.22,20.19-1.46,4.48-.5,15.82-1.04,16.37-2.29,2.46-11.95,3.32-16.71,8.11-5,5.05-8.25,23.65-16.64,29.5-3.48,2.46-9.34,1.65-14.6,5.86-5.72,4.63-8.38,14.07-17.06,16.77l9.2-10.29,8.97-19.54c-7.25,1.76-14.26,5.63-19.73,10.5-11.49,10.14-12.65,28.36-19.7,40.99-8.69,15.64-34.78,22.15-49.25,30.45-10.86,6.16-25.03,17.86-36.15,25.55-16.09,11.12-31.85,22.85-47.99,34.01,2.35,4.64,2.51,2.01,5.16,1.48,23.48-5.08,40.75-24.52,60.62-36.72,12.89-7.93,48.2-24.57,64.02-22.64,2.12.27,5.53,5.09,10.42,6.42,9.02,2.53,18.08-3.79,27.24-1.18,3.38-1.88.95-1.51-.95-3.36-11.59-11.4-27.28-8.03-38.69-3.84l-30.42,4.53c13.99-7.2,24.92-24.09,40.44-28.17.98-.27,20.56,2.45,21.64,3.03,2.63,1.34,3.31,4.8,8.41,6.07,7.23,1.78,24.64-10.44,29.65-15.25,2.13-2.1-.52-4.42.14-4.8,2.8-1.39,10.13-1.61,14.43-3.73,6.99-3.43,12.65-9.45,20.36-11.87-2.16-4.36-2.53-2.16-5.1-2.11-10.01.35-26.96.15-33.47,6.76-2.32,2.31-2.1,5.94-5.33,7.8-3.06,1.74-19.29,4.22-24.09,4.92-2.83.4-8.52,1.74-11.23.04l18.05-12.76c6.56-4.64,38.54-15.39,47.28-16.95,4.62-.83,10.19,2.05,16.54.33,4.95-1.32,10.77-5.09,15.33-7.56,1.83,12.58,11.08,18.65,19.22,27.18.84-10.34-2.51-23.53-9.95-32.39-1.93-2.25-18.02-13.49-20.29-14.32-4.39-1.69-6.17,4.95-8.94,1.86,2.43-.96,8.26-7.1,9.93-6.77.57.1,3.14,3.49,4.92,4.59,7.14,4.28,21.46,13.24,28.6,13.23l18.49-2.73c-7.52-8.97-22.72-14.79-32.62-13.68-7.33.81-8.91,6.89-18.12-2.57,6.44-2.78,14.49-12.68,20.57-14.54l.06-.04ZM252.52,303.87c-1.49-3.06.49-4.55,2.14-6.13,4.7-4.41,40.06-26.21,44.41-24.58.65.21,6.32,9.06,5.1,10.18-4.74,2.09-12.39,1.02-16.84,3.16-4.45,2.14-5.9,6.27-9.91,8.94-6.77,4.45-17.49,5.22-24.94,8.47l.06-.04ZM268.65,285.67c-4.34,5.51-16.53,9.92-21.8,15.41l7.45-9.55,9.07-6.67c-2.67-6.52-7.23,1.66-10.46-1.6,9.52-10.43,22.28-12.47,28.48-27.02,3.03.13.41,2.48-.13,3.62-3.41,6.95-7.57,14.85-11.72,21.23-.93,1.42-.68,4.27-.94,4.62l.06-.04ZM68.3,415.93l82.19-50.2c.55,4.23-1.72,3.4-3.76,4.67-12.11,7.13-25.34,13.38-37.11,21.11-12.59,8.23-20.21,19.33-36.04,24.64-1.51.48-4.07,2.21-5.3-.12l.02-.1Z"/>
  <path class="cls-1" d="M101.02,211.66c-2.38-1.4.29-5.71-.06-9.02-.17-1.79-2.05-13.86-2.27-14.55-.14-.46-4.45-7.87-4.86-8.13-.37-.18-6.48-.73-6.73-.59-.43.29-1.86,7.96-1.46,9.69,1.69,6.57,6.21,7.34,9.46,10.74,10.02,10.49-10.34,69.59-16.83,82.39-4.16,8.19-18.42,31.69-24.41,37.59-4.93,4.89-4.25-6.42-3.7-9.46,2.98-18.38,14.98-33.05,21.92-48.52,3.53-7.96,1.96-16.1,4.33-22.24s8.24-11.38,3.83-20.78l-2.54,3.16c-4.44-7.17-2.47-1.08-9.04-1.06-.59-7.71-3.1-26.17,9.29-20.84l3.64-17.77-4.45,1.83-2.33-5.36c-.03,6.27-5.47,4.6-7.11,9.9-1.64,5.31,3.67,10.5-2.16,10.88,1.09-4.63-1.75-13.7.38-17.61.64-1.21,4.54-.48,6.82-3.71,2.06-2.95,2.6-6.7,3.59-10.04-4.33,1.65-2.36-1.46-3.27-2.15-.74-.57-4.25-.49-4.71-2.02-.41-1.45,1.82-4.76.29-6.89-1.58-2.21-5.91-.56-6.09-.89-.16-.4,1.72-6.54-1.55-7.99-6.99-3.04-5.25,11.64-5.91,12-.5.27-4.24-1.95-6.33.64-3.91,4.99,1.98,6.3,1.74,8.05-.09.53-3.76,8.73-4.28,9.55-1.37,2.04-4.36,1.99-5.82,4.84-2.12,4.12,5.36,2.63,7.67,4.98,2.72,2.83,1.91,15.77,3.03,17.15,1.81,2.14,10.76,1.85,12.51,4.67.63.95,1.36,20.01,1.25,22.97-.81,33.74-15.82,49.13-21.01,76.9-1.09,5.82.6,11.2-.06,15.82-5.12,35.33-14.53,70.09-19.78,105.39-1.77,11.9-8.73,35.52,5.24,40.2,1.68-.97,1.94-28.59,2.47-33.46,3.02-28.21,10.21-79.81,21.03-104.88,2.8-6.43,11.02-14.19,15.21-21.05,8.68-14.05,15.45-29.21,23.59-43.56,7.78-6.29,13.73,4.54,20.9.58.6-5.12-4.16-4.58-4.7-5.36-.2-.27,5.98-6.33,1-5.99-1.35.09-17.83,6.53-18.12,5.61.94-6.98,5.19-12.63,7.21-19.01,3.99-12.36,5.31-31.72,11.07-42.02.3-.54,8.19-9.31,8.8-9.48.86-.31,3.47,2.91,5.8,3.04,1.38.06,9.4-4.2,9.91-5.45,2.48-5.34-1.29-8.4-4.53-11.59-8.16,2.34-10.3,11.96-17.79,15.13l10.58-46.28c5.06-9.6,14.6-11.18,24.23-7.86-1.51-4.35,4.96-10.68,5.01-11.78.1-1.51-9.1-8.41-9.89-11.64-1.3-5.76,5.01-13.45-9.14-8.98,8.19-10.49-1.48-21.72-7.21-7.5-1.38,3.5-.14,7.56-1.75,11.14-2.63-.08.11-2.97-1.31-3.6-2.28-1.02-13.77,2.92-14.56,4.64-.18.37.29,8.25.47,8.58.43.68,13.34-2.41,14.03,5.67-2.99,1.14-16.5-.82-17.21-.33-.89.65.49,8.03-.91,10.9-1.88,3.77-18.35,13.01-9.73,17.37,2.44,1.21,4.86,1.02,7.59,3.14,1.83,1.38,11.55,14.29,11.12,15.77l-11.28,38.26-.08.26Z"/>
  <path class="cls-1" d="M263.27,25.03c-5.33,2.25-9.68.6-12.34,9.71l-7.5-7.9c-3.25,3.94-4.36,12.06-1.72,16.51,1.85,3.08,6.71,4.87,7,7.05.34,2.5-2.12,10.56-2.42,14.54-1.07,15.98-1.63,13.07-6.23,27.47-4.59,14.4-3.93,27.24-16.25,37.62l4.23-17.28c1.73-10.11-5.29-45.99-9.44-55.96-3.17-7.56-12.24-23.99-16.93-30.61-1.33-1.87-2.6-3.85-4.22-1.22-1.49,2.4-5.32,24.25-5.04,28.39.46,5.98,4.69,17.29,6.72,23.6.62,1.85,3.14,4.35,3.13,4.78.11,2.53-5,4.1-5.31,8.51-.58,7.24,13.01,26.79,15.88,34.92,6.72,18.95-7.2,21.37-17.69,34.31-34.26,42.14-72.48,135.54-87.49,188.62-.56,1.88-3.62,6.14.13,6.31,9.4.34,9.81-22.74,12.24-30.6,7.9-25.57,16.48-41.34,37.12-58.63,18.65-15.59,24.54-18.48,40.73-37.92,13.47-16.08,39.45-26.62,51.84-39.86,4.53-4.85,3.66-10.32,6.79-14.98,7.41-10.95,25.7-20.41,33-33.74.57-1.08,4.48-9.96.91-10.48-7.17,4.62-15.67,3.95-23.43,7.09-22.83,9.23-74.02,51.97-87.98,71.86-7.66,10.89-14.68,24.95-21.42,36.54-1.91-1.88,1.29-9.41,2.29-11.56,15.85-36.31,33-61.54,59.04-91.06,10.17-11.52,21.96-27.04,33.26-37.66.97-.87,11.31-8.73,12.03-8.86.63-.1,5.68,6.93,9.6,8.58,4.43,1.91,14.06-.09,15.32.94,2.9,2.34,3.67,16.9,16.41,4.64-3.57-1.89-2.84-7.1-5.95-9.18-5.08-3.42-7.14,1.15-10.31,1.79-3.17.64-15.14,2.27-15.15-3.46,8.19,5.36,14.36-2.04,21.55-2.87,4.49-.52,8.17,1.43,11.85,1.06,8.65-.85,3.91-8.88,14.57,3.74,10.22-9.82,5.08-13.13,4.47-24.99-8.92-2.34-5.23,11.23-13.28,4.64,4.44-2.22,10.91-7.71,6.91-13.03-1.39-1.9-4.9-1.29-4.98-1.55-.16-.52,3.73-8.4.99-11.16-3.74.34-11.75.81-14.28,3.53-5.18,5.53-.58,15.88-16.1,7.64,4.11-1.59,3.93-7.13,5.75-8.78,2.67-2.43,12.51-1.42,18.34-6.39,3.81-3.21,5.56-8.01.06-8.32-3.81-.21-5.97,4.96-6.78,5.26-.35.11-5.84-2.81-5.89-3.12-.42-1.67,4.67-6.89-2.19-9-.68-.22-1.97,2.08-2.4,2.06-1.2-.06-2.08-2.92-4.15-2.71-1.78.22-3.29,3.05-3.63,3.15-1.7.33-1.98-10.49-5.87-10.96l-6.3,4.5c3.26-3.28,3.46-13.91-.45-15.84-3.91-1.93-4.24,8.27-9,10.25l-.03.06ZM236.65,113.39c7.28-22.34,13.46-50.42,40.73-54.75-4.94,9.72.15,17.5-13.55,18.29l8.77-12.98c-.69-4.58-17.26,17.48-16.76,20.51l.34-11.58c-5.47,6.61-1.53,14.51-5.42,21.58l-14.11,18.94ZM214.7,91.96c-17.14-14.75-25.35-41.83-13.96-62.21,1.38,6.83,17.35,26.26,16.63,31.32-.27,1.89-3.11-1.8-3.87-.09-.38,2.63,4.02,10.62.07,12.74l-13.14-34.34c-4.09,2.91,1.8,11.12,2.31,15.89-2.88.36-3.76-2.21-5.07,2.17,9.41,9.63,17.32,20.29,16.93,34.46l.11.06ZM216.24,126.01c-2.32-7.4-16.52-27.7-16.19-34.06.18-2.81.74-4.54,3.25-6.12s11.05,10.51,12.77,12.73l.63,11.95c-5.35-3.05-7.7-8.88-8.95-14.47-5.56,9.25,12.94,17.89,8.54,30.01l-.06-.03ZM142.38,268.95c7.39-12.84,17.05-24.2,25.2-36.57,20.54-30.91,28.19-42.61,57.73-66.28,17.43-13.98,39.46-31.98,62.63-31.45,1.05,7.45-30.54,30.62-35.27,37.62-2.86,4.29-2.19,8.78-5.92,13.48-5.59,6.98-27.15,18.34-35.67,25.65-11.48,9.73-15.7,18.09-24.63,28.09-8.19,9.15-23.58,16.82-32.4,25.78-2.93-1.05.36-4.09,1.48-5.53,9.12-12,21.36-27.14,31.92-37.87,5-5.04,35.29-32.6,39.41-34.33,4.58-1.93,10.93,2.53,16.18-1.36l-10.4-.65c-1.26-.23-.33-1.7.41-2.69,4.05-5.18,17.04-16.94,22.65-22.17,6.34-5.93,16.17-11.46,21.61-17.21,2.33-2.47.44-2.6-1.78-3.63-13.28,13.28-28.92,24.14-40.41,39.24-3-1.59,1.95-6.95,3.1-8.59,4.24-5.66,11.2-12.64,16.24-17.88.65-.67,14.66-12.04,5.5-9.28-2.95.9-24.88,26.79-28.15,31.31-1.57,2.14-1.25,5.51-3.59,8.69-3.41,4.51-10.97,6.59-13.63,12.29-3.75-.46,12.69-23.1,4.36-19.17-7.2,12.07-9.48,24.58-20.16,34.31l5.29-9.97-2.61-2.33c-1.61,3.58-4.73,5.91-6.82,9.16-10.46,16.44-26.97,30.04-37.89,47.48l-14.28,13.91-.11-.06Z"/>
</svg>