<?xml version="1.0" encoding="UTF-8"?>
<svg id="Ebene_1" data-name="Ebene 1" xmlns="http://www.w3.org/2000/svg" viewBox="0 0 475.4 480.26">
  <defs>
    <style>
      .cls-1 {
        fill: #e8dfd7;
      }
    </style>
  </defs>
  <g>
    <path class="cls-1" d="M200.82,7.61c-.16.09-2.44,2.39-2.5,2.56-.68,2.02,1.4,5.52.83,6.81-.12.27-2.45,2.97-2.97,3.55-4.69,5.19-5.64,4.52-10.98,7.4-4.24,2.28-7.58,6.75-6.54,11.72-2.01.32-1.7-1.62-2.97-2.47-5.05-3.35-4.58,7.95-.48,9.98,8.72,4.31,9.12-8.1,11.55-9.29,2.99-1.48,3.95,4.13,6.83,1.5,1.26-1.71-1.49-4.98,1.06-5.56.7-.16,12.99,1.07,14.26,1.29,4.51.78,7.11,2.89,6.73,7.81-.04.54-2.04,2.66-2.37,2.71-3.14.49-5.89-2.35-8.73-2.46s-6.51,2.84-4.11,5.27l6.81,2.63c-6.76,2.15-14.12,4.26-19.27,9.33-.97.95-.78,2.58-2.93,4-3.16,2.08-7.4-1.27-6.97,4.64.22,3,5.8,6.13,8.28,5.1,1.13-.47,2.16-2.98,3.63-2.67.85.18,2.62,3.07,4.18,3.92,2.82,1.53,7.51,1.95,10.55,3.76-.04,1.68-2.69.08-3.72,1.41-3.8,4.94,9.97,5.65,12.25,8.11-1.09,1.54-1.76.81-3.07.62-6.78-.98-13.91-3.57-20.74-4.79-5.66-1.01-31.76-4.58-35.14-2.27-.85.58-7.19,11.56-8.33,13.56-14.57,25.61-47.67,82.96-50.01,110.43-2.82,33.09,44.46,39.32,52.62,65.95,3.78,12.33-4.35,48.22-7.3,62.37-5,24.04-11.27,48.06-18.31,71.53-11.53-1.28-23.1-4.55-34.7-5.88-5.33-.61-20.68-1.98-24.89.83-1.39.92-2.37,4.29-1.52,5.75,2.01,3.49,22.18,9.87,27.03,11.53,26.85,9.2,55.86,16,84.24,18.48,3.13.27,17.11,1.14,18.71-.36,5.62-5.27-7.23-11.51-10.88-13.18-13.56-6.21-29.95-9.41-44.31-13.42,6.15-33.78,12.96-68.66,22.9-101.52,2.62-8.66,6.83-24.28,12.82-30.39,18.93-19.26,63.12-7.47,74.92-33.06,4.32-9.36,5.55-20.67,6.14-30.87l1.7-6.07c.13,14.07.14,28.91,2.03,42.86,2.93,21.58,5.24,38.91,27.99,46.2,30.89,9.91,55.43-5.2,70.12,30.92,6.18,15.19,11.71,33.4,16.43,48.58,6.79,21.83,12.55,44.01,17.84,66.26-9.35,4.81-19.81,8.12-29.53,12.48-4.4,1.97-23.76,10.36-24.98,14.11-2.62,8.06,7.41,8.12,12.67,7.68,22.52-1.9,58.55-13.7,80.34-21.45,8.57-3.05,32.43-11.07,38.18-16.6,2.66-2.56,3.95-7.79.3-9.67-5.12-2.64-32.34,2.93-39.56,4.3-5.06.96-15.03,4.4-19.22,4.45-.64,0-1.06-.06-1.41-.66l-34.62-107.36c1.31,11.93,6.53,23.04,8.47,34.86l-5.66-16.09c-1.13-4.89-2.15-10.33-3.92-15.01-.39-1.03-1.39-2.58-1.43-.22,5.82,18.01,10.15,36.53,15.66,54.62,4.04,13.24,8.64,29.85,13.7,42.45.57,1.42,1.59,4.65,3.46,4.54-5.4-14.1-10.3-28.64-14.67-43.09-.85-2.82-2.2-6.37-2.71-9.14-.15-.82-.72-2.85.7-2.6,4.66,17.87,11.25,35.26,17.42,52.66.71,2.09-1.45,3.6-1.63,5.4-.17,1.68,1.41,2.89-.16,3.97-.24.17-1.02-.39-1.45-.17-.39.2.3,1.7-.98,1.31.84-2.7-1.83-3.79-2.21-4.71-1.9-4.51-3.57-11.12-5.16-16.03-12.12-37.4-21.89-75.59-33.99-112.98-.56-1.41,1.25-1.48,1.6-1.11s2.01,8.53,2.68,10.38c.45,1.23-.54,2.16,1.75,1.82l-4.24-17.83-2.11,3.15c-1.84-.89-2.1-5.98-2.61-6.52-2.29-2.38-.39,3.31-2.1,3.13l-2.75-1.7c-.15-1.38,1.96-.62,2.36-1.99.15-.51-.75-1.86-.63-1.96.34-.28,7.29-.57,8.56-2.08,2.06,1.92,2.94,4.47,4.37,6.73,2.66,4.21,3.02-2.52,4.16-5.1.98-2.22,2.37-4.2,3.43-6.37.37-.75-.08-1.95.01-2.03.28-.23,5.22-1.81,5.56-1.53-7.22,7.72-10.55,16.63-9.67,27.33.11,1.32,1.4,7.7,2.47,7.79,1.71.15.6-2.27.54-2.81-2.08-16.45-.95-22.79,11.92-33.78,8.23-7.03,17.25-12.65,24.85-20.86,17.95-19.36,15.71-29.36,6.04-52.37-6.11-14.55-15.01-28.89-24.23-41.54-.3,1.36.29,2.35.81,3.51,5.33,11.91,22.13,31.56,23.26,44.41.18,2.06-.29,9.27-2.78,5.66-2.77-4-3.15-11.8-7.28-15.32.63,5.6,5.77,11.7,6.34,17.09.14,1.34.18,2-1.36,2.38-1.96-6.47-4.08-14.19-8.2-19.57-.78,1.94,2.11,4.99,1.98,6.11-.11.92-2.93,2.12-2.94,4.59,0,2.83,2.36,1.92,2.76,2.36.31.34,1.69,7.46,2.28,8.8-1.85-1.88-3.35-.82-5.07-1.09-4.48-.72-7.67-2.54-12.34-.46-5.13,2.28-2.91,6.51-4.75,8.65-.67.77-5.56,1.93-7.42,3.3-2.35,1.72-2.43,3.7-3.97,4.91-4.68,3.7-14.88,7.35-20.62,8.68-.75.17-.25,1.73-1.7,1.54-4.97-.66-4.96-4.81-6.09-5.7-1.74-1.36-6.83.16-7.76-.52-.84-.61-1.9-8.51-2.22-8.83-.06-.06-1.69-.35-1.6.34.35,1.18,3.24,8.22,2.92,8.55-2.07,2.1-3.14-7.65-4.57-7.38-.39,2.36,1.94,5.4,1.41,7.57-.35,1.45-8.95.97-10.57.64-3.32-.68-5.08-3.47-7.67-3.78-1.53-.18-3.02.63-4.65.47-6.64-.65-12.03-1.37-16.84-6.41l-6.44-31.35c-.95.05-1.69-.74-1.47.97,1.25,9.37,5.06,18.63,5.73,28.12-3.09-6.65-3.75-14.7-5.32-21.88l-.56,4.81c-3.05-.65-4.95-1.52-4.25-4.98l-1.6.34-.12,3.62c-1.85-3.75-6.13-19.67-4.49-22.68.2-.36,1.06-.98,1.24-.75l1.39,6.48c.81-3.45-2.54-7.87,1.93-9.58l1.47,4.07c.41-1.99-1.75-4.81.99-5.59l1.47,4.06c-.72-4.73,1.5-6.36,5.87-7.04.09,3.23.81,6.53,1.89,9.55.45,1.24-.54,2.16,1.75,1.82-.09-2.94-3.45-10.05-2.87-12.45.22-.88,2.4-.75,3.33-1.6,1.11-1.02,1.04-2.73,1.82-3.91,1.14-1.71,3.22-.15,1.65-3.61,3.81-.88,2.33,3.51,3.23,5.93,1.88,5.08,8.66.21,9.4.92l.62,5.65c-2.14-1.26-2.98.63-2.39,2.62.66,2.23,3.6,1.29,4.22,2.23,1.31,1.96,2.14,10.17,2.5,10.57s1.81.55,1.51-1.02c-.7-3.7-7.91-24.2-6.26-25.68,4.45-1.14,3.73,4.03,4.58,7.39,3.14-1-.57-4.25.21-6.43.77.64,2.69.7,3.01,1.07.43.5,2.05,10.31,2.99,11.99,1.41.25.84-1.78.69-2.59-.34-1.85-1.31-3.61-1.69-5.43-.17-.81-.97-2.66.52-2.43l2.88,10.54.97-5.58,9.63,8.51c8.02,2.86,13.63.94,9.85-8.43-.53-1.3-2.45-2.46-2.15-3.57,1.02-3.68,9.35-5.05,9.74-10.51.09-1.33-.55-8.93-.87-10.11-.87-3.21-7.14-5.3-2.56-8.47,2.36-1.63,6.14-.51,4.84-5.32-1.44-5.38-9.62-1.43-11.67-2.73-.48-.3-3.15-6.5-4.3-8.03-6.76-9.08-20.29-7.32-28.92-1.76l-1.14-1.64-.88,2.37c.37-1.81-4.07-10.94-3.65-11.37,2.05-2.12,2.31,6.12,3.82,5.75.9-2.03-1.34-4.97-1.4-6.11-.03-.47,1.88.11,1.58-1.4-.68-3.36-3.93-6.35-2.29-1.41l-2.44.72c-1.08.22-1.53-2.39-1.43-2.77.56-2.03,13.74-3.37,15.41-6.4-11.81,2.38-24.36,6.26-35.72,10.47-8.13,3.01-16.32,6.29-23.69,10.86.79-11.13-1.28-22.17-1.44-33.3-.48-1.73-4.51-2.67-6.2-3.16,1.7-3.92,6.26-7.35,5.27-12.15-.29-1.43-4.52-1.24-4.78-1.53-.68-.76,2.4-11.81,2.71-14.07.64-4.68.31-10.94.73-15.81.77-2.08,8.14-1.34,8.86-7.28.45-3.7-4.09-6.88-5.75-3.6-.83,1.63.37,4.34-1.73,3.95-1.61-3.31-8.56-13.36-11.84-6.8-2.53,5.07,2.15,5.15,4.46,6.56,3.37,2.06-5.31,6.27-7.57.21s1.34-7.59,2.01-12.14c1.28-8.75-9.82-10.49-6.36-.54-.33.3-4.76-1.8-5.48-2.26-4.5-2.86-5.63-8.52-9.3-11.54-2.01-1.66-6.98-2.59-7.98-4.4-1.6-2.9.43-6.6-1.19-9.58-.83-1.52-4.52-3.7-6.21-2.78ZM116.79,159.04c2.55-13.44,11.49-24.58,17.73-36.37,7.03-13.28,12.61-27.87,22.19-39.51.6-.11.51.84.35,1.2-1.43,3.11-5.34,7.51-6.79,11.05-.2.55.81.6,1.18.43,1.57-.74,5.87-11.43,6.47-11.84.14-.09,2.2,1.26,3.16.92l-32.53,61.33,1.48,1.17,21.09-41.11c.62-.1.46.75.37,1.22-.98,4.83-6.89,12.75-8.85,18.08s-10.44,30-13.07,32.95c-.1.12-1.11-.5-1.5-.28-2.05,1.18-9.55,25.6-9.84,29.78l-2.4-.08.28-8.84-1.64,1.55c-1.16-14.77,7.63-26.01,12.54-38.99-4.47,4.9-5.66,12.76-10.21,17.35ZM183.19,217.55c-.87,3.75-2.01,7.4-2.79,11.17-2.97-1.46-6.65-5.27-9.89-5.92-4.39-.88-12.87.09-17.55-.1-4.89-.19-9.93-1.51-13.61-5-2.17,4.7-5.68-2.4-7.51-3.86-2.6-2.08-8.07-3.41-10.7-5.56-4.31-3.53-4.54-7.29-3.96-12.61,1.13-10.23,11.64-32.99,16.11-43.51,2.17-5.11,4.58-10.13,6.74-15.25l.59,1.44-20.02,51,1.49-.07c8.58-21.38,15.61-43.47,25.43-64.33,1.09-2.32,4.64-7.13,5.1-8.71.83-2.83-1.32-2.89-3.02-1.14-.14-.91.16-1.59.46-2.41,1.29-3.52,10.81-21.79,12.94-24.44.51-.63,1.17-1.51,2-1.59-2.09,7.22-6.64,13.89-9.7,20.82-.34.77-1.37,2.42-.34,2.97,2.87-2.62,10.25-22.77,11.69-23.71.14-.09,1.63.9,3.2.59,1.87-.37,1.6-2.49,3.65-2.81,2.21-.34,10.03.91,12.75,1.34,10.05,1.59,19.84,5.06,29.89,6.67,3.16,5.58-2.65,3.1-3.33,6.61-1.52,7.82,16.57,8,21.17,11.28,3.67,2.61.66,9.4.69,12.79.01,1.4,1.11,2.35,1.25,3.42,1.14,8.46-11.07,18.91-9.31,28.89.44,2.51,3.95,8.08,3.27,10.03-.36,1.03-2.07,1.01-2.29,1.34-.69,1.05.99,3.2.51,3.8-.2.25-1.7.33-2.42,1.18-4.96,5.9-6.06,15.13-3.9,22.4,1.94,6.54,3.29,8.19,3.47,16.21.18,8.01-.03,20.69-4.71,27.4-4.91,7.04-26.07,1.55-32.39-2.99,7.48-35.68,17.54-70.99,21.33-107.34-1.15.45-1.44,4.02-1.67,5.28-3.18,17.46-5.61,35.02-9.35,52.4-3.55,16.47-9.01,32.59-11.05,49.35-1.21-.65-2.96-2.14-2.92-3.54,7.69-24.26,13.03-49.21,16.51-74.45l-1.29-1.22c-2.69,25.81-9.17,50.99-16.22,75.86l-2.14-2.71c7.77-24.37,13.88-49.5,17.59-74.78-1.24-.05-1.22,2.79-1.46,3.83-3.3,14.4-5.58,29.08-9.21,43.41-1.06,4.19-3.24,13.64-5.13,16.57,5.13-22.19,9.94-44.59,13.49-67.1-1.28.16-1.35,3.36-1.61,4.51-3.31,14.9-6.05,30-8.89,44.99l-1.46-4.06c-.45,3.86-2.2,7.89-2.72,11.67-.12.89-.82,2.87.61,2.73l.07-2,.75,1.61c.4,1.75-3.01,8.8-2.71,9.18.76.95,2.13-1.01,2.46-1.52ZM266.35,135.87l.07-2.79c3.46-1.24,27.92-10.87,29.23-9.85.32.25.55,3.05,1.55,3.62-2.78,1.76-1.57-1.82-3.97-1.34,1.22,1.6.44,3.27-1.31,3.15-1.44-.1-.15-4.05-2.7-3.28,1.45,1.4-.17,4.51-.04,4.72.51.79,3.18,1.74,2.92,4.99-2.51.01-5.08,2.33-6.98,2.98-1.52.52-1.9-4.19-2.38-5.51-.45-1.23.55-2.16-1.75-1.82.18,2.79,4.49,8.63-.29,8.83l-1.42-5.67c-.55,3.13,2.77,8.62-2.68,7.95.05-1.69-.09-3.46-.3-5.13-.11-.84,1.36-1.85-1.09-1.35-.78,1.8,1.31,7.86.44,8.79-.28.3-6.12,1.23-6.9,3.85l-2.46-10.53c4.13-1.02,1.51,3.55,3.85,4.94.49-1.57-.93-3.86-.54-5.12.68-2.17,4.55-.86,4.05-3.61-1.01.08-3.03,1.45-3.7,1.48-.31.02-.06-4.09-3.6.69ZM258.05,167.76l-3.03-26.98c.45-1.65,3.43-1.19,4.76-1.11-.12,7.56,4.23,13.61-.49,20.68l-1.23,7.41ZM255.05,185.35c.16-13.69-1.82-27.36-1.05-41.04l3.88,27.88-.29,7.15-2.54,6.01ZM239.76,233.91c-.09-5.09.86-10.5,2.36-15.36.25-.82.28-2.43,1.42-2.2,2.98,7.11,3.8,13.33-3.78,17.56ZM176.04,239.03l12.61,9.67c.97.7,2.37-.13,3.22.17,1.02.35,8.57,4.47,6.33.55,2.98.11,4.89-.86,5.55,2.58-4.49.57-11.92,1.09-16.03-.95-1.22-.6-3.96-4.23-5.29-5.35-2.46-2.09-6.58-3.25-6.39-6.67ZM380.45,259.51c1.95.36,8.93.12,10.42-.9,1.68-1.15.9-3.51,4.14-1.83.5,2.81-1.28.67-1.51.87-2.53,2.19-6.16,10.42-9.85,10.72-2.09.17-1.02-1.98-1.78-2.75-.98-1-3.36-1.79-4.77-2.21-.15-1.47,1.7-.6,2.47-.36,1.15.36,4.51,2.4,4.7,2.22,1.52-1.41-1.49-1.69-1.45-2.03.06-.51,1.06-1.57.8-2.01-.17-.28-3.4-.27-3.16-1.72ZM140.13,254.72l51.89,11.36c-1.7-.17-3.34.62-5.03.44-6-.64-16.49-2.55-22.54-3.83-6.55-1.39-14.38-4.09-20.8-6.26l-.82,1.58-2.71-3.3ZM366.52,267.08l1.26-2.27c.72.58,8.37,3.17,7.52,4.17-9.06,2.16-17.88,9.27-27.4,9.49-3.22.07-1.48-2.1-3.75-4.08l-.88,2.38c-.99-.67-4.13-7.44-1.41-6.47,1.08.39,2.45,2,3.95,2.6,1.93.78,4.79.73,6.77,1.75l-4.68-4.16,12,1.99c-.37-1.14-.69-1.7.5-2.39l3.58.92-.77-1.62,2.43.07c-2.4-5.01,2.55.29,5.62.19-.64-1.91-2.98-2.44-4.74-2.57ZM155.83,266.49c4.4-7.24,15.77.01,12.21,7.66l-.72-2.45-1.28,2.37.14-4.81-1.77,4.76-.62-5.65c-3.38,1.59-.26,6.79-.59,9.93-.48,4.69-4.13,11.3-4.3,16.44,2.25-.6,2.14-7.28,2.68-7.95l1.56.86c.95-3.46,1.9-7.89,4.77-10.31,1.22-1.03,2.02.05,1.99.48-.05.66-6.79,8.65-6.22,11.64l-13.29,43.6c1.58-10.27,4.75-20.83,8.26-30.68l-1.44.13-4.65,13.74c.82-9.37,4.86-19.11,5.74-28.36.31-3.23-1.43-8.39-1.28-8.81.31-.85,1.92-.78,2.43-1.82,1.04-2.14,1.77-8.13,1.17-10.59-1.45-.37-.55,1.32-.85,1.57-.23.19-2.87-1.99-3.95-1.75ZM124.36,414.23c-.48-.39,6.53-8.57,5.76-10.89l11.31-43.22-.14,4.81.94-3.99,1.54,2.83c-2.84,11.68-5.42,23.46-7.51,35.31-.4,2.28-1.02,11.77-1.35,12.29-.04.07-.94-.64-1.59-.35-1.71.77-2.62,3.61-4.94,3.35l.54-3.99c-1.26.56-2.22,5.75-4.56,3.86ZM110.74,407.07c.24-.09.2-1.24.57-1.22,2.99.18,7.64,2.25,10.82,2.69-1.95,2.42-4.1,3.44-3.46,7.11l-5.56-1.8,2.48-2.31c-2.4-1.08-4.08.2-6.45.59,2.08,4.07,7.79,4.9,11.87,6.02l-.89,2.37c7.06,1.92,56.56,12.56,59.18,10.02,2.46-2.39-5.08-3.34-3.05-4.92,5.28-.05,8.26,1.12,12.48,4.25.52.39,2.28.58.99,1.82-.54.52-7.91,1.42-9.27,1.35-6.02-.29-14.91-2.87-20.4-2.72-1.45.04-2.29,1.2-4.45,1.1-3.72-.17-8.77-4.24-11.89-3.7-.59.1-.54,1.56-.9,1.54-4.2-.27-7.51-3.09-9.9-3.92-10.77-3.77-25.46-5.55-36.95-9.05-2.84-.87-6.09-2.19-9.08-3.19-2.11-.7-1.82-1.11.15-.92,6.92.64,14.88,4.5,21.53,5.57,1.69.27,1.49-.24.45-1.2-7.79-3.58-16.36-5.31-24.29-8.41-1.17-.46-3.97-1.3-4.3-2.58,3,1.3,6.16-.46,8.43-.41,4.08.09,19.39,2.91,21.89,1.94ZM137.94,417.1l-1.03-5.65,33.55,9.84,4.22,3.47c-8.32-2.4-16.74-3.48-25.14-5.67-2.35-.19-.85,1.16.15,1.43,4.88,1.31,10.72,1.52,15.36,3.57,1.27.56,1.97-.02,1.54,2.02l-22.41-3.16c3.34-2.09-.04-5.78-2.6-5.75-.4,0-.4,1.52-1,1.64-1.95.39-3.92-1.16-5.37-1.04-.31.03-1.78,3.5-5.34.67l3.12,2.52c.15,1.4-1.89.77-2.74.62-2.82-.47-5.45-2.12-8.47-1.82-.17-1.84,4.09.49,3.27-1.88-.53-1.52-4.39-.94-4.78-1.38-.33-.37,1.04-2.05.83-2.34-.26-.34-1.9.49-1.51-.89,2.99-2.22,5.28-1.68,2.35,1.66,2.76.86,6.33,2.68,9.21,2.79,1.47.06,1.06-1.5,1.74-1.63,1.79-.33,3.36.83,5.05.98ZM403.85,450.09c5.45-3.73,7.32-3.36,3.56-10.33,18.96-3.7,37.96-9.09,57.41-9.35l-3.78,4.69c-1.22-1.89,2.76-2.47.13-4.01l-37.59,5.99c.42,1.73.98,1.26,2.19,1.16,6.45-.52,13.66-2.96,20.38-2.82.19,1.58-1.88.37-2.44.72-.28.17.72,1.95.56,2.74-.61,2.94-12.57,5.68-15.15,7.04-1.35.71-1.53,1.89-2.52,2.5-1.26.78-4.71-.02-3.08,2.32,1.78-1.29,3.77-.71,3.58,1.74-1.94-.35-3.68,1.33-5.34,1.47-1.49.13-.95-1.64-1.57-1.74-1.21-.2-19.75,6.57-23.26,7.55-2.19.61-9.65,1.43-10.73,2.59-.28.3.27,1.48-.47,2.01-2.06,1.47-6.04,1.02-8.28.09-.7-.29-.55-1.6-.96-1.61-1.36-.02-4.79,3.21-7.4,3-1.94-.15-1.58-2.37-2.22-2.4-3.73-.2-10.76,3.11-15.01,2.62l7.33-2.97-3.15-1.69,11.77-3.64c1.32-1.12-.74-.82-1.39-.67-4.56,1-21.84,7.46-24.23,10.81-.92,1.29-.01,2.61-.13,2.67-1.48.72-3.16-.59-2.94-2.12.16-1.12,7.54-5.05,9.1-5.84,13.02-6.65,28.04-11.84,41.66-17.03.4.09.59,3.25,2.01,1.74.38-.41-.69-2.7.88-2.39l1.45,4.86c-4.09-2.21-5.39.47-2.12,1.71,2.05.78,9.29-.74,11.76-1.38-3.96,2.71-2.74,1.7-8.29,2.38-1.74.21-3.64,1.12-5.2,1.21-.7.04-3.5-4.61-5.17,1.42l2.36,1.69c-4.7-.19-9.71,2.33-14.17,2.76-1.82.17-1.4-.39-.33-1.19,3.41-2.55,7.62-3.22,11.02-5.7,1.2-1.57-2.43-.64-2.83-.52-2.35.74-13.63,5.46-11.54,8.88,1.02,1.66,22.45-3.69,25.7-4.56,9.34-2.48,26.49-7.5,34.57-12.13,7.19-4.12.45-4.96-4.45-4.76-.86.04-11.68,1.42-9.38,3.69.25.25,5.46-1.25,6.89-1.36.83-.07,3.78-.5,3.57.9l-10.18,3.68c.14-4.12-5.35-3.35-3.62.67-3.41.31-5.52,2.04-8.96,2.94Z"/>
    <path class="cls-1" d="M154.21,120.86l-1.49-.8c-7.41,16.55-15.68,32.79-21.82,49.9,1.33-.62,2.29-3.39,2.94-4.75,5.55-11.61,10.39-23.75,15.3-35.65l1.51,2.45c4.59-12.68,10.91-24.84,15.72-37.27l-1.82,1.79-10.33,24.33Z"/>
  </g>
  <path class="cls-1" d="M343.45,111.22c.37.35,1.88,6.41,3.49,7.23.92-.23-2.65-8.54.57-5.6,1.02.93,4.23,8.97,5.41,10.9,1.02,1.67,8.02,12.5,8.7,12.88.35.2,1.36.21,1.2-.35l-14.48-23.82c2.86-1.64,2.62,1.53,3.75,3.49,8.08,13.97,17.08,32.92,26.32,45.45.64.86-.09,2.02,2.02,1.58l-28.12-48.8c-.04-2.45.89-.53,1.46.2,4.88,6.29,8.57,15.79,13.54,21.58,1.02,1.19,1.93.27,1.95-.28.09-2.35-15.41-23.4-17.13-27.6-1.8-1.42-25.42,3.17-25.49,4.46-.09,1.56,2.26.86,3.02.77,2.53-.3,12.22-3.54,13.78-2.09Z"/>
</svg>