<?xml version="1.0" encoding="UTF-8"?>
<svg id="Ebene_1" data-name="Ebene 1" xmlns="http://www.w3.org/2000/svg" viewBox="0 0 475.4 480.26">
  <defs>
    <style>
      .cls-1 {
        fill: #e8dfd7;
        stroke: #e8dfd7;
        stroke-miterlimit: 10;
      }
    </style>
  </defs>
  <g>
    <g>
      <path class="cls-1" d="M248.19,250.2l156.83,28.68c61.28,22.49,29.92,115.84-32.07,95.38-1.84-.61-11.63-6.28-12.21-5.52,25.53,41.25-17.49,91.73-62.56,71.79-10.32-4.57-26.1-19.92-27.71-31.37l-22.28-158.95ZM250.59,252.9l21.87,155.97c.6,4.28,8.67,16.01,11.97,19.35,39.56,39.97,103.33-8.86,74.94-58.28-.84-1.47-7.31-9.64-6.95-10.15.85-1.21,14.29,11.12,17.12,10.76,61.82,22.95,94.96-63.56,35.52-89.38l-154.46-28.29Z"/>
      <path class="cls-1" d="M394.19,312.03c.14-.85,1.35-1.64,2.26-1.87.96-.25,18.27,2.72,19.45,3.31.61.31,1.98,1.86,2.04,2.3l2.64,18.82c.09.63-1.4,1.65-2.26,1.87-1.89.48-21.15-3.19-21.35-4.62-.58-4.14-3.23-16.93-2.78-19.81ZM417.54,334.51l-2.57-18.32c-5.7-2.39-12.58-2.84-18.73-3.94l2.64,18.82,18.66,3.44Z"/>
      <path class="cls-1" d="M421.19,317.33c.54-3.99,9.41-3.11,10.13,1.56.28,1.79.31,17.98-.32,18.67-1.52,1.68-6.97.06-7.31-2.4-.56-4.01-2.9-14.83-2.5-17.83Z"/>
      <path class="cls-1" d="M308.01,437.48c-1.7-1.06-3.41-8.7-1.02-9.66.98-.39,20.03,3.26,20.73,4.05,7.85,8.76-16.96,7.33-19.72,5.61Z"/>
      <path class="cls-1" d="M390.3,284.3c.12-.79,1.27-1.65,2.2-1.8,3.07-.51,21.74,6.87,22.11,9.5l2.08,14.85c.09.64-1.39,1.64-2.25,1.86-2.38.61-21.09-2.7-21.36-4.61-.59-4.22-3.23-16.8-2.78-19.81ZM411.43,290.93l-19.08-6.41,2.57,18.32c5.7,2.39,12.58,2.84,18.73,3.94l-2.22-15.85Z"/>
      <path class="cls-1" d="M351.86,384.61c.45-3.01,7.78-1.73,9.02.94,1.36,2.94,1.5,16.35-.1,19.07-1.81,3.09-5.97,1.1-6.15-.2-.59-4.22-3.23-16.8-2.78-19.81Z"/>
      <path class="cls-1" d="M293.55,372.09l2.99,21.29c.08.6-1.23,1.59-2.08,1.66-4.39.35-15.74-3.28-20.54-4.54l-2.92-20.8c-.08-.6,1.23-1.59,2.09-1.66,4.76-.37,15.07,3.92,20.47,4.05ZM294.35,392.17l-2.43-17.33c-.28-1.98-15.97-4.17-18.73-3.94l2.64,18.82,18.52,2.45Z"/>
      <path class="cls-1" d="M278.14,262.16l3.05,21.79c-6.84,1.49-15.84-1.41-22.69-3.38l-3.12-22.28,22.76,3.88ZM276.3,263.43l-18.52-2.45,2.64,18.82c6.38-.53,12.22,3.41,18.52,2.45l-2.64-18.82Z"/>
      <path class="cls-1" d="M350.39,402.99c-.1.74-1.12,1.58-2.09,1.66s-17.69-2.95-18.58-3.31c-.73-.3-2.02-1.7-2.09-2.23l-2.85-20.3c2.4-1.79,22.53,2.23,22.69,3.38-.21,5.65,3.58,15.84,2.92,20.8ZM345.57,382.97l-18.52-2.45,2.43,17.33c.25,1.77,15.99,4.24,18.73,3.94l-2.64-18.82Z"/>
      <path class="cls-1" d="M290.22,319.54c.1-.74,1.12-1.58,2.09-1.66,4.2-.33,15.8,3.46,20.53,4.55l2.92,20.8c.08.6-1.23,1.59-2.09,1.66-1.21.1-20.39-3.5-20.53-4.55.21-5.65-3.58-15.84-2.92-20.8ZM310.93,323.2l-18.52-2.45,2.64,18.82c6.35-.21,12.25,3.2,18.52,2.45l-2.64-18.82Z"/>
      <path class="cls-1" d="M367.12,306.23c.93-2.08,20.1,1.24,22.1,2.99,2.86,2.5,5.6,21.67,2.23,22.64-1.16.34-21.24-3.61-21.48-5.33l-2.85-20.3ZM391.53,329.07l-2.43-17.33c-5.91-3.25-13.44-2.74-19.86-4.79l2.57,18.32c2.24,1.75,19.13,4.62,19.72,3.8Z"/>
      <path class="cls-1" d="M323.6,399.18c-1.17,1.53-22.6-2.77-22.83-4.37l-2.78-19.81c-.09-.63,1.4-1.65,2.26-1.87,1.77-.46,20.16,3.35,20.36,4.76l2.99,21.29ZM321.35,397.47l-2.57-18.32c-5.73-2.84-12.65-2.11-18.73-3.94l2.57,18.32c5.7,2.39,12.58,2.84,18.73,3.94Z"/>
      <path class="cls-1" d="M285.08,311.68c-7.74,1.26-15.1-2.02-22.62-2.89l-2.99-21.29c-.15-1.06,1.81-1.74,3.03-1.77,4.68-.12,15,2.96,19.59,4.66l2.99,21.29ZM280.19,291.16c-6.1-.8-12.37-2.89-18.52-2.45l2.64,18.82,18.52,2.45-2.64-18.82Z"/>
      <path class="cls-1" d="M286.27,291.31c.96-1.26,22.49,1.96,22.83,4.37l2.78,19.81c.15,1.06-1.81,1.74-3.03,1.77-4.68.12-15-2.96-19.59-4.66l-2.99-21.29ZM309.82,315.28l-2.57-18.32c-.27-1.95-15.99-3.48-18.73-3.94l2.64,18.82,18.66,3.44Z"/>
      <path class="cls-1" d="M371.08,334.46c.21-1.4,1.75-1.69,3.01-1.75,1.77-.09,18.48,2.77,19.21,3.42,2.07,1.82,4.79,21.1,3.25,22.4-3.09.84-22.39-2.15-22.69-4.26-.59-4.23-3.23-16.79-2.78-19.81ZM395.42,356.79l-2.43-17.33c-.32-2.28-16.85-4.23-19.86-4.79l2.57,18.32c2.18,1.34,19.13,4.62,19.72,3.8Z"/>
      <path class="cls-1" d="M301.68,401.24c.96-1.26,22.49,1.96,22.83,4.37l2.78,19.81c.15,1.06-1.81,1.74-3.03,1.77-4.68.12-15-2.96-19.59-4.66l-2.99-21.29ZM325.23,425.2l-2.57-18.32c-.27-1.95-15.99-3.48-18.73-3.94l2.57,18.32,18.73,3.94Z"/>
      <path class="cls-1" d="M342.83,349.02c-1.07,1.4-22.61-2.8-22.83-4.37l-2.78-19.81c-.09-.63,1.4-1.65,2.26-1.87,2.04-.52,20.13,3.09,20.36,4.76l2.99,21.29ZM340.57,347.32l-2.57-18.32c-5.7-2.39-12.58-2.84-18.73-3.94l2.57,18.32c5.7,2.39,12.58,2.84,18.73,3.94Z"/>
      <path class="cls-1" d="M343.52,353.97l2.99,21.29c.15,1.06-1.81,1.74-3.03,1.77-4.45.12-15.11-3.16-19.59-4.66l-2.99-21.29c7.67-1.06,15.09,2.08,22.62,2.89ZM341.68,355.24l-18.52-2.45,2.64,18.82,18.66,3.44-2.78-19.81Z"/>
      <path class="cls-1" d="M319.72,371.45c-1.29,1.71-22.53-2.28-22.83-4.37l-2.78-19.81c-.15-1.06,1.82-1.74,3.03-1.77,1.86-.05,19.45,3.65,19.59,4.66l2.99,21.29ZM314.82,350.93c-6.21-.37-12.29-3.11-18.52-2.45l2.43,17.33c5.46,2.75,12.62,3.45,18.73,3.94l-2.64-18.82Z"/>
      <path class="cls-1" d="M267.04,341.47c1.08-1.4,22.54,2.29,22.83,4.37l2.78,19.81c.15,1.06-1.81,1.74-3.03,1.77-4.68.12-15-2.96-19.59-4.66l-2.99-21.29ZM290.6,365.43l-2.57-18.32c-5.83-2.82-12.47-2.93-18.73-3.94l2.64,18.82,18.66,3.44Z"/>
      <path class="cls-1" d="M338.94,321.29c-1.08,1.4-22.54-2.29-22.83-4.37l-2.78-19.81c-.15-1.06,1.81-1.74,3.03-1.77,4.68-.12,15,2.96,19.59,4.66l2.99,21.29ZM336.68,319.59l-2.57-18.32c-5.8-1.73-12.6-3.12-18.59-2.95l2.43,17.33c.24,1.7,15.94,3.6,18.73,3.94Z"/>
      <path class="cls-1" d="M334.98,293.07c-.1.74-1.12,1.58-2.08,1.66s-17.71-2.95-18.58-3.31c-.74-.3-2.02-1.69-2.09-2.22l-2.85-20.3c2.55-1.56,22.53,2.24,22.69,3.38-.21,5.65,3.58,15.84,2.92,20.8ZM330.16,273.04l-18.52-2.45,2.43,17.33c.25,1.77,15.99,4.24,18.73,3.94l-2.64-18.82Z"/>
      <path class="cls-1" d="M300.49,421.6c-11.8.07-17.77,1.16-22.42-10.79-1.14-2.93-5.52-14.57-.97-15.22.86-.12,15.82,2.67,17.16,3.15.79.29,3.16.96,3.24,1.57l2.99,21.29ZM295.6,401.08l-18.52-2.45c-.98,1.3,5.19,17.69,6.93,18.99,1.63,1.22,11.5,2.1,14.22,2.28l-2.64-18.82Z"/>
      <path class="cls-1" d="M308.19,289.25c-.94,1.25-22.58-2.58-22.83-4.37l-2.78-19.81c-.09-.63,1.4-1.65,2.26-1.87,1.77-.46,20.16,3.35,20.36,4.76l2.99,21.29ZM305.93,287.55l-2.57-18.32c-5.79-2.63-12.57-2.42-18.73-3.94l2.57,18.32c5.7,2.39,12.58,2.84,18.73,3.94Z"/>
      <path class="cls-1" d="M362.05,298.87c-.98,1.28-22.57-2.51-22.83-4.37l-2.78-19.81c-.15-1.06,1.8-1.74,3.03-1.77,2.43-.05,19.37,3.04,19.59,4.66l2.99,21.29ZM359.79,297.16l-2.57-18.32-18.73-3.94,2.57,18.32c5.7,2.39,12.58,2.84,18.73,3.94Z"/>
      <path class="cls-1" d="M363.44,279.99c.58-3.51,19.35-.21,21.35,1.04,2.99,1.88,6.98,22.9,1.95,23.3-2.28.18-20.41-3.7-20.67-5.53-.55-3.92-3.08-16.13-2.64-18.82ZM387.64,301.34l-2.43-17.33c-5.98-2.29-13.24-3.31-19.72-3.8l2.43,17.33c.25,1.82,18.99,4.78,19.72,3.8Z"/>
      <path class="cls-1" d="M369.62,352.84c-.1.74-1.12,1.58-2.09,1.66s-17.69-2.95-18.58-3.31c-.73-.3-2.02-1.7-2.09-2.23l-2.85-20.3c2.55-1.56,22.53,2.24,22.69,3.38-.21,5.65,3.58,15.84,2.92,20.8ZM364.79,332.81l-18.52-2.45,2.64,18.82,18.66,3.44-2.78-19.81Z"/>
      <path class="cls-1" d="M288.97,339.41c-.87,1.17-20.76-1.95-22.83-4.37l-2.78-19.81c-.08-.6,1.41-1.7,2.27-1.89,1.63-.36,20.15,3.38,20.35,4.78l2.99,21.29ZM286.71,337.7l-2.57-18.32c-5.69-2.61-12.63-2.52-18.73-3.94l2.57,18.32c5.89,2.49,12.48,3.02,18.73,3.94Z"/>
      <path class="cls-1" d="M362.74,303.82l3.19,22.78c-5.19-.58-15.76-1.06-20.33-2.9-.99-.4-2.51-1.58-2.64-2.47l-2.64-18.82c-.14-1.02,1.99-1.84,3.15-1.94,5.3-.46,13.61,3.41,19.26,3.34ZM360.9,305.09l-18.52-2.45,2.64,18.82,18.66,3.44-2.78-19.81Z"/>
      <path class="cls-1" d="M398.08,339.76c.21-1.33,1.87-1.79,3.13-1.92,1.95-.19,15.66,2,17.49,2.76,4.12,1.71,5.1,10.75,3.22,14.48-.56,1.1-6.33,6.5-7.35,6.91-2.56,1.03-13.41-.28-13.85-3.41-.56-3.97-3.08-16.05-2.64-18.82ZM400.13,339.98l2.43,17.33c.25,1.77,9.27,3.62,11.38,2.46,7.68-4.23,6.24-9.13,4.85-16.74l-18.67-3.05Z"/>
      <path class="cls-1" d="M397.26,363.73c1.11,1.29,1.17,5.68-1.44,6.08-1.8.28-16.43-.45-17.87-1.02-3.38-1.36-4.64-8.12.16-8.54,1.61-.14,18.51,2.75,19.14,3.49Z"/>
      <path class="cls-1" d="M328.75,407.04c.21-1.36,1.73-1.74,3.03-1.77,1.52-.04,17.73,3.21,18.49,3.77,1.87,1.38,3.21,11.77,1.9,13.88-.88,1.42-6.06,6.18-7.73,6.63-2.38.64-12.6-.51-12.91-2.72-.59-4.23-3.23-16.8-2.78-19.81ZM330.94,408.25l2.43,17.33c.24,1.74,8.51,2.64,10.63,1.88.96-.34,5.57-4.46,6.05-5.24,1.28-2.08.21-10.9-1.63-11.9-.77-.42-16.96-2.77-17.48-2.07Z"/>
    </g>
    <g>
      <path class="cls-1" d="M254.77,412.36c.16,12.31-8.66,29.15-18.15,36.79-38.65,31.14-92.43-4.75-79.89-51.82l-10.86,9.07c-60.82,35.35-111.19-53.21-49.14-87.53l135.61-66.45,22.42,159.94ZM252.79,412.64l-22.01-156.96c-38.22,19.57-77.5,37.17-115.8,56.59-21.35,10.82-41.71,19.05-43.93,46.58-3.6,44.61,44.52,69.79,78.79,41.7,2.66-.42,11.16-15.12,12.43-14.08.48.39-3.49,10.02-3.89,11.67-11.06,44.7,39.66,78.89,75.84,50.11,9.44-7.51,18.54-23.36,18.57-35.59Z"/>
      <path class="cls-1" d="M115.42,376.36c.28-1.74,19.41-11.59,20.93-9.93,1.69,4.9,5.22,18.6,1.56,22.46-.83.88-14.88,8.02-16.13,8.29-1.15.25-3.45-.02-3.59-1.02l-2.78-19.81ZM120.11,395.39c5.65-2.86,12.09-4.68,16.92-8.94l-2.57-18.32-16.92,8.94,2.57,18.32Z"/>
      <path class="cls-1" d="M226.2,439.08c.22,3.15,2.22,7.38-.72,9.65-2.03,1.57-18.12,6.6-19.31,5.16-5.4-6.53,15.51-14.12,20.02-14.81Z"/>
      <path class="cls-1" d="M139.94,393.75c6.38,9.35-7.59,12.9-14.54,14.1-3.68.63-7.35.42-5.7-4.34.73-2.11,18.23-10.67,20.24-9.76Z"/>
      <path class="cls-1" d="M83.28,363.19l2.99,21.29c.18,1.29-4.28,2.78-5.63,2.16-1.27-.58-5.09-13.46-5.45-15.76-.92-5.9,2.88-7.94,8.09-7.7Z"/>
      <path class="cls-1" d="M111.67,349.62c.02-.72.73-2.19,1.4-2.72.89-.7,16.22-7.92,17.22-8.09.84-.14,2.1.14,2.2.82l2.92,20.8c.15,1.05-16.84,9.68-18.49,10.02-.84.17-2.38-.42-2.46-1.02-.78-5.59-2.92-14.7-2.78-19.81ZM130.71,341.4l-17.13,7.45,2.64,18.82,17.13-7.45-2.64-18.82Z"/>
      <path class="cls-1" d="M196.91,417.44c-.32,2.28-18.66,11.23-20.64,10.34-1.84-.83-5.49-20.19-1.33-23.37,1.39-1.06,14.08-7.22,15.83-7.63,1.15-.27,3.22-.24,3.37.85.6,4.31,3.22,16.66,2.78,19.81ZM192.23,398.41c-5.11,3.57-18.4,5.58-17.36,13.04l2.01,14.36c6.1-2.25,12.79-5.23,17.91-9.08l-2.57-18.32Z"/>
      <path class="cls-1" d="M190.18,369.41l2.85,20.3c.26,1.82-16.21,10.61-18.35,10.96-5.06.82-6.87-19.71-4.94-22.32,1.27-1.72,20.17-10.93,20.45-8.94ZM188.48,371.67c-2.8.54-18.14,7.49-17.91,9.08l2.43,17.33c2.99-.39,18.18-7.14,17.91-9.08l-2.43-17.33Z"/>
      <path class="cls-1" d="M221.42,376.14l-2.99-21.29c4.25-2.35,14.36-9.18,18.49-10.02.84-.17,2.38.42,2.46,1.02l2.92,20.8c-6.11,4.13-13.58,8.42-20.88,9.49ZM237.61,347.62l-17.13,7.45,2.64,18.82,17.13-7.45-2.64-18.82Z"/>
      <path class="cls-1" d="M160.81,325.57c.31-2.24,15.79-10.32,18.41-10.99,1.18-.31,3.25-.19,3.4.87l2.78,19.81c.27,1.91-17.31,10.75-20.11,10.27-.56-.09-1.79-.81-1.83-1.14-.58-4.15-3.07-15.77-2.64-18.82ZM180.84,317.2c-2.99.5-18.23,6.84-17.91,9.08l2.43,17.33c2.8-.54,18.14-7.49,17.91-9.08l-2.43-17.33Z"/>
      <path class="cls-1" d="M128.53,311.41l2.99,21.29c.21,1.5-15.34,9.29-17.56,9.86-1.18.31-3.25.19-3.4-.87l-2.78-19.81c-.29-2.1,17.43-10.6,20.75-10.48ZM126.83,313.67c-5.61,2.75-12.1,5.07-16.92,8.94l2.57,18.32,16.99-8.44-2.64-18.82Z"/>
      <path class="cls-1" d="M193.03,360.93l-2.99-21.29c3.9-2.67,13.25-8.75,17.56-9.86,1.18-.31,3.25-.2,3.4.87l2.78,19.81c.27,1.9-17.23,11.24-20.75,10.48ZM209.23,332.41c-5.81,1.86-12.18,4.56-17.06,7.95l2.57,18.32c5.74-2.15,12.43-4.79,16.92-8.94l-2.43-17.33Z"/>
      <path class="cls-1" d="M243.06,372.1l2.99,21.29c.2,1.43-16.11,10.12-18.27,10.18-.89.02-2.6-.55-2.69-1.18l-2.78-19.81c-.28-2.01,17.55-10.19,20.75-10.48ZM227.01,401.61c5.61-2.75,12.1-5.07,16.92-8.94l-2.57-18.32c-5.34,3.43-12.2,4.63-16.92,8.94l2.57,18.32Z"/>
      <path class="cls-1" d="M172.28,428.97c-.22,1.64-3.95,3.96-5.52,3.21-.84-.4-5.32-15.91-5.53-17.77-.7-6.07,8.14-6.24,8.42-4.26.59,4.2,3.06,15.69,2.64,18.82Z"/>
      <path class="cls-1" d="M189.28,362.98c-.28,1.74-19.41,11.59-20.93,9.93-1.6-3.71-4.69-19.45-2.74-22.02.61-.81,17.05-8.86,18.21-8.89.89-.02,2.6.55,2.69,1.18l2.78,19.81ZM184.59,343.94c-3.9,2.77-13.2,4.95-16.38,7.34-.61.46-1.46,2.22-1.39,2.72l2.43,17.33c5.82-3.06,12.8-5.16,17.91-9.08l-2.57-18.32Z"/>
      <path class="cls-1" d="M227.65,262.17l3.12,22.28c-5.99,3.95-13.83,9.04-20.88,9.49l-2.85-20.3c-.36-2.56,17.34-10.55,20.61-11.47ZM226.09,265.42c-2.72.66-17.19,7.07-16.92,8.94l2.43,17.33c6.17-1.08,11.27-5.39,17.13-7.45l-2.64-18.82Z"/>
      <path class="cls-1" d="M185.39,306.47l-2.99-21.29c-.22-1.59,14.41-8.83,16.81-9.52,1.09-.32,3.91-1.15,4.14.52l2.78,19.81c.27,1.91-17.45,10.6-20.75,10.48ZM201.45,276.95c-5.5,3.16-12.08,4.82-16.92,8.94l2.57,18.32c5.61-2.75,12.1-5.07,16.92-8.94l-2.57-18.32Z"/>
      <path class="cls-1" d="M156.83,326.71c1.74.88,4.41,19.55,3.27,22.02-.56,1.21-18.68,10.01-19.87,9.42-1.86-4.11-4.91-18.72-3.13-22.12.87-1.67,18.22-10.08,19.74-9.32ZM156.2,328.74c-6,2.45-12.81,5.26-17.91,9.08l2.57,18.32c2.74-1.36,18.09-7.79,17.77-10.07l-2.43-17.33Z"/>
      <path class="cls-1" d="M132.42,310.36c.02-.72.73-2.19,1.4-2.72,1.21-.95,17.56-8.76,18.59-8.74,2.24.04,5.43,19.96,3.31,22.82-1.24,1.68-20.13,11.23-20.66,7.45-.75-5.33-2.78-13.95-2.64-18.82ZM152.32,301.01c-2.68,1.7-18.08,7.86-17.77,10.07l2.43,17.33c6.1-2.25,12.79-5.23,17.91-9.08l-2.57-18.32Z"/>
      <path class="cls-1" d="M234.73,312.68c-7.1,2.57-13.42,7.89-20.95,9l-2.99-21.29c3.95-2.89,13.03-8.69,17.56-9.86,1.18-.31,3.25-.19,3.4.87l2.99,21.29ZM215.48,319.41c5.86-2.22,11.91-5.11,16.92-8.94l-2.57-18.32-16.99,8.44,2.64,18.82Z"/>
      <path class="cls-1" d="M164.5,373.52c-.09,1.3-1.62,3.28-2.72,4.15-.81.63-14.63,7.66-15.49,7.8-3,.48-3.55-2.64-4.06-4.73-.91-3.75-2.87-15.44-.44-18.15.96-1.07,15.19-8.19,16.9-8.5,1.22-.22,3.25,1.1,3.32,1.6.65,4.64,2.79,13.86,2.5,17.83ZM160.09,356.46c-6.17,1.73-13.15,4.89-17.91,9.08l2.43,17.33c6.17-1.73,13.15-4.89,17.91-9.08l-2.43-17.33Z"/>
      <path class="cls-1" d="M197.68,394.11c.18-1.04,16.95-9.7,18.49-10.02.84-.17,2.38.42,2.46,1.02l2.92,20.8c-4.25,2.35-14.36,9.18-18.49,10.02-.84.17-2.38-.42-2.46-1.02l-2.92-20.8ZM216.86,386.88l-17.13,7.45,2.64,18.82c6.15-1.17,11.17-5.55,17.13-7.45l-2.64-18.82Z"/>
      <path class="cls-1" d="M207.04,302.42l2.99,21.29c-3.63,2.49-14.54,9.52-18.52,10-.95.11-2.36-.41-2.44-1l-2.78-19.81c-.31-2.18,17.33-10.97,20.75-10.48ZM205.34,304.68l-17.13,7.45,2.78,19.81,16.99-8.44-2.64-18.82Z"/>
      <path class="cls-1" d="M226.21,410.31c.14-.99,2.53-2.89,3.53-3.54,2.09-1.36,11.09-5.89,13.42-6.75,5.39-1.99,4.74,4.66,4.8,8.98.09,7.4,0,13.29-6.4,17.32-1.68,1.06-12.17,6.73-12.58,3.8-.61-4.33-3.22-16.63-2.78-19.81ZM228.33,411.02l2.43,17.33c3.07-.61,11.71-3.94,13.3-6.35,1.28-1.95,2.01-14.66,1.58-17.42-.25-1.58.35-2.81-1.67-2.15-2.37.78-15.35,6.8-15.64,8.59Z"/>
      <path class="cls-1" d="M204.55,443.13l-2.99-21.29c3.95-2.89,13.03-8.69,17.56-9.86,1.18-.31,3.25-.19,3.4.87l2.78,19.81c.29,2.1-17.43,10.6-20.75,10.48ZM220.75,414.61c-5.75,1.67-12.37,4.44-17.06,7.95l2.57,18.32c5.65-2.24,12.33-5.17,16.92-8.94l-2.43-17.33Z"/>
      <path class="cls-1" d="M235.43,317.63l2.99,21.29c-3.95,2.89-13.03,8.69-17.56,9.86-1.18.31-3.25.19-3.4-.87l-2.78-19.81c-.29-2.1,17.43-10.6,20.75-10.48ZM233.73,319.89c-2.5,1.2-17.2,6.98-16.92,8.94l2.57,18.32,16.99-8.44-2.64-18.82Z"/>
      <path class="cls-1" d="M87.03,361.15c.29-1.8,15.24-9.27,17.56-9.86,1.18-.3,3.25-.19,3.4.87l2.78,19.81c.26,1.86-17.25,10.47-19.13,10.17-.52-.08-1.78-.9-1.82-1.17-.57-4.1-3.24-17-2.78-19.81ZM91.72,380.19c5.61-2.75,12.1-5.07,16.92-8.94l-2.57-18.32c-5.46,3.03-12.09,5.13-16.92,8.94l2.57,18.32Z"/>
      <path class="cls-1" d="M181.5,307.52c-.04,1.01-.89,2.48-1.84,3.1-1.26.82-15.61,7.71-16.51,7.85-5.06.82-6.87-19.71-4.94-22.32,1.35-1.83,20.11-11.31,20.66-7.45.73,5.22,2.82,14.12,2.64,18.82ZM176.95,289.47c-5.95,2.41-13.12,4.98-17.91,9.08l2.36,16.84c.06.42,1.15,1.13,2.2.81,2.24-.7,16-7.81,15.78-9.39l-2.43-17.33Z"/>
      <path class="cls-1" d="M104.03,323.93l3.05,21.79-18.54,9.52c-.7.64-2.45-.77-2.48-1.02l-2.36-16.84c-.17-1.23,16.21-15.54,20.33-13.45ZM102.33,326.19c-4,.39-15.05,9.06-15.92,12.35-1.01,3.83,1.39,9.79,1.43,13.91l17.13-7.45-2.64-18.82Z"/>
      <path class="cls-1" d="M196.92,388.66l-2.99-21.29c-.22-1.58,16.37-10.12,18.27-10.17.89-.02,2.6.54,2.69,1.18l2.78,19.81c.25,1.81-17.44,10.4-20.75,10.48ZM212.98,359.15c-5.56,2.97-12.25,4.71-16.92,8.94l2.57,18.32c5.61-2.75,12.1-5.07,16.92-8.94l-2.57-18.32Z"/>
      <path class="cls-1" d="M200.66,444.18c-.08,3.32-9.67,7.36-12.37,7.1-1.05-.1-8.75-4.31-9.46-5.16-2.41-2.87-3.69-11.77-.41-14.29.89-.68,13.98-7.08,15.06-7.31,1.25-.28,4.35-.54,4.55.84.75,5.37,2.75,13.87,2.64,18.82ZM196.11,426.14c-3.07,1.83-15.22,5.81-16.86,7.65-4.58,5.12,4.34,16.76,11.22,15.16,1.49-.35,8.27-4.06,8.07-5.48l-2.43-17.33Z"/>
      <path class="cls-1" d="M111.67,378.4l2.99,21.29c.15,1.04-6.98,4.91-8.34,5.31-4.36,1.3-12.71-2.77-14.09-7.27-.62-2.03-1.51-7.59-.9-9.43.96-2.86,16.42-9.8,20.34-9.9ZM109.96,380.66c-3.27,1.39-14.37,5.53-16.1,7.78-1.42,1.84-.21,9.21,1.5,11,.43.45,7.91,4.05,8.38,4.06s8.93-3.54,8.86-4.03l-2.64-18.82Z"/>
    </g>
  </g>
  <g>
    <path class="cls-1" d="M65.51,319.24c-7.82.17-20.64-4.29-27.4-8.3C-3.07,286.48.8,225.45,44.09,206.1c-49.44-51.19,11.42-129.69,72.92-92C85.72,57.1,150-3.34,204.04,36.87c1.72,1.28,5.69,6.36,6.1,6.61.75.46,1.4-.14,1.95-.91,1.3-1.82,2.44-5.32,4.03-7.39,41.1-53.33,119.25-13.37,104.91,50.32,48.43-52.92,128.84,5.44,95.36,67.92,13.32,3.24,24.72,7.81,34.22,18.01,35.24,37.8,10.25,98.67-40.98,99.57l9.23,4.78c34.48,21.4,38.4,71.49,6.33,96.84-14.55,11.51-30.93,13.98-49.09,12.13,9.78,68.68-81.86,97.49-111.58,32.28-.62-1.37.36-1.82-2.2-1.18.14,16.79-11.5,35.3-25.43,44.16-37.62,23.92-85.43.7-90.55-43.04-22.56,9.83-48.04,8.48-66.77-8.34-24.88-22.34-26.34-59.95-4.31-84.67l7.56-7.14c-5.59.31-11.84,2.31-17.33,2.43ZM203.05,38.78c-54.98-42.17-120.99,27.88-79.03,80.73l106.95,111.85c3.79,3.73,10.16,2.87,12.74-1.8l71.77-136.29c27.66-70.69-68.5-114.4-103.55-47.04-1.86.68-7.06-6.05-8.88-7.45ZM72.47,107.52c-45.28,9.93-59.13,67.66-25.34,98.65-10.44,6.07-19.95,12.01-26.66,22.42-23.57,36.59,1.32,86.85,44.97,88.37,14.73.51,25.03-4.94,37.87-10.85,41.22-18.95,81.13-41.05,122.34-60.07,6.71-2.97,8.42-8.66,3.22-14.28-36.05-33.8-68.05-75.22-104.1-108.58-14.26-13.2-32.83-19.94-52.3-15.67ZM413.75,156.3c-1.03-.8,5.92-14.68,6.66-17.56,15.95-61.91-66.71-100.77-103.12-44.11l-71.44,134.76c-3.44,6.78-.31,11.82,7.02,12.84,48.22,5.81,98.69,21.29,146.55,26.45,18.7,2.02,35.47-2.5,48.99-15.84,33.68-33.21,12.71-93.62-34.66-96.54ZM241.91,235.04c-.38-.25-7.15.64-7.68,1.1-.44.38-.91,6.79-2.02,8.21,2.55-.96,5.92,2.93,7.13,2.98,1.6.07,3.97-5.11,6.74-4.93-1.66-.99-3.82-7.13-4.17-7.36ZM147.92,413.71c3.78,41.49,44.97,66.31,83.15,47.2,18.96-9.49,31.4-32.32,30.12-53.45-3.01-49.88-17.58-103.29-21.52-153.58-2.8-11.94-11.77-6.46-19.45-3.07-40.83,23.27-88.23,39.97-128.63,63.3-57.03,32.94-24.48,117.9,37.57,106.25,6.57-1.23,12.46-4.73,18.76-6.65ZM373.72,382.05c6.59.12,13.21,1.86,19.87,1.24,63.17-5.9,71.16-97.32,5.41-112.86-45.25-10.7-94.09-14.45-139.59-25.11-8.32-1.15-18.45-3.95-17.85,8.3,10.04,49.44,10.72,104.79,21.54,153.58,3.53,15.9,15.86,31.35,30.35,38.44,43.6,21.33,90-17.32,80.27-63.58Z"/>
    <g>
      <path class="cls-1" d="M65.86,210.13c-1.54-1.74-4.4-2.21-6.58-3.61-61.73-39.7,4.13-132.34,63.49-75.98,34.78,33.03,66.16,72.32,101.04,105.59l1.63,3.12c-2.05.46-4.1,1.2-5.97,2.15-40.21,20.42-84.56,44.34-125.61,62.04-10.9,4.7-18.06,7.37-30.21,6.51-42.85-3.02-61.2-57.39-30.22-86.61,3.08-2.9,14.38-10.66,18.06-11.18l14.36-2.01ZM77.3,212.56c-48.27-8.55-77.92,51.61-40.7,83.94,15.51,13.47,33.88,14.36,52.43,6.82,43.76-17.77,86.98-45.82,130.91-64.24l2.18-1.89-105.22-109.43c-43.15-37.77-103.2,15.78-71.46,63.05,8.04,11.97,17.09,14.89,29.59,19.53,1.49.55,2.42-.42,2.28,2.21Z"/>
      <path class="cls-1" d="M46.57,290.35c-.94.99-7.16,2.81-8.38,2.26-.84-.38-9.93-14.27-10.24-15.3-.7-2.35,1.59-4.74,3.61-4.64,1.47.07,13.99,12.4,15.03,14.18.6,1.03.76,2.68-.03,3.51Z"/>
      <path class="cls-1" d="M46.71,176.57c2.74-1.13,15.34,12.11,16.32,14.5,1.6,3.89-5.23,7.16-10.01,2.61-2.75-2.61-11.9-14.81-6.31-17.11Z"/>
      <path class="cls-1" d="M198.06,220.27c3.7-.39,13.71,12.91,16.86,15.9-.1,1.08-17.63,9.97-19.15,10.03-3.23.13-16.28-13.88-15.97-16.05.22-1.56,16.47-9.69,18.26-9.87ZM211.88,236.09l-12.64-13.25-17.46,7.4c2.09,2.17,10.67,12.86,12.64,13.23,4.02.77,13.21-6.15,17.47-7.38Z"/>
      <path class="cls-1" d="M66.59,123.36c3.4-.91,9.26,2.82,7.69,5.88-.73,1.41-18.89,10.47-21.23,8.04-4.1-4.27,10.12-12.99,13.54-13.92Z"/>
      <path class="cls-1" d="M137.17,157.63c-.48.94-17.93,8.88-19.18,8.7-2.75-1.96-15.47-13.89-15.09-16.34.24-1.55,17.18-9.79,20.18-9.31,2.01.32,15.32,14.56,14.1,16.95ZM104.91,150.14l13.71,14.04,16.31-8.66c-2.31-1.71-10.97-12.51-12.55-12.78-3.55-.62-13.11,7.1-17.46,7.4Z"/>
      <path class="cls-1" d="M90.31,184.63c2.9-.84,13.98,10.19,15.66,12.84,4.22,6.62-13.1,9.97-17.17,13.27-2.01-.11-16.11-14.45-15.97-16.13.1-1.15,1.72-1.88,2.61-2.49,1.93-1.32,12.93-6.92,14.86-7.48ZM104.91,200.6l-13.01-13.81c-.97-.27-15.95,7.19-16.04,8.33,2.16,2.54,10.05,12.39,12.62,12.7,3.71.45,12.21-6.28,16.43-7.22Z"/>
      <path class="cls-1" d="M195.01,217.18c-.6,1.15-18.07,9.26-20.22,8.83-1.79-.36-15.32-14.53-14.07-16.97.48-.94,18.11-8.82,19.16-8.69,2.84,1.71,16.25,14.67,15.13,16.83ZM191.98,216.67c.93-1.84-10.29-12.57-12.71-14.18l-16.31,8.67,12.56,12.95c2.17-.94,16.06-6.64,16.46-7.44Z"/>
      <path class="cls-1" d="M80.06,248.82c1.72-.26,2.63.28,3.95,1.26,1.1.81,10.42,10.63,11.37,11.94.63.87,1.59,1.34,1.35,2.8-.29,1.79-17.15,9.72-20.17,9.27-1.83-.27-15.03-14-14.92-15.29s16.11-9.63,18.41-9.97ZM93.72,264.78l-12.7-14.23-16.34,8.74c-.07.89,11.31,12.5,12.59,12.71,4.04.64,11.95-6.3,16.45-7.22Z"/>
      <path class="cls-1" d="M93.63,149.6c-.48.94-17.82,8.85-19.16,8.69-1.12-.14-13.27-11.66-14.15-13.05-3.12-4.93,6.49-8.09,10.43-9.79,6.11-2.63,6.41-4.21,11.89.17,2.2,1.76,12.15,11.69,10.99,13.99ZM91.61,148.96c.52-.63-5.37-6.59-6.28-7.51-1.5-1.53-5.79-6.39-7.5-6.55-2.98-.28-12.32,7.13-16.45,7.21-.48.68,5.32,6.53,6.28,7.51,1.42,1.45,5.87,6.44,7.43,6.51l16.52-7.17Z"/>
      <path class="cls-1" d="M151.91,213.42c7-1.98,14.24,9.73,18.41,14.79-.2,2.25-15.93,9.09-19,10.19-2.14-.2-14.96-13.3-15.06-15.38-.14-2.87,12.87-8.81,15.66-9.6ZM138.24,222.21l13.01,13.82c1.21.33,15.92-6.87,16.04-8.33-1.92-2.6-10.07-12.44-12.6-12.7l-16.45,7.21Z"/>
      <path class="cls-1" d="M128.27,224.78c.86-.24,1.55-.52,2.5-.39,1.69.23,15.34,14.62,15.11,16.37-.18,1.44-17.16,9.78-20.2,9.28-2.84-.46-12.19-12.78-14.98-15.38.1-1.18,15.48-9.31,17.57-9.89ZM143.84,240.59l-13.69-14.1-16.32,8.72c2.42,2.06,10.25,12.44,12.58,12.75,3.89.53,12.87-7,17.44-7.37Z"/>
      <path class="cls-1" d="M133.86,192.7c1.77-.49,2.1-.76,3.8.31,1.32.83,13.43,13.77,13.5,14.77.17,2.63-16.33,10.24-19,10.25-3.61.01-13.09-12.25-15.84-15.41.1-1.4,15.28-9.29,17.55-9.92ZM148.45,208.64c.78-1.47-10.69-12.44-12.7-14.23-2.45,1.44-16.16,6.77-16.34,8.74l12.57,12.72,16.47-7.23Z"/>
      <path class="cls-1" d="M88.8,217.31c.77.49,12.08,12.59,12.54,13.39.51.89.73,2.26.25,3.09-.64,1.1-17.16,8.54-19.42,8.22-2-.28-15.07-13.71-14.93-15.31.12-1.43,14.5-8.86,16.74-9.63,1.74-.6,3.19-.8,4.82.24ZM99.32,232.69c.59-1.07-11.27-13.43-13.01-13.8-1.1-.24-15.95,7.2-16.04,8.32,2.16,2.54,10.05,12.39,12.62,12.7,3.71.45,12.21-6.28,16.43-7.22Z"/>
      <path class="cls-1" d="M105.99,265.18c.48-.94,16.62-7.83,19.2-8.7,2.73,1.98,15.45,13.87,15.07,16.33-.24,1.55-17.18,9.79-20.18,9.31-2.01-.32-15.32-14.55-14.1-16.95ZM138.24,272.68l-13.71-14.04-16.31,8.66c2.31,1.71,10.97,12.51,12.55,12.78,3.55.62,13.11-7.1,17.46-7.4Z"/>
      <path class="cls-1" d="M113.97,173.3c1.92-.55,2.92-.99,4.87.05,3.22,1.72,10.11,11.92,13.62,14.8-.13,1.6-17.85,10.59-20.07,10.28-2.8-2.01-15.4-14.09-15.11-16.37.13-1.07,14.62-8.16,16.69-8.76ZM99.31,182.23l13.69,14.1c2.39-1.55,16.44-6.86,16.31-8.71-2.39-2.07-10.26-12.45-12.56-12.76-4.12-.56-12.56,7.25-17.44,7.37Z"/>
      <path class="cls-1" d="M143.52,161.18c.72.44,11.19,11.5,11.58,12.24.58,1.09,1.11,1.84.88,3.2-.36,2.12-16.14,9.66-19.09,9.22s-12.46-12.4-14.98-15.32c.11-1.44,14.51-8.84,16.81-9.59,1.84-.6,3.05-.83,4.8.25ZM154.05,176.55c.6-1.11-10.92-12.38-12.7-14.23l-16.56,7.24c-1.3,1.77,10.62,12.88,12.79,14.23l16.46-7.24Z"/>
      <path class="cls-1" d="M97.18,269.56c3.18-.9,3.37-.73,5.98.93,1.78,1.13,12.42,12.39,12.35,13.83-.08,1.88-17.13,10.42-18.93,10.22-2.46-.27-14.95-13.28-15.07-15.39-.08-1.52.4-1.75,1.42-2.57s12.78-6.6,14.25-7.02ZM112.76,285.34c.98-1.5-10.8-14-12.8-14.2-3.21-.33-12.3,7.01-16.45,7.21l12.77,14.44,16.49-7.45Z"/>
      <path class="cls-1" d="M105.23,229.54c-1.23-.75-13.19-13.52-13.25-14.5-.14-2.19,17.02-10.58,19.87-10.18s12.51,12.45,14.99,15.34c-.15,1.94-14.34,8.78-16.81,9.59-1.84.6-3.05.82-4.8-.25ZM94.7,214.18c-.85,1.59,10.88,12.17,12.7,14.23,2.47-1.23,16.16-6.76,16.34-8.74l-12.58-12.73-16.46,7.24Z"/>
      <path class="cls-1" d="M155.12,241.12c.48-.94,18.11-8.81,19.17-8.68,2.21.27,15.45,14.22,15.09,16.31-.27,1.57-17.77,9.81-20.17,9.36-1.28-.24-15.3-14.62-14.08-17ZM187.38,248.62l-13.7-14.04c-2.4,1.43-16.53,6.92-16.31,8.67l12.59,12.94,17.43-7.57Z"/>
      <path class="cls-1" d="M53.69,173.51c.51-.99,18.54-9.14,20.26-8.82,1.08.2,14.38,13.59,14.04,16.47-.26,1.38-16.19,8.74-19.12,9.21-2.99-1.54-16.36-14.59-15.18-16.86ZM73.74,166.76l-17.96,7.43,13.7,14.04c2.4-1.43,16.53-6.92,16.31-8.67l-12.05-12.81Z"/>
      <path class="cls-1" d="M59.23,229.45c.88-.25,1.72-.66,2.66-.64,2.58.04,13.45,12.62,15.72,15.54.13,1.86-16.86,10.06-19.95,10.22-1.34-.19-14.92-14.26-14.9-15.32.06-2.07,13.98-9.09,16.47-9.8ZM74.82,245.22c.69-1.04-11.57-14.03-12.78-14.25-2.81-.51-12.6,6.97-16.48,7.27-.9,1.66,10.61,12.69,12.76,14.25l16.5-7.27Z"/>
      <path class="cls-1" d="M53.64,261.53c1.21-.34,2.18-.75,3.49-.54,1.69.26,14.52,13.09,14.05,16.43-.21,1.11-17.37,9.59-19.15,9.27-2.13-2.1-14.91-13.75-14.87-15.35.06-2.23,13.87-9.07,16.48-9.81ZM39.97,270.32c-.77,1.47,10.72,12.5,12.76,14.27,2.45-1.36,16.37-7.11,16.25-8.75-2.1-1.98-10.7-12.46-12.54-12.79-3.55-.64-12.29,6.76-16.47,7.27Z"/>
      <path class="cls-1" d="M151.3,244.83c.81.33,11.23,11.49,12.12,12.69,2.25,3.08,1.5,3.29-1.31,5.26-1.69,1.18-15.23,7.82-16.39,7.7-3.18-1.96-15.52-13.39-15.06-16.3.28-1.73,17.98-10.44,20.64-9.35ZM150.6,246.91c-2.57-1.06-14.24,6.93-17.95,7.39l12.98,13.82,17.03-8.44-12.06-12.77Z"/>
      <path class="cls-1" d="M154.36,205.5c-3.51-2.25-9.38-11.47-13.25-14.52-.15-2.51,16.9-10.6,19.88-10.18,2.01.28,15.07,13.71,14.93,15.31-.12,1.43-14.5,8.86-16.74,9.63-1.74.6-3.19.8-4.82-.24ZM156.09,204.45c2.66-1.48,16.62-6.76,16.77-8.89.07-.91-10.88-12.45-12.59-12.66-3.71-.45-12.21,6.28-16.43,7.22l12.25,14.33Z"/>
      <path class="cls-1" d="M95.86,123.35c5.41-1.58,8.43.71,12.87,3.51,2.31,1.46,10.77,7.13,9.1,10.4-.92,1.79-17.81,9.6-20.61,8.39-.89-.39-13.01-13.37-13.16-14.33-.39-2.59,9.45-7.28,11.8-7.96ZM116.11,136.43c.95-1.68-13.65-11.54-16.51-11.66-2.03-.09-13.66,5.08-13.5,6.28,2.27,1.23,11.69,12.89,12.59,12.94,4.2.25,12.67-6.88,17.42-7.57Z"/>
      <path class="cls-1" d="M99.63,261.63c-.72-.44-11.18-11.5-11.58-12.24-.57-1.06-1.16-1.93-.92-3.23.32-1.74,16.53-9.57,19.11-9.21,2.88.41,12.51,12.45,14.99,15.34-.11,1.44-14.51,8.84-16.81,9.59-1.84.6-3.05.83-4.8-.25ZM118.36,253.25c1.04-1.42-10.74-13.95-12.83-14.21-2.95-.37-12.52,6.52-16.43,7.22-.59,1.11,10.9,12.37,12.69,14.2l16.57-7.22Z"/>
      <path class="cls-1" d="M51.68,219.42c3.23-.76,7.58,3.83,5.33,6.61-1.42,1.75-15.06,7.96-17.59,8.09-12.64.62,8.93-13.92,12.26-14.7Z"/>
      <path class="cls-1" d="M91.86,177.99c-.81-.33-11.24-11.5-12.12-12.69-.65-.89-1.52-1.23-1.31-2.74.29-2.06,15.9-9.16,19-10.22,3.22,2.02,15.44,13.27,15.02,16.27-.28,2.03-18.02,10.44-20.6,9.39ZM110.51,168.52l-13.01-13.82-17.09,7.96c1.92,1.6,11.77,13.32,12.69,13.4,4.27.39,12.83-6.44,17.41-7.55Z"/>
      <path class="cls-1" d="M91.17,297.4c-1.31,2.64-19.28,6.54-22.62,6.05-2.4-.35-13.05-11.62-11.7-14.21.48-.92,17.36-8.61,18.97-8.39,1.42.19,13.31,11.94,14.48,13.73.5.77,1.25,2.05.86,2.83ZM89.11,296.73l-13.71-14.04c-2.43,1.31-16.18,7.04-16.33,8.68,2.2,2.28,7.45,9.56,10.19,9.96,6.03.88,14.08-2.99,19.85-4.61Z"/>
      <path class="cls-1" d="M35.59,240.79c.91-.23,1.3-.27,2.22,0,1.99.58,14.7,13.72,14.3,16.05s-16.86,10.03-20.13,9.38c-2.2-.43-7.88-8-7.85-10.86.08-7.37,4.27-12.77,11.45-14.57ZM50.18,256.75c.42-.76-5.25-6.44-6.28-7.51-1.3-1.33-5.93-6.45-7.26-6.4-.86.03-7.24,3.47-7.97,4.33s-2.7,7.62-2.7,8.69c0,1.4,6.25,8.38,6.79,8.43,3.74.35,13.12-6.53,17.42-7.55Z"/>
      <path class="cls-1" d="M49.54,146.02c2.38-.74,4.54-1.53,6.79-.17.74.45,11.44,11.75,11.86,12.5.62,1.1,1.1,1.61.48,2.95s-16.84,9.27-18.6,9.13c-3.13-.25-8.8-7.25-8.99-10.37-.39-6.39,2.05-12.04,8.46-14.04ZM66.98,160.48c-2.09-2.17-10.68-12.86-12.64-13.23-7.38-1.41-12.85,7.62-10.17,14.72,4.51,11.93,15.19.89,22.81-1.48Z"/>
    </g>
    <g>
      <path class="cls-1" d="M397.62,163.61c23.78-6.06,49.61,8.18,57.6,31.09,13.52,38.74-19.04,75.31-59.07,66.59l-144.95-25.64c-.47-1.59.41-2.77,1.02-4.09,21.96-47.27,51.58-94.92,76.1-140.99,51.46-50.43,120.6,23.31,69.29,73.06ZM386.01,167.28c.2-.27,4.64-2.05,5.99-3.02,62.23-44.68-21.56-130.37-67.1-65.65l-71.07,134.14,2.61,1.21,145.15,25.96c77.18,7.09,68.22-110.38-5.18-94.11-.78.17-13.75,5.83-10.4,1.46Z"/>
      <path class="cls-1" d="M431.98,178.9c-1.34,2.63-22.52-.86-23.34-1.73-1.2-1.28,1.09-6.26,2.41-7.45,3.83-3.43,23.44,4.23,20.93,9.18Z"/>
      <path class="cls-1" d="M388.66,86.23c1.9,2.26-.38,6-3.47,6.49-1.36.21-15.93-2.24-17.41-2.85-4.32-1.76-.07-8.82,2.53-9.24.95-.15,17.74,4.86,18.35,5.6Z"/>
      <path class="cls-1" d="M446.99,215.43c9.61-4.25,1.31,18.48-2.12,20.61-2.26,1.4-8.33.29-7.87-3.24.24-1.88,8.56-16.74,10-17.37Z"/>
      <path class="cls-1" d="M272.31,209.86c1.7-.3,19.8,3.44,20.27,4.46.91,1.94-8.01,19.02-9.99,19.81-3.12-.22-21.45-2.64-22.11-4.34,2.03-3.48,8.86-19.4,11.84-19.92ZM290.71,214.97l-18.83-2.31-8.5,16.22,18.64,2.98,8.69-16.89Z"/>
      <path class="cls-1" d="M440.84,213.17c1.86,2.01-7.27,19.39-8.88,20.21-2.47,1.26-21.33-2.1-21.96-3.46-.9-1.95,7.97-18.95,10.01-19.81,1.05-.44,20.11,2.28,20.83,3.06ZM431.17,231.43c1.5-1.18,5.81-13.34,8.08-15.59l-18.07-3.85-9.31,17.27c3.85-.86,16.9,4.06,19.3,2.17Z"/>
      <path class="cls-1" d="M353.37,114.24c-2.38-2.08,7.08-19.36,9.45-20.74,2.03-1.18,20.62,2.17,21.43,3.96.62,1.38-.11,1.97-.5,3-.71,1.9-8.16,15.57-9.14,16.18s-20.43-1.69-21.23-2.4ZM382.37,98.11c-2.99.47-17.39-3.7-18.63-2.95-2.28,1.39-6.74,13.46-8.75,16.37.18.94,16.96,3.68,18.87,2.95.86-.33,6.96-14.36,8.51-16.38Z"/>
      <path class="cls-1" d="M389.69,145.26c-2.84,3.16-17.44-2.67-22.11-1.71-2.39-2.08,7.08-19.36,9.45-20.74s20.71,2.33,21.43,3.97c.57,1.31-7.41,16.98-8.76,18.48ZM396.58,127.42c-4.76.19-14.79-4.11-18.79-2.27-1.07.49-9.2,15.54-8.54,16.18,4.73-.19,14.8,4.02,18.82,2.47.86-.33,6.75-14.44,8.51-16.38Z"/>
      <path class="cls-1" d="M385.59,150.21c1.76,1.89-8.02,17.73-9.92,20.39-1.2.53-20.1-2.33-20.83-3.1-2.04-2.16,6.98-19.3,8.89-20.18s20.94,1.91,21.86,2.9ZM382.8,151.57c-3.9.31-14.86-3.91-17.84-2.46-1.86.91-6.67,13.26-8.54,15.74.38,1.79,15.33,3.1,18.05,3.84,1.27-.44,9.31-16.12,8.33-17.13Z"/>
      <path class="cls-1" d="M343.35,115.79c2.19,2.31-7,19.32-8.89,20.19-2.49,1.14-21.29-1.98-21.96-3.41-.63-1.28.15-2.05.53-3.06.92-2.44,8.2-15.84,9.79-16.6,1.29-.61,19.81,2.13,20.53,2.89ZM341.59,116.95l-17.9-2.41-8.3,17.18c4.14-.3,14.47,3.9,17.8,2.43,1.44-.63,9.48-16.41,8.4-17.2Z"/>
      <path class="cls-1" d="M305.16,188.75c2.14,1.88-7.67,20.16-10.01,21.07-1.41.55-20.36-3.15-20.88-4.26.76-3.86,7.29-18.34,10.32-19.62.96-.41,19.79,2.12,20.57,2.81ZM295.46,207.04l8.08-15.59c-.13-.94-17.55-4.19-18.7-3.44-1.9,1.24-7.03,13.99-8.68,16.86,3.65-.5,17.11,3.89,19.3,2.17Z"/>
      <path class="cls-1" d="M308.4,137.98c2.89-2.26,23.11,1.55,23.47,4.05.16,1.09-9.61,18.51-11.05,19.08-1.66.65-20.55-3.21-21.07-4.57-.37-.96,7.85-17.92,8.65-18.56ZM328.94,141.96c-4.31.26-14.34-3.88-17.78-2.42-3.02,1.27-6.54,13.18-9.6,15.84.1.94,17.86,3.93,18.68,3.44,1.19-.73,9.48-16.06,8.71-16.86Z"/>
      <path class="cls-1" d="M365.11,200.62c2.25-1.13,21.38,2.24,22.08,4.48.36,1.13-8.27,18.03-10.13,18.81-2.23.94-20.22-2.22-20.92-3.59-1.11-2.18,7.48-18.95,8.97-19.7ZM384.22,204.89l-17.86-2.45-8.35,17.22,17.82,2.43c1.92-2.1,9.83-15.91,8.38-17.19Z"/>
      <path class="cls-1" d="M405.78,180.81c2-.77,20.21,2.54,21.06,4.65.56,1.38-8.15,18.13-9.08,18.6-2.62,1.33-21.18-1.78-21.96-3.45-1-2.14,8.28-19.13,9.99-19.8ZM416.96,202.13c1.49-1.18,5.55-13.36,8.08-15.6l-18.07-3.89-9.32,17.32c3.98-.9,16.6,4.3,19.3,2.17Z"/>
      <path class="cls-1" d="M322.71,167.36c1.08-1.2,2.01-1.41,3.57-1.38,2.66.04,19.51,3.33,19.8,5.37.16,1.09-9.65,18.55-10.99,19.01-3.36-1.04-20.19-2.05-21.13-4.51-.37-.95,7.62-17.24,8.75-18.49ZM343.15,171.27c-6.26-.69-12.46-3.16-18.82-2.47l-8.51,16.38c6.57-.24,17.84,6.49,21.49-1.05l5.84-12.86Z"/>
      <path class="cls-1" d="M401.23,232.84c1.5,1.58-8.03,19.58-9.95,20.38-1.82.76-4.61.02-6.59-.23s-13.93-2.56-14.33-3.36c-1.16-2.76,7.9-19.15,8.97-19.69,1.55-.78,21.14,2.1,21.9,2.91ZM399.41,234.06l-18.87-2.48-8.32,17.38,17.8,2.43c2.42-.98,7.97-14.21,9.4-17.33Z"/>
      <path class="cls-1" d="M319.33,218.1c1.84,1.97-7.09,19.38-8.9,20.2-2.57,1.17-21.23-1.96-21.94-3.44-.82-1.71,8.45-19.16,10-19.85.97-.43,20.12,2.32,20.84,3.09ZM290.38,234.18c4.52-.9,15.16,3.86,18.79,2.29,2.26-.98,6.18-13.27,8.59-15.71l-18.07-3.85-9.31,17.27Z"/>
      <path class="cls-1" d="M337.74,141.89c2.1-.63,20.51,2.85,21.1,4.5-1.29,3.19-8,17.88-10.17,18.88-2.53,1.17-21.36-2.13-22.08-4.44-.33-1.06,8.8-18.25,11.15-18.95ZM355.81,146.26c-6.04.55-11.87-2.13-17.91-2.42-1.18,2.48-9.55,15.88-8.3,17.18l17.82,2.43c1.88-1.98,9.87-16.04,8.39-17.19Z"/>
      <path class="cls-1" d="M336.9,196.66c1.02-1.18,2.08-1.39,3.58-1.37,2.44.03,19.26,3.28,19.72,4.48.49,1.29-8.28,17.95-10.14,18.8-4.14,1.88-17.4-1.75-21.94-3.36-.37-.96,7.88-17.51,8.78-18.55ZM357.36,200.58l-17.15-3.38c-1.7.37-10.09,16.25-9.19,17.14,4.41-.06,13.94,4.13,17.8,2.43,1.37-.6,9.32-15.38,8.54-16.2Z"/>
      <path class="cls-1" d="M365.78,247.64c-2.09,1.65-21.08-1.07-22.44-2.35-.74-.7-.86-1.99-.6-2.99.33-1.27,8.42-16.63,9.27-17.11,2.49-1.41,21.74,2.14,22.41,3.88.37.96-7.83,17.93-8.64,18.57ZM372.55,229.75l-18.14-3.18c-2.42.6-7.99,14.54-10.18,17.23l19.81,2.33,8.51-16.38Z"/>
      <path class="cls-1" d="M350.91,171.31c2.06-1.04,21.41,2.44,22.14,4.41-1.47,3.11-8.03,17.96-10.16,18.9-2.42,1.06-21.27-2.12-22.09-4.46-.35-1.01,9.16-18.36,10.11-18.85ZM370.01,175.58l-17.91-2.38c-1.15,2.33-9.61,16.03-8.29,17.15l17.82,2.43c1.92-2.09,9.83-15.91,8.38-17.19Z"/>
      <path class="cls-1" d="M339.45,89.13c2.44-.8,17.2,1.77,17.91,4.02.35,1.1-8.8,18.58-10.9,19.09-2.21.54-20.7-2.96-21.32-4.67.59-3.89,11.54-17.54,14.3-18.44ZM354.38,92.95c-3.5.54-11.69-2.78-14.4-1.62-1.71.74-13.89,14.64-11.81,16.38,3.98-1.27,15.12,3.7,17.86,2.45,1.03-.47,9.23-16.29,8.35-17.21Z"/>
      <path class="cls-1" d="M369.01,196.85c-2.16-1.87,7.24-19.41,8.92-20.2,2.73-1.28,21.19,1.75,21.96,3.4s-8.41,18.79-10.31,19.62c-2.67.14-19.78-2.15-20.57-2.83ZM398,180.74c-3.83.31-16.13-3.64-18.83-2.32-1.62.79-6.91,13.23-8.57,15.72.46,1.17,17.51,4.22,18.72,3.45,1.79-1.16,6.8-14.17,8.68-16.85Z"/>
      <path class="cls-1" d="M317.92,164.78c1.58,1.69-7.08,18.78-8.52,19.63-1.29.77-2.38,1.02-3.88,1.02-1.34,0-17.73-2.67-18.37-3.35-1.52-1.6,7.82-19.48,9.96-20.38,1.64-.69,20.09,2.3,20.81,3.08ZM316.15,165.96c-4.05.95-14.81-3.61-17.8-2.41-1.89.76-9.67,15.82-8.4,17.17l17.89,2.63,8.31-17.39Z"/>
      <path class="cls-1" d="M383.19,226.19c-1.91-1.7,7.11-19.37,8.95-20.23,3.97-1.86,17.57,1.74,21.96,3.4.9,1.95-8.18,18.69-10.31,19.62-.95.42-19.82-2.11-20.6-2.8ZM412.2,210.06c-4.58.39-15.23-4.09-18.82-2.29-1.53.76-6.76,13.39-8.56,15.72.2.93,17.81,3.99,18.69,3.42,1.5-.97,7.15-14.22,8.69-16.85Z"/>
      <path class="cls-1" d="M340.63,138.19c-2.04-2.16,6.98-19.3,8.89-20.18,2.53-1.17,21.3,2.1,22.05,4.46.48,1.53-8.61,16.25-10.07,18.85-1.05.51-20.14-2.36-20.87-3.13ZM368.59,122.26c-4.16.66-14.6-4.04-17.84-2.46-1.08.53-9.49,16.27-8.37,17.22l17.86,2.47c1.48-2.27,9.49-16.03,8.35-17.23Z"/>
      <path class="cls-1" d="M338.67,242.25c-1.38,1.51-2.61,1.63-4.55,1.56-2.52-.1-18.22-3.03-18.8-4.6,1.59-3.45,7.54-17.68,10.19-18.87,2.38-1.06,20.12,2.01,20.91,3.6.59,1.19.26,2.18,0,3.36-.18.82-7.2,14.33-7.77,14.95ZM344.57,224.59c-3.62.34-15.34-3.4-17.8-2.42-2.01.81-9.51,16.18-8.4,17.17,3.99-1.27,15.24,3.44,17.92,2.38.98-.39,9.04-16.4,8.29-17.14Z"/>
      <path class="cls-1" d="M324.48,212.95c-2.55,2.84-14.18.29-17.98-.73-1.35-.36-4.86-1.18-5.33-2.37s8.47-18.07,10.14-18.82c2.13-.95,20.13,2.02,20.91,3.59.59,1.19.26,2.18,0,3.36-.18.82-7.19,14.34-7.75,14.97ZM330.36,195.27c-3.81.6-15.07-3.51-17.8-2.41-1.87.75-9.76,16-8.4,17.17l18.35,2.38c.2-2.94,9.52-15.75,7.85-17.14Z"/>
      <path class="cls-1" d="M407.55,126.96c.53.27,1.26,2.82,1.18,3.8s-5.74,15.88-6.28,16.58c-2.42,3.1-9.25,2.36-7.78-3.21.86-3.28,8.95-19.2,12.89-17.17Z"/>
      <path class="cls-1" d="M406.35,235.27c2.74-1.28,19.89,1.15,21.48,2.83,1.83,1.94-5.08,14.66-6.46,15.6-2.81,1.91-21.22,3.71-23.69.82-.96-1.12-.65-1.74-.35-2.97.34-1.41,8.18-15.89,9.03-16.29ZM426.41,239.37c-4.55.21-15.13-4.14-18.82-2.29-1.65.83-6.88,13.72-8.51,16.2,1.84,1.76,17.72.22,20.37-1.01,2.09-.97,5.63-10.37,6.97-12.89Z"/>
      <path class="cls-1" d="M402.58,121.3c-2.3,1.81-21.8-1.99-22.42-3.32-1-2.16,7.97-18.95,10.02-19.81,1.67-.71,8.53.49,10.27,1.21,3.03,1.26,6.84,8.74,6.78,11.69-.02.88-4.21,9.88-4.65,10.23ZM400.81,101.83c-1.21-.98-8.57-2.26-10.01-1.41l-8.76,16.9c3.65-.93,17.34,3.71,19.3,2.16.43-.34,3.64-7.76,3.54-8.87-.11-1.36-3.09-7.99-4.07-8.78Z"/>
      <path class="cls-1" d="M445.97,208.04c-3.77,4.28-17.67-2.19-23.13-1.53-.76-2.79.96-5.26,2.11-7.67s6.1-11.93,7.86-12.72c7.39-3.3,16.55,4.48,17.09,12.02.09,1.26-3.16,9.02-3.93,9.9ZM444,207.47c.87-.69,4.02-9.14,3.54-10.7-1.54-5.05-7.95-11.04-13.49-8.83-3.01,1.2-6.73,13.19-9.58,15.83.13.99,18.72,4.34,19.52,3.7Z"/>
      <g>
        <path class="cls-1" d="M213.04,64.29c2.79,0,1.47-.53,1.77-1.76,1.77-7.18,2.13-11.66,6.08-18.45,30.52-52.55,114.31-14.68,87.92,47.7-18.57,43.89-49.64,87.16-69.06,131.24-2.52,3.86-2.93,4.85-6.76.95-30.67-37.08-72.6-70.18-102.49-107.19-12.53-15.52-17.06-34.13-9.24-53.06,17.07-41.3,76.33-40.93,91.78.57ZM214.85,77.15c-1.96-17.81-14.88-33.82-31.77-39.49-47.79-16.03-83.59,41.27-50.73,77.85l101.98,106.69,2.54,1.31,71.69-136.35c22.68-74.78-93.01-94.46-91.95-11.76.02,1.82.62,1.57-1.76,1.75Z"/>
        <path class="cls-1" d="M135.9,70.78c-3.26,3.85-8.2-2.15-7.31-6.84.37-1.94,9.7-14.7,12.03-14.6,2.51.11,3.5,3.47,3.25,5.7-.1.88-7.39,15.06-7.97,15.74Z"/>
        <path class="cls-1" d="M295.45,48.47c-.77.61-2.68.88-3.58.51-.99-.41-13.65-14.68-13.46-16.37,1.03-9.35,19.16,6.96,19.25,10.06.01.49-1.97,5.61-2.21,5.8Z"/>
        <path class="cls-1" d="M239.31,36.49c2.25,2.65-5.53,18.08-7.59,20.19-3.6,3.7-8.47-2.31-6.55-7.6,1.01-2.78,10.89-16.41,14.14-12.59Z"/>
        <path class="cls-1" d="M288.92,117.06c-1.22.96-3.14.58-4.45-.12-.98-.52-12.26-13.03-12.5-14.02-.78-3.18,7.28-16.8,9.9-19.97,1.36-.51,15.4,13.74,15.69,15.43.18,1.07-7.82,18.05-8.63,18.69ZM283.67,85.69c-1.68-.15-1.93.81-2.73,1.9-.97,1.32-6.98,13.34-6.93,14.25.1,2.11,10.55,11.19,12.36,13.74.95-.1,9.12-15.86,8.92-16.87-.39-2.02-10.71-9.66-11.61-13.02Z"/>
        <path class="cls-1" d="M202.04,107.02c-.95-.38-13.29-14.28-13.44-15.59,1.03-3.06,8.14-19.17,10.78-19.1,1.82.05,14.97,13.97,15.07,16.43.04.94-7.54,16.07-8.25,16.85-1.03,1.15-2.61,2.03-4.16,1.4ZM204.57,104.84l7.62-16.55c-1.81-2.01-11.48-13.67-13.25-12.95-1.2,2.83-8.81,14.67-8.12,16.64,4.28,3.07,7.91,9.39,11.61,12.53.77.66,1.64.87,2.13.33Z"/>
        <path class="cls-1" d="M194.34,141.95c1.8,1.18,13.29,13.78,13.36,15.32.09,2.11-8.98,19.06-10.77,19.06-1.65,0-14.7-14.04-14.9-16.22-.17-1.89,8.74-18.52,9.98-18.88.54-.16,1.78.36,2.33.72ZM192.39,143.94c-1.34,3.4-8.77,13.66-8.07,16.61.57,2.42,10.23,10.33,12.23,13.07,1.01-.11,8.81-14.44,8.29-16.72-.39-1.7-11.57-13.11-12.45-12.95Z"/>
        <path class="cls-1" d="M153.38,102.03c1.65-.69,2.3.06,3.51.91,1.43,1.01,12.6,13.28,12.74,14.4-1.01,3.09-8.44,18.91-10.58,19.21-1.58.22-1.75-.76-2.57-1.37-2.07-1.54-12.01-12.27-12.32-14.26-.38-2.41,7.5-18.17,9.22-18.89ZM158.28,134.57c.85.42,8.82-15.74,8.69-16.86-.32-2.88-10.1-11.24-12.51-13.88-1.33,3.34-8.68,14.06-8.21,16.79.53,3.05,10.75,10.06,12.03,13.96Z"/>
        <path class="cls-1" d="M147.07,57.44c1.23-.58,1.98-.14,3.03.46,1.21.69,13.5,13.83,13.64,14.83-1.79,3.14-8.36,18.91-10.96,19.25-1.73.23-14.57-13.29-14.9-15.65-.27-1.9,8.07-18.37,9.19-18.89ZM152.03,90l9.43-16.97-13.26-13.77c-.98,3.17-8.54,14.6-8.23,16.79.39,2.8,10.88,10.22,12.06,13.96Z"/>
        <path class="cls-1" d="M243.19,43.99c2.88-1.21,15.95,12.96,16.25,15.31.12.95-7.44,15.82-8.49,17.19-1.98,2.58-1.95,2.81-4.67.67-.89-.7-10.96-11.23-11.37-11.95-1.7-2.93-.92-4.16.07-6.98.64-1.83,7.22-13.83,8.22-14.25ZM244.27,45.79c-.93.13-8.48,15.23-8.21,16.79.37,2.19,10.04,10.87,12.37,12.88.88-.12,8.5-14.46,8.35-15.79-.2-1.85-11.58-14.01-12.51-13.88Z"/>
        <path class="cls-1" d="M268.34,108.12c1.26-.53,1.89-.11,2.97.43,1.62.81,13.11,13.43,13.24,14.9.1,1.16-8.68,18.6-9.68,18.96-2.07.74-15.32-12.66-15.75-15.4-.38-2.41,7.5-18.17,9.22-18.89ZM273.24,140.66c.89.44,9.11-15.89,8.65-17.82-.21-.87-11.58-13.08-12.47-12.92-1.33,3.34-8.68,14.06-8.21,16.79.59,3.38,10.91,9.65,12.03,13.96Z"/>
        <path class="cls-1" d="M230.06,181.13c1.92-.61,15.26,13.27,15.68,15.49.58,3.03-8.37,16.02-9.86,19.97-1.4.58-4.89-3.75-6.04-4.89-1.89-1.86-9.64-9.69-9.85-11.57,1.02-3.06,8-18.35,10.06-19ZM235.97,213.54c-.26-3.93,8.25-13.89,7.62-16.56-.39-1.66-11.8-13.53-13.24-12.95-.83.34-8.26,14.93-8.21,15.95.06,1.34,13.11,14.2,13.83,13.55Z"/>
        <path class="cls-1" d="M230.38,68.01c1.44-.61,1.81-.22,2.93.52,1.57,1.04,12.58,13.33,12.8,14.85.36,2.59-8.23,18.87-10.02,19.14-1.94.29-15.18-13.34-15.41-15.59-.19-1.81,8.31-18.33,9.71-18.93ZM231.96,69.71c-.86-.43-8.89,15.23-8.74,16.97.26,2.89,9.99,11.14,12.56,13.78,1.12-3.64,8.71-13.89,8.21-16.79-.53-3.05-10.75-10.06-12.03-13.96Z"/>
        <path class="cls-1" d="M255.46,132.11c1.41-.67,1.91-.16,2.99.55,1.55,1.02,12.59,13.33,12.8,14.85.34,2.47-7.95,18.83-10.04,19.12s-15.17-13.29-15.46-15.56c-.16-1.28,8.74-18.5,9.71-18.96ZM257.11,133.84c-.85-.42-8.82,15.74-8.69,16.86.32,2.88,10.1,11.24,12.51,13.88,1.39-3.57,8.76-13.56,8.21-16.79-.51-3.02-10.77-10.09-12.03-13.96Z"/>
        <path class="cls-1" d="M227.19,171.15c-.96-.39-13.43-14.34-13.49-15.5-.11-1.91,9.27-19.25,10.84-19.2,3.18,2.41,14.91,13.4,15.09,16.42.05.94-7.41,15.91-8.28,16.86-1.05,1.15-2.57,2.05-4.15,1.41ZM229.71,168.97l7.63-16.55c-1.5-2.16-11.84-13.51-13.25-12.95-.86.34-8.39,15.72-8.12,16.61.24.82,10.42,11.55,11.61,12.56.75.63,1.58.92,2.13.33Z"/>
        <path class="cls-1" d="M243.64,146.68c-1.08.83-2.43.32-3.51-.3-1.48-.85-13.1-13.61-13.42-15.01-.22-.98,6.48-14.42,7.64-16.03,2.11-2.95,2.4-4.13,5.67-1.68,2.04,1.53,12.07,12.36,12.34,14.29.16,1.14-7.89,18.1-8.72,18.74ZM242.51,144.97c-.16-3.96,8.04-14.05,7.75-16.71-.31-2.9-10.47-10.73-12.54-13.9l-8.92,16.88,13.7,13.73Z"/>
        <path class="cls-1" d="M183.1,87.52c-.96-.38-13.23-14.58-13.38-15.65-.16-1.14,7.97-18.7,8.98-19,3-.92,16.4,12.89,16.68,15.41.23,2.08-9,20.56-12.28,19.24ZM180.18,55.83c-1.22.39-8.66,14.39-8.38,15.58.39,1.66,11.8,13.53,13.24,12.95.82-.33,8.2-14.86,8.07-15.77-.21-1.5-11.46-13.23-12.93-12.76Z"/>
        <path class="cls-1" d="M278.01,39.22c.96.39,13.35,14.55,13.47,15.61-1.54,2.85-8.37,19.17-10.81,19.09-3.18-2.41-14.92-13.41-15.09-16.42-.05-.95,7.4-16.17,8.19-16.93,1.07-1.04,2.81-1.93,4.25-1.34ZM277.43,41.13c-1.54-.15-1.56.43-2.26,1.37-.85,1.14-7.35,13.96-7.38,14.79,2.77,5.45,8.32,9.22,12.34,13.74l9.18-16.11-11.89-13.8Z"/>
        <path class="cls-1" d="M208.25,151.65c-.96-.38-13.18-14.33-13.37-15.65-.15-1.04,7.95-18.7,8.96-19,3.09-.93,16.33,13.09,16.66,15.41.24,1.69-7.91,17.35-9.46,18.5-.78.58-1.81,1.14-2.79.74ZM208.87,149.69c1.1.54,9.62-15.33,9.39-16.97-.12-.88-11.22-12.85-12.1-12.95-2.22-.24-8.13,13.48-9.4,15.96l12.11,13.95Z"/>
        <path class="cls-1" d="M262.03,63.54c1.23-.58,1.98-.14,3.03.46,1.25.71,13.33,13.68,13.41,14.67.19,2.17-8.79,19.16-10.73,19.42-1.74.23-14.57-13.29-14.9-15.65-.27-1.9,8.07-18.37,9.19-18.89ZM266.99,96.1l9.39-16.97-13.21-13.78c-1.02,3.56-8.66,14.18-8.2,16.79.53,3.06,10.75,10.06,12.03,13.96Z"/>
        <path class="cls-1" d="M185.02,97.56c1.77-.82,2.88.46,4.13,1.35,1.94,1.39,12.29,12.14,12.48,13.94.12,1.09-9.02,18.66-10.03,19.02-1.73.62-15.3-13.37-15.71-15.51-.35-1.83,8.03-18.3,9.13-18.8ZM185.67,99.42c-.12,3.66-8.25,13.91-7.63,16.56.39,1.66,11.79,13.53,13.24,12.95.82-.33,8.16-14.9,8.08-15.78-.12-1.49-12.79-14.55-13.7-13.72Z"/>
        <path class="cls-1" d="M213.35,161.36c.95.39,13.31,14.58,13.43,15.61.18,1.61-8.91,19.15-10.77,19.1s-14.97-13.97-15.07-16.43c-.04-.94,7.55-16.07,8.25-16.85,1.01-1.13,2.65-2.04,4.17-1.42ZM212.76,163.29c-1.41-.1-1.29-.02-1.96.91-.98,1.37-7.81,15.05-7.61,15.91l12.28,13.08c1.33.1,9.27-14.74,9.2-16.1-.11-2.06-11.17-10.35-11.91-13.8Z"/>
        <path class="cls-1" d="M241.41,157.43c1.32-1.04,3.09-.57,4.39.23s12.3,12.76,12.58,13.92c.6,2.44-8.33,19.43-9.84,19.76-2.08.45-15.08-13.1-15.59-15.41-.22-.99,7.66-17.87,8.46-18.5ZM246.67,188.81c1.71.16,1.92-.82,2.72-1.91,1.01-1.37,7.2-13.29,7.12-14.08-.29-2.73-10.36-11.08-12.55-13.91l-8.91,16.88,11.61,13.02Z"/>
        <path class="cls-1" d="M173.97,110.98c-1.19.94-3.17.56-4.47-.14-1.92-1.04-12.45-12.85-12.71-14.97-.24-1.94,8.74-18.52,10.11-19.03,1.44-.53,1.69.71,2.47,1.3,2.19,1.67,11.94,12.11,12.36,14.27.26,1.34.18,2.22-.16,3.51-.21.82-6.95,14.53-7.61,15.06ZM168.71,79.59c-1.71-.16-1.92.82-2.72,1.91-1.01,1.37-7.21,13.3-7.12,14.08.35,3.22,10.26,10.89,12.54,13.9.89-.09,8.44-14.56,8.39-15.86-.17-4.23-9.39-9.69-11.08-14.03Z"/>
        <path class="cls-1" d="M172.22,121.57c1.62-.75,2.36.11,3.55.94,2.26,1.57,11.83,12.09,12.17,14.46.4,2.82-7.75,18.84-10.01,19.14-1.55.2-1.74-.75-2.56-1.36-2.02-1.51-12.08-12.37-12.34-14.29-.22-1.56,8.24-18.44,9.2-18.89ZM172.87,123.43c-.21,3.99-8.19,13.64-7.76,16.74.35,2.48,10.59,11.04,12.54,13.87,1.58-3.39,8.82-13.87,8.28-16.7-.33-1.71-12.36-14.56-13.07-13.91Z"/>
        <path class="cls-1" d="M216.28,93.31c1.22-.96,3.14-.58,4.45.12.83.44,12.32,13.12,12.53,14.03.46,2.05-8.43,19.42-9.92,19.96-1.37.59-1.71-.72-2.47-1.3-1.75-1.33-13.01-12.94-13.3-14.21-.22-.99-.06-1.52.21-2.43s7.79-15.62,8.51-16.19ZM221.52,124.68c1.68.15,1.93-.81,2.73-1.9,1-1.36,6.94-13.23,6.9-14.24-.11-2.71-10.36-10.74-12.34-13.76l-9.18,16.11,11.89,13.8Z"/>
        <path class="cls-1" d="M296.9,58.8c.78.32,10.41,11.27,10.65,12.93.44,3.08-4.21,21.85-7.98,21.74-1.37-.04-14.64-13.78-14.88-15.51-.17-1.24,7.82-18.02,8.63-18.65s2.66-.89,3.57-.51ZM296.33,60.68c-.88-.43-9.59,14.91-9.63,16.17-.08,2.65,10.3,11.11,12.34,13.74,2.69.29,6.49-15.77,6.03-18.55-.71-4.29-7.36-6.99-8.74-11.36Z"/>
        <path class="cls-1" d="M133.13,82.86c1.5-1.83,2.13-1.3,3.7-.4,1.47.84,12.7,12.39,13.02,13.46,1.04,3.53-7.44,19.72-9.84,20.05-3.34.47-12.73-14.79-13.17-17.89-.31-2.17,4.85-13.46,6.3-15.22ZM135.56,84.25c-.74.1-6.87,11.35-6.83,12.58.08,2.46,9.31,17.4,11,17.1,1.39-3.57,8.76-13.56,8.21-16.79-.19-1.13-11.49-13.01-12.37-12.89Z"/>
        <path class="cls-1" d="M250.1,87.39c1.21-.17,14.32,13.28,14.81,15.63.82,3.89-7.23,16.31-9.82,19.96-1.49.21-14.67-13.68-15.03-16.57-.28-2.21,8.76-18.85,10.04-19.02ZM250.52,90.35c-.94.13-8.79,14.7-8.31,16.75.23.97,11.58,13.05,12.47,12.92,1.48-2.51,8.51-14.02,8.43-15.85-.09-2.1-11.66-13.95-12.59-13.82Z"/>
        <path class="cls-1" d="M183.59,44.26c2.64-1.28,15.08,7.74,16.39,9.76,2.32,3.6.25,10.21-4.41,8.18-1.05-.46-13.25-14.16-13.32-15.29s.28-2.14,1.34-2.66Z"/>
        <path class="cls-1" d="M169.99,40.34c1.52,1.05,6.44,7.12,6.2,8.94-.13.95-7.73,16.54-8.48,17.13-.79.62-2.12.66-3.08.46-.9-.19-12.04-11.19-12.81-12.44-4.82-7.85,8.74-20.57,18.17-14.08ZM166.63,64.72c-.01-3.41,8.25-14.46,7.63-16.53-1.79-6.03-11.82-7.85-17.06-5.2-1.16.59-4.62,7.39-4.27,8.86.19.8,9.98,11.28,11.15,12.17.93.71,1.11,1.27,2.55.7Z"/>
        <path class="cls-1" d="M253.89,26.46c2.66-1.01,8.09-1.77,10.7-.6,1.53.69,7.28,6.96,7.65,8.58.44,1.92-8.44,18.75-10.75,19.07-1.46.2-14.25-12.94-14.68-14.72-.78-3.25,3.73-11.06,7.07-12.33ZM264.26,28.08c-6.72-2.69-18.47,5.15-14.54,11.6,2.12,3.49,8.79,8.18,11.5,11.78.92-.1,8.85-15.39,8.9-16.32.04-.81-5.43-6.89-5.85-7.06Z"/>
      </g>
    </g>
  </g>
</svg>