<?xml version="1.0" encoding="UTF-8"?>
<svg id="Ebene_1" data-name="Ebene 1" xmlns="http://www.w3.org/2000/svg" viewBox="0 0 1112.09 379.72">
  <defs>
    <style>
      .cls-1 {
        fill: #fff;
      }

      .cls-2 {
        fill: #0a462b;
      }

      .cls-3 {
        fill: #462922;
      }
    </style>
  </defs>
  <path class="cls-1" d="M1089.55,78.79h-337.27c.33-1.72.59-3.5.74-5.33,1-12.17-5.04-21.74-15.79-25.08l-.06-.03s-.11-.05-.16-.07c-3.4-10.48-11.43-17.36-22.59-18.91-1.94-.27-3.93-.41-5.9-.41-3.78,0-7.61.5-11.42,1.49l-6.97-.1c-.19,0-.37,0-.56,0-7.33,0-13.08,2.29-17.07,6.8-.5.56-.95,1.14-1.36,1.73-3.11,1-6.31,2-9.41,2.96-2.99.93-6.08,1.89-9.14,2.87-1.34.43-2.59.97-3.75,1.61-5.11-4.21-11.14-7.65-18.06-10.29-10.43-3.99-21.57-5.98-34.01-6.09.28-1.34.43-2.83.38-4.48-.22-7.43-3.59-12.27-8.06-14.82-3.22-5.03-7.87-6.9-9.83-7.69-.14-.06-.28-.11-.43-.17-4.24-1.8-8.75-2.71-13.4-2.71-6.73,0-12.73,1.91-16.65,3.35-11.46,4.2-18.24,11.64-19.91,21.52-1.84.89-3.59,2.02-5.2,3.39-2.63.75-4.98,2.21-6.85,4.27-1.34,1.48-2.36,3.2-3.02,5.08-1.87.29-3.78.59-5.7.91-6.88,1.17-13.81,2.44-20.52,3.66-12.58,2.3-25.58,4.68-38.32,6.39-12.97,1.74-17.63,9.15-19.26,15.06-1.09,3.96-1.67,9.17-.27,15.07H22.54C10.09,78.79,0,88.88,0,101.33v255.85C0,369.63,10.09,379.72,22.54,379.72h1067.01c12.45,0,22.54-10.09,22.54-22.54V101.33c0-12.45-10.09-22.54-22.54-22.54ZM640.31,68.95c-.49.18-.98.33-1.45.46.48-.13.96-.28,1.45-.46h0ZM689.82,66.83c-.35-1.09-.96-2.15-1.81-3.19-.14-.18-.29-.34-.43-.49.14.15.29.31.43.49.85,1.04,1.46,2.1,1.81,3.19ZM699.72,78.79c.09-.15.19-.31.25-.47-.07.16-.16.31-.25.47h0ZM702.75,74.36s0,0-.01,0c-.06,0-.11-.01-.17-.02.06,0,.12.02.18.02ZM712.96,59.5c.11.5.2,1,.29,1.51-.08-.51-.18-1.01-.29-1.51-.1-.45-.21-.9-.35-1.34.14.44.25.89.35,1.34ZM709.81,64.04s.04,0,.05,0c-.04,0-.08,0-.12,0,.02,0,.04-.01.06-.01ZM708.53,41.98c.06,0,.12,0,.17,0-.54,0-1.07,0-1.6.03.48-.02.95-.04,1.43-.04ZM697.93,43.78c-1.15.39-2.28.79-3.35,1.28,1.07-.49,2.21-.9,3.35-1.28ZM689.58,43.37c.12,0,.25,0,.37,0-.32,0-.62,0-.92.02.19,0,.36-.02.55-.02ZM676.65,50.92c.06,0,.1.01.15.02-.11,0-.22,0-.35,0,.07,0,.14-.02.2-.02ZM680.64,62.63c.31-.12.62-.23.93-.34-.3.11-.61.22-.93.34-1.42.54-2.85,1.06-4.28,1.56,1.43-.5,2.86-1.02,4.28-1.56ZM662.56,78.79h0c-1.36-.36-2.74-.68-4.18-.94-.28-.05-.54-.09-.78-.11.24.03.5.06.78.11,1.44.26,2.83.58,4.18.94ZM659.28,67.89c-.22.01-.43.02-.63.02-.11,0-.2-.01-.3-.02.3,0,.61.02.94,0ZM653.28,64.62c-.13-.36-.25-.74-.34-1.17.09.43.21.81.34,1.17ZM643.39,58.9c-.95-.95-1.95-1.84-2.99-2.69,1.04.85,2.04,1.74,2.99,2.69ZM635.55,69.91c-.16,0-.32.02-.48.02-.11,0-.21,0-.32-.01.26,0,.53,0,.8,0ZM599.42,76.64c5.57-1.2,11.19-2.2,16.85-3.01-5.66.81-11.28,1.81-16.85,3.01ZM580.03,29.61c.2,0,.38-.01.56-.02-.14,0-.27.02-.42.02-.05,0-.09,0-.14,0h0s0,0,0,0ZM572.03,19.62c2.23-.22,4.47-.44,6.71-.72-2.24.28-4.48.5-6.71.72ZM576.47,36.26c.59-.17,1.17-.41,1.65-.72-.48.31-1.06.54-1.65.72ZM574.63,48.25c-.03-.72,0-1.31.09-1.79-.1.48-.12,1.07-.09,1.79ZM574.3,36.64c-.86.05-1.6.15-2.22.3.62-.15,1.36-.25,2.22-.3.32-.02.68-.06,1.05-.12-.37.06-.72.1-1.05.12ZM568.91,67.37c-.05,0-.1,0-.15,0-.04,0-.07,0-.11,0,.09,0,.17,0,.26,0ZM577.1,31.55s-.04,0-.06,0c.01,0,.03,0,.04,0,0,0,.01,0,.02,0ZM565.42,13.09c.11,0,.22,0,.32,0-.21,0-.42,0-.63,0,.1,0,.2,0,.3,0ZM568.19,22.2c.08,0,.16-.01.24-.02-.08,0-.16.01-.24.02-1.31.13-2.62.28-3.93.44,1.31-.16,2.62-.31,3.93-.44ZM563.95,65.93s0,0,0,0c-.14-.08-.27-.16-.41-.25.14.09.28.17.41.25,0,0,0,0,0,0ZM561.34,40.81c.45-.14.97-.25,1.58-.33h0c-.6.08-1.13.19-1.58.33ZM560.22,65.02s0,0,0,0c0,0,0,0,0,0-.58.46-.78.99-.77,1.55,0-.55.19-1.09.77-1.55ZM553.2,40.99c-.06,0-.12.01-.18.01-.09,0-.18-.01-.27-.02.15.01.3.02.45,0ZM544.75,43.43s.1,0,.15,0c-.33,0-.66,0-.99.03.28-.02.55-.04.83-.04ZM538.95,75.04c.28.61.52,1.21.72,1.8-.2-.59-.43-1.2-.72-1.8,0,0,0,0,0,0,0,0,0,0,0,0ZM538.86,35.67s.06,0,.09,0c-.08,0-.15,0-.23,0,.05,0,.1,0,.14,0ZM534.2,44.62c.32-.16.65-.32.97-.48-.32.16-.65.32-.97.48-.34.17-.7.31-1.06.43.36-.13.72-.27,1.06-.43ZM530.25,48.3h0s0,0,0,0c0,0,0,0,0,0ZM527.94,40.76c.08,0,.17.01.25.02-.14-.01-.27-.01-.4,0,.05,0,.1-.01.15-.01ZM528.23,46.3s-.06,0-.09,0c-.16,0-.31-.01-.45-.04.17.03.35.03.54.03ZM525.91,43.66s0,.07.01.1c0-.04-.01-.07-.01-.1-.03-.29-.03-.55-.01-.79-.01.24-.01.5.01.79ZM508.98,51.65c-8.94,1.53-17.86,3.2-26.78,4.82,8.93-1.62,17.84-3.29,26.78-4.82Z"/>
  <g>
    <path class="cls-2" d="M678.69,137.25c-.12-.14-.22-.35-.33-.35-17.78-.43-26.32-11.66-31.63-26.85-3.33-9.54-5.82-19.38-9.99-28.62-.86-1.91-.52-2.9,1.58-3.2,1.28-.18,2.55-.4,4.11-.65-1.68-1.84-3.48-1.26-5.1-1.21-22.52.66-43.91,7.01-65.4,12.91-2.29.63-3.26,2.3-4.35,4.05-.83,1.33-1.85,2.87-3.48,2.68-1.53-.18-1.4-2.1-1.9-3.31-2.16-5.3-5.42-9.34-11.7-10.12,3.46,3.16,6.87,6.23,8.75,10.7,1.62,3.86.88,6.2-3.19,7.37-3.62,1.04-7.16,2.47-10.85,3.07-16.96,2.78-31.38,10.59-44.09,21.84-4.49,3.98-8.81,8.14-13.22,12.21-2.27,2.1-3.96,4.09-3.95,7.75,0,4.22-3.76,5.49-7.45,5.14-3.73-.35-5.2-2.99-4.8-6.6.46-4.18,3.05-7.21,5.82-10.03,9.05-9.2,18.96-17.35,29.87-24.27,6.95-4.41,13.94-8.75,20.88-13.16,3.48-2.22,6.79-4.67,9.29-8.02,3.15-4.22,3.62-8.68,1.37-13.53-1.3-2.8-3.01-3.67-6.08-3.03-24.5,5.08-49.03,9.97-73.52,15.1-4.76,1-9.17,1.85-12.62-2.63-3.96-5.14-5.99-10.86-4.21-17.3,1.12-4.07,4.76-5.13,8.46-5.62,19.88-2.67,39.52-6.77,59.29-10.12,5.91-1,11.87-1.77,17.76-2.87,3.37-.63,5.16-.39,4.32,3.85-.64,3.25-.22,6.64,1.94,9.81.16-3.23.08-6.49.53-9.67.99-7.08,7.17-10.73,13.88-8.44,2.53.86,2.92,3.09,3.48,5.26.76,2.98,1.57,5.94,2.44,8.88.17.57.75,1.02,1.74,2.31.17-5.1-3.35-9.01-1.19-13.87,3.61,3.38,2.38,8.29,5.32,12.35.58-4.57-.87-8.17-1.47-11.79-.55-3.3-.95-6.16,3.88-6.77-2.08-1.7-3.53-.57-4.93-.45-2.04.18-4.38,1.44-6.03.79-6.92-2.72-12.14,1.09-17.75,3.8-1.37.66-2.93.93-4.41,1.38-2.17.67-3.62.36-3.88-2.34-.25-2.51,1.21-3.27,3.07-2.75,2.1.6,1.38-.94,2.03-1.63,2.95-3.16,6.79-4.41,11.26-3.1-2.57-10.6.79-16.8,10.98-20.54,6.71-2.46,13.53-3.84,20.51-.88,1.87.79,3.94,1.32,4.99,4.14-8.94,1.13-17.97,1.13-26.25,5.28,5.23-.67,10.45-1.45,15.7-1.98,3.91-.4,7.86-.42,11.79-.71,3.27-.25,4.09,1.52,4.17,4.37.09,3.03-1.42,3.78-4.12,3.75-8.33-.09-16.48,1.24-24.45,3.99,6.04-.58,12.08-1.32,18.13-1.67,1.94-.11,5.26-1.35,5.66,1.31.34,2.3-2.99,3.27-5.07,3.39-6.15.34-5.79,3.3-3.84,7.67,1.48,3.33,2.38,6.91,3.57,10.47,1.51-.93,1-2.02.9-2.96-.75-7.18-.77-7.26,6.61-8.05,15.16-1.63,30.14-1.09,44.59,4.43,10.59,4.05,19.24,10.43,24.59,20.71.81,1.55,1.59,2.86,3.66,3.13,26.07,3.39,40.83,18.93,46.84,43.8.15.6.53,1.15.81,1.73.49-.22.98-.42.97-.45-2.17-7.09,1.89-12.76,4.14-18.9,3.87-10.51,6.36-21.35,6.46-32.62.02-2.03-.23-4.11-.66-6.1-.52-2.39-1.47-4.89-4.25-5.23-3.3-.41-7.09.25-9.11,2.56-2.39,2.74.84,5.64,1.99,8.35.98,2.33,2.67,1.15,4.34.8,1.77-.37,3.77-3.43,5.13-1.05,1.48,2.59-.68,4.7-3.3,5.88-.76.34-1.44.96-2,1.59-2.14,2.36-3.99,3.02-5.56-.56-.33-.74-1.17-1.24-2.37-1.1-.46,1.56,1.05,2.25,1.62,3.28,1.42,2.52,1.01,4.71-1.19,6.38-4.26,3.23-9.06,3.98-14.1,2.21-2.46-.86-3.61-2.2-.45-4,2.58-1.47,4.59-3.61,5.76-6.39,1.32-3.14.71-5.93-1.47-8.6-2.25-2.75-4.65-2.04-7.37-1.01-6.9,2.63-13.88,4.91-21.37,5.26-3.44.16-5.58-.93-6.34-4.44-.7-3.26.55-5.36,3.63-6.35,6.36-2.04,12.76-3.95,19.11-6.01,2.04-.66,2.35.59,2.68,2,.37,1.6.34,3.42,2.24,4.33-1.27-10.42,1.17-14.18,9.35-14.06-.46,3.19-4.4,5.58-1.95,10.11.97-6.27,5.33-8.15,9.93-9.69,4.78-1.6,9.7-2.22,14.71-1.52,7.51,1.04,12.28,5.95,13.08,15.51,1.7,20.34-1.47,39.96-10.92,58.3-1.58,3.06-3.55,6.13-6.48,7.87-4.23,2.51-4.22,5.81-3.63,10.01,5.95,42.28,14.25,84.12,23,125.89.37,1.74,3.34,4.74-.73,5.83-3.75,1-3.86-2.18-4.42-4.7-8.64-39.18-15.59-78.66-21.38-118.35-.02-.17-.02-.35-.07-.51-.55-1.88.39-4.97-1.72-5.43-2.69-.59-3,2.65-4.03,4.5-2.31,4.13-8.93,4.98-13.6,1.79-.76-.52-1.05-2.08-2.35-1.43-1.25.63-1.07,2.05-1.15,3.21-.19,2.63.63,5.08,1.54,7.49,13.55,35.74,25.51,72.03,37.65,108.26,1.45,4.34.66,5.58-3.99,5.41-13.07-.49-9.77,1.8-13.96-10.12-11.89-33.77-22.03-68.14-34.78-101.62-1.83-4.81-2.98-9.82-3.91-14.9-.52-2.83.24-3.35,2.83-2.61,4.12,1.19,8.28,2.28,12.64,1.94,1-.08,2.11-.11,2.44-1.36ZM639.96,70.56c.12-.54.24-1.07.35-1.61-8.24,3.02-13.96-1.63-20.1-5.14-1.75-1-3.82-1.52-5.81-1.97-12.06-2.76-24.13-1.83-36.19.06-1.41.22-2.55.84-3.43,2.02-2.98,3.97-6.65,4.35-10.83,2-1.16-.65-2.45-1.91-3.73-.91-1.56,1.23-.36,2.98.16,4.24,1.77,4.26,3.97,8.33,5.71,12.59,1.24,3.03,2.76,3.49,5.87,2.42,14.42-4.97,29.21-8.48,44.31-10.64,7.88-1.13,15.79-2.05,23.68-3.07ZM685.15,112.52c1.59-1.58,3.68-1.65,5.67-1.77,2.52-.15,3.29-.95,2.28-3.53-6.31-16.05-17.44-26.29-34.71-29.38-3.28-.59-4.08.27-2.91,3.41,2.5,6.74,4.88,13.52,7.23,20.31,1.79,5.18,3.37,10.43,6.38,15.08,2.05,3.16,4.38,4.23,8.17,2.21,7.79-4.15,14.78-.51,16.43,8.15.25,1.31-.24,2.78.85,3.91,3.76-6.25,2.51-8.69-9.38-18.4Z"/>
    <path class="cls-3" d="M218.13,231.32c5.2-4.63,10.34-9.34,15.62-13.88,5.21-4.49,10.93-8.28,17.08-11.37,2.44-1.22,4.98-2.39,7.61-3.04,9.97-2.45,16.14,3.81,13.32,13.48-4.51,15.47-10.61,30.4-15.78,45.64-.84,2.47-3.26,5.79-.83,7.6,2.86,2.13,5.23-1.42,7.27-3.19,10.53-9.13,18.6-20.61,28.42-30.39,6.73-6.71,11.08-14.05,11.76-23.6.23-3.22,1.38-6.36,1.92-9.56.72-4.23,2.95-6.61,7.37-5.93,4.58.71,4.03,4.44,3.92,7.66-.16,4.9-1.98,9.53-2.18,14.74,1.85-2.4,3.74-4.77,5.54-7.2,3.68-4.97,7.58-9.73,12.09-13.99,3.76-3.55,7.83-6.7,12.59-8.79,6.21-2.73,11.34-2.18,14.81,1.42,4.17,4.33,5.73,12.55,3.24,17.74-1.77,3.7-3.98,7.22-5.48,11.02-1.74,4.43-2.36,9.02,1.27,13.05,1.35,1.5,1.32,2.66-.7,3.52-4.1,1.74-10.28-.3-12.59-4.28-3.95-6.8-3.41-13.86-.7-20.82,1.59-4.08,3.82-7.9,6.18-12.71-6.09,2.72-10.43,6.39-14.42,10.52-9.11,9.43-16.05,20.47-23.12,31.41-3.44,5.32-6.96,10.6-10.48,15.87-1.29,1.93-2.77,3.7-5.45,2.39-2.36-1.16-2.83-3.28-2.54-5.66.36-2.97,2.14-5.69,1.81-9.8-2.43,3-4.33,5.36-6.25,7.7-8.15,9.96-16.48,19.76-26.83,27.56-7.84,5.91-13.27,6.47-19.81,2.31-6.4-4.07-9.19-11.22-6.64-19.89,4.15-14.13,8.68-28.16,15.63-41.26.75-1.41,2.22-2.6,1.7-5.14-15.57,10.69-30.2,21.71-38.85,38.81-3.15,6.22-5.28,6.38-9.58.73-3.32-4.36-3.84-9.68-4.9-15.53-1.72,1.81-2.87,3.03-4.03,4.24-5.76,6.03-12.31,10.92-20.21,13.78-8.37,3.03-15.78.17-19.05-7.9-1.59-3.93-2.88-3.53-5.53-1.27-3.02,2.58-6.6,4.27-10.47,5.29-7.87,2.08-19.84-2.82-17.53-15.69,2.64-14.75,8.24-28.27,18.74-39.36,5.12-5.41,11.37-8.79,18.72-9.94,5.37-.84,10.25.35,14.1,4.45,2.41,2.57,3.3,5.6,2.14,9.01-.59,1.73-.96,4.16-3.1,4.29-1.85.11-1.64-2.31-2.28-3.6-1.87-3.77-4.75-4.79-8.5-3.18-1.55.67-3.07,1.61-4.3,2.75-10.32,9.64-17.78,21.22-22.83,34.37-.48,1.26-.71,2.66-.79,4.01-.15,2.55,1.33,3.2,3.19,1.87,2.49-1.78,4.96-3.74,6.95-6.05,5.7-6.62,11.17-13.44,16.69-20.21,3.7-4.55,7.18-5.6,10.97-3.21,3.96,2.5,4.82,6.53,2.49,11.75-1.96,4.37-4.8,8.37-5.86,13.11-.63,2.83-1.36,6.03,1.36,8.13,2.53,1.95,5.6.85,7.7-.75,10.84-8.31,21.81-16.5,25.75-30.73,9.08-32.8,21.6-64.27,37.02-94.6,2.98-5.85,6.58-11.23,11.68-15.49,2.41-2.01,5.03-3.02,8.07-1.72,2.97,1.27,4.33,3.76,4.64,6.88.68,6.94-.46,13.69-2.44,20.29-6.47,21.6-17.58,40.55-31.01,58.69-9.21,12.44-10.87,28.61-14.29,43.66ZM231.96,180.79c1.65-1.1,2.16-1.28,2.42-1.64,12.46-17.16,21.9-35.79,27.29-56.36.57-2.18.85-4.51-.6-8.24-9.88,22.5-19.18,43.66-29.11,66.25Z"/>
    <path class="cls-3" d="M959.34,235.76c-3.65,3.22-6.66,6.92-10.21,10.11-5.01,4.51-10.5,8.28-16.88,10.59-8.62,3.12-15.81.23-19.37-8.17-1.31-3.08-2.22-3.66-4.84-1.35-3.11,2.74-6.8,4.63-10.86,5.63-10.63,2.62-19.63-5.29-17.62-16.01,2.66-14.18,8.01-27.26,17.89-38.14,5.26-5.79,11.66-9.51,19.39-10.76,5.36-.87,10.25.26,14.14,4.32,2.58,2.69,3.51,5.86,2.15,9.45-.59,1.57-.97,3.76-2.86,3.93-2.02.18-1.73-2.19-2.35-3.46-1.97-4.03-4.98-4.92-8.92-3.19-2.39,1.05-4.32,2.76-6.13,4.61-8.49,8.68-14.91,18.74-19.75,29.83-.48,1.1-.91,2.23-1.17,3.4-.4,1.79-1.52,4.08.21,5.28,1.84,1.28,3.49-.71,4.85-1.89,7.04-6.1,12.5-13.61,18.31-20.81,1.29-1.6,2.53-3.24,3.8-4.86,2.71-3.44,6.12-4.54,9.93-2.18,3.81,2.36,5.17,5.93,3.33,10.2-1.77,4.08-4.03,7.96-5.66,12.1-1.38,3.49-2.98,7.78.44,10.54,3.5,2.83,7.23.07,10.28-2.05,7.11-4.94,12.14-12.03,18.25-18.01,7.05-6.9,11.17-15.01,14.15-24.39,6.87-21.62,16.24-42.19,28.78-61.21,1.9-2.88,3.9-5.66,6.82-7.59,2.49-1.64,5.24-1.75,7.83-.45,2.51,1.26,2.26,3.65,2.37,6.2,1.39,31.56-13.87,56.55-31.55,80.6-4.06,5.53-4.08,5.56,2.79,6.74,6.79,1.17,13.63,1.13,20.51.82,2.88-.13,4.14-1.13,4.84-4.01,1.79-7.4,4.94-14.24,9.91-20.11,4.94-5.84,10.95-9.84,18.8-10.42,7.07-.52,11.71,4.66,10.61,11.64-1,6.38-3.96,11.58-8.97,15.68-3.98,3.25-7.88,6.61-11.7,10.04-2.3,2.06-4.38,4.39-5.7,7.22-1.28,2.76-1.64,5.74.14,8.35,1.75,2.58,4.65,2.71,7.45,2.26,6.05-.97,11.43-3.54,16.22-7.3,7.96-6.25,15.16-13.37,22.55-20.27,1-.93,1.97-1.9,3.02-2.78,1.09-.91,2.54-1.72,3.76-.94,1.83,1.18.03,2.53-.55,3.41-9.87,14.86-21.47,27.98-37.56,36.42-2.89,1.52-6.06,2.32-9.38,2.46-13.19.57-20.53-5.95-20.57-19.13-.02-5.03-.95-6.53-6.2-5.18-5.13,1.32-10.6.99-15.84,0-3.44-.65-4.09.08-3.55,3.55,2.46,15.69,2.54,31.41-.59,47.04-1.18,5.92-3.4,11.41-6.81,16.5-4.88,7.28-17.33,8.18-21.08-2.52-4.35-12.41-2.73-24.74-1.31-37.11.95-8.29,2.97-16.46,4.51-24.68ZM1011.13,146.57c-12.17,19.27-20,40.5-27.1,62.05,14.15-18.39,22.83-39.22,27.1-62.05ZM974.76,237.55c-3.42,13.57-6.91,27.15-6.88,41.27,0,1.3-.5,3.23,1.14,3.55,1.76.34,2.58-1.53,3.09-2.94,4.91-13.65,4.89-27.66,2.66-41.89ZM1043.35,200.04c-7.35,3.08-11.77,6.98-13.21,15.14,5.55-4.54,10.68-7.75,13.21-15.14Z"/>
    <path class="cls-3" d="M560.28,223.33c-3.45,4.15-5.92,7.13-8.41,10.09-4.21,5.02-8.75,9.67-14.61,12.78-9.21,4.88-16.74,2.01-20.49-7.76-1.7-.08-2.07,1.53-2.91,2.45-6.09,6.66-12.97,12.23-21.5,15.45-8.84,3.34-15.97.47-19.74-8.25-1.21-2.79-2.05-3.47-4.52-1.32-3.27,2.84-7.08,4.84-11.32,5.85-10.45,2.5-19.38-5.3-17.46-15.74,2.65-14.36,8.02-27.6,18.05-38.6,5.28-5.79,11.74-9.4,19.45-10.65,4.97-.81,9.58.21,13.38,3.73,2.86,2.65,4.13,5.91,2.85,9.75-.58,1.73-.97,4.16-3.13,4.27-1.87.1-1.62-2.32-2.26-3.61-1.88-3.78-4.74-4.79-8.49-3.15-1.54.68-3.07,1.61-4.3,2.75-10.34,9.63-17.86,21.16-22.81,34.36-.74,1.98-2.14,4.76.05,6.09,2.16,1.31,4.02-1.24,5.58-2.67,8-7.34,14.32-16.13,21.01-24.59,2.07-2.63,4.57-4.23,7.99-3.41,3.28.79,5.27,3.05,6.13,6.29.62,2.33-.33,4.36-1.28,6.39-1.82,3.87-3.84,7.67-5.36,11.66-1.22,3.2-2.36,7.07.85,9.54,3.22,2.48,6.6.17,9.47-1.62,2.3-1.44,4.46-3.23,6.35-5.18,8.2-8.5,16.43-16.95,23.2-26.73,5.76-8.32,13.55-13.97,23.83-15.63,4.19-.68,8.55-.55,11.94,1.81,3.88,2.69,4.64.55,6.01-2.32,7.61-15.92,15.44-31.73,24.1-47.12,8.09-14.36,17-28.17,27.17-41.14,2.35-3,4.68-7.41,9.23-5.98,4.58,1.45,4.48,6.41,4.97,10.46,1.33,11.03-2.92,20.93-6.72,30.8-10.46,27.18-25.59,51.89-41.44,76.15-4.78,7.31-6.29,15.09-6.26,23.39.03,9.39,3.27,11.52,11.82,7.86,10.23-4.38,18.62-11.46,26.74-18.89,1.09-.99,2.1-3.4,4.09-1.39,1.75,1.77,1.4,3.8-.44,5.4-10.96,9.57-21.29,19.97-34.26,26.96-17.27,9.31-26.72,4.09-28.17-15.5-.53-7.18.54-14.28,1.63-23.02ZM586.87,208.52c14.62-25.07,30.96-49.28,38.6-77.81-16.57,24.1-29.22,50.14-38.6,77.81ZM561.77,210.16c-11.43-4.15-29.62,9.77-28.36,21.3,9.39-7.05,18.6-13.97,28.36-21.3Z"/>
    <path class="cls-3" d="M867.14,122.02c-4.89,2.61-8.67,4.44-12.27,6.57-26.84,15.86-50.17,35.38-64.7,63.67-7.16,13.95-11.1,28.69-8.79,44.65,2.11,14.65,10.1,19.77,24.31,15.2,8.61-2.77,16.07-7.64,23.17-13.07,17.13-13.08,31.91-28.53,45.24-45.4,1.03-1.3,1.9-3.28,3.98-2.51,2.11.78,2.17,2.88,2.05,4.81-.38,5.89-1.71,11.57-4.67,16.7-13.81,23.95-33.69,41.16-59.69,50.18-28.17,9.78-50.57-8.22-50.13-39.34.25-17.83,5.01-34.65,14.02-49.95,18.74-31.81,45.83-53.66,80.7-65.82,3.26-1.14,6.53-2.1,10.02-.83,1.77.65,3.27-.35,4.89-.94,4.7-1.71,8.6.63,9.45,5.59.62,3.63-.08,7.15-1.13,10.63-4.08,13.6-10.32,26.54-12.42,40.76-.38,2.59-1.87,5.23-4.83,5.28-2.7.04-4.01-2.52-4.76-4.81-4.14-12.64-3.37-24.96,2.8-36.84.6-1.16,1.35-2.24,2.75-4.55Z"/>
    <path class="cls-3" d="M34.82,117.54c4.12-1.06,7.01.28,9.95,1.01,25.66,6.39,51.2,6.63,76.6-1.34,7.42-2.33,14.29-5.77,20.57-10.37,2.65-1.94,5.11-4.01,6.37-7.21,1.48-3.76,3.8-3.34,6.34-1.07,3.85,3.44,5.38,10.77,3.35,16.21-3.39,9.05-10.57,14.06-19.03,17.62-9.62,4.05-19.88,5.69-30.12,5.88-9.5.18-15.5,3.02-18.32,12.74-2.09,7.17-5.77,13.9-9.06,20.68-1.58,3.25-1,4.1,2.54,4.07,11.15-.08,22.27-.66,33.39-1.4,4.96-.33,9.92-.74,14.89-.8,6.58-.07,7.9,2.01,5.38,8.27-2.46,6.11-6.1,10.27-13.68,10.15-15.25-.25-30.51.21-45.76.17-3.24,0-4.77,1.04-5.97,4.11-7.85,20.15-11.32,41.25-14.07,62.53-.26,2.04-.56,4.07-.83,6.11-.22,1.7-.2,3.67-2.36,4.06-1.87.34-3.27-.94-4.34-2.28-3.94-4.89-4.8-10.86-5.69-16.81-2.64-17.47,1.38-34.05,6.65-50.49,1.94-6.03,1.8-5.99-4.37-7.11-3.13-.57-7.29-.65-7.98-4.36-.59-3.19,3.24-4.44,5.52-6.07,3.38-2.41,7.17-4.23,11.3-4.66,3.25-.34,4.7-2.05,5.94-4.76,4.93-10.73,8.56-22.08,14.94-32.13,2.01-3.16-.83-2.99-2.35-3.41-8.43-2.33-16.81-4.81-24.74-8.55-5.42-2.55-10.37-5.79-15.07-10.83Z"/>
    <path class="cls-3" d="M386.75,219.43c2.45-3.22,4.87-6.47,7.35-9.67,5.58-7.22,11.64-13.93,19.63-18.61,7.24-4.24,13.58-4.44,17.62-.57,5.13,4.9,6.1,13.52,2.39,20.38-1.54,2.85-3.13,5.72-4.28,8.73-1.7,4.46-2.36,8.99,1.25,13.03,1.65,1.84,1.07,3-1.14,3.69-4.94,1.54-10.22-.63-12.6-5.27-3.67-7.15-2.68-14.31.3-21.33,1.52-3.57,3.48-6.95,5.78-11.48-5.82,2.76-9.98,6.03-13.77,9.85-9.1,9.2-16.05,20-23,30.8-3.8,5.9-7.69,11.74-11.58,17.58-1.2,1.79-2.66,3.28-5.1,2.17-2.15-.97-3.09-2.84-2.71-5.04.48-2.85,1.46-5.62,2.05-8.46,2.81-13.57,5.56-27.15,8.35-40.73.31-1.51.56-3.07,1.19-4.45,1.25-2.77,3.73-3.32,6.47-2.99,2.67.33,3.67,2.14,3.88,4.64.48,5.93-1.74,11.41-2.05,17.72Z"/>
    <path class="cls-2" d="M389.37,316.14c-2.79,8.08-5.42,15.73-8.08,23.37-1.35,3.88-2.7,7.76-4.11,11.61-.93,2.55-1.53,5.49-5.1,5.6-3.65.11-4.3-2.82-5.2-5.4-3.7-10.67-7.98-21.14-10.99-32.06-.26-.94-.26-2.04-1.53-2.7-1.27,1.31-.61,2.87-.6,4.26.06,9.93.24,19.86.24,29.79,0,2.85.23,6.23-4.21,6.16-4.04-.07-3.99-3.16-4-5.88-.07-14.38-.08-28.77,0-43.15.02-3.54.55-6.94,5.13-7.61,4.46-.65,7.17,1.17,8.58,5.39,3.69,11.03,7.46,22.04,11.23,33.05.36,1.07.05,2.48,1.89,3.29,2.53-7.56,5.03-15.07,7.57-22.57,1.59-4.7,3.21-9.39,4.85-14.07,1.5-4.27,4.67-5.72,8.92-4.97,4.24.74,4.59,4.04,4.59,7.45.01,14.21.01,28.43,0,42.64,0,.68-.03,1.37-.07,2.05-.16,2.5-1.13,4.29-3.95,4.43-3.18.16-4.27-1.78-4.29-4.51-.07-10.27-.04-20.54-.11-30.82-.01-1.59.77-3.3-.78-5.38Z"/>
    <path class="cls-2" d="M687.71,327.41c7.07,4.72,9.09,9.91,7.1,17.7-1.64,6.42-6.34,10.32-13.92,10.8-6.99.44-14.02.31-21.03.45-3.26.07-4.53-1.49-4.51-4.72.08-15.4.08-30.81,0-46.21-.02-3.28,1.37-4.7,4.57-4.67,6.16.06,12.32-.04,18.48.11,6.28.16,12.01,1.57,14.53,8.32,2.48,6.65.86,12.37-5.22,18.22ZM664.78,339.86c.18,9.88-1.41,8.66,8.7,8.75,1.88.02,3.79.05,5.63-.27,4.62-.79,6.95-3.92,6.81-8.77-.14-4.74-2.65-7.28-7.28-7.64-2.9-.23-5.83.02-8.72-.28-4.01-.42-5.79,1.02-5.17,5.14.15,1,.02,2.05.02,3.08ZM673.9,324.25c.32-.02,1.86,0,3.38-.18,5.1-.57,7.5-3.17,7.36-7.97-.13-4.74-2.76-7.07-7.32-7.58-12.25-1.35-12.92-.74-12.54,11.4,0,.17.02.34,0,.51-.33,2.87.94,4.09,3.81,3.84,1.35-.12,2.73-.02,5.3-.02Z"/>
    <path class="cls-2" d="M608.43,301.01c3.25,0,6.53-.22,9.76.04,10.35.84,15.98,5.84,17.89,15.96,1.58,8.34,1.78,16.72-.51,24.98-2.4,8.65-7.58,12.93-16.43,13.87-6.84.73-13.69.53-20.55.47-3.2-.03-4.51-1.28-4.48-4.65.13-15.43.12-30.86.02-46.29-.02-3.32,1.31-4.72,4.53-4.65,3.26.06,6.51.01,9.77.01,0,.08,0,.17,0,.25ZM603.42,328.31c0,3.25,0,6.5,0,9.75,0,11.79.1,11.87,11.97,10.37,6.7-.85,9.68-3.54,11.17-10.09.96-4.21.93-8.5.75-12.77-.58-13.96-7.32-19.3-21.25-17.15-2.35.36-2.67,1.54-2.65,3.46.05,5.48.02,10.95.01,16.43Z"/>
    <path class="cls-2" d="M716.2,163.25c.75-27.42,5.25-52.38,15.04-76.28,1.62-3.97,3.22-7.95,3.86-12.21.6-3.97.22-7.54-4.21-9.38-1.8-.75-3.57-2.28-2.67-4.34,1.1-2.5,3.37-.76,4.93-.3,5.14,1.5,7.42,5.42,6.91,11.67-.55,6.74-3.17,12.93-5.39,19.22-7.86,22.26-12.89,45.04-13.2,68.77-.34,25.85,7.34,49.2,21.47,70.62,6.14,9.31,13.28,17.85,20.51,26.32,1.11,1.3,2.24,2.61,3.14,4.05.7,1.11,1.58,2.5.28,3.73-1.3,1.22-2.57.29-3.67-.53-1.1-.82-2.19-1.66-3.13-2.65-22.2-23.55-38.75-50.05-42.82-82.93-.71-5.76-.79-11.61-1.06-15.74Z"/>
    <path class="cls-2" d="M492,328.21c0-7.53.09-15.07-.05-22.59-.07-3.52,1.36-4.93,4.84-4.89,8.9.1,17.8.03,26.7.03,2.67,0,4.86.66,4.77,3.94-.09,3.26-2.37,3.78-4.98,3.79-5.82.01-11.64.14-17.46-.02-3.16-.09-4.53.69-4.58,4.25-.14,11.28-.3,11.27,10.83,11.28,3.42,0,6.85,0,10.27.07,2.44.05,3.82,1.32,3.88,3.82.05,2.57-1.45,3.8-3.83,3.85-5.65.12-11.3.23-16.94.08-3.05-.08-4.13.87-4.2,4.07-.31,12.7-.42,12.69,12.02,12.7,3.94,0,7.87,0,11.81.03,2.59.02,4.33,1.08,4.32,3.91,0,2.62-1.74,3.64-4.03,3.66-9.92.1-19.85.12-29.77.12-3.41,0-3.6-2.43-3.6-4.98.01-7.7,0-15.41,0-23.11Z"/>
    <path class="cls-2" d="M325.94,323.85c0,5.13.05,10.27,0,15.4-.13,11.42-5,16.87-16.44,18.29-4.82.6-9.56.04-14.16-1.55-5.51-1.9-9.12-5.61-9.68-11.46-1.29-13.31-.53-26.67-.44-40.01.02-2.83,1.62-4.38,4.6-4.33,3.3.05,4.54,1.98,4.54,4.96,0,8.56-.06,17.11-.07,25.67,0,2.39.03,4.79.17,7.18.49,8.12,4.21,11.68,11.88,11.47,7.25-.2,10.74-3.86,10.86-11.95.16-10.44.04-20.88.1-31.32.01-2.2-.19-4.58,2.42-5.71,3.23-1.4,6.05.42,6.16,4.35.18,6.33.05,12.66.05,18.99h.03Z"/>
    <path class="cls-2" d="M857.98,323.87c5.55-6.18,11.08-12.39,16.67-18.53,1.49-1.64,3.03-3.34,4.86-4.53,1.77-1.15,3.98-1.35,5.62.5,1.61,1.82.64,3.62-.64,5.06-4.08,4.61-7.96,9.48-12.53,13.57-3.94,3.53-3.3,6.02-.31,9.67,4.99,6.08,9.51,12.55,14.11,18.94,1.64,2.28,4.24,5.06.93,7.56-3.3,2.49-6.17.41-8.26-2.46-4.33-5.96-8.48-12.03-12.86-17.95-1.12-1.52-1.88-4.73-4-3.86-2.49,1.02-4.82,3.28-4.81,6.67,0,4.45-.05,8.9-.02,13.35.02,2.92-.77,5.1-4.19,5.2-3.36.09-4.48-1.88-4.48-4.89-.02-15.75-.05-31.5-.08-47.25,0-3.07,1.25-4.87,4.57-4.82,3.14.04,4.14,1.87,4.13,4.66,0,6.24,0,12.48,0,18.72.43.13.86.26,1.29.39Z"/>
    <path class="cls-2" d="M247.41,356.4c-4.63,0-9.25.08-13.88-.02-6.65-.14-8.62-3.73-4.84-9.34,7.36-10.94,14.99-21.7,22.45-32.58,1.13-1.65,3.66-3.45,2.9-5.07-1.01-2.15-3.96-.82-6.05-.89-4.96-.16-9.93-.08-14.9-.06-2.74,0-4.83-.88-4.83-4,0-2.98,2.24-3.58,4.62-3.6,9.59-.06,19.19-.18,28.78-.02,4.26.07,5.9,2.53,4.49,6.54-.78,2.21-2.14,4.27-3.48,6.23-7.16,10.45-14.42,20.85-21.6,31.29-.63.92-2.02,1.74-1.37,3.05.66,1.34,2.15.67,3.25.68,6.51.06,13.02.01,19.53.02,2.74,0,5.4.35,5.43,3.9.04,3.36-2.67,3.68-5.08,3.75-5.13.14-10.28.04-15.41.04,0,.02,0,.05,0,.07Z"/>
    <path class="cls-2" d="M789.46,328.34c-.1-5.34.44-10.6,2.36-15.63,5.33-14.01,25.81-17.7,35.72-6.4,1.22,1.39,2.2,3.06,2.95,4.76.95,2.15.33,4.11-1.8,5.25-1.94,1.04-3.95,1.12-5.68-.57-.36-.36-.7-.76-.96-1.2-3.11-5.3-7.48-8-13.71-6.3-6.31,1.73-7.96,6.92-8.84,12.57-.96,6.16-.74,12.3.51,18.38,1.26,6.11,4.61,9.33,10.12,10.08,5.78.79,9.88-1.53,12.66-7.35,1.32-2.76,2.6-5.63,6.39-4,4.14,1.78,2.59,5.09,1.49,7.9-2.86,7.35-10.23,11.84-19.45,11.61-8.4-.21-15.44-3.09-18.97-11.49-2.37-5.63-2.9-11.58-2.79-17.61Z"/>
    <path class="cls-2" d="M990.76,323.07c26.73,0,53.45,0,80.18,0,1.37,0,2.75-.03,4.11.1,1.35.13,2.31,1,2.3,2.32,0,1.35-1.05,2.13-2.38,2.24-1.36.12-2.74.09-4.11.09-53.28,0-106.56,0-159.85,0-.51,0-1.03.02-1.54,0-1.97-.11-4.82.49-4.78-2.4.04-2.82,2.85-2.35,4.85-2.36,27.07-.01,54.14-.01,81.21,0Z"/>
    <path class="cls-2" d="M123.06,327.84c-26.38,0-52.77,0-79.15,0-1.54,0-3.1.05-4.62-.14-1.05-.14-1.96-.88-2.06-2.01-.13-1.42.88-2.26,2.11-2.48,1.33-.23,2.73-.13,4.1-.13,53.45,0,106.91,0,160.36,0,1.03,0,2.06.01,3.08.02,1.53,0,2.9.61,3.03,2.16.17,1.97-1.39,2.51-3.08,2.57-1.2.04-2.4.02-3.6.02-26.73,0-53.45,0-80.18,0Z"/>
    <path class="cls-2" d="M442.22,328.27c0-7.36.1-14.72-.04-22.08-.07-3.57,1.07-5.49,4.93-5.46,8.04.06,16.09-.07,24.13-.05,2.62,0,4.81.73,4.78,4.01-.03,3.29-2.19,3.88-4.85,3.88-4.79,0-9.58.02-14.38.04-1.03,0-2.39-.37-3.02.14-4.68,3.81-1.27,9.07-2.18,13.6-.5,2.47,1.14,3.21,3.41,3.17,4.45-.07,8.9-.01,13.35.02,2.65.02,4.92.75,4.9,3.92-.02,3.18-2.22,3.82-4.94,3.77-3.76-.08-7.55.23-11.29-.08-4.15-.34-5.93.93-5.59,5.37.35,4.42.03,8.89.03,13.34,0,3.25-1.31,5.29-4.83,5.2-3.34-.09-4.34-2.3-4.35-5.18-.03-7.87-.01-15.74-.01-23.62-.02,0-.04,0-.06,0Z"/>
    <path class="cls-2" d="M712.96,328.5c0-7.35-.02-14.7,0-22.05.01-3.25.3-6.33,4.74-6.37,4.63-.04,4.57,3.34,4.59,6.42.08,12.31.21,24.62-.04,36.92-.09,4.17,1.34,5.38,5.29,5.15,4.6-.27,9.23-.04,13.84-.05,2.56,0,4.45.9,4.5,3.73.05,2.79-1.81,3.96-4.33,3.99-8.2.08-16.41.1-24.61.07-3.07-.01-4.03-1.89-4-4.74.07-7.69.02-15.38.02-23.08Z"/>
    <path class="cls-2" d="M545.23,328.71c0-7.54,0-15.08,0-22.62,0-3.16.52-5.89,4.59-6,4.21-.12,4.65,2.76,4.66,5.85.06,12.51.22,25.02-.03,37.53-.08,4.2,1.37,5.37,5.3,5.12,4.44-.28,8.91-.04,13.36-.06,2.67-.01,4.9.57,4.89,3.83,0,3.21-2.3,3.95-4.9,3.97-7.71.06-15.42.01-23.14.06-3.46.02-4.87-1.56-4.8-5.05.14-7.54.04-15.08.05-22.62Z"/>
    <path class="cls-2" d="M771.08,328.51c0,7.52-.02,15.03.01,22.55.01,3.21-.61,5.98-4.56,6.01-3.95.03-4.63-2.72-4.63-5.94.01-15.03,0-30.06-.01-45.1,0-3.22.65-5.87,4.63-5.94,4.12-.07,4.57,2.7,4.56,5.88-.02,7.52,0,15.03,0,22.55Z"/>
    <path class="cls-3" d="M1035.99,183.75c5.7-9.86,13.65-17.5,22.49-24.3,1.04-.8,2.22-.91,3.31-.04,1.01.81,1.5,1.9,1.22,3.18-.18.83-.4,1.72-.87,2.4-6.44,9.31-15.89,14.51-26.14,18.76Z"/>
    <path class="cls-2" d="M670.69,94.5c-2.32-.59-3.73-1.71-3.43-3.97.42-3.12,1.97-5.47,5.39-5.68,1.6-.1,3.41.9,2.89,2.68-.82,2.8-1.93,5.72-4.85,6.97Z"/>
  </g>
</svg>