<svg id="Ebene_1" data-name="Ebene 1" xmlns="http://www.w3.org/2000/svg" viewBox="0 0 1088.48 359.89">
  <defs>
    <style>
      .cls-1 {
        fill: #0a462b;
      }

      .cls-2 {
        fill: #462922;
      }
    </style>
  </defs>
  <g>
    <path class="cls-1" d="M672.24,129.64c-.12-.15-.23-.37-.34-.37-18.56-.44-27.48-12.18-33-28-3.48-10-6.08-20.24-10.44-29.88-.9-2-.54-3,1.66-3.35,1.34-.19,2.67-.42,4.3-.67-1.76-1.93-3.63-1.32-5.32-1.27-23.51.69-45.85,7.32-68.29,13.48-2.39.66-3.4,2.4-4.54,4.22-.86,1.39-1.93,3-3.63,2.8s-1.47-2.2-2-3.45c-2.26-5.53-5.66-9.76-12.21-10.57,3.61,3.3,7.17,6.51,9.13,11.17,1.7,4,.92,6.48-3.32,7.7-3.78,1.08-7.48,2.57-11.33,3.21-17.71,2.9-32.76,11.05-46,22.8-4.69,4.15-9.2,8.5-13.8,12.75-2.38,2.19-4.14,4.27-4.13,8.09,0,4.41-3.93,5.73-7.78,5.37s-5.42-3.12-5-6.9c.48-4.36,3.18-7.52,6.08-10.47a175.38,175.38,0,0,1,31.18-25.34c7.26-4.6,14.55-9.13,21.8-13.74a35.26,35.26,0,0,0,9.7-8.38,12.91,12.91,0,0,0,1.43-14.13c-1.35-2.93-3.14-3.83-6.34-3.17-25.58,5.31-51.2,10.41-76.76,15.77-5,1-9.57,1.93-13.17-2.74-4.13-5.37-6.25-11.34-4.4-18.07,1.17-4.24,5-5.35,8.83-5.87,20.76-2.78,41.26-7.07,61.9-10.57,6.17-1,12.39-1.85,18.54-3,3.52-.66,5.38-.41,4.51,4a13.13,13.13,0,0,0,2,10.24c.17-3.37.09-6.77.55-10.1,1-7.39,7.49-11.2,14.49-8.81,2.65.9,3.05,3.23,3.64,5.49.79,3.11,1.63,6.21,2.55,9.28.18.6.78,1.07,1.82,2.41.18-5.33-3.5-9.41-1.24-14.49,3.76,3.53,2.48,8.66,5.56,12.9.6-4.77-.91-8.53-1.54-12.31-.57-3.45-1-6.43,4.06-7.07-2.18-1.77-3.69-.6-5.15-.47-2.13.18-4.58,1.5-6.3.83-7.22-2.84-12.68,1.14-18.53,4a31.94,31.94,0,0,1-4.6,1.44c-2.26.7-3.77.37-4-2.44-.26-2.63,1.26-3.42,3.2-2.87,2.19.62,1.44-1,2.12-1.71a11,11,0,0,1,11.75-3.24c-2.68-11.07.82-17.54,11.46-21.44,7-2.57,14.13-4,21.41-.92,2,.83,4.11,1.38,5.21,4.32-9.34,1.18-18.76,1.18-27.41,5.51,5.47-.7,10.92-1.51,16.4-2.06,4.08-.42,8.21-.44,12.3-.75,3.42-.26,4.27,1.59,4.36,4.56.1,3.17-1.48,4-4.3,3.92a75.43,75.43,0,0,0-25.53,4.17c6.31-.61,12.61-1.38,18.93-1.74,2-.12,5.5-1.4,5.91,1.37.35,2.4-3.12,3.42-5.29,3.54-6.42.35-6,3.44-4,8,1.55,3.48,2.49,7.22,3.73,10.93,1.58-1,1-2.11.94-3.09-.78-7.49-.8-7.58,6.9-8.4,15.84-1.71,31.47-1.15,46.56,4.62,11.06,4.22,20.1,10.89,25.68,21.63.84,1.62,1.66,3,3.82,3.27,27.22,3.54,42.63,19.76,48.91,45.73a9.79,9.79,0,0,0,.84,1.8,8.08,8.08,0,0,0,1-.47c-2.27-7.4,2-13.33,4.32-19.73,4-11,6.65-22.29,6.74-34a29,29,0,0,0-.69-6.37c-.54-2.5-1.53-5.11-4.43-5.46-3.45-.43-7.41.26-9.51,2.67-2.5,2.86.88,5.89,2.07,8.72,1,2.44,2.79,1.2,4.54.84s3.94-3.58,5.35-1.09c1.55,2.7-.71,4.9-3.44,6.14a7,7,0,0,0-2.1,1.66c-2.23,2.46-4.16,3.15-5.8-.58a2.24,2.24,0,0,0-2.48-1.15c-.48,1.63,1.09,2.36,1.69,3.42,1.49,2.64,1.06,4.92-1.23,6.66A15,15,0,0,1,678,72.6c-2.57-.9-3.77-2.29-.47-4.18a13.77,13.77,0,0,0,6-6.67c1.38-3.28.74-6.19-1.53-9s-4.86-2.14-7.69-1.05c-7.2,2.74-14.49,5.12-22.31,5.49-3.6.16-5.83-1-6.62-4.64-.73-3.4.58-5.59,3.79-6.62,6.63-2.13,13.31-4.13,20-6.27,2.12-.69,2.45.61,2.79,2.09.39,1.67.36,3.57,2.34,4.52-1.32-10.88,1.23-14.81,9.77-14.68-.48,3.32-4.6,5.82-2,10.55,1-6.54,5.57-8.51,10.36-10.12a33.41,33.41,0,0,1,15.36-1.59c7.84,1.09,12.82,6.22,13.65,16.2,1.77,21.24-1.53,41.72-11.4,60.86-1.64,3.2-3.71,6.4-6.76,8.22-4.42,2.62-4.41,6.06-3.79,10.45,6.21,44.14,14.88,87.83,24,131.44.38,1.82,3.49,4.95-.77,6.09-3.91,1-4-2.28-4.61-4.92-9-40.9-16.28-82.12-22.32-123.56a4.51,4.51,0,0,0-.08-.53c-.57-2,.41-5.19-1.79-5.67-2.8-.61-3.12,2.77-4.21,4.71-2.41,4.31-9.32,5.2-14.19,1.86-.8-.54-1.1-2.17-2.45-1.49s-1.12,2.14-1.21,3.35a18.37,18.37,0,0,0,1.61,7.82c14.14,37.32,26.64,75.21,39.31,113,1.52,4.53.69,5.82-4.17,5.64-13.64-.51-10.2,1.88-14.58-10.56-12.41-35.26-23-71.15-36.31-106.1a88.17,88.17,0,0,1-4.08-15.56c-.55-2.95.25-3.5,3-2.72,4.3,1.24,8.65,2.38,13.2,2C670.74,131,671.9,130.94,672.24,129.64ZM631.81,60l.37-1.68c-8.61,3.15-14.58-1.7-21-5.36a22.48,22.48,0,0,0-6.06-2.06C592.54,48,579.93,49,567.34,51a5.26,5.26,0,0,0-3.58,2.11c-3.11,4.15-7,4.54-11.31,2.09-1.21-.68-2.56-2-3.89-1-1.62,1.28-.38,3.12.17,4.43,1.85,4.45,4.15,8.7,6,13.15,1.3,3.17,2.89,3.65,6.13,2.53a250.82,250.82,0,0,1,46.26-11.11C615.31,62,623.57,61.07,631.81,60ZM679,103.82c1.66-1.65,3.84-1.72,5.92-1.84,2.63-.16,3.44-1,2.38-3.69C680.7,81.54,669.08,70.85,651,67.62c-3.42-.62-4.26.27-3,3.55,2.61,7,5.1,14.12,7.55,21.21,1.87,5.4,3.52,10.89,6.66,15.75,2.15,3.3,4.58,4.41,8.53,2.31,8.14-4.34,15.43-.54,17.16,8.51.26,1.36-.25,2.9.88,4.08C692.7,116.51,691.41,114,679,103.82Z"/>
    <path class="cls-2" d="M191.39,227.86c5.43-4.84,10.79-9.75,16.31-14.5a87.72,87.72,0,0,1,17.83-11.87,38,38,0,0,1,7.95-3.17c10.41-2.57,16.85,4,13.91,14.07-4.71,16.15-11.08,31.74-16.48,47.65-.87,2.58-3.4,6-.86,7.94,3,2.22,5.46-1.49,7.59-3.33,11-9.53,19.41-21.52,29.67-31.73,7-7,11.56-14.67,12.28-24.64.24-3.36,1.44-6.63,2-10,.74-4.42,3.08-6.9,7.69-6.19,4.78.74,4.21,4.64,4.09,8-.17,5.12-2.06,9.95-2.27,15.39,1.93-2.5,3.9-5,5.78-7.51a108.39,108.39,0,0,1,12.62-14.6,46.64,46.64,0,0,1,13.14-9.18c6.48-2.86,11.84-2.28,15.47,1.48,4.35,4.52,6,13.1,3.38,18.53-1.85,3.86-4.16,7.53-5.72,11.5-1.81,4.63-2.46,9.42,1.33,13.63,1.41,1.56,1.38,2.78-.73,3.67-4.28,1.82-10.73-.31-13.15-4.46-4.12-7.1-3.56-14.47-.73-21.74,1.66-4.25,4-8.25,6.46-13.26a47,47,0,0,0-15.06,11c-9.51,9.85-16.76,21.37-24.14,32.8-3.59,5.56-7.26,11.06-10.94,16.57-1.34,2-2.89,3.86-5.69,2.49-2.47-1.21-3-3.43-2.66-5.91.38-3.11,2.24-5.94,1.89-10.23-2.54,3.13-4.52,5.59-6.52,8-8.51,10.4-17.21,20.64-28,28.78-8.19,6.17-13.86,6.75-20.68,2.41s-9.6-11.71-6.93-20.77c4.34-14.75,9.06-29.4,16.31-43.08.78-1.46,2.32-2.71,1.78-5.36-16.25,11.16-31.53,22.67-40.56,40.52-3.29,6.5-5.51,6.67-10,.76-3.46-4.55-4-10.11-5.11-16.21l-4.2,4.42c-6,6.3-12.86,11.4-21.1,14.39-8.74,3.17-16.48.18-19.89-8.25-1.67-4.1-3-3.68-5.77-1.32a27.51,27.51,0,0,1-10.94,5.52c-8.21,2.17-20.71-2.95-18.3-16.38,2.76-15.4,8.6-29.52,19.56-41.1a33.46,33.46,0,0,1,19.55-10.38c5.6-.88,10.69.36,14.72,4.65a8.82,8.82,0,0,1,2.23,9.4c-.61,1.81-1,4.34-3.24,4.48-1.93.11-1.71-2.41-2.38-3.77-2-3.93-5-5-8.87-3.32a16,16,0,0,0-4.5,2.88,94.85,94.85,0,0,0-23.83,35.88,13.87,13.87,0,0,0-.83,4.19c-.16,2.66,1.39,3.34,3.33,2a40.91,40.91,0,0,0,7.25-6.31c6-6.92,11.67-14,17.43-21.11,3.87-4.74,7.5-5.84,11.46-3.34,4.14,2.61,5,6.82,2.6,12.26-2.05,4.56-5,8.74-6.12,13.69-.66,2.95-1.42,6.3,1.42,8.48,2.65,2,5.85.89,8-.79,11.31-8.67,22.77-17.22,26.88-32.08a528.83,528.83,0,0,1,38.65-98.77c3.1-6.11,6.87-11.72,12.19-16.18,2.51-2.1,5.25-3.15,8.42-1.79s4.52,3.92,4.84,7.17A54.69,54.69,0,0,1,238.68,121c-6.76,22.56-18.35,42.33-32.38,61.27C196.68,195.26,195,212.14,191.39,227.86Zm14.43-52.76a15.22,15.22,0,0,0,2.53-1.71c13-17.92,22.87-37.37,28.49-58.85a12.51,12.51,0,0,0-.63-8.6Z"/>
    <path class="cls-2" d="M965.27,232.49c-3.81,3.36-6.95,7.22-10.66,10.56a53.75,53.75,0,0,1-17.62,11c-9,3.26-16.5.24-20.23-8.53-1.36-3.22-2.31-3.82-5-1.41A26.65,26.65,0,0,1,900.37,250c-11.1,2.74-20.49-5.52-18.39-16.71,2.77-14.81,8.36-28.46,18.67-39.82a34.15,34.15,0,0,1,20.24-11.24c5.6-.91,10.71.27,14.77,4.51,2.69,2.81,3.66,6.12,2.24,9.87-.62,1.64-1,3.93-3,4.1s-1.81-2.29-2.46-3.61c-2.05-4.21-5.19-5.14-9.32-3.33a20.74,20.74,0,0,0-6.39,4.81,102.38,102.38,0,0,0-20.62,31.15,19.53,19.53,0,0,0-1.23,3.54c-.41,1.87-1.59,4.27.22,5.52s3.64-.74,5.07-2c7.35-6.37,13.05-14.21,19.11-21.73,1.35-1.67,2.64-3.38,4-5.07,2.83-3.59,6.38-4.74,10.36-2.27s5.4,6.19,3.48,10.65c-1.85,4.27-4.21,8.32-5.92,12.63-1.43,3.64-3.1,8.12.46,11s7.55.07,10.73-2.14c7.42-5.16,12.68-12.57,19-18.81,7.37-7.2,11.67-15.67,14.77-25.46a256.35,256.35,0,0,1,30-63.9c2-3,4.07-5.91,7.12-7.93a7.85,7.85,0,0,1,8.17-.47c2.62,1.32,2.36,3.82,2.48,6.48,1.45,32.95-14.48,59-32.94,84.15-4.24,5.77-4.27,5.8,2.91,7a98.88,98.88,0,0,0,21.41.86c3-.14,4.32-1.19,5.05-4.19a50.37,50.37,0,0,1,10.34-21c5.16-6.09,11.44-10.28,19.63-10.87,7.39-.54,12.23,4.86,11.08,12.15a25.51,25.51,0,0,1-9.37,16.37q-6.23,5.1-12.21,10.48a23.82,23.82,0,0,0-6,7.54c-1.35,2.88-1.71,6,.14,8.72s4.85,2.83,7.77,2.36a36.59,36.59,0,0,0,16.94-7.62c8.31-6.53,15.82-14,23.54-21.16,1.05-1,2.06-2,3.16-2.91s2.65-1.8,3.93-1c1.9,1.23,0,2.65-.58,3.57-10.3,15.51-22.42,29.22-39.22,38a23.09,23.09,0,0,1-9.79,2.57c-13.77.59-21.43-6.22-21.47-20,0-5.26-1-6.82-6.47-5.41s-11.07,1-16.55,0c-3.59-.68-4.27.09-3.7,3.71a139.24,139.24,0,0,1-.61,49.11,47.19,47.19,0,0,1-7.12,17.24c-5.1,7.6-18.09,8.54-22-2.64-4.54-13-2.86-25.82-1.37-38.74C961.56,249.6,963.66,241.07,965.27,232.49Zm54.06-93.13c-12.7,20.13-20.88,42.29-28.29,64.79C1005.82,185,1014.87,163.21,1019.33,139.36Zm-38,95c-3.57,14.17-7.21,28.34-7.19,43.09,0,1.36-.52,3.38,1.19,3.71s2.7-1.6,3.23-3.06C983.71,263.84,983.69,249.22,981.36,234.36ZM1053,195.19c-7.67,3.21-12.29,7.29-13.79,15.8C1045,206.26,1050.33,202.9,1053,195.19Z"/>
    <path class="cls-2" d="M548.62,219.51c-3.61,4.33-6.18,7.44-8.78,10.54-4.39,5.24-9.14,10.1-15.25,13.34-9.62,5.1-17.48,2.1-21.4-8.11-1.78-.07-2.16,1.6-3,2.56-6.36,7-13.54,12.77-22.46,16.14-9.23,3.48-16.67.48-20.61-8.62-1.26-2.91-2.14-3.63-4.72-1.38a27.64,27.64,0,0,1-11.82,6.1c-10.91,2.61-20.23-5.53-18.22-16.42,2.76-15,8.37-28.82,18.85-40.3a34.26,34.26,0,0,1,20.3-11.13c5.19-.84,10,.22,14,3.89,3,2.77,4.31,6.17,3,10.19-.6,1.8-1,4.33-3.27,4.45-2,.11-1.69-2.42-2.36-3.77-2-3.94-5-5-8.87-3.28a16.52,16.52,0,0,0-4.49,2.87,92.71,92.71,0,0,0-23.81,35.88c-.78,2.07-2.24,5,.05,6.35s4.19-1.29,5.82-2.79c8.35-7.66,14.95-16.84,21.94-25.68,2.16-2.74,4.77-4.41,8.34-3.55a8.43,8.43,0,0,1,6.39,6.56c.65,2.44-.34,4.56-1.34,6.68-1.9,4-4,8-5.59,12.17-1.27,3.34-2.46,7.38.89,10s6.89.17,9.88-1.7a35.17,35.17,0,0,0,6.63-5.41c8.57-8.87,17.16-17.7,24.23-27.91,6-8.69,14.15-14.58,24.88-16.31,4.37-.71,8.92-.58,12.47,1.88,4,2.81,4.84.58,6.27-2.42,7.95-16.62,16.12-33.13,25.17-49.2A338.82,338.82,0,0,1,610,98.14c2.46-3.13,4.89-7.73,9.64-6.24s4.68,6.69,5.19,10.93c1.39,11.52-3.06,21.85-7,32.16-10.92,28.38-26.72,54.18-43.27,79.5-5,7.63-6.56,15.75-6.54,24.42,0,9.81,3.42,12,12.35,8.2,10.68-4.57,19.43-12,27.91-19.72,1.14-1,2.2-3.54,4.27-1.45,1.83,1.85,1.46,4-.45,5.64-11.44,10-22.23,20.84-35.77,28.15-18,9.72-27.9,4.26-29.41-16.18C546.36,236.06,547.48,228.63,548.62,219.51Zm27.76-15.46c15.27-26.17,32.33-51.45,40.31-81.24A328.88,328.88,0,0,0,576.38,204.05Zm-26.2,1.71c-11.93-4.34-30.93,10.2-29.62,22.24Z"/>
    <path class="cls-2" d="M869,113.74c-5.11,2.72-9,4.64-12.81,6.86-28,16.56-52.38,36.94-67.55,66.48-7.48,14.56-11.59,30-9.18,46.62,2.21,15.29,10.54,20.64,25.38,15.87,9-2.89,16.77-8,24.19-13.65,17.89-13.65,33.32-29.78,47.24-47.4,1.07-1.36,2-3.42,4.15-2.62s2.26,3,2.13,5a39.64,39.64,0,0,1-4.87,17.44c-14.42,25-35.18,43-62.32,52.39-29.42,10.21-52.8-8.58-52.34-41.08a104.59,104.59,0,0,1,14.65-52.15c19.56-33.21,47.84-56,84.25-68.71,3.41-1.19,6.82-2.2,10.46-.87,1.85.68,3.42-.37,5.11-1,4.9-1.78,9,.66,9.86,5.83.65,3.8-.08,7.47-1.18,11.11-4.26,14.2-10.77,27.7-13,42.55-.4,2.7-2,5.46-5,5.51-2.82,0-4.19-2.63-5-5-4.33-13.2-3.52-26.06,2.93-38.46C866.75,117.28,867.53,116.15,869,113.74Z"/>
    <path class="cls-2" d="M0,109.06c4.3-1.11,7.32.29,10.39,1,26.79,6.68,53.46,6.93,80-1.39a73.06,73.06,0,0,0,21.47-10.83c2.77-2,5.33-4.19,6.65-7.53,1.54-3.93,4-3.49,6.62-1.12,4,3.59,5.62,11.25,3.5,16.92-3.54,9.46-11,14.68-19.87,18.4-10,4.23-20.76,5.94-31.45,6.14-9.91.19-16.18,3.15-19.13,13.3-2.18,7.48-6,14.51-9.46,21.59-1.64,3.4-1,4.28,2.66,4.25,11.64-.09,23.25-.68,34.86-1.46,5.18-.34,10.36-.77,15.54-.83,6.87-.07,8.25,2.1,5.62,8.64-2.58,6.38-6.38,10.73-14.29,10.6-15.92-.26-31.85.22-47.77.18-3.39,0-5,1.08-6.24,4.29-8.19,21-11.82,43.08-14.68,65.29-.28,2.13-.59,4.26-.87,6.39-.23,1.77-.2,3.83-2.46,4.24-2,.35-3.41-1-4.54-2.38-4.11-5.1-5-11.33-5.94-17.54C7.83,229,12,211.7,17.53,194.54c2-6.3,1.88-6.25-4.56-7.42-3.27-.6-7.61-.68-8.33-4.55C4,179.24,8,177.93,10.4,176.23a24.88,24.88,0,0,1,11.81-4.87c3.39-.35,4.9-2.14,6.2-5,5.15-11.21,8.94-23.06,15.6-33.55,2.1-3.29-.86-3.12-2.45-3.56-8.8-2.43-17.54-5-25.83-8.92A49.55,49.55,0,0,1,0,109.06Z"/>
    <path class="cls-2" d="M367.45,215.44c2.55-3.36,5.08-6.75,7.67-10.09,5.82-7.54,12.15-14.55,20.49-19.43,7.56-4.43,14.18-4.63,18.4-.6,5.36,5.12,6.37,14.12,2.49,21.28a79.31,79.31,0,0,0-4.47,9.12c-1.78,4.65-2.47,9.38,1.31,13.6,1.72,1.92,1.12,3.13-1.19,3.85a11,11,0,0,1-13.16-5.5c-3.84-7.47-2.8-14.94.32-22.27,1.58-3.73,3.63-7.26,6-12A48.9,48.9,0,0,0,391,203.71c-9.5,9.6-16.75,20.87-24,32.15-4,6.16-8,12.26-12.09,18.35-1.25,1.88-2.78,3.42-5.32,2.27a4.61,4.61,0,0,1-2.84-5.26c.51-3,1.53-5.86,2.14-8.83,2.94-14.17,5.81-28.35,8.72-42.52a22,22,0,0,1,1.24-4.65c1.3-2.89,3.9-3.47,6.75-3.12s3.83,2.24,4,4.84C370.09,203.13,367.77,208.85,367.45,215.44Z"/>
    <path class="cls-1" d="M370.18,316.41c-2.92,8.44-5.67,16.43-8.44,24.4-1.4,4.05-2.82,8.1-4.29,12.13-1,2.66-1.6,5.73-5.32,5.85s-4.49-2.94-5.42-5.64c-3.86-11.14-8.34-22.07-11.47-33.47-.27-1-.27-2.13-1.59-2.81-1.33,1.37-.64,3-.63,4.45.06,10.37.25,20.73.24,31.1,0,3,.24,6.51-4.39,6.43-4.22-.07-4.16-3.3-4.18-6.14q-.1-22.53,0-45c0-3.7.57-7.25,5.36-8s7.48,1.23,9,5.63c3.85,11.52,7.79,23,11.72,34.51.38,1.11,0,2.59,2,3.44,2.65-7.89,5.26-15.74,7.9-23.57q2.49-7.35,5.07-14.69c1.56-4.45,4.87-6,9.31-5.19s4.79,4.22,4.8,7.78q0,22.26,0,44.52c0,.71,0,1.43-.08,2.14-.16,2.61-1.18,4.48-4.12,4.63-3.33.17-4.46-1.87-4.48-4.71-.08-10.72,0-21.45-.12-32.17C371,320.37,371.8,318.58,370.18,316.41Z"/>
    <path class="cls-1" d="M681.66,328.18c7.38,4.93,9.5,10.35,7.42,18.49-1.72,6.7-6.62,10.77-14.54,11.27-7.3.45-14.63.32-21.95.47-3.4.07-4.73-1.55-4.72-4.93q.12-24.12,0-48.24c0-3.43,1.43-4.91,4.78-4.88,6.43.07,12.86,0,19.29.12s12.54,1.63,15.17,8.68S688,322.07,681.66,328.18Zm-23.94,13c.19,10.31-1.47,9,9.09,9.14a32.93,32.93,0,0,0,5.88-.28c4.82-.83,7.26-4.09,7.11-9.16s-2.77-7.6-7.6-8c-3-.24-6.09,0-9.1-.29-4.18-.44-6.05,1.06-5.39,5.37A21.49,21.49,0,0,1,657.72,341.17Zm9.52-16.29c.34,0,2,0,3.54-.18,5.32-.59,7.82-3.32,7.68-8.32s-2.88-7.39-7.64-7.91c-12.79-1.42-13.49-.78-13.09,11.9a3.13,3.13,0,0,1,0,.53c-.34,3,1,4.27,4,4C663.12,324.78,664.55,324.88,667.24,324.88Z"/>
    <path class="cls-1" d="M598.89,300.62c3.39,0,6.81-.23,10.18,0,10.81.88,16.68,6.1,18.69,16.67,1.65,8.7,1.86,17.45-.53,26.08-2.51,9-7.92,13.5-17.16,14.48-7.14.76-14.3.55-21.46.49-3.33,0-4.7-1.34-4.67-4.85q.21-24.16,0-48.33c0-3.47,1.37-4.92,4.73-4.86s6.8,0,10.21,0Zm-5.23,28.49V339.3c0,12.3.1,12.39,12.49,10.83,7-.89,10.12-3.7,11.67-10.54a50.53,50.53,0,0,0,.79-13.33c-.61-14.58-7.64-20.15-22.19-17.9-2.46.38-2.79,1.61-2.77,3.6C593.69,317.68,593.66,323.4,593.66,329.11Z"/>
    <path class="cls-1" d="M711.41,156.78c.79-28.62,5.48-54.68,15.7-79.64a55.54,55.54,0,0,0,4-12.74c.62-4.15.23-7.88-4.39-9.8-1.88-.79-3.73-2.38-2.78-4.53,1.14-2.61,3.51-.8,5.15-.32,5.36,1.56,7.74,5.66,7.21,12.18-.58,7-3.31,13.5-5.63,20.07-8.21,23.24-13.46,47-13.79,71.8-.35,27,7.67,51.37,22.42,73.73,6.41,9.72,13.87,18.63,21.41,27.48a36,36,0,0,1,3.28,4.23c.73,1.16,1.66,2.61.3,3.89s-2.69.3-3.84-.55a24.72,24.72,0,0,1-3.26-2.77c-23.18-24.59-40.46-52.26-44.71-86.59C711.77,167.2,711.69,161.1,711.41,156.78Z"/>
    <path class="cls-1" d="M477.32,329c0-7.86.1-15.73-.05-23.59-.07-3.67,1.43-5.14,5.06-5.1,9.29.1,18.58,0,27.88,0,2.79,0,5.07.68,5,4.11s-2.47,4-5.2,4c-6.08,0-12.16.15-18.23,0-3.29-.1-4.73.72-4.78,4.43-.15,11.77-.31,11.77,11.31,11.77,3.58,0,7.15,0,10.73.08,2.54.05,4,1.37,4,4s-1.51,4-4,4c-5.9.12-11.8.23-17.69.08-3.18-.08-4.31.91-4.39,4.25-.32,13.26-.44,13.26,12.55,13.26q6.16,0,12.33,0c2.71,0,4.51,1.13,4.51,4.09,0,2.74-1.82,3.8-4.21,3.82q-15.55.15-31.09.13c-3.56,0-3.76-2.54-3.76-5.2Q477.35,341.08,477.32,329Z"/>
    <path class="cls-1" d="M304,324.46c0,5.36.05,10.72,0,16.08-.13,11.92-5.22,17.61-17.16,19.1A32.51,32.51,0,0,1,272,358c-5.75-2-9.52-5.86-10.11-12-1.35-13.89-.56-27.84-.46-41.76,0-3,1.7-4.57,4.8-4.53,3.45.06,4.74,2.07,4.74,5.18,0,8.94-.06,17.87-.07,26.8,0,2.5,0,5,.18,7.5.52,8.48,4.39,12.2,12.41,12,7.56-.2,11.2-4,11.33-12.48.17-10.89.05-21.8.1-32.69,0-2.3-.19-4.78,2.53-6,3.38-1.47,6.32.44,6.43,4.54.19,6.6.05,13.22.05,19.83Z"/>
    <path class="cls-1" d="M859.44,324.48c5.8-6.45,11.57-12.93,17.41-19.34a27.62,27.62,0,0,1,5.07-4.73c1.85-1.2,4.16-1.41,5.87.52s.67,3.78-.67,5.28c-4.26,4.82-8.31,9.9-13.08,14.18-4.11,3.69-3.45,6.28-.32,10.09,5.21,6.35,9.93,13.1,14.74,19.77,1.71,2.39,4.43,5.28,1,7.89s-6.44.43-8.62-2.57c-4.52-6.22-8.86-12.56-13.42-18.74-1.18-1.59-2-4.94-4.18-4a7.56,7.56,0,0,0-5,7c0,4.65,0,9.3,0,13.95,0,3-.8,5.33-4.37,5.42s-4.68-2-4.68-5.1q0-24.67-.09-49.34c0-3.2,1.3-5.08,4.77-5,3.28,0,4.32,1.95,4.32,4.86q0,9.78,0,19.55Z"/>
    <path class="cls-1" d="M222,358.44c-4.83,0-9.66.08-14.49,0-6.94-.14-9-3.89-5.06-9.75,7.69-11.42,15.66-22.65,23.44-34,1.18-1.72,3.82-3.6,3-5.29-1.06-2.25-4.14-.86-6.32-.94-5.18-.17-10.37-.07-15.56-.06-2.86,0-5-.92-5-4.17s2.34-3.75,4.83-3.76c10-.07,20-.19,30,0,4.45.07,6.16,2.64,4.69,6.83a29,29,0,0,1-3.64,6.51c-7.48,10.91-15,21.76-22.55,32.66-.67,1-2.12,1.81-1.43,3.19s2.24.7,3.39.71c6.8.06,13.59,0,20.39,0,2.86,0,5.63.37,5.67,4.07,0,3.51-2.78,3.84-5.3,3.91-5.36.15-10.73.05-16.09.05Z"/>
    <path class="cls-1" d="M787.9,329.15a43.11,43.11,0,0,1,2.46-16.32c5.57-14.63,26.95-18.49,37.3-6.69a19.59,19.59,0,0,1,3.08,5,3.94,3.94,0,0,1-1.88,5.48c-2,1.08-4.12,1.17-5.93-.6a6,6,0,0,1-1-1.25c-3.24-5.53-7.81-8.35-14.31-6.57s-8.31,7.23-9.23,13.13a53.75,53.75,0,0,0,.53,19.18c1.31,6.39,4.81,9.74,10.57,10.53,6,.83,10.31-1.59,13.21-7.67,1.38-2.89,2.72-5.88,6.67-4.18,4.32,1.85,2.7,5.31,1.56,8.25-3,7.68-10.68,12.37-20.3,12.12-8.77-.22-16.12-3.22-19.81-12C788.34,341.66,787.79,335.45,787.9,329.15Z"/>
    <path class="cls-1" d="M998.07,323.64h83.72c1.43,0,2.87,0,4.29.11a2.38,2.38,0,1,1-.08,4.76c-1.43.13-2.86.1-4.29.1H914.82c-.54,0-1.08,0-1.61,0-2.06-.12-5,.52-5-2.51s3-2.45,5.07-2.46Z"/>
    <path class="cls-1" d="M92.13,328.63H9.49a38.63,38.63,0,0,1-4.82-.15,2.35,2.35,0,0,1,0-4.68A24.38,24.38,0,0,1,9,323.65H176.43l3.22,0c1.6,0,3,.64,3.16,2.26.18,2.06-1.45,2.62-3.21,2.68-1.25,0-2.51,0-3.76,0Z"/>
    <path class="cls-1" d="M425.36,329.07c0-7.68.1-15.37-.05-23.05-.07-3.72,1.12-5.72,5.15-5.69,8.4.06,16.79-.07,25.19-.05,2.73,0,5,.77,5,4.19s-2.29,4-5.06,4l-15,0c-1.07,0-2.5-.39-3.16.15-4.89,4-1.32,9.47-2.28,14.2-.52,2.57,1.19,3.34,3.56,3.31,4.64-.07,9.29,0,13.94,0,2.77,0,5.14.78,5.12,4.09s-2.32,4-5.16,3.93c-3.93-.08-7.88.24-11.78-.08-4.34-.35-6.2,1-5.84,5.6s0,9.29,0,13.93c0,3.4-1.37,5.53-5,5.43-3.49-.09-4.53-2.4-4.54-5.41,0-8.22,0-16.44,0-24.66Z"/>
    <path class="cls-1" d="M708,329.32c0-7.68,0-15.35,0-23,0-3.4.31-6.61,4.94-6.65,4.84,0,4.78,3.49,4.8,6.71.08,12.84.22,25.7,0,38.54-.09,4.36,1.4,5.62,5.52,5.38,4.8-.29,9.64,0,14.45,0,2.67,0,4.65.94,4.7,3.89s-1.88,4.14-4.51,4.16q-12.85.14-25.7.08c-3.21,0-4.21-2-4.18-4.95C708.09,345.38,708,337.35,708,329.32Z"/>
    <path class="cls-1" d="M532.91,329.53V305.91c0-3.3.55-6.15,4.8-6.26s4.86,2.88,4.87,6.1c.07,13.06.23,26.13,0,39.19-.09,4.38,1.43,5.6,5.54,5.34,4.63-.29,9.3,0,13.95-.06,2.79,0,5.12.59,5.11,4s-2.4,4.12-5.12,4.14c-8,.07-16.1,0-24.15.06-3.61,0-5.09-1.63-5-5.27C533,345.28,532.91,337.4,532.91,329.53Z"/>
    <path class="cls-1" d="M768.71,329.33c0,7.84,0,15.69,0,23.54,0,3.35-.63,6.24-4.76,6.27s-4.83-2.84-4.83-6.2q0-23.54,0-47.08c0-3.37.68-6.14,4.84-6.21s4.77,2.82,4.76,6.13C768.69,313.63,768.71,321.48,768.71,329.33Z"/>
    <path class="cls-2" d="M1045.3,178.19c6-10.29,14.25-18.27,23.48-25.38a2.61,2.61,0,0,1,3.46,0,3.2,3.2,0,0,1,1.27,3.31,7.12,7.12,0,0,1-.91,2.51C1065.87,168.32,1056,173.75,1045.3,178.19Z"/>
    <path class="cls-1" d="M663.9,85c-2.43-.62-3.9-1.78-3.58-4.14.44-3.26,2.06-5.71,5.62-5.93,1.67-.1,3.56.94,3,2.79C668.11,80.65,667,83.69,663.9,85Z"/>
  </g>
</svg>
