<?xml version="1.0" encoding="UTF-8"?>
<svg id="Ebene_1" data-name="Ebene 1" xmlns="http://www.w3.org/2000/svg" viewBox="0 0 670 19.74">
  <defs>
    <style>
      .cls-1 {
        fill: #cbbba0;
      }
    </style>
  </defs>
  <path class="cls-1" d="M670-34.04H0V13.22c2.16-.54,5.27-1.51,7.47-1.42,1.68.07,3.47,1.28,3.96,1.24.53-.04,7.56-2.88,9.54-3.04,1.27-.1,2.6.6,4.42.35,1.78-.24,3.66-1.85,4.79-1.8,1.68.08,5.18,2.61,6.44,2.59,1.05-.02,1.79-1.17,2.98-1.2,1.81-.05,4.14,1.62,4.91,1.64.9.02,1.92-1.2,3.02-1.03.94.15,1.64,1.73,2.58,1.89.36.06,5.64-1.82,6.2-1.79.84.05,1.83,2.43,4.63,1.89,1.95-3.85,4.07,1.39,6.04,2.33.81.39,6.63,1.83,7.41,1.77,2.03-.18,2.54-2.4,4.78-2.75,2.34-.37,4.4.61,6.66.69l.05-2.71c2.05.43,3.68-1.23,5.14-1.4,2.39-.29,4.93,1.35,6.92,1.18,1.45-.13,3.52-1.77,5.37-2.08,1.44-.24,2.86.42,3.99.12,1.1-.29,1.61-1.55,2.65-1.77,5.6-1.19,15.52,1.99,20.99,3.27.69.16.89,1.9,2.65,1.89,1.11-.01,2.67-1.23,4.33-1.48,2.48-.36,4.47,1.05,6.54.92,1.46-.1,2.62-1.31,3.97-1.32,1.5,0,3.04,1.54,5.52,1.41.32-.02,5.57-1.68,5.85-1.8,1.09-.49,1.79-2.04,2.9-2.23,1.92-.33,5.79,1.53,7.37,2.59.42-3.17,7.18-5.14,10.18-5.14,3.83,0,11.29,2.28,16.16,1.72,2.61-.3,2.15-2.12,6.24.61,4.44-4.09,3-2.1,6.03-.97.43.16,6.18,1.63,6.52,1.59.58-.08,1.27-.87,1.98-1.01,3-.59,5.47-.21,6.84-2.95l6.44,5.36c1.46.19,3.39-2.48,5.32-2.56,5.76-.23,11.65,2.34,15.85,2.62,1.24.09,2.44-.74,3.7-.52,2.63.47,3.57,3.11,8.45.56,2.16-.54,5.27,1.23,7.47,1.32,1.68.07,3.47,1.28,3.96,1.24.53-.04,7.56-2.88,9.54-3.04,1.27-.1,2.6.6,4.42.35,1.78-.24,3.66-1.85,4.79-1.8,1.68.08,5.18,2.61,6.44,2.59,1.05-.02,1.79-1.17,2.98-1.2,1.81-.05,4.14,1.62,4.91,1.64.9.02,1.92-1.2,3.02-1.03.94.15,1.64,1.73,2.58,1.89.36.06,5.64-1.82,6.2-1.79.84.05,1.83,2.43,4.63,1.89,1.95-3.85,4.07,1.39,6.04,2.33.81.39,6.63,1.83,7.41,1.77,2.03-.18,2.54-2.4,4.78-2.75,2.34-.37,4.4.61,6.66.69l.05-2.71c2.05.43,3.68-1.23,5.14-1.4,2.39-.29,4.93,1.35,6.92,1.18,1.45-.13,3.52-1.77,5.37-2.08,1.44-.24,2.86.42,3.99.12,1.1-.29,1.61-1.55,2.65-1.77,5.6-1.19,15.52,1.99,20.99,3.27.69.16.89,1.9,2.65,1.89,1.11-.01,2.67-1.23,4.33-1.48,2.48-.36,4.47,1.05,6.54.92,1.46-.1,2.62-1.31,3.97-1.32,1.5,0,3.04,1.54,5.52,1.41.32-.02,5.57-1.68,5.85-1.8,1.09-.49,1.79-2.04,2.9-2.23,1.92-.33,5.79,1.53,7.37,2.59.42-3.17,7.18-5.14,10.18-5.14,3.83,0,11.29,2.28,16.16,1.72,2.61-.3,2.15-2.12,6.24.61,4.44-4.09,3-2.1,6.03-.97.43.16,6.18,1.63,6.52,1.59.58-.08,1.27-.87,1.98-1.01,3-.59,5.47-.21,6.84-2.95l6.44,5.36c1.46.19,3.39-2.48,5.32-2.56,5.76-.23,11.65,2.34,15.85,2.62,1.24.09,2.44-.74,3.7-.52,2.63.47,3.57,3.11,8.45.56,2.16-.54,5.27,1.23,7.47,1.32,1.68.07,3.47,1.28,3.96,1.24.53-.04,7.56-2.88,9.54-3.04,1.27-.1,2.6.6,4.42.35,1.78-.24,3.66-1.85,4.79-1.8,1.68.08,5.18,2.61,6.44,2.59,1.05-.02,1.79-1.17,2.98-1.2,1.81-.05,4.14,1.62,4.91,1.64.9.02,1.92-1.2,3.02-1.03.94.15,1.64,1.73,2.58,1.89.36.06,5.64-1.82,6.2-1.79.84.05,1.83,2.43,4.63,1.89,1.95-3.85,4.07,1.39,6.04,2.33.81.39,6.63,1.83,7.41,1.77,2.03-.18,2.54-2.4,4.78-2.75,2.34-.37,4.4.61,6.66.69l.05-2.71c2.05.43,3.68-1.23,5.14-1.4,2.39-.29,4.93,1.35,6.92,1.18,1.45-.13,3.52-1.77,5.37-2.08,1.44-.24,2.86.42,3.99.12,1.1-.29,1.61-1.55,2.65-1.77,5.6-1.19,15.52,1.99,20.99,3.27.69.16.89,1.9,2.65,1.89,1.11-.01,2.67-1.23,4.33-1.48,1.68-.24,3.14,1.27,4.56,1.62v-47.27Z"/>
</svg>