<?xml version="1.0" encoding="UTF-8"?>
<svg id="Ebene_1" data-name="Ebene 1" xmlns="http://www.w3.org/2000/svg" viewBox="0 0 822.81 15">
  <defs>
    <style>
      .cls-1 {
        fill: #cbbba0;
      }
    </style>
  </defs>
  <path class="cls-1" d="M738.53-17.87H-1.72V11.13c1.33-.33,3.26-.93,4.62-.87,1.04.04,2.15.79,2.44.76.33-.03,4.67-1.77,5.9-1.86.79-.06,1.61.37,2.73.22,1.1-.15,2.26-1.13,2.96-1.1,1.04.05,3.2,1.6,3.98,1.59.65-.01,1.11-.72,1.84-.74,1.12-.03,2.56,1,3.03,1.01.56.01,1.19-.74,1.86-.63.58.09,1.02,1.06,1.6,1.16.22.04,3.48-1.12,3.83-1.1.52.03,1.13,1.49,2.86,1.16,1.21-2.36,2.51.85,3.73,1.43.5.24,4.1,1.12,4.58,1.08,1.25-.11,1.57-1.47,2.95-1.69,1.45-.23,2.72.37,4.11.42l.03-1.66c1.27.26,2.28-.75,3.18-.86,1.48-.18,3.05.83,4.28.72.9-.08,2.17-1.09,3.32-1.28.89-.15,1.77.26,2.46.07.68-.18.99-.95,1.64-1.09,3.46-.73,9.59,1.22,12.97,2,.42.1.55,1.17,1.64,1.16.69,0,1.65-.76,2.68-.91,1.53-.22,2.76.65,4.04.56.9-.06,1.62-.8,2.45-.81.93,0,1.88.94,3.41.86.2-.01,3.44-1.03,3.62-1.11.67-.3,1.1-1.25,1.79-1.37,1.19-.2,3.58.94,4.56,1.59.26-1.95,4.44-3.15,6.29-3.15,2.37,0,6.98,1.4,9.99,1.05,1.61-.18,1.33-1.3,3.86.38,2.75-2.51,1.85-1.29,3.73-.59.27.1,3.82,1,4.03.97.36-.05.78-.54,1.22-.62,1.85-.36,3.38-.13,4.23-1.81l3.98,3.29c.9.12,2.1-1.52,3.29-1.57,3.56-.14,7.2,1.43,9.8,1.61.77.05,1.51-.45,2.29-.32,1.63.29,2.21,1.91,5.22.34,1.33-.33,3.26.75,4.62.81,1.04.04,2.15.79,2.44.76.33-.03,4.67-1.77,5.9-1.86.79-.06,1.61.37,2.73.22,1.1-.15,2.26-1.13,2.96-1.1,1.04.05,3.2,1.6,3.98,1.59.65-.01,1.11-.72,1.84-.74,1.12-.03,2.56,1,3.03,1.01.56.01,1.19-.74,1.86-.63.58.09,1.02,1.06,1.6,1.16.22.04,3.48-1.12,3.83-1.1.52.03,1.13,1.49,2.86,1.16,1.21-2.36,2.51.85,3.73,1.43.5.24,4.1,1.12,4.58,1.08,1.25-.11,1.57-1.47,2.95-1.69,1.45-.23,2.72.37,4.11.42l.03-1.66c1.27.26,2.28-.75,3.18-.86,1.48-.18,3.05.83,4.28.72.9-.08,2.17-1.09,3.32-1.28.89-.15,1.77.26,2.46.07.68-.18.99-.95,1.64-1.09,3.46-.73,9.59,1.22,12.97,2,.42.1.55,1.17,1.64,1.16.69,0,1.65-.76,2.68-.91,1.53-.22,2.76.65,4.04.56.9-.06,1.62-.8,2.45-.81.93,0,1.88.94,3.41.86.2-.01,3.44-1.03,3.62-1.11.67-.3,1.1-1.25,1.79-1.37,1.19-.2,3.58.94,4.56,1.59.26-1.95,4.44-3.15,6.29-3.15,2.37,0,6.98,1.4,9.99,1.05,1.61-.18,1.33-1.3,3.86.38,2.75-2.51,1.85-1.29,3.73-.59.27.1,3.82,1,4.03.97.36-.05.78-.54,1.22-.62,1.85-.36,3.38-.13,4.23-1.81l3.98,3.29c.9.12,2.1-1.52,3.29-1.57,3.56-.14,7.2,1.43,9.8,1.61.77.05,1.51-.45,2.29-.32,1.63.29,2.21,1.91,5.22.34,1.33-.33,3.26.75,4.62.81,1.04.04,2.15.79,2.44.76.33-.03,4.67-1.77,5.9-1.86.79-.06,1.61.37,2.73.22,1.1-.15,2.26-1.13,2.96-1.1,1.04.05,3.2,1.6,3.98,1.59.65-.01,1.11-.72,1.84-.74,1.12-.03,2.56,1,3.03,1.01.56.01,1.19-.74,1.86-.63.58.09,1.02,1.06,1.6,1.16.22.04,3.48-1.12,3.83-1.1.52.03,1.13,1.49,2.86,1.16,1.21-2.36,2.51.85,3.73,1.43.5.24,4.1,1.12,4.58,1.08,1.25-.11,1.57-1.47,2.95-1.69,1.45-.23,2.72.37,4.11.42l.03-1.66c1.27.26,2.27-.75,3.18-.86,1.48-.18,3.05.83,4.28.72.9-.08,2.18-1.09,3.32-1.28.89-.15,1.77.26,2.46.07.68-.18.99-.95,1.64-1.09,3.46-.73,9.59,1.22,12.97,2,.42.1.55,1.17,1.64,1.16.69,0,1.65-.76,2.68-.91,1.04-.15,1.94.78,2.82.99,1.33-.33,3.26-.93,4.62-.87,1.04.04,2.15.79,2.44.76.33-.03,4.67-1.77,5.9-1.86.79-.06,1.61.37,2.73.22,1.1-.15,2.26-1.13,2.96-1.1,1.04.05,3.2,1.6,3.98,1.59.65-.01,1.11-.72,1.84-.74,1.12-.03,2.56,1,3.03,1.01.56.01,1.19-.74,1.86-.63.58.09,1.02,1.06,1.6,1.16.22.04,3.48-1.12,3.83-1.1.52.03,1.13,1.49,2.86,1.16,1.21-2.36,2.51.85,3.73,1.43.5.24,4.1,1.12,4.58,1.08,1.25-.11,1.57-1.47,2.95-1.69,1.45-.23,2.72.37,4.11.42l.03-1.66c1.27.26,2.27-.75,3.18-.86,1.48-.18,3.05.83,4.28.72.9-.08,2.18-1.09,3.32-1.28.89-.15,1.77.26,2.46.07.68-.18.99-.95,1.64-1.09,3.46-.73,9.59,1.22,12.97,2,.42.1.55,1.17,1.64,1.16.69,0,1.65-.76,2.68-.91,1.53-.22,2.76.65,4.04.56.9-.06,1.62-.8,2.45-.81.93,0,1.88.94,3.41.86.2-.01,3.44-1.03,3.62-1.11.67-.3,1.1-1.25,1.79-1.37,1.19-.2,3.58.94,4.56,1.59.26-1.95,4.44-3.15,6.29-3.15,2.37,0,6.98,1.4,9.99,1.05,1.61-.18,1.33-1.3,3.86.38,2.75-2.51,1.85-1.29,3.73-.59.27.1,3.82,1,4.03.97.36-.05.78-.54,1.22-.62,1.85-.36,3.38-.13,4.23-1.81l3.98,3.29c.9.12,2.1-1.52,3.29-1.57,3.56-.14,7.2,1.43,9.8,1.61.77.05,1.51-.45,2.29-.32,1.63.29,2.21,1.91,5.22.34,1.33-.33,3.26.75,4.62.81,1.04.04,2.15.79,2.44.76.33-.03,4.67-1.77,5.9-1.86.79-.06,1.61.37,2.73.22,1.1-.15,2.26-1.13,2.96-1.1,1.04.05,3.2,1.6,3.98,1.59.65-.01,1.11-.72,1.84-.74,1.12-.03,2.56,1,3.03,1.01.56.01,1.19-.74,1.86-.63.58.09,1.02,1.06,1.6,1.16.22.04,3.48-1.12,3.83-1.1.52.03,1.13,1.49,2.86,1.16,1.21-2.36,2.51.85,3.73,1.43.5.24,4.1,1.12,4.58,1.08,1.25-.11,1.57-1.47,2.95-1.69,1.45-.23,2.72.37,4.11.42l.03-1.66c1.27.26,2.28-.75,3.18-.86,1.48-.18,3.05.83,4.28.72.9-.08,2.17-1.09,3.32-1.28.89-.15,1.77.26,2.46.07.68-.18.99-.95,1.64-1.09,3.46-.73,9.59,1.22,12.97,2,.42.1.55,1.17,1.64,1.16.69,0,1.65-.76,2.68-.91,1.53-.22,2.76.65,4.04.56.9-.06,1.62-.8,2.45-.81.93,0,1.88.94,3.41.86.2-.01,3.44-1.03,3.62-1.11.67-.3,1.1-1.25,1.79-1.37,1.19-.2,3.58.94,4.56,1.59.26-1.95,4.44-3.15,6.29-3.15,2.37,0,6.98,1.4,9.99,1.05,1.61-.18,1.33-1.3,3.86.38,2.75-2.51,1.85-1.29,3.73-.59.27.1,3.82,1,4.03.97.36-.05.78-.54,1.22-.62,1.85-.36,3.38-.13,4.23-1.81l3.98,3.29c.9.12,2.1-1.52,3.29-1.57,3.56-.14,7.2,1.43,9.8,1.61.77.05,1.51-.45,2.29-.32,1.63.29,2.21,1.91,5.22.34,1.33-.33,3.26.75,4.62.81,1.04.04,2.15.79,2.44.76.33-.03,4.67-1.77,5.9-1.86.79-.06,1.61.37,2.73.22,1.1-.15,2.26-1.13,2.96-1.1,1.04.05,3.2,1.6,3.98,1.59.65-.01,1.11-.72,1.84-.74,1.12-.03,2.56,1,3.03,1.01.56.01,1.19-.74,1.86-.63.58.09,1.02,1.06,1.6,1.16.22.04,3.48-1.12,3.83-1.1.52.03,1.13,1.49,2.86,1.16,1.21-2.36,2.51.85,3.73,1.43.5.24,4.1,1.12,4.58,1.08,1.25-.11,1.57-1.47,2.95-1.69,1.45-.23,2.72.37,4.11.42l.03-1.66c1.27.26,2.27-.75,3.18-.86,1.48-.18,3.05.83,4.28.72.9-.08,2.18-1.09,3.32-1.28.89-.15,1.77.26,2.46.07.68-.18.99-.95,1.64-1.09,3.46-.73,9.59,1.22,12.97,2,.42.1.55,1.17,1.64,1.16.69,0,1.65-.76,2.68-.91,1.04-.15,1.94.78,2.82.99v-29h-88.06Z"/>
</svg>