<?xml version="1.0" encoding="UTF-8"?>
<svg id="Ebene_1" data-name="Ebene 1" xmlns="http://www.w3.org/2000/svg" viewBox="0 0 675.06 50.71">
  <defs>
    <style>
      .cls-1 {
        fill: #cbbba0;
      }
    </style>
  </defs>
  <path class="cls-1" d="M675.06,0H0v47.27c2.17-.54,5.31-1.51,7.53-1.42,1.7.07,3.5,1.28,3.99,1.24.54-.04,7.62-2.88,9.61-3.04,1.28-.1,2.62.6,4.45.35,1.79-.24,3.68-1.85,4.83-1.8,1.69.08,5.22,2.61,6.49,2.59,1.06-.02,1.81-1.17,3.01-1.2,1.82-.05,4.17,1.62,4.94,1.64.91.02,1.94-1.2,3.04-1.03.95.15,1.66,1.73,2.6,1.89.36.06,5.68-1.82,6.25-1.79.84.05,1.84,2.43,4.66,1.89,1.97-3.85,4.1,1.39,6.08,2.33.82.39,6.68,1.83,7.47,1.77,2.04-.18,2.56-2.4,4.81-2.75,2.36-.37,4.44.61,6.71.69l.05-2.71c2.07.43,3.71-1.23,5.18-1.4,2.41-.29,4.97,1.35,6.97,1.18,1.46-.13,3.55-1.77,5.42-2.08,1.45-.24,2.88.42,4.02.12,1.11-.29,1.62-1.55,2.67-1.77,5.64-1.19,15.63,1.99,21.15,3.27.69.16.89,1.9,2.67,1.89,1.12-.01,2.69-1.23,4.37-1.48,2.49-.36,4.5,1.05,6.59.92,1.47-.1,2.64-1.31,4-1.32,1.51,0,3.07,1.54,5.56,1.41.32-.02,5.61-1.68,5.9-1.8,1.1-.49,1.8-2.04,2.92-2.23,1.93-.33,5.83,1.53,7.43,2.59.42-3.17,7.24-5.14,10.26-5.14,3.86,0,11.38,2.28,16.29,1.72,2.63-.3,2.16-2.12,6.29.61,4.48-4.09,3.02-2.1,6.08-.97.43.16,6.23,1.63,6.56,1.59.58-.08,1.28-.87,2-1.01,3.02-.59,5.51-.21,6.89-2.95l6.49,5.36c1.47.19,3.42-2.48,5.36-2.56,5.81-.23,11.74,2.34,15.97,2.62,1.25.09,2.46-.74,3.73-.52,2.65.47,3.6,3.11,8.51.56,2.17-.54,5.31,1.23,7.53,1.32,1.7.07,3.5,1.28,3.99,1.24.54-.04,7.62-2.88,9.61-3.04,1.28-.1,2.62.6,4.45.35,1.79-.24,3.68-1.85,4.83-1.8,1.69.08,5.22,2.61,6.49,2.59,1.06-.02,1.81-1.17,3.01-1.2,1.82-.05,4.17,1.62,4.94,1.64.91.02,1.94-1.2,3.04-1.03.95.15,1.66,1.73,2.6,1.89.36.06,5.68-1.82,6.25-1.79.84.05,1.84,2.43,4.66,1.89,1.97-3.85,4.1,1.39,6.08,2.33.82.39,6.68,1.83,7.47,1.77,2.04-.18,2.56-2.4,4.81-2.75,2.36-.37,4.44.61,6.71.69l.05-2.71c2.07.43,3.71-1.23,5.18-1.4,2.41-.29,4.97,1.35,6.97,1.18,1.46-.13,3.55-1.77,5.42-2.08,1.45-.24,2.88.42,4.02.12,1.11-.29,1.62-1.55,2.67-1.77,5.64-1.19,15.63,1.99,21.15,3.27.69.16.89,1.9,2.67,1.89,1.12-.01,2.69-1.23,4.37-1.48,2.49-.36,4.5,1.05,6.59.92,1.47-.1,2.64-1.31,4-1.32,1.51,0,3.07,1.54,5.56,1.41.32-.02,5.61-1.68,5.9-1.8,1.1-.49,1.8-2.04,2.92-2.23,1.93-.33,5.83,1.53,7.43,2.59.42-3.17,7.24-5.14,10.26-5.14,3.86,0,11.38,2.28,16.29,1.72,2.63-.3,2.16-2.12,6.29.61,4.48-4.09,3.02-2.1,6.08-.97.43.16,6.23,1.63,6.56,1.59.58-.08,1.28-.87,2-1.01,3.02-.59,5.51-.21,6.89-2.95l6.49,5.36c1.47.19,3.42-2.48,5.36-2.56,5.81-.23,11.74,2.34,15.97,2.62,1.25.09,2.46-.74,3.73-.52,2.65.47,3.6,3.11,8.51.56,2.17-.54,5.31,1.23,7.53,1.32,1.7.07,3.5,1.28,3.99,1.24.54-.04,7.62-2.88,9.61-3.04,1.28-.1,2.62.6,4.45.35,1.79-.24,3.68-1.85,4.83-1.8,1.69.08,5.22,2.61,6.49,2.59,1.06-.02,1.81-1.17,3.01-1.2,1.82-.05,4.17,1.62,4.94,1.64.91.02,1.94-1.2,3.04-1.03.95.15,1.66,1.73,2.6,1.89.36.06,5.68-1.82,6.25-1.79.84.05,1.84,2.43,4.66,1.89,1.97-3.85,4.1,1.39,6.08,2.33.82.39,6.68,1.83,7.47,1.77,2.04-.18,2.56-2.4,4.81-2.75,2.36-.37,4.44.61,6.71.69l.05-2.71c2.07.43,3.71-1.23,5.18-1.4,2.41-.29,4.97,1.35,6.97,1.18,1.46-.13,3.55-1.77,5.42-2.08,1.45-.24,2.88.42,4.02.12,1.11-.29,1.62-1.55,2.67-1.77,5.64-1.19,15.63,1.99,21.15,3.27.69.16.89,1.9,2.67,1.89,1.12-.01,2.69-1.23,4.37-1.48,1.7-.24,3.17,1.27,4.59,1.62V0Z"/>
</svg>